<?xml version="1.0" encoding="utf-8"?>
<!-- Generator: Adobe Illustrator 19.0.0, SVG Export Plug-In . SVG Version: 6.00 Build 0)  -->
<svg version="1.1" id="Layer_1" xmlns="http://www.w3.org/2000/svg" xmlns:xlink="http://www.w3.org/1999/xlink" x="0px" y="0px"
	 viewBox="0 0 1400 980" style="enable-background:new 0 0 1400 980;" xml:space="preserve">
<style type="text/css">
	.st0{fill:url(#XMLID_2_);}
	.st1{fill:url(#XMLID_3_);}
	.st2{opacity:0.8;fill:url(#XMLID_4_);}
	.st3{opacity:0.1;}
	.st4{fill:#EECBCB;}
	.st5{fill:#DC4B52;}
	.st6{fill:#C04350;}
	.st7{fill:#CE464C;}
	.st8{fill:#A44059;}
	.st9{fill:#AF4357;}
	.st10{fill:#354A61;}
</style>
<g id="XMLID_16530_">
	
		<linearGradient id="XMLID_2_" gradientUnits="userSpaceOnUse" x1="2300" y1="6.9198" x2="2300" y2="524.4725" gradientTransform="matrix(-1 0 0 1 3000 0)">
		<stop  offset="0" style="stop-color:#DD1E47"/>
		<stop  offset="0.3483" style="stop-color:#ED3D57"/>
		<stop  offset="1" style="stop-color:#F37F7B"/>
	</linearGradient>
	<rect id="XMLID_11667_" x="0" y="0" class="st0" width="1400" height="980"/>
	
		<linearGradient id="XMLID_3_" gradientUnits="userSpaceOnUse" x1="2300" y1="6.9198" x2="2300" y2="524.4725" gradientTransform="matrix(-1 0 0 1 3000 0)">
		<stop  offset="0" style="stop-color:#DD1E47"/>
		<stop  offset="0.3483" style="stop-color:#ED3D57"/>
		<stop  offset="1" style="stop-color:#F37F7B"/>
	</linearGradient>
	<rect id="XMLID_11666_" x="0" y="0" class="st1" width="1400" height="980"/>
	
		<linearGradient id="XMLID_4_" gradientUnits="userSpaceOnUse" x1="-680" y1="-1313.0598" x2="-680" y2="-957.7908" gradientTransform="matrix(-1 0 0 -1 20 -819.073)">
		<stop  offset="0" style="stop-color:#ED1F24"/>
		<stop  offset="8.962709e-002" style="stop-color:#ED1F24;stop-opacity:0.9104"/>
		<stop  offset="1" style="stop-color:#ED1F24;stop-opacity:0"/>
	</linearGradient>
	<rect id="XMLID_11665_" x="0" y="0" class="st2" width="1400" height="497.5"/>
	<g id="XMLID_1945_" class="st3">
		<polygon id="XMLID_11664_" class="st4" points="588.4,95.2 586.1,95.7 608.8,196 610.6,195.6 611.5,199.6 607.3,200.5 
			606.4,196.5 608.2,196.1 585.6,95.8 583.3,96.3 582.4,92.3 587.5,91.2 		"/>
		<path id="XMLID_1946_" class="st4" d="M343.8,265.2v15.6h-2.2v-11H341v11h-3.9v-11h-0.6v11h-2.1v1.9h2.1v17.5h-2.1v1.9h2.1v17.5
			h-2.1v1.9h2.1v17.5h-2.1v1.9h2.1v17.5h-2.1v1.9h2.1V378h-2.1v1.9h2.1v17.5h-2.1v1.9h2.1v17.5h-2.1v1.9h2.1v17.5h-2.1v1.9h2.1v17.5
			h-2.1v1.9h2.1v17.5h-2.1v1.9h2.1v17.5h-2.1v1.9h2.1v17.5h-2.1v1.9h2.1v17.5h-2.1v1.9h2.1v17.5h-2.1v1.9h2.1v23.3h0.6V555h2.6v1.9
			h1.3v21.4h0.6v-21.4h2.2v13.9h3.8v-13.9h15.8v21.4h0.6v-21.4h4.2v13.9h3.8v-13.9h2.4v1.7h1.2v12.2h1.4v-12.2h6.3v19.7h0.6v-19.7
			h11.9v1.5h3.2v10.7h1.7v-10.7h1.3v18.2h0.6v-18.2h3.2v10.7h3.8v-10.7h2.8v10.7h1.7v-10.7h3.7v10.7h3.8v-10.7h5.2v10.7h67v-14.2
			h6.4v14.2h3.8v-14.2h3.3v-1.8h0.6v16h1.7v-16h14.4v-0.7h2.1v16.7h0.6v-16.7h3.1v16.7h1.7v-16.7h1.2v16.7h1.7v-16.7h9.3v16.7h0.6
			v-16.7h1.7v16.7h1.7v-16.7h3.3v-1.5h4.1v-1.5h-7.4V536h3.3v-1.5h4.1V533h-7.4v-15.1h3.3v-1.5h4.1v-1.5h-7.4v-15.1h3.3v-1.5h4.1
			v-1.5h-7.4v-15.1h3.3v-1.5h4.1v-1.5h-7.4v-15.1h3.3v-1.5h4.1v-1.5h-7.4v-15.1h3.3V444h4.1v-1.5h-7.4v-15.1h3.3v-1.5h4.1v-1.5h-7.4
			v-15.1h3.3v-1.5h4.1v-1.5h-7.4v-15.1h3.3v-1.5h4.1v-1.5h-7.4v-15.1h3.3v-1.5h4.1v-1.5h-7.4v-15.1h3.3v-1.5h4.1V352h-7.4V337h3.3
			v-1.5h4.1v-1.5h-7.4v-15.1h3.3v-1.5h4.1v-1.5h-7.4v-15.1h3.3v-1.5h4.1v-1.5h-7.4v-15.1h3.3v-1.5h4.1v-1.5h-7.4v-15.1h3.3v-1.5h4.1
			v-1.5h-7.4V256h-1.7v5.6h-1.7V256h-0.6v5.6H534V256h-1.7v5.6h-1.2V256h-1.7v5.6h-3.1v-11.6h-0.6v11.6h-2.1v-2h-14.4v-32.9h-1.7
			v3.2h-3.9v-3.2H500v-4.1v-3.9h-6.5v-3.5h-5.6v-6.1h-2.6v6.1H483v-6.1h-2.6v6.1h-30.6v-45.8h2.1v-2.2h-2.1v-0.7h2.1v-2.2h-2.1
			v-11.2h2.1V151h-2.1h-1.3v-0.7h3.4V148h-5.1v-2.2h-2.3v-2.2h2.3v-2.2h-3.2V141v-11.8h0.7v-0.7h-0.7v-0.2h0.7v-0.7h-0.7v-1.8
			l5.1-1.1l3.1-0.7l-0.5-2l178.9-40.5l-0.1-0.6l-4.2,0.9l-2.3-2.9l3.8-0.9l-0.1-0.6l-44.2,10l0-0.3l-150.4,8.6l-0.3-1.2l-2.7,0.6
			l0.4,1.6l-49.5,36l-5.3,1.2l3.2,14l9.6-2.2l-2-9l11-2.5l0.1,0.5l23.3-5.3l-0.1-0.5l11.9-2.7l0.5,2l2.6-0.6l0.8-0.2l1.6-0.4v0.4
			h-0.8v0.7h0.8v0.2h-0.8v0.7h0.8V141v0.5h-3.4v2.2h2.3v2.2h-2.3v2.2h-5.1v2.2h3.4v0.7h-1.1h-2.3v2.2h2.3v11.2h-2.3v2.2h2.3v0.7
			h-2.3v2.2h2.3v45.8h-5.2v3.5h-5.8v-4.2h-4.8v4.2h-7.1v-4.2h-2.6v4.2h-5.7v-4.2h-1.7v4.2h-22.5v3.9h-7.8v4.1h-0.5v18.6h-4.5v1h-16
			v-19.6h-3.8v19.6h-6.9v1.9h6.9v13.1h-9.3v1.9h5.3v1.9H343.8z M543.9,536h1.7v15.1h-1.7V536z M543.9,517.9h1.7V533h-1.7V517.9z
			 M543.9,499.9h1.7v15.1h-1.7V499.9z M543.9,481.8h1.7v15.1h-1.7V481.8z M543.9,463.7h1.7v15.1h-1.7V463.7z M543.9,445.6h1.7v15.1
			h-1.7V445.6z M543.9,427.5h1.7v15.1h-1.7V427.5z M543.9,409.4h1.7v15.1h-1.7V409.4z M543.9,391.3h1.7v15.1h-1.7V391.3z
			 M543.9,373.2h1.7v15.1h-1.7V373.2z M543.9,355.1h1.7v15.1h-1.7V355.1z M543.9,337h1.7V352h-1.7V337z M543.9,318.9h1.7v15.1h-1.7
			V318.9z M543.9,300.8h1.7v15.1h-1.7V300.8z M543.9,282.7h1.7v15.1h-1.7V282.7z M543.9,264.6h1.7v15.1h-1.7V264.6z M534,536h9.3
			v15.1H534V536z M534,517.9h9.3V533H534V517.9z M534,499.9h9.3v15.1H534V499.9z M534,481.8h9.3v15.1H534V481.8z M534,463.7h9.3
			v15.1H534V463.7z M534,445.6h9.3v15.1H534V445.6z M534,427.5h9.3v15.1H534V427.5z M534,409.4h9.3v15.1H534V409.4z M534,391.3h9.3
			v15.1H534V391.3z M534,373.2h9.3v15.1H534V373.2z M534,355.1h9.3v15.1H534V355.1z M534,337h9.3V352H534V337z M534,318.9h9.3v15.1
			H534V318.9z M534,300.8h9.3v15.1H534V300.8z M534,282.7h9.3v15.1H534V282.7z M534,264.6h9.3v15.1H534V264.6z M531.1,536h1.2v15.1
			h-1.2V536z M531.1,517.9h1.2V533h-1.2V517.9z M531.1,499.9h1.2v15.1h-1.2V499.9z M531.1,481.8h1.2v15.1h-1.2V481.8z M531.1,463.7
			h1.2v15.1h-1.2V463.7z M531.1,445.6h1.2v15.1h-1.2V445.6z M531.1,427.5h1.2v15.1h-1.2V427.5z M531.1,409.4h1.2v15.1h-1.2V409.4z
			 M531.1,391.3h1.2v15.1h-1.2V391.3z M531.1,373.2h1.2v15.1h-1.2V373.2z M531.1,355.1h1.2v15.1h-1.2V355.1z M531.1,337h1.2V352
			h-1.2V337z M531.1,318.9h1.2v15.1h-1.2V318.9z M531.1,300.8h1.2v15.1h-1.2V300.8z M531.1,282.7h1.2v15.1h-1.2V282.7z M531.1,264.6
			h1.2v15.1h-1.2V264.6z M526.3,536h3.1v15.1h-3.1V536z M526.3,517.9h3.1V533h-3.1V517.9z M526.3,499.9h3.1v15.1h-3.1V499.9z
			 M526.3,481.8h3.1v15.1h-3.1V481.8z M526.3,463.7h3.1v15.1h-3.1V463.7z M526.3,445.6h3.1v15.1h-3.1V445.6z M526.3,427.5h3.1v15.1
			h-3.1V427.5z M526.3,409.4h3.1v15.1h-3.1V409.4z M526.3,391.3h3.1v15.1h-3.1V391.3z M526.3,373.2h3.1v15.1h-3.1V373.2z
			 M526.3,355.1h3.1v15.1h-3.1V355.1z M526.3,337h3.1V352h-3.1V337z M526.3,318.9h3.1v15.1h-3.1V318.9z M526.3,300.8h3.1v15.1h-3.1
			V300.8z M526.3,282.7h3.1v15.1h-3.1V282.7z M526.3,264.6h3.1v15.1h-3.1V264.6z M509.3,536.8h14.4V536h2.1v15.1h-2.1v-2h-14.4
			V536.8z M509.3,518.7h14.4v-0.7h2.1V533h-2.1v-2h-14.4V518.7z M509.3,500.6h14.4v-0.7h2.1v15.1h-2.1v-2h-14.4V500.6z M509.3,482.5
			h14.4v-0.7h2.1v15.1h-2.1v-2h-14.4V482.5z M509.3,464.4h14.4v-0.7h2.1v15.1h-2.1v-2h-14.4V464.4z M509.3,446.3h14.4v-0.7h2.1v15.1
			h-2.1v-2h-14.4V446.3z M509.3,428.2h14.4v-0.7h2.1v15.1h-2.1v-2h-14.4V428.2z M509.3,410.1h14.4v-0.7h2.1v15.1h-2.1v-2h-14.4
			V410.1z M509.3,392h14.4v-0.7h2.1v15.1h-2.1v-2h-14.4V392z M509.3,373.9h14.4v-0.7h2.1v15.1h-2.1v-2h-14.4V373.9z M509.3,355.8
			h14.4v-0.7h2.1v15.1h-2.1v-2h-14.4V355.8z M509.3,337.7h14.4V337h2.1V352h-2.1v-2h-14.4V337.7z M509.3,319.6h14.4v-0.7h2.1v15.1
			h-2.1v-2h-14.4V319.6z M509.3,301.5h14.4v-0.7h2.1v15.1h-2.1v-2h-14.4V301.5z M509.3,283.4h14.4v-0.7h2.1v15.1h-2.1v-2h-14.4
			V283.4z M509.3,265.3h14.4v-0.7h2.1v15.1h-2.1v-2h-14.4V265.3z M503.7,538.6h3.3v-1.8h0.6v12.3H507v-2h-3.3V538.6z M503.7,520.5
			h3.3v-1.8h0.6V531H507v-2h-3.3V520.5z M503.7,502.4h3.3v-1.8h0.6v12.3H507v-2h-3.3V502.4z M503.7,484.3h3.3v-1.8h0.6v12.3H507v-2
			h-3.3V484.3z M503.7,466.2h3.3v-1.8h0.6v12.3H507v-2h-3.3V466.2z M503.7,448.1h3.3v-1.8h0.6v12.3H507v-2h-3.3V448.1z M503.7,430
			h3.3v-1.8h0.6v12.3H507v-2h-3.3V430z M503.7,411.9h3.3v-1.8h0.6v12.3H507v-2h-3.3V411.9z M503.7,393.8h3.3V392h0.6v12.3H507v-2
			h-3.3V393.8z M503.7,375.7h3.3v-1.8h0.6v12.3H507v-2h-3.3V375.7z M503.7,357.6h3.3v-1.8h0.6v12.3H507v-2h-3.3V357.6z M503.7,339.5
			h3.3v-1.8h0.6V350H507v-2h-3.3V339.5z M503.7,321.4h3.3v-1.8h0.6v12.3H507v-2h-3.3V321.4z M503.7,303.3h3.3v-1.8h0.6v12.3H507v-2
			h-3.3V303.3z M503.7,285.2h3.3v-1.8h0.6v12.3H507v-2h-3.3V285.2z M503.7,267.1h3.3v-1.8h0.6v12.3H507v-2h-3.3V267.1z M503.7,250.2
			h3.9v9.4H507v-2h-3.3V250.2z M503.7,239.8h3.9v5.5h-3.9V239.8z M493.5,538.6h6.4v8.5h-6.4V538.6z M493.5,520.5h6.4v8.5h-6.4V520.5
			z M493.5,502.4h6.4v8.5h-6.4V502.4z M493.5,484.3h6.4v8.5h-6.4V484.3z M493.5,466.2h6.4v8.5h-6.4V466.2z M493.5,448.1h6.4v8.5
			h-6.4V448.1z M493.5,430h6.4v8.5h-6.4V430z M493.5,411.9h6.4v8.5h-6.4V411.9z M493.5,393.8h6.4v8.5h-6.4V393.8z M493.5,375.7h6.4
			v8.5h-6.4V375.7z M493.5,357.6h6.4v8.5h-6.4V357.6z M493.5,339.5h6.4v8.5h-6.4V339.5z M493.5,321.4h6.4v8.5h-6.4V321.4z
			 M493.5,303.3h6.4v8.5h-6.4V303.3z M493.5,285.2h6.4v8.5h-6.4V285.2z M493.5,267.1h6.4v8.5h-6.4V267.1z M493.5,250.2h6.4v7.3h-6.4
			V250.2z M493.5,241.1h6.4v4.2h-6.4V241.1z M442.9,139v2h-1.4l-2.8-1.3l1.4-0.7H442.9z M441.6,138.3l1.2-0.6v0.6H441.6z M440.9,141
			h-2.2v-1L440.9,141z M438.7,139.4V139h0.9L438.7,139.4z M438.7,138.3v-2h1.9l2.3,1.1v0l-1.8,0.9H438.7z M442.9,136.3v0.8l-1.7-0.8
			H442.9z M439.6,135.6l-0.9-0.4l3.3-1.5h0.9v2H439.6z M438.7,135.6v-0.2l0.4,0.2H438.7z M438.7,134.9v-1.3h2.7L438.7,134.9z
			 M438.7,132.9v-2h0.1l4.1,2v0H438.7z M442.9,130.9v1.7l-3.6-1.7H442.9z M439.6,130.2l2.2-1h1.1v1H439.6z M438.7,130.2v-1h2.5
			l-2.2,1H438.7z M438.7,127.5v-0.6l0.8-0.2l1.7,0.8H438.7z M441,120.2l1.6-0.4l-0.3,1.4l-1,0.2L441,120.2z M430.1,126.1l0.6-2.7
			l0.9-0.2l0.6,2.5L430.1,126.1z M429.6,126.2l-1.7-2.2l2.6-0.6l-0.6,2.7L429.6,126.2z M426,127l0.6-2.7l1-0.2l1.7,2.2L426,127z
			 M425.6,127.2l-1.7-2.2l2.6-0.6l-0.6,2.7L425.6,127.2z M422,128l0.6-2.7l1-0.2l1.7,2.2L422,128z M421.6,128.1l-1.7-2.2l2.6-0.6
			l-0.6,2.7L421.6,128.1z M419.8,126.1l1.6,2l-1.1,0.2L419.8,126.1z M394,134.3l0.8-3.6l0.2,0l1.8,2.4l0.1,0.6L394,134.3z
			 M395.2,130.6l1-0.2l0.5,2.1L395.2,130.6z M393.5,134.4l-2.3-2.9l3.3-0.8l-0.8,3.6L393.5,134.4z M390,135.2l0.8-3.6l0.2,0l2.3,2.9
			L390,135.2z M389.5,135.3l-2.3-2.9l3.3-0.8l-0.8,3.6L389.5,135.3z M386,136.1l0.8-3.6l0.2,0l2.3,2.9L386,136.1L386,136.1z
			 M385.2,132.8l1.3-0.3l-0.7,3.1L385.2,132.8z M428.1,99.1l-30.6,29.8l-1.5,0.3l0.1,0.6l-11,2.5l-0.1-0.6l-2.7,0.6L428.1,99.1z
			 M430.7,99.2L435,118l-1.3,0.3l-0.3-1.2l-23.3,5.3l0.8,3.5l-12.3,2.8l31.7-30.9l0,0.1l0.5-0.1l0.3,1.3L430.7,99.2z M490,106.7
			l0.1,0.5l-55.7-10.9l127-4l-66,14.9l-0.4-1.7L490,106.7z M581.3,87.9L563,92l0-0.3l-106.5,3.4L581.3,87.9z M622.5,82.6l0.8-3.6
			l0.2,0l2.3,2.9L622.5,82.6z M622,82.7l-2.3-2.9l3.3-0.8l-0.8,3.6L622,82.7z M618.5,83.5l0.8-3.6l0.2,0l2.3,2.9L618.5,83.5z
			 M618,83.6l-2.3-2.9L619,80l-0.8,3.6L618,83.6z M614.4,84.5l0.8-3.6l0.2,0l2.3,2.9L614.4,84.5z M614,84.6l-2.3-2.9l3.3-0.8
			l-0.8,3.6L614,84.6z M610.4,85.4l0.8-3.6l0.2,0l2.3,2.9L610.4,85.4z M610,85.5l-2.3-2.9l3.3-0.8l-0.8,3.6L610,85.5z M606.4,86.3
			l0.8-3.6l0.2,0l2.3,2.9L606.4,86.3z M606,86.4l-2.3-2.9l3.3-0.8l-0.8,3.6L606,86.4z M602.4,87.2l0.8-3.6l0.2,0l2.3,2.9L602.4,87.2
			z M602,87.3l-2.3-2.9l3.3-0.8l-0.8,3.6L602,87.3z M598.4,88.1l0.8-3.6l0.2,0l2.3,2.9L598.4,88.1z M598,88.2l-2.3-2.9l3.3-0.8
			l-0.8,3.6L598,88.2z M594.4,89l0.8-3.6l0.2,0l2.3,2.9L594.4,89z M593.9,89.1l-2.3-2.9l3.3-0.8l-0.8,3.6L593.9,89.1z M590.4,89.9
			l0.8-3.6l0.2,0l2.3,2.9L590.4,89.9z M589.9,90l-2.3-2.9l3.3-0.8l-0.8,3.6L589.9,90z M586.4,90.8l0.8-3.6l0.2,0l2.3,2.9L586.4,90.8
			z M585.9,90.9l-2.3-2.9l3.3-0.8l-0.8,3.6L585.9,90.9z M582.4,91.7l0.8-3.6l0.2,0l2.3,2.9L582.4,91.7z M581.9,91.8l-2.3-2.9
			l3.3-0.8l-0.8,3.6L581.9,91.8z M578.4,92.6l0.8-3.6l0.2,0l2.3,2.9L578.4,92.6z M577.9,92.7l-2.3-2.9l3.3-0.8l-0.8,3.6L577.9,92.7z
			 M574.4,93.5l0.8-3.6l0.2,0l2.3,2.9L574.4,93.5z M573.9,93.6l-2.3-2.9l3.3-0.8l-0.8,3.6L573.9,93.6z M570.4,94.4l0.8-3.6l0.2,0
			l2.3,2.9L570.4,94.4z M569.9,94.5l-2.3-2.9l3.3-0.8l-0.8,3.6L569.9,94.5z M566.3,95.3l0.8-3.6l0.2,0l2.3,2.9L566.3,95.3z
			 M565.9,95.4l-2.3-2.9l3.3-0.8l-0.8,3.6L565.9,95.4z M562.3,96.2l0.8-3.6l0.2,0l2.3,2.9L562.3,96.2z M561.9,96.3l-2.3-2.9l3.3-0.8
			l-0.8,3.6L561.9,96.3z M558.3,97.1l0.8-3.6l0.2,0l2.3,2.9L558.3,97.1z M557.9,97.2l-2.3-2.9l3.3-0.8l-0.8,3.6L557.9,97.2z
			 M554.3,98l0.8-3.6l0.2,0l2.3,2.9L554.3,98z M553.9,98.1l-2.3-2.9l3.3-0.8l-0.8,3.6L553.9,98.1z M550.3,99l0.8-3.6l0.2,0l2.3,2.9
			L550.3,99z M549.9,99.1l-2.3-2.9l3.3-0.8l-0.8,3.6L549.9,99.1z M546.3,99.9l0.8-3.6l0.2,0l2.3,2.9L546.3,99.9z M545.8,100
			l-2.3-2.9l3.3-0.8l-0.8,3.6L545.8,100z M542.3,100.8l0.8-3.6l0.2,0l2.3,2.9L542.3,100.8z M541.8,100.9l-2.3-2.9l3.3-0.8l-0.8,3.6
			L541.8,100.9z M538.3,101.7l0.8-3.6l0.2,0l2.3,2.9L538.3,101.7z M537.8,101.8l-2.3-2.9l3.3-0.8l-0.8,3.6L537.8,101.8z
			 M534.3,102.6l0.8-3.6l0.2,0l2.3,2.9L534.3,102.6z M533.8,102.7l-2.3-2.9l3.3-0.8l-0.8,3.6L533.8,102.7z M530.3,103.5l0.8-3.6
			l0.2,0l2.3,2.9L530.3,103.5z M529.8,103.6l-2.3-2.9l3.3-0.8l-0.8,3.6L529.8,103.6z M526.3,104.4l0.8-3.6l0.2,0l2.3,2.9
			L526.3,104.4z M525.8,104.5l-2.3-2.9l3.3-0.8l-0.8,3.6L525.8,104.5z M522.2,105.3l0.8-3.6l0.2,0l2.3,2.9L522.2,105.3z
			 M521.8,105.4l-2.3-2.9l3.3-0.8l-0.8,3.6L521.8,105.4z M518.2,106.2l0.8-3.6l0.2,0l2.3,2.9L518.2,106.2z M517.8,106.3l-2.3-2.9
			l3.3-0.8l-0.8,3.6L517.8,106.3z M514.2,107.1l0.8-3.6l0.2,0l2.3,2.9L514.2,107.1z M513.8,107.2l-2.3-2.9l3.3-0.8l-0.8,3.6
			L513.8,107.2z M510.2,108l0.8-3.6l0.2,0l2.3,2.9L510.2,108z M509.8,108.1l-2.3-2.9l3.3-0.8l-0.8,3.6L509.8,108.1z M506.2,108.9
			l0.8-3.6l0.2,0l2.3,2.9L506.2,108.9z M505.8,109l-2.3-2.9l3.3-0.8L506,109L505.8,109z M502.2,109.8l0.8-3.6l0.2,0l2.3,2.9
			L502.2,109.8z M501.8,109.9l-2.3-2.9l3.3-0.8l-0.8,3.6L501.8,109.9z M498.2,110.7l0.8-3.6l0.2,0l2.3,2.9L498.2,110.7z
			 M497.7,110.8l-2.2-2.8l0-0.2l3.2-0.7l-0.8,3.6L497.7,110.8z M494.2,111.6l0.4-1.7l1.4-0.3l-0.2-1l1.8,2.3L494.2,111.6z
			 M493.7,111.7l-1.1-1.4l1.7-0.4l-0.4,1.7L493.7,111.7z M490.2,112.5l0.6-2.5l0.2,0.7l1.5-0.3l1.1,1.4L490.2,112.5z M489.7,112.7
			l-2.3-2.9l3.1-0.7l0.1,0.6l-0.7,3L489.7,112.7z M486.2,113.5l0.8-3.6l0.2,0l2.3,2.9L486.2,113.5z M485.7,113.6l-2.3-2.9l3.3-0.8
			l-0.8,3.6L485.7,113.6z M482.2,114.4l0.8-3.6l0.2,0l2.3,2.9L482.2,114.4z M481.7,114.5l-2.3-2.9l3.3-0.8l-0.8,3.6L481.7,114.5z
			 M478.2,115.3l0.8-3.6l0.2,0l2.3,2.9L478.2,115.3z M477.7,115.4l-2.3-2.9l3.3-0.8l-0.8,3.6L477.7,115.4z M474.1,116.2l0.8-3.6
			l0.2,0l2.3,2.9L474.1,116.2z M473.7,116.3l-2.3-2.9l3.3-0.8l-0.8,3.6L473.7,116.3z M470.1,117.1l0.8-3.6l0.2,0l2.3,2.9
			L470.1,117.1z M469.7,117.2l-2.3-2.9l3.3-0.8l-0.8,3.6L469.7,117.2z M466.1,118l0.8-3.6l0.2,0l2.3,2.9L466.1,118z M465.7,118.1
			l-2.3-2.9l3.3-0.8l-0.8,3.6L465.7,118.1z M462.1,118.9l0.8-3.6l0.2,0l2.3,2.9L462.1,118.9z M461.7,119l-2.3-2.9l3.3-0.8l-0.8,3.6
			L461.7,119z M458.1,119.8l0.8-3.6l0.2,0l2.3,2.9L458.1,119.8z M457.7,119.9l-2.3-2.9l3.3-0.8l-0.8,3.6L457.7,119.9z M454.1,120.7
			l0.8-3.6l0.2,0l2.3,2.9L454.1,120.7z M453.6,120.8l-2.3-2.9l3.3-0.8l-0.8,3.6L453.6,120.8z M450.7,118.9l0.2-0.9l0.2,0l2.3,2.9
			l-2.1,0.5l-0.1-0.5l-0.4-1.6L450.7,118.9z M450.5,118.1l0.2,0l-0.1,0.4L450.5,118.1z M445.2,118l0.1,0.6l-4.4,1l-0.6-2.8l-2.6,0.6
			l-4.3-18.8l-0.5,0.1l-0.3-1.3l0.5-0.1l-0.1-0.4l57.2,11.2l0.1,0.5l-40,9l-0.1-0.6L445.2,118z M444.2,120.8l-0.9-1.1l2.1-0.5
			l0.3,1.2L444.2,120.8z M444,120.8l-1.4,0.3l0.3-1.4l0.2,0L444,120.8z M442.9,126v1.6h-1.2l-1.9-0.9l0.5-0.1l0.8-0.2l0.7-0.2
			l0.6-0.1L442.9,126z M447.2,164.3h-3.6l-9.2-4.4l12.9-6.1V164.3z M447.2,172.6h-10.1l6.7-3.2h3.4V172.6z M447.2,180l-11-5.2h11
			V180z M447.2,189.2h-10l-2.9-1.4l10-4.7h2.8V189.2z M447.2,193.9l-5.3-2.5h5.3V193.9z M447.2,197.5h-3.8l3.8-1.8V197.5z
			 M447.2,205.8h-4.3l-8.5-4l4.4-2.1h8.5V205.8z M443,211.6l4.2-2v5.6H443V211.6z M435.4,215.2l5.1-2.4v2.4H435.4z M434.3,208h11.4
			l1.5,0.7v0.1l-4.2,2v-1.6h-2.6v2.8l-6.1,2.9V208z M434.3,202.6l6.8,3.2h-6.8V202.6z M434.3,199.7h2.7l-2.7,1.3V199.7z
			 M434.3,191.4h5.8l7.1,3.4v0.1l-5.6,2.6h-7.3V191.4z M434.3,188.6l1.2,0.6h-1.2V188.6z M434.3,183.1h8.3l-8.3,3.9V183.1z
			 M434.3,174.8h0.2l12.7,6v0.1h-12.9V174.8z M434.3,169.4h7.7l-6.7,3.2h-1V169.4z M434.3,160.8l7.5,3.6h-7.5V160.8z M434.3,153.2
			H447l-12.7,6V153.2z M421.3,540.7h5.2v7.1h-5.2V540.7z M421.3,521.3h5.2v7.1h-5.2V521.3z M421.3,501.8h5.2v7.1h-5.2V501.8z
			 M421.3,482.4h5.2v7.1h-5.2V482.4z M421.3,462.9h5.2v7.1h-5.2V462.9z M421.3,443.5h5.2v7.1h-5.2V443.5z M421.3,424h5.2v7.1h-5.2
			V424z M421.3,404.6h5.2v7.1h-5.2V404.6z M421.3,385.2h5.2v7.1h-5.2V385.2z M421.3,365.7h5.2v7.1h-5.2V365.7z M421.3,346.3h5.2v7.1
			h-5.2V346.3z M421.3,326.8h5.2v7.1h-5.2V326.8z M421.3,307.4h5.2v7.1h-5.2V307.4z M421.3,287.9h5.2v7.1h-5.2V287.9z M421.3,268.5
			h5.2v7.1h-5.2V268.5z M421.3,250.2h5.2v6h-5.2V250.2z M421.3,241.1h5.2v4.2h-5.2V241.1z M413.9,540.7h3.7v7.1h-3.7V540.7z
			 M413.9,521.3h3.7v7.1h-3.7V521.3z M413.9,501.8h3.7v7.1h-3.7V501.8z M413.9,482.4h3.7v7.1h-3.7V482.4z M413.9,462.9h3.7v7.1h-3.7
			V462.9z M413.9,443.5h3.7v7.1h-3.7V443.5z M413.9,424h3.7v7.1h-3.7V424z M413.9,404.6h3.7v7.1h-3.7V404.6z M413.9,385.2h3.7v7.1
			h-3.7V385.2z M413.9,365.7h3.7v7.1h-3.7V365.7z M413.9,346.3h3.7v7.1h-3.7V346.3z M413.9,326.8h3.7v7.1h-3.7V326.8z M413.9,307.4
			h3.7v7.1h-3.7V307.4z M413.9,287.9h3.7v7.1h-3.7V287.9z M413.9,268.5h3.7v7.1h-3.7V268.5z M413.9,250.2h3.7v6h-3.7V250.2z
			 M413.9,241.1h3.7v4.2h-3.7V241.1z M409.5,540.7h2.8v7.1h-2.8V540.7z M409.5,521.3h2.8v7.1h-2.8V521.3z M409.5,501.8h2.8v7.1h-2.8
			V501.8z M409.5,482.4h2.8v7.1h-2.8V482.4z M409.5,462.9h2.8v7.1h-2.8V462.9z M409.5,443.5h2.8v7.1h-2.8V443.5z M409.5,424h2.8v7.1
			h-2.8V424z M409.5,404.6h2.8v7.1h-2.8V404.6z M409.5,385.2h2.8v7.1h-2.8V385.2z M409.5,365.7h2.8v7.1h-2.8V365.7z M409.5,346.3
			h2.8v7.1h-2.8V346.3z M409.5,326.8h2.8v7.1h-2.8V326.8z M409.5,307.4h2.8v7.1h-2.8V307.4z M409.5,287.9h2.8v7.1h-2.8V287.9z
			 M409.5,268.5h2.8v7.1h-2.8V268.5z M409.5,250.2h2.8v6h-2.8V250.2z M409.5,241.1h2.8v4.2h-2.8V241.1z M402.5,540.7h3.2v7.1h-3.2
			V540.7z M402.5,521.3h3.2v7.1h-3.2V521.3z M402.5,501.8h3.2v7.1h-3.2V501.8z M402.5,482.4h3.2v7.1h-3.2V482.4z M402.5,462.9h3.2
			v7.1h-3.2V462.9z M402.5,443.5h3.2v7.1h-3.2V443.5z M402.5,424h3.2v7.1h-3.2V424z M402.5,404.6h3.2v7.1h-3.2V404.6z M402.5,385.2
			h3.2v7.1h-3.2V385.2z M402.5,365.7h3.2v7.1h-3.2V365.7z M402.5,346.3h3.2v7.1h-3.2V346.3z M402.5,326.8h3.2v7.1h-3.2V326.8z
			 M402.5,307.4h3.2v7.1h-3.2V307.4z M402.5,287.9h3.2v7.1h-3.2V287.9z M400.6,540.7h1.3v7.1h-1.3V540.7z M400.6,521.3h1.3v7.1h-1.3
			V521.3z M400.6,501.8h1.3v7.1h-1.3V501.8z M400.6,482.4h1.3v7.1h-1.3V482.4z M400.6,462.9h1.3v7.1h-1.3V462.9z M400.6,443.5h1.3
			v7.1h-1.3V443.5z M400.6,424h1.3v7.1h-1.3V424z M400.6,404.6h1.3v7.1h-1.3V404.6z M400.6,385.2h1.3v7.1h-1.3V385.2z M400.6,365.7
			h1.3v7.1h-1.3V365.7z M400.6,346.3h1.3v7.1h-1.3V346.3z M400.6,326.8h1.3v7.1h-1.3V326.8z M400.6,307.4h1.3v7.1h-1.3V307.4z
			 M400.6,287.9h1.3v7.1h-1.3V287.9z M400.6,268.5h5.1v7.1h-3.2v-5.8h-0.6v5.8h-1.3V268.5z M400.6,250.2h5.1v6h-5.1V250.2z
			 M400.6,241.1h5.1v4.2h-5.1V241.1z M383.8,539.2h11.9v1.5h3.2v7.1h-3.2v2.6h-7.5v-2.6h-4.5V539.2z M383.8,519.8h11.9v1.5h3.2v7.1
			h-3.2v2.6h-7.5v-2.6h-4.5V519.8z M383.8,500.3h11.9v1.5h3.2v7.1h-3.2v2.6h-7.5h-4.5V500.3z M383.8,480.9h11.9v1.5h3.2v7.1h-3.2
			v2.6h-1v-2.6h-9.2v2.6h-1.7V480.9z M383.8,461.4h11.9v1.5h3.2v7.1h-3.2v2.6h-1.1v-2.6h-9.2v2.6h-1.6V461.4z M383.8,442h11.9v1.5
			h3.2v7.1h-3.2v2.6h-7.5v-2.6h-4.5V442z M383.8,422.5h11.9v1.5h3.2v7.1h-3.2v2.6h-7.5v-2.6h-4.5V422.5z M383.8,403.1h11.9v1.5h3.2
			v7.1h-3.2v2.6H391v-2.6h-7.2V403.1z M383.8,383.6h11.9v1.5h3.2v7.1h-3.2v2.6h-7.5h-4.5V383.6z M383.8,364.2h11.9v1.5h3.2v7.1h-3.2
			v2.6h-7.5v-2.6h-4.5V364.2z M383.8,344.7h11.9v1.5h3.2v7.1h-3.2v2.6h-7.5h-4.5V344.7z M383.8,325.3h11.9v1.5h3.2v7.1h-3.2v2.6
			h-7.5v-2.6h-4.5V325.3z M383.8,305.8h11.9v1.5h3.2v7.1h-3.2v2.6h-7.5v-2.6h-4.5V305.8z M383.8,286.4h11.9v1.5h3.2v7.1h-3.2v2.6
			H393V295h-9.2v2.6h-0.1V286.4z M376.9,539.2h6.3v8.6h-4.1v2.6h-2.2V539.2z M376.9,519.8h6.3v8.6h-4.1v2.6h-2.2V519.8z
			 M376.9,500.3h6.3v11.2h-4.1h-2.2V500.3z M376.9,480.9h6.3v11.2h-6.3V480.9z M376.9,461.4h6.3v11.2h-6.3V461.4z M376.9,442h6.3
			v8.6h-4.1v2.6h-2.2V442z M376.9,422.5h6.3v8.6h-4.1v2.6h-2.2V422.5z M376.9,403.1h6.3v8.6h-1.4v2.6h-5V403.1z M376.9,383.6h6.3
			v11.2h-4.1h-2.2V383.6z M376.9,364.2h6.3v8.6h-4.1v2.6h-2.2V364.2z M376.9,344.7h6.3V356h-4.1h-2.2V344.7z M376.9,325.3h6.3v8.6
			h-4.1v2.6h-2.2V325.3z M376.9,305.8h6.3v8.6h-4.1v2.6h-2.2V305.8z M376.9,286.4h6.3v11.2h-6.3V286.4z M376.9,267h18.8v1.5h3.2v7.1
			h-3.2v2.6h-7.5v-2.6h-4.5v-5.8h-0.6v5.8h-4.1v2.6h-2.2V267z M371.9,537.5h2.4v1.7h1.2v11.2h-1.2v2.6h-2.4V537.5z M371.9,518h2.4
			v1.7h1.2V531h-1.2v2.6h-2.4V518z M371.9,498.6h2.4v1.7h1.2v11.2h-1.2v2.6h-2.4V498.6z M371.9,479.2h2.4v1.7h1.2v11.2h-1.2v2.6
			h-2.4V479.2z M371.9,459.7h2.4v1.7h1.2v11.2h-1.2v2.6h-2.4V459.7z M371.9,440.3h2.4v1.7h1.2v11.2h-1.2v2.6h-2.4V440.3z
			 M371.9,420.8h2.4v1.7h1.2v11.2h-1.2v2.6h-2.4V420.8z M371.9,401.4h2.4v1.7h1.2v11.2h-1.2v2.6h-2.4V401.4z M371.9,381.9h2.4v1.7
			h1.2v11.2h-1.2v2.6h-2.4V381.9z M371.9,362.5h2.4v1.7h1.2v11.2h-1.2v2.6h-2.4V362.5z M371.9,343h2.4v1.7h1.2V356h-1.2v2.6h-2.4
			V343z M371.9,323.6h2.4v1.7h1.2v11.2h-1.2v2.6h-2.4V323.6z M371.9,304.1h2.4v1.7h1.2v11.2h-1.2v2.6h-2.4V304.1z M371.9,284.7h2.4
			v1.7h1.2v11.2h-1.2v2.6h-2.4V284.7z M371.9,265.2h2.4v1.7h1.2v11.2h-1.2v2.6h-2.4V265.2z M371.9,250.2h27.1v6h-3.2v2.6h-7.5v-2.6
			h-9.2v2.6h-4.8v2.6h-2.4V250.2z M371.9,237.7h4.5v3.5h22.5v4.2h-27.1V237.7z M363.9,537.5h4.2v15.6h-4.2V537.5z M363.9,518h4.2
			v15.6h-4.2V518z M363.9,498.6h4.2v15.6h-4.2V498.6z M363.9,479.2h4.2v15.6h-4.2V479.2z M363.9,459.7h4.2v15.6h-4.2V459.7z
			 M363.9,440.3h4.2v15.6h-4.2V440.3z M363.9,420.8h4.2v15.6h-4.2V420.8z M363.9,401.4h4.2v15.6h-4.2V401.4z M363.9,381.9h4.2v15.6
			h-4.2V381.9z M363.9,362.5h4.2V378h-4.2V362.5z M363.9,343h4.2v15.6h-4.2V343z M363.9,323.6h4.2v15.6h-4.2V323.6z M363.9,304.1
			h4.2v15.6h-4.2V304.1z M363.9,284.7h4.2v15.6h-4.2V284.7z M347.6,537.5h15.8v15.6h-15.8V537.5z M347.6,518h15.8v15.6h-15.8V518z
			 M347.6,498.6h15.8v15.6h-15.8V498.6z M347.6,479.2h15.8v15.6h-15.8V479.2z M347.6,459.7h15.8v15.6h-15.8V459.7z M347.6,440.3
			h15.8v15.6h-15.8V440.3z M347.6,420.8h15.8v15.6h-15.8V420.8z M347.6,401.4h15.8v15.6h-15.8V401.4z M347.6,381.9h15.8v15.6h-15.8
			V381.9z M347.6,362.5h15.8V378h-15.8V362.5z M347.6,343h15.8v15.6h-15.8V343z M347.6,323.6h15.8v15.6h-15.8V323.6z M347.6,304.1
			h15.8v15.6h-15.8V304.1z M347.6,284.7h15.8v15.6h-15.8V284.7z M347.6,265.2h20.6v15.6h-4.2v-11h-0.6v11h-15.8V265.2z M347.6,248.2
			h16v1.9h4.5v11.2h-20.6V248.2z M341,300.2h-3.9v-17.5h2.6v1.9h1.3V300.2z M341,319.7h-3.9v-17.5h2.6v1.9h1.3V319.7z M341,339.1
			h-3.9v-17.5h2.6v1.9h1.3V339.1z M341,358.6h-3.9v-17.5h2.6v1.9h1.3V358.6z M341,378h-3.9v-17.5h2.6v1.9h1.3V378z M341,397.5h-3.9
			V380h2.6v1.9h1.3V397.5z M341,416.9h-3.9v-17.5h2.6v1.9h1.3V416.9z M341,436.4h-3.9v-17.5h2.6v1.9h1.3V436.4z M341,455.8h-3.9
			v-17.5h2.6v1.9h1.3V455.8z M341,475.3h-3.9v-17.5h2.6v1.9h1.3V475.3z M341,494.7h-3.9v-17.5h2.6v1.9h1.3V494.7z M341,514.2h-3.9
			v-17.5h2.6v1.9h1.3V514.2z M341,533.6h-3.9v-17.5h2.6v1.9h1.3V533.6z M341,553.1h-3.9v-17.5h2.6v1.9h1.3V553.1z M341.6,537.5h2.2
			v15.6h-2.2V537.5z M341.6,518h2.2v15.6h-2.2V518z M341.6,498.6h2.2v15.6h-2.2V498.6z M341.6,479.2h2.2v15.6h-2.2V479.2z
			 M341.6,459.7h2.2v15.6h-2.2V459.7z M341.6,440.3h2.2v15.6h-2.2V440.3z M341.6,420.8h2.2v15.6h-2.2V420.8z M341.6,401.4h2.2v15.6
			h-2.2V401.4z M341.6,381.9h2.2v15.6h-2.2V381.9z M341.6,362.5h2.2V378h-2.2V362.5z M341.6,343h2.2v15.6h-2.2V343z M341.6,323.6
			h2.2v15.6h-2.2V323.6z M341.6,304.1h2.2v15.6h-2.2V304.1z M343.8,284.7v15.6h-2.2v-15.6H343.8z"/>
	</g>
	<g id="XMLID_1947_" class="st3">
		<path id="XMLID_2071_" class="st4" d="M18.7,78v0.6h183.5v2.1h9.7h0.6h0.7v2.6h-0.7v0.7h0.7v0.2h-0.7v0.7h0.7v12.3h-3.2v2.2h2.3
			v2.2h-2.3v2.2H205v2.2h3.4v0.7h-1.3H205v2.2h2.1V120H205v2.2h2.1v0.7H205v2.2h2.1v45.8h-30.6v-6.1h-2.6v6.1h-2.3v-6.1H169v6.1
			h-5.6v3.5h-6.5v3.9v4.1h-3.7v3.2h-3.9v-3.2h-1.7v32.9h-14.4v2h-2.1v-11.6h-0.6v11.6h-3.1v-5.6h-1.7v5.6h-1.2v-5.6h-1.7v5.6h-9.3
			v-5.6H113v5.6h-1.7v-5.6h-1.7v5.6h-7.4v1.5h4.1v1.5h3.3v15.1h-7.4v1.5h4.1v1.5h3.3v15.1h-7.4v1.5h4.1v1.5h3.3v15.1h-7.4v1.5h4.1
			v1.5h3.3v15.1h-7.4v1.5h4.1v1.5h3.3v15.1h-7.4v1.5h4.1v1.5h3.3v15.1h-7.4v1.5h4.1v1.5h3.3v15.1h-7.4v1.5h4.1v1.5h3.3V362h-7.4v1.5
			h4.1v1.5h3.3v15.1h-7.4v1.5h4.1v1.5h3.3v15.1h-7.4v1.5h4.1v1.5h3.3v15.1h-7.4v1.5h4.1v1.5h3.3v15.1h-7.4v1.5h4.1v1.5h3.3v15.1
			h-7.4v1.5h4.1v1.5h3.3v15.1h-7.4v1.5h4.1v1.5h3.3v15.1h-7.4v1.5h4.1v1.5h3.3v15.1h-7.4v1.5h4.1v1.5h3.3v16.7h1.7v-16.7h1.7v16.7
			h0.6v-16.7h9.3v16.7h1.7v-16.7h1.2v16.7h1.7v-16.7h3.1v16.7h0.6v-16.7h2.1v0.7h14.4v16h1.7v-16h0.6v1.8h3.3v14.2h3.8v-14.2h6.4
			v14.2h67v-10.7h5.2v10.7h3.8v-10.7h3.7v10.7h1.7v-10.7h2.8v10.7h3.8v-10.7h3.2V534h0.6v-18.2h1.3v10.7h1.7v-10.7h3.2v-1.5h11.9
			V534h0.6v-19.7h6.3v12.2h1.4v-12.2h1.2v-1.7h2.4v13.9h3.8v-13.9h4.2V534h0.6v-21.4h15.8v13.9h3.8v-13.9h2.2V534h0.6v-21.4h1.3
			v-1.9h2.6V534h0.6v-23.3h2.1v-1.9h-2.1v-17.5h2.1v-1.9h-2.1v-17.5h2.1v-1.9h-2.1v-17.5h2.1v-1.9h-2.1v-17.5h2.1V431h-2.1v-17.5
			h2.1v-1.9h-2.1V394h2.1v-1.9h-2.1v-17.5h2.1v-1.9h-2.1v-17.5h2.1v-1.9h-2.1v-17.5h2.1v-1.9h-2.1v-17.5h2.1v-1.9h-2.1v-17.5h2.1
			v-1.9h-2.1v-17.5h2.1v-1.9h-2.1v-17.5h2.1v-1.9h-2.1v-17.5h2.1v-1.9h-2.1v-11h-0.6v11h-3.9v-11h-0.6v11h-2.2v-15.6h4V219h5.3V217
			h-9.3v-13.1h6.9v-1.9h-6.9v-19.6h-3.8v19.6h-16v-1h-4.5v-18.6h-0.5v-4.1h-7.8v-3.9H258v-4.2h-1.7v4.2h-5.7v-4.2H248v4.2H241v-4.2
			h-4.8v4.2h-5.8v-3.5h-5.2v-45.8h2.3v-2.2h-2.3v-0.7h2.3V120h-2.3v-11.2h2.3v-2.2h-2.3h-1.1v-0.7h3.4v-2.2h-5.1v-2.2h-2.3v-2.2h2.3
			v-2.2h-3.4V84.9h0.8v-0.7h-0.8v-0.2h0.8v-0.7h-0.8v-2.6h2.7v-2.1H234v0.5h23.9v-0.5h11.3v9.3h9.9V73.5h-5.4l-56.2-24.2v-1.6h-2.8
			V49L65.9,73.8l0.1,0.3H20.7v0.6h3.9L23,78H18.7z M133.3,486.7v2h-2.1v-15.1h2.1v0.7h14.4v12.3H133.3z M150,484.6v2h-0.6v-12.3h0.6
			v1.8h3.3v8.5H150z M268.7,484.1v2.6h-7.5v-2.6H258V477h3.2v-1.5h11.9v8.6H268.7z M282.6,261.5v-1.7h2.4v15.6h-2.4v-2.6h-1.2v-11.2
			H282.6z M280,222.6v11.2h-2.2v-2.6h-4.1v-5.8h-0.6v5.8h-4.5v2.6h-7.5v-2.6H258v-7.1h3.2v-1.5H280z M262.3,445.2v2.6h-1v-2.6H258
			v-7.1h3.2v-1.5h11.9v11.2h-1.7v-2.6H262.3z M282.6,281v-1.7h2.4v15.6h-2.4v-2.6h-1.2V281H282.6z M261.2,243.6v-1.5h11.9v11.2H273
			v-2.6h-9.2v2.6h-2.6v-2.6H258v-7.1H261.2z M262.4,425.8v2.6h-1.1v-2.6H258v-7.1h3.2v-1.5h11.9v11.2h-1.6v-2.6H262.4z M282.6,319.9
			v-1.7h2.4v15.6h-2.4v-2.6h-1.2v-11.2H282.6z M261.2,301.9v-1.5h11.9v11.2h-4.5h-7.5v-2.6H258v-7.1H261.2z M256.3,282.5v7.1H255
			v-7.1H256.3z M255,270.2V263h1.3v7.1H255z M256.3,301.9v7.1H255v-7.1H256.3z M268.7,406.3v2.6h-7.5v-2.6H258v-7.1h3.2v-1.5h11.9
			v8.6H268.7z M261.2,321.4v-1.5h11.9v8.6h-4.5v2.6h-7.5v-2.6H258v-7.1H261.2z M273.2,339.3v11.2h-4.5h-7.5V348H258v-7.1h3.2v-1.5
			H273.2z M268.7,386.9v2.6h-7.5v-2.6H258v-7.1h3.2v-1.5h11.9v8.6H268.7z M258,367.4v-7.1h3.2v-1.5h11.9v8.6h-7.2v2.6h-4.7v-2.6H258
			z M273.7,339.3h6.3v11.2h-2.2h-4.1V339.3z M280,358.8V370h-5v-2.6h-1.4v-8.6H280z M280,378.2v11.2h-2.2v-2.6h-4.1v-8.6H280z
			 M280,397.7v11.2h-2.2v-2.6h-4.1v-8.6H280z M256.3,406.3H255v-7.1h1.3V406.3z M255,386.9v-7.1h1.3v7.1H255z M255,367.4v-7.1h1.3
			v7.1H255z M255,348v-7.1h1.3v7.1H255z M255,328.5v-7.1h1.3v7.1H255z M273.7,300.4h6.3v11.2h-2.2h-4.1V300.4z M280,319.9v11.2h-2.2
			v-2.6h-4.1v-8.6H280z M285.1,337.6v15.6h-2.4v-2.6h-1.2v-11.2h1.2v-1.7H285.1z M285.1,357v15.6h-2.4V370h-1.2v-11.2h1.2V357H285.1
			z M285.1,376.5v15.6h-2.4v-2.6h-1.2v-11.2h1.2v-1.7H285.1z M285.1,395.9v15.6h-2.4v-2.6h-1.2v-11.2h1.2v-1.7H285.1z M285.1,415.4
			V431h-2.4v-2.6h-1.2v-11.2h1.2v-1.7H285.1z M280,428.4h-6.3v-11.2h6.3V428.4z M256.3,425.8H255v-7.1h1.3V425.8z M254.4,425.8h-3.2
			v-7.1h3.2V425.8z M251.2,406.3v-7.1h3.2v7.1H251.2z M251.2,386.9v-7.1h3.2v7.1H251.2z M251.2,367.4v-7.1h3.2v7.1H251.2z
			 M251.2,348v-7.1h3.2v7.1H251.2z M251.2,328.5v-7.1h3.2v7.1H251.2z M251.2,309.1v-7.1h3.2v7.1H251.2z M251.2,289.6v-7.1h3.2v7.1
			H251.2z M251.2,270.2V263h3.2v7.1H251.2z M251.2,250.7v-7.1h3.2v7.1H251.2z M255,243.6h1.3v7.1H255V243.6z M273.2,261.5v8.6h-4.5
			v2.6h-7.5v-2.6H258V263h3.2v-1.5H273.2z M273.2,281v8.6h-4.5v2.6h-7.5v-2.6H258v-7.1h3.2V281H273.2z M273.7,281h6.3v11.2h-2.2
			v-2.6h-4.1V281z M285.1,298.7v15.6h-2.4v-2.6h-1.2v-11.2h1.2v-1.7H285.1z M288.8,298.7h4.2v15.6h-4.2V298.7z M293,318.2v15.6h-4.2
			v-15.6H293z M293,337.6v15.6h-4.2v-15.6H293z M293,357v15.6h-4.2V357H293z M293,376.5v15.6h-4.2v-15.6H293z M293,395.9v15.6h-4.2
			v-15.6H293z M293,415.4V431h-4.2v-15.6H293z M293,434.8v15.6h-4.2v-15.6H293z M285.1,450.4h-2.4v-2.6h-1.2v-11.2h1.2v-1.7h2.4
			V450.4z M280,447.8h-6.3v-11.2h6.3V447.8z M256.3,445.2H255v-7.1h1.3V445.2z M254.4,445.2h-3.2v-7.1h3.2V445.2z M247.5,445.2h-2.8
			v-7.1h2.8V445.2z M244.7,425.8v-7.1h2.8v7.1H244.7z M244.7,406.3v-7.1h2.8v7.1H244.7z M244.7,386.9v-7.1h2.8v7.1H244.7z
			 M244.7,367.4v-7.1h2.8v7.1H244.7z M244.7,348v-7.1h2.8v7.1H244.7z M244.7,328.5v-7.1h2.8v7.1H244.7z M244.7,309.1v-7.1h2.8v7.1
			H244.7z M244.7,289.6v-7.1h2.8v7.1H244.7z M244.7,270.2V263h2.8v7.1H244.7z M244.7,250.7v-7.1h2.8v7.1H244.7z M244.7,231.3v-7.1
			h2.8v7.1H244.7z M244.7,211.8v-6h2.8v6H244.7z M239.3,201v-4.2h3.7v4.2H239.3z M247.5,196.8v4.2h-2.8v-4.2H247.5z M256.3,205.8v6
			h-5.1v-6H256.3z M256.3,224.2v7.1H255v-5.8h-0.6v5.8h-3.2v-7.1H256.3z M280,242.1v11.2h-6.3v-11.2H280z M280,261.5v11.2h-2.2v-2.6
			h-4.1v-8.6H280z M288.8,259.8h4.2v15.6h-4.2V259.8z M293,279.3v15.6h-4.2v-15.6H293z M293.6,279.3h15.8v15.6h-15.8V279.3z
			 M309.4,298.7v15.6h-15.8v-15.6H309.4z M309.4,318.2v15.6h-15.8v-15.6H309.4z M309.4,337.6v15.6h-15.8v-15.6H309.4z M309.4,357
			v15.6h-15.8V357H309.4z M309.4,376.5v15.6h-15.8v-15.6H309.4z M309.4,395.9v15.6h-15.8v-15.6H309.4z M309.4,415.4V431h-15.8v-15.6
			H309.4z M309.4,434.8v15.6h-15.8v-15.6H309.4z M309.4,454.3v15.6h-15.8v-15.6H309.4z M293,469.8h-4.2v-15.6h4.2V469.8z
			 M285.1,469.8h-2.4v-2.6h-1.2V456h1.2v-1.7h2.4V469.8z M280,467.3h-2.2h-4.1V456h6.3V467.3z M273.2,467.3h-4.5h-7.5v-2.6H258v-7.1
			h3.2V456h11.9V467.3z M256.3,464.7H255v-7.1h1.3V464.7z M254.4,464.7h-3.2v-7.1h3.2V464.7z M247.5,464.7h-2.8v-7.1h2.8V464.7z
			 M243,464.7h-3.7v-7.1h3.7V464.7z M239.3,445.2v-7.1h3.7v7.1H239.3z M239.3,425.8v-7.1h3.7v7.1H239.3z M239.3,406.3v-7.1h3.7v7.1
			H239.3z M239.3,386.9v-7.1h3.7v7.1H239.3z M239.3,367.4v-7.1h3.7v7.1H239.3z M239.3,348v-7.1h3.7v7.1H239.3z M239.3,328.5v-7.1
			h3.7v7.1H239.3z M239.3,309.1v-7.1h3.7v7.1H239.3z M239.3,289.6v-7.1h3.7v7.1H239.3z M239.3,270.2V263h3.7v7.1H239.3z
			 M239.3,250.7v-7.1h3.7v7.1H239.3z M239.3,231.3v-7.1h3.7v7.1H239.3z M239.3,211.8v-6h3.7v6H239.3z M230.4,201v-4.2h5.2v4.2H230.4
			z M256.3,196.8v4.2h-5.1v-4.2H256.3z M285.1,205.8V217h-2.4v-2.6h-4.8v-2.6h-9.2v2.6h-7.5v-2.6H258v-6H285.1z M285.1,220.9v15.6
			h-2.4v-2.6h-1.2v-11.2h1.2v-1.7H285.1z M285.1,240.4v15.6h-2.4v-2.6h-1.2v-11.2h1.2v-1.7H285.1z M288.8,240.4h4.2v15.6h-4.2V240.4
			z M293.6,240.4h15.8v15.6h-15.8V240.4z M309.4,259.8v15.6h-15.8v-15.6H309.4z M313.1,259.8h2.2v15.6h-2.2V259.8z M315.3,279.3
			v15.6h-2.2v-15.6H315.3z M315.3,298.7v15.6h-2.2v-15.6H315.3z M315.3,318.2v15.6h-2.2v-15.6H315.3z M315.3,337.6v15.6h-2.2v-15.6
			H315.3z M315.3,357v15.6h-2.2V357H315.3z M315.3,376.5v15.6h-2.2v-15.6H315.3z M315.3,395.9v15.6h-2.2v-15.6H315.3z M315.3,415.4
			V431h-2.2v-15.6H315.3z M315.3,434.8v15.6h-2.2v-15.6H315.3z M315.3,454.3v15.6h-2.2v-15.6H315.3z M315.3,473.7v15.6h-2.2v-15.6
			H315.3z M309.4,489.3h-15.8v-15.6h15.8V489.3z M293,489.3h-4.2v-15.6h4.2V489.3z M285.1,489.3h-2.4v-2.6h-1.2v-11.2h1.2v-1.7h2.4
			V489.3z M280,486.7h-2.2v-2.6h-4.1v-8.6h6.3V486.7z M256.3,484.1H255V477h1.3V484.1z M254.4,484.1h-3.2V477h3.2V484.1z
			 M247.5,484.1h-2.8V477h2.8V484.1z M243,484.1h-3.7V477h3.7V484.1z M235.6,484.1h-5.2V477h5.2V484.1z M230.4,464.7v-7.1h5.2v7.1
			H230.4z M230.4,445.2v-7.1h5.2v7.1H230.4z M230.4,425.8v-7.1h5.2v7.1H230.4z M230.4,406.3v-7.1h5.2v7.1H230.4z M230.4,386.9v-7.1
			h5.2v7.1H230.4z M230.4,367.4v-7.1h5.2v7.1H230.4z M230.4,348v-7.1h5.2v7.1H230.4z M230.4,328.5v-7.1h5.2v7.1H230.4z M230.4,309.1
			v-7.1h5.2v7.1H230.4z M230.4,289.6v-7.1h5.2v7.1H230.4z M230.4,270.2V263h5.2v7.1H230.4z M230.4,250.7v-7.1h5.2v7.1H230.4z
			 M230.4,231.3v-7.1h5.2v7.1H230.4z M230.4,211.8v-6h5.2v6H230.4z M133.3,468.6v2h-2.1v-15.1h2.1v0.7h14.4v12.3H133.3z M150,466.6
			v2h-0.6v-12.3h0.6v1.8h3.3v8.5H150z M163.4,285.6H157v-8.5h6.4V285.6z M133.3,450.5v2h-2.1v-15.1h2.1v0.7h14.4v12.3H133.3z
			 M150,448.5v2h-0.6v-12.3h0.6v1.8h3.3v8.5H150z M133.3,432.4v2h-2.1v-15.1h2.1v0.7h14.4v12.3H133.3z M131.2,416.3v-15.1h2.1v0.7
			h14.4v12.3h-14.4v2H131.2z M131.2,398.2v-15.1h2.1v0.7h14.4v12.3h-14.4v2H131.2z M131.2,380.1v-15.1h2.1v0.7h14.4v12.3h-14.4v2
			H131.2z M131.2,362V347h2.1v0.7h14.4V360h-14.4v2H131.2z M131.2,343.9v-15.1h2.1v0.7h14.4v12.3h-14.4v2H131.2z M131.2,325.8v-15.1
			h2.1v0.7h14.4v12.3h-14.4v2H131.2z M131.2,307.7v-15.1h2.1v0.7h14.4v12.3h-14.4v2H131.2z M149.3,293.4h0.6v1.8h3.3v8.5H150v2h-0.6
			V293.4z M153.3,313.3v8.5H150v2h-0.6v-12.3h0.6v1.8H153.3z M153.3,331.4v8.5H150v2h-0.6v-12.3h0.6v1.8H153.3z M153.3,349.5v8.5
			H150v2h-0.6v-12.3h0.6v1.8H153.3z M153.3,367.6v8.5H150v2h-0.6v-12.3h0.6v1.8H153.3z M153.3,385.7v8.5H150v2h-0.6v-12.3h0.6v1.8
			H153.3z M153.3,403.8v8.5H150v2h-0.6V402h0.6v1.8H153.3z M153.3,421.9v8.5H150v2h-0.6v-12.3h0.6v1.8H153.3z M130.6,452.5h-3.1
			v-15.1h3.1V452.5z M127.5,434.4v-15.1h3.1v15.1H127.5z M127.5,416.3v-15.1h3.1v15.1H127.5z M127.5,398.2v-15.1h3.1v15.1H127.5z
			 M127.5,380.1v-15.1h3.1v15.1H127.5z M127.5,362V347h3.1V362H127.5z M127.5,343.9v-15.1h3.1v15.1H127.5z M127.5,325.8v-15.1h3.1
			v15.1H127.5z M127.5,307.7v-15.1h3.1v15.1H127.5z M127.5,289.6v-15.1h3.1v15.1H127.5z M131.2,274.6h2.1v0.7h14.4v12.3h-14.4v2
			h-2.1V274.6z M149.3,275.3h0.6v1.8h3.3v8.5H150v2h-0.6V275.3z M163.4,303.7H157v-8.5h6.4V303.7z M163.4,321.8H157v-8.5h6.4V321.8z
			 M163.4,339.9H157v-8.5h6.4V339.9z M163.4,358H157v-8.5h6.4V358z M163.4,376.1H157v-8.5h6.4V376.1z M163.4,394.2H157v-8.5h6.4
			V394.2z M163.4,412.3H157v-8.5h6.4V412.3z M163.4,430.4H157v-8.5h6.4V430.4z M163.4,448.5H157V440h6.4V448.5z M163.4,466.6H157
			v-8.5h6.4V466.6z M130.6,470.6h-3.1v-15.1h3.1V470.6z M125.8,470.6h-1.2v-15.1h1.2V470.6z M124.6,452.5v-15.1h1.2v15.1H124.6z
			 M124.6,434.4v-15.1h1.2v15.1H124.6z M124.6,416.3v-15.1h1.2v15.1H124.6z M124.6,398.2v-15.1h1.2v15.1H124.6z M124.6,380.1v-15.1
			h1.2v15.1H124.6z M124.6,362V347h1.2V362H124.6z M124.6,343.9v-15.1h1.2v15.1H124.6z M124.6,325.8v-15.1h1.2v15.1H124.6z
			 M124.6,307.7v-15.1h1.2v15.1H124.6z M124.6,289.6v-15.1h1.2v15.1H124.6z M124.6,271.5v-15.1h1.2v15.1H124.6z M127.5,256.5h3.1
			v15.1h-3.1V256.5z M131.2,256.5h2.1v0.7h14.4v12.3h-14.4v2h-2.1V256.5z M149.3,257.2h0.6v1.8h3.3v8.5H150v2h-0.6V257.2z M157,259
			h6.4v8.5H157V259z M157,249.4v-8.5h6.4v8.5H157z M163.4,484.6H157v-8.5h6.4V484.6z M130.6,488.7h-3.1v-15.1h3.1V488.7z
			 M125.8,488.7h-1.2v-15.1h1.2V488.7z M122.9,488.7h-9.3v-15.1h9.3V488.7z M113.6,470.6v-15.1h9.3v15.1H113.6z M113.6,452.5v-15.1
			h9.3v15.1H113.6z M113.6,434.4v-15.1h9.3v15.1H113.6z M113.6,416.3v-15.1h9.3v15.1H113.6z M113.6,398.2v-15.1h9.3v15.1H113.6z
			 M113.6,380.1v-15.1h9.3v15.1H113.6z M113.6,362V347h9.3V362H113.6z M113.6,343.9v-15.1h9.3v15.1H113.6z M113.6,325.8v-15.1h9.3
			v15.1H113.6z M113.6,307.7v-15.1h9.3v15.1H113.6z M113.6,289.6v-15.1h9.3v15.1H113.6z M113.6,271.5v-15.1h9.3v15.1H113.6z
			 M113.6,253.4v-15.1h9.3v15.1H113.6z M124.6,238.4h1.2v15.1h-1.2V238.4z M127.5,238.4h3.1v15.1h-3.1V238.4z M131.2,238.4h2.1v0.7
			h14.4v12.3h-14.4v2h-2.1V238.4z M149.3,239.1h0.6v1.8h3.3v8.5H150v2h-0.6V239.1z M149.3,233.3V221h0.6v1.8h3.3v8.5H150v2H149.3z
			 M157,222.8h6.4v8.5H157V222.8z M157,213.2v-7.3h6.4v7.3H157z M157,201v-4.2h6.4v4.2H157z M285.1,201H258v-4.2h22.5v-3.5h4.5V201z
			 M309.4,217h-20.6v-11.2h4.5v-1.9h16V217z M309.4,236.5h-15.8v-11H293v11h-4.2v-15.6h20.6V236.5z M315.3,240.4v15.6h-2.2v-15.6
			H315.3z M319.8,255.9h-3.9v-15.6h1.3v-1.9h2.6V255.9z M319.8,275.4h-3.9v-15.6h1.3v-1.9h2.6V275.4z M319.8,294.8h-3.9v-15.6h1.3
			v-1.9h2.6V294.8z M319.8,314.3h-3.9v-15.6h1.3v-1.9h2.6V314.3z M319.8,333.7h-3.9v-15.6h1.3v-1.9h2.6V333.7z M319.8,353.2h-3.9
			v-15.6h1.3v-1.9h2.6V353.2z M319.8,372.6h-3.9V357h1.3v-1.9h2.6V372.6z M319.8,392.1h-3.9v-15.6h1.3v-1.9h2.6V392.1z M319.8,411.5
			h-3.9v-15.6h1.3V394h2.6V411.5z M319.8,431h-3.9v-15.6h1.3v-1.9h2.6V431z M319.8,450.4h-3.9v-15.6h1.3v-1.9h2.6V450.4z
			 M319.8,469.8h-3.9v-15.6h1.3v-1.9h2.6V469.8z M319.8,489.3h-3.9v-15.6h1.3v-1.9h2.6V489.3z M315.9,508.7v-15.6h1.3v-1.9h2.6v17.5
			H315.9z M313.1,508.7v-15.6h2.2v15.6H313.1z M293.6,508.7v-15.6h15.8v15.6H293.6z M288.8,508.7v-15.6h4.2v15.6H288.8z
			 M281.5,506.2v-11.2h1.2v-1.7h2.4v15.6h-2.4v-2.6H281.5z M273.7,503.6v-8.6h6.3v11.2h-2.2v-2.6H273.7z M258,503.6v-7.1h3.2v-1.5
			h11.9v8.6h-4.5v2.6h-7.5v-2.6H258z M255,503.6v-7.1h1.3v7.1H255z M251.2,503.6v-7.1h3.2v7.1H251.2z M244.7,503.6v-7.1h2.8v7.1
			H244.7z M239.3,503.6v-7.1h3.7v7.1H239.3z M230.4,503.6v-7.1h5.2v7.1H230.4z M157,502.7v-8.5h6.4v8.5H157z M149.3,504.8v-12.3h0.6
			v1.8h3.3v8.5H150v2H149.3z M131.2,506.8v-15.1h2.1v0.7h14.4v12.3h-14.4v2H131.2z M127.5,506.8v-15.1h3.1v15.1H127.5z M124.6,506.8
			v-15.1h1.2v15.1H124.6z M113.6,506.8v-15.1h9.3v15.1H113.6z M111.3,491.7h1.7v15.1h-1.7V491.7z M111.3,473.6h1.7v15.1h-1.7V473.6z
			 M111.3,455.5h1.7v15.1h-1.7V455.5z M111.3,437.4h1.7v15.1h-1.7V437.4z M111.3,419.3h1.7v15.1h-1.7V419.3z M111.3,401.2h1.7v15.1
			h-1.7V401.2z M111.3,383.1h1.7v15.1h-1.7V383.1z M111.3,365.1h1.7v15.1h-1.7V365.1z M111.3,347h1.7V362h-1.7V347z M111.3,328.9
			h1.7v15.1h-1.7V328.9z M111.3,310.8h1.7v15.1h-1.7V310.8z M111.3,292.7h1.7v15.1h-1.7V292.7z M111.3,274.6h1.7v15.1h-1.7V274.6z
			 M111.3,256.5h1.7v15.1h-1.7V256.5z M111.3,238.4h1.7v15.1h-1.7V238.4z M113,220.3v15.1h-1.7v-15.1H113z M122.9,220.3v15.1h-9.3
			v-15.1H122.9z M125.8,220.3v15.1h-1.2v-15.1H125.8z M130.6,220.3v15.1h-3.1v-15.1H130.6z M147.6,221v12.3h-14.4v2h-2.1v-15.1h2.1
			v0.7H147.6z M149.3,215.2v-9.4h3.9v7.3H150v2H149.3z M153.3,195.5v5.5h-3.9v-5.5H153.3z M222.6,108.8v6l-12.7-6H222.6z M222.6,120
			h-7.5l7.5-3.6V120z M222.6,125.1v3.2h-1l-6.7-3.2H222.6z M213.9,164.8v1.6l-4.2-2v-0.1l1.5-0.7h11.4v6.9l-6.1-2.9v-2.8H213.9z
			 M212.5,138.8l10,4.7l-2.9,1.4h-10v-6.1H212.5z M209.7,147.1h5.3l-5.3,2.5V147.1z M222.6,144.3v0.6h-1.2L222.6,144.3z
			 M222.6,153.2h-7.3l-5.6-2.6v-0.1l7.1-3.4h5.8V153.2z M213.5,153.2h-3.8v-1.8L213.5,153.2z M218.2,155.4l4.4,2.1l-8.5,4h-4.3v-6.1
			H218.2z M209.7,136.5l12.7-6h0.2v6.1L209.7,136.5L209.7,136.5z M222.6,142.7l-8.3-3.9h8.3V142.7z M222.6,156.6l-2.7-1.3h2.7V156.6
			z M222.6,158.2v3.2h-6.8L222.6,158.2z M221.6,170.9h-5.1v-2.4L221.6,170.9z M209.7,130.5h11l-11,5.2V130.5z M209.7,170.9v-5.6
			l4.2,2v3.6H209.7z M209.7,125.1h3.4l6.7,3.2h-10.1V125.1z M209.7,120v-10.4l12.9,6.1l-9.2,4.4H209.7z M24.9,74.6h0.2l1.6,3.4h-3.4
			L24.9,74.6z M28.7,74.6L27.1,78h-0.2l-1.6-3.4H28.7z M29.2,74.6l1.6,3.4h-3.4l1.6-3.4H29.2z M32.9,74.6L31.3,78H31l-1.6-3.4H32.9z
			 M33.3,74.6l1.6,3.4h-3.4l1.6-3.4H33.3z M37,74.6L35.4,78h-0.2l-1.6-3.4H37z M37.4,74.6L39,78h-3.4l1.6-3.4H37.4z M41.1,74.6
			L39.5,78h-0.2l-1.6-3.4H41.1z M41.5,74.6l1.6,3.4h-3.4l1.6-3.4H41.5z M45.2,74.6L43.6,78h-0.2l-1.6-3.4H45.2z M45.6,74.6l1.6,3.4
			h-3.4l1.6-3.4H45.6z M49.3,74.6L47.7,78h-0.2l-1.6-3.4H49.3z M49.7,74.6l1.6,3.4h-3.4l1.6-3.4H49.7z M53.4,74.6L51.8,78h-0.2
			L50,74.6H53.4z M53.9,74.6l1.6,3.4H52l1.6-3.4H53.9z M57.5,74.6L55.9,78h-0.2l-1.6-3.4H57.5z M58,74.6l1.6,3.4h-3.4l1.6-3.4H58z
			 M61.6,74.6L60,78h-0.2l-1.6-3.4H61.6z M62.1,74.6l1.6,3.4h-3.4l1.6-3.4H62.1z M62.3,74.6h3.4L64.1,78h-0.2L62.3,74.6z M68,78
			l-1.6-3.4h3.4L68.2,78H68z M72.1,78l-1.6-3.4h3.4L72.4,78H72.1z M76.2,78l-1.6-3.4h3.4L76.5,78H76.2z M80.3,78l-1.6-3.4h3.4
			L80.6,78H80.3z M84.5,78l-1.6-3.4h3.4L84.7,78H84.5z M88.6,78L87,74.6h3.4L88.8,78H88.6z M92.7,78l-1.6-3.4h3.4L92.9,78H92.7z
			 M96.8,78l-1.6-3.4h3.4L97,78H96.8z M100.9,78l-1.6-3.4h3.4l-1.6,3.4H100.9z M105,78l-1.6-3.4h3.4l-1.6,3.4H105z M109.1,78
			l-1.6-3.4h3.4l-1.6,3.4H109.1z M113.2,78l-1.6-3.4h3.4l-1.6,3.4H113.2z M117.3,78l-1.6-3.4h3.4l-1.6,3.4H117.3z M121.4,78
			l-1.6-3.4h3.4l-1.6,3.4H121.4z M125.6,78l-1.6-3.4h3.4l-1.6,3.4H125.6z M129.7,78l-1.6-3.4h3.4l-1.6,3.4H129.7z M133.8,78
			l-1.6-3.4h3.4L134,78H133.8z M137.9,78l-1.6-3.4h3.4l-1.6,3.4H137.9z M142,78l-1.6-3.4h3.4l-1.6,3.4H142z M146.1,78l-1.6-3.4h3.4
			l-1.6,3.4H146.1z M150.2,78l-1.6-3.4h3.4l-1.6,3.4H150.2z M154.3,78l-1.6-3.4h3.3v0.2l-1.5,3.2H154.3z M158.4,78l-0.8-1.6h1.7
			l-0.8,1.6H158.4z M162.5,78l-1.3-2.8v-0.6h3.1l-1.6,3.4H162.5z M166.6,78l-1.6-3.4h3.4l-1.6,3.4H166.6z M170.8,78l-1.6-3.4h3.4
			L171,78H170.8z M174.9,78l-1.6-3.4h3.4l-1.6,3.4H174.9z M179,78l-1.6-3.4h3.4l-1.6,3.4H179z M183.1,78l-1.6-3.4h3.4l-1.6,3.4
			H183.1z M187.2,78l-1.6-3.4h3.4l-1.6,3.4H187.2z M191.3,78l-1.6-3.4h3.4l-1.6,3.4H191.3z M195.4,78l-1.6-3.4h3.4l-1.6,3.4H195.4z
			 M199.5,78l-1.6-3.4h3.4l-1.6,3.4H199.5z M161.2,74.1v-0.5l53.4-23.5v0.4h0.5v1.4h-0.5v19.3h-2.6v2.9h-4.6v-0.6h-5.2v0.6H161.2z
			 M224.2,78l-1.2-2.5h2.6l-1.2,2.5H224.2z M228.3,78l-1.2-2.5h2.6l-1.2,2.5H228.3z M232.4,78l-1.2-2.5h2.6l-1.2,2.5H232.4z
			 M68,74.1l123.3-20.5L86.6,73.8l0.1,0.3H68z M88.4,74.1L213.2,50l-52,22.9v-0.6H156v1.8H88.4z M217.3,50.5v-0.2l37.8,23.2h-12.6
			v-3.6h-23.9v1.3h-1.3V51.9h-0.5v-1.4H217.3z M210,74.6l0.6,1.3h-1.4l0.6-1.3H210z M207.4,74.6h2.2l-0.6,1.3h-1.6V74.6z
			 M210.3,74.6h1.7v1.3h-1.1L210.3,74.6z M257.8,74.6h1l-1,2.2V74.6z M232.2,78h-3.4l1.2-2.5h1L232.2,78z M228,78h-3.4l1.2-2.5h1
			L228,78z M202.2,75l-0.2-0.3h0.2V75z M199.3,78h-3.4l1.6-3.4h0.2L199.3,78z M195.2,78h-3.4l1.6-3.4h0.2L195.2,78z M191.1,78h-3.4
			l1.6-3.4h0.2L191.1,78z M187,78h-3.4l1.6-3.4h0.2L187,78z M182.8,78h-3.4l1.6-3.4h0.2L182.8,78z M178.7,78h-3.4l1.6-3.4h0.2
			L178.7,78z M174.6,78h-3.4l1.6-3.4h0.2L174.6,78z M170.5,78h-3.4l1.6-3.4h0.2L170.5,78z M166.4,78H163l1.6-3.4h0.2L166.4,78z
			 M162.3,78h-3.4l0.8-1.6h1.6v-0.7L162.3,78z M158.2,78h-3.4l1.3-2.6v1h1.4L158.2,78z M154.1,78h-3.4l1.6-3.4h0.2L154.1,78z
			 M150,78h-3.4l1.6-3.4h0.2L150,78z M145.9,78h-3.4l1.6-3.4h0.2L145.9,78z M141.7,78h-3.4l1.6-3.4h0.2L141.7,78z M137.6,78h-3.4
			l1.6-3.4h0.2L137.6,78z M133.5,78h-3.4l1.6-3.4h0.2L133.5,78z M129.4,78H126l1.6-3.4h0.2L129.4,78z M125.3,78h-3.4l1.6-3.4h0.2
			L125.3,78z M121.2,78h-3.4l1.6-3.4h0.2L121.2,78z M117.1,78h-3.4l1.6-3.4h0.2L117.1,78z M113,78h-3.4l1.6-3.4h0.2L113,78z
			 M108.9,78h-3.4l1.6-3.4h0.2L108.9,78z M104.8,78h-3.4l1.6-3.4h0.2L104.8,78z M100.7,78h-3.4l1.6-3.4h0.2L100.7,78z M96.5,78h-3.4
			l1.6-3.4H95L96.5,78z M92.4,78H89l1.6-3.4h0.2L92.4,78z M88.3,78h-3.4l1.6-3.4h0.2L88.3,78z M84.2,78h-3.4l1.6-3.4h0.2L84.2,78z
			 M80.1,78h-3.4l1.6-3.4h0.2L80.1,78z M76,78h-3.4l1.6-3.4h0.2L76,78z M71.9,78h-3.4l1.6-3.4h0.2L71.9,78z M67.8,78h-3.4l1.6-3.4
			h0.2L67.8,78z M271.9,73.5h-2.8v0.6h-11.3v-0.6h-1.5l-36.4-22.3L271.9,73.5z M261.2,78l-1.6-3.4h3.4l-1.6,3.4H261.2z M265.3,78
			l-1.6-3.4h3.4l-1.6,3.4H265.3z M265,78h-3.4l1.6-3.4h0.2L265,78z M269.1,77.5l-1.3-2.8h1.3V77.5z M269.1,78h-3.4l1.6-3.4h0.2
			L269.1,78L269.1,78z M257.8,78v-0.7l1.3-2.7h0.2l1.6,3.4H257.8z M234,78h-1.1l1.1-2.3V78z M221.8,78v-2.5h1l1.2,2.5H221.8z
			 M218.3,80.7v0.9l-1.8-0.9H218.3z M218.3,83.2h-2.4l2.4-1.2V83.2z M218.3,84.9v1h-0.3l-2.2-1H218.3z M215,89.3l3.3,1.5l-0.9,0.4
			h-3.2v-2H215z M214.1,92h1.7l-1.7,0.8V92z M218.3,91.1v0.2h-0.4L218.3,91.1z M218.3,94h-2.4l-1.8-0.9v0l2.3-1.1h1.9V94z
			 M214.1,88.6l4.1-2h0.1v2L214.1,88.6L214.1,88.6z M218.3,90.6l-2.7-1.3h2.7V90.6z M218.3,95.1l-0.9-0.4h0.9V95.1z M218.3,96.7
			h-2.2l2.2-1V96.7z M215.5,96.7h-1.4v-2h2.7l1.4,0.7L215.5,96.7z M214.1,94v-0.6l1.2,0.6H214.1z M214.1,86.6h3.6l-3.6,1.7V86.6z
			 M214.1,84.9h1.1l2.2,1h-3.3V84.9z M214.1,80.7h1.8l2.4,1.1l-3,1.4h-1.2V80.7z M202.2,78H200l1.6-3.4h0.2l0.4,0.8v0.4v1.6V78z"/>
		<polygon id="XMLID_10766_" class="st4" points="67.9,82.7 65.6,82.7 65.6,185.6 67.4,185.6 67.4,189.7 63.2,189.7 63.2,185.6 
			65,185.6 65,82.7 62.7,82.7 62.7,78.6 67.9,78.6 		"/>
	</g>
	<g id="XMLID_2073_" class="st3">
		<path id="XMLID_2074_" class="st4" d="M1381.6,53.1l-1.6-3.4h3.9v-0.6h-45.3l0.1-0.3l-148.6-24.7v-1.3h-2.8v1.6l-56.2,24.2h-5.4
			v14.3h9.9v-9.3h11.3v0.5h23.9v-0.5h12.2v2.1h2.7v2.6h-0.8V59h0.8v0.2h-0.8v0.7h0.8v12.3h-3.4v2.2h2.3v2.2h-2.3v2.2h-5.1V81h3.4
			v0.7h-1.1h-2.3v2.2h2.3v11.2h-2.3v2.2h2.3V98h-2.3v2.2h2.3v45.8h-5.2v3.5h-5.8v-4.2h-4.8v4.2h-7.1v-4.2h-2.6v4.2h-5.7v-4.2h-1.7
			v4.2h-22.5v3.9h-7.8v4.1h-0.5V176h-4.5v1h-16v-19.6h-3.8V177h-6.9v1.9h6.9v13.1h-9.3v1.9h5.3v1.9h4v15.6h-2.2v-11h-0.6v11h-3.9
			v-11h-0.6v11h-2.1v1.9h2.1V231h-2.1v1.9h2.1v17.5h-2.1v1.9h2.1v17.5h-2.1v1.9h2.1v17.5h-2.1v1.9h2.1v17.5h-2.1v1.9h2.1v17.5h-2.1
			v1.9h2.1v17.5h-2.1v1.9h2.1v17.5h-2.1v1.9h2.1v17.5h-2.1v1.9h2.1V406h-2.1v1.9h2.1v17.5h-2.1v1.9h2.1v17.5h-2.1v1.9h2.1v17.5h-2.1
			v1.9h2.1v17.5h-2.1v1.9h2.1v23.3h0.6v-23.3h2.6v1.9h1.3v21.4h0.6v-21.4h2.2v13.9h3.8v-13.9h15.8v21.4h0.6v-21.4h4.2v13.9h3.8
			v-13.9h2.4v1.7h1.2v12.2h1.4v-12.2h6.3v19.7h0.6v-19.7h11.9v1.5h3.2v10.7h1.7v-10.7h1.3v18.2h0.6v-18.2h3.2v10.7h3.8v-10.7h2.8
			v10.7h1.7v-10.7h3.7v10.7h3.8v-10.7h5.2v10.7h67v-14.2h6.4v14.2h3.8v-14.2h3.3v-1.8h0.6v16h1.7v-16h14.4v-0.7h2.1v16.7h0.6v-16.7
			h3.1v16.7h1.7v-16.7h1.2v16.7h1.7v-16.7h9.3v16.7h0.6v-16.7h1.7v16.7h1.7v-16.7h3.3v-1.5h4.1v-1.5h-7.4v-15.1h3.3v-1.5h4.1v-1.5
			h-7.4v-15.1h3.3v-1.5h4.1v-1.5h-7.4v-15.1h3.3v-1.5h4.1v-1.5h-7.4v-15.1h3.3V411h4.1v-1.5h-7.4v-15.1h3.3v-1.5h4.1v-1.5h-7.4
			v-15.1h3.3v-1.5h4.1v-1.5h-7.4v-15.1h3.3v-1.5h4.1v-1.5h-7.4v-15.1h3.3v-1.5h4.1v-1.5h-7.4V322h3.3v-1.5h4.1V319h-7.4v-15.1h3.3
			v-1.5h4.1v-1.5h-7.4v-15.1h3.3v-1.5h4.1v-1.5h-7.4v-15.1h3.3v-1.5h4.1v-1.5h-7.4v-15.1h3.3v-1.5h4.1v-1.5h-7.4v-15.1h3.3V230h4.1
			v-1.5h-7.4v-15.1h3.3v-1.5h4.1v-1.5h-7.4v-15.1h3.3v-1.5h4.1v-1.5h-7.4v-5.6h-1.7v5.6h-1.7v-5.6h-0.6v5.6h-9.3v-5.6h-1.7v5.6h-1.2
			v-5.6h-1.7v5.6h-3.1v-11.6h-0.6v11.6h-2.1v-2H1257v-32.9h-1.7v3.2h-3.9v-3.2h-3.7v-4.1v-3.9h-6.5v-3.5h-5.6v-6.1h-2.6v6.1h-2.3
			v-6.1h-2.6v6.1h-30.6v-45.8h2.1V98h-2.1v-0.7h2.1v-2.2h-2.1V83.9h2.1v-2.2h-2.1h-1.3V81h3.4v-2.2h-5.1v-2.2h-2.3v-2.2h2.3v-2.2
			h-3.2V59.9h0.7v-0.7h-0.7V59h0.7v-0.7h-0.7v-2.6h0.7h0.6h9.7v-2.1h183.5v-0.6H1381.6z M1257,461.7v-12.3h14.4v-0.7h2.1v15.1h-2.1
			v-2H1257z M1251.4,459.7v-8.5h3.3v-1.8h0.6v12.3h-0.6v-2H1251.4z M1131.5,459.2v-8.6h11.9v1.5h3.2v7.1h-3.2v2.6h-7.5v-2.6H1131.5z
			 M1123.2,236.6v11.2h-1.2v2.6h-2.4v-15.6h2.4v1.7H1123.2z M1143.4,197.7v1.5h3.2v7.1h-3.2v2.6h-7.5v-2.6h-4.5v-5.8h-0.6v5.8h-4.1
			v2.6h-2.2v-11.2H1143.4z M1133.2,420.3v2.6h-1.7v-11.2h11.9v1.5h3.2v7.1h-3.2v2.6h-1v-2.6H1133.2z M1123.2,256v11.2h-1.2v2.6h-2.4
			v-15.6h2.4v1.7H1123.2z M1146.6,218.6v7.1h-3.2v2.6h-2.6v-2.6h-9.2v2.6h-0.1v-11.2h11.9v1.5H1146.6z M1133.1,400.8v2.6h-1.6v-11.2
			h11.9v1.5h3.2v7.1h-3.2v2.6h-1.1v-2.6H1133.1z M1123.2,294.9v11.2h-1.2v2.6h-2.4v-15.6h2.4v1.7H1123.2z M1146.6,277v7.1h-3.2v2.6
			h-7.5h-4.5v-11.2h11.9v1.5H1146.6z M1149.6,257.5v7.1h-1.3v-7.1H1149.6z M1148.3,245.2v-7.1h1.3v7.1H1148.3z M1149.6,277v7.1h-1.3
			V277H1149.6z M1131.5,381.4v-8.6h11.9v1.5h3.2v7.1h-3.2v2.6h-7.5v-2.6H1131.5z M1146.6,296.4v7.1h-3.2v2.6h-7.5v-2.6h-4.5v-8.6
			h11.9v1.5H1146.6z M1143.4,314.4v1.5h3.2v7.1h-3.2v2.6h-7.5h-4.5v-11.2H1143.4z M1131.5,361.9v-8.6h11.9v1.5h3.2v7.1h-3.2v2.6
			h-7.5v-2.6H1131.5z M1143.4,342.5v2.6h-4.7v-2.6h-7.2v-8.6h11.9v1.5h3.2v7.1H1143.4z M1130.9,325.6h-4.1h-2.2v-11.2h6.3V325.6z
			 M1130.9,333.8v8.6h-1.4v2.6h-5v-11.2H1130.9z M1130.9,353.3v8.6h-4.1v2.6h-2.2v-11.2H1130.9z M1130.9,372.7v8.6h-4.1v2.6h-2.2
			v-11.2H1130.9z M1148.3,374.2h1.3v7.1h-1.3V374.2z M1148.3,361.9v-7.1h1.3v7.1H1148.3z M1148.3,342.5v-7.1h1.3v7.1H1148.3z
			 M1148.3,323v-7.1h1.3v7.1H1148.3z M1148.3,303.6v-7.1h1.3v7.1H1148.3z M1130.9,286.7h-4.1h-2.2v-11.2h6.3V286.7z M1130.9,294.9
			v8.6h-4.1v2.6h-2.2v-11.2H1130.9z M1122,312.6v1.7h1.2v11.2h-1.2v2.6h-2.4v-15.6H1122z M1122,332.1v1.7h1.2v11.2h-1.2v2.6h-2.4
			v-15.6H1122z M1122,351.5v1.7h1.2v11.2h-1.2v2.6h-2.4v-15.6H1122z M1122,371v1.7h1.2V384h-1.2v2.6h-2.4V371H1122z M1122,390.4v1.7
			h1.2v11.2h-1.2v2.6h-2.4v-15.6H1122z M1124.6,392.2h6.3v11.2h-6.3V392.2z M1148.3,393.7h1.3v7.1h-1.3V393.7z M1150.2,393.7h3.2
			v7.1h-3.2V393.7z M1150.2,381.4v-7.1h3.2v7.1H1150.2z M1150.2,361.9v-7.1h3.2v7.1H1150.2z M1150.2,342.5v-7.1h3.2v7.1H1150.2z
			 M1150.2,323v-7.1h3.2v7.1H1150.2z M1150.2,303.6v-7.1h3.2v7.1H1150.2z M1150.2,284.1V277h3.2v7.1H1150.2z M1150.2,264.7v-7.1h3.2
			v7.1H1150.2z M1150.2,245.2v-7.1h3.2v7.1H1150.2z M1150.2,225.8v-7.1h3.2v7.1H1150.2z M1149.6,225.8h-1.3v-7.1h1.3V225.8z
			 M1143.4,236.6v1.5h3.2v7.1h-3.2v2.6h-7.5v-2.6h-4.5v-8.6H1143.4z M1143.4,256v1.5h3.2v7.1h-3.2v2.6h-7.5v-2.6h-4.5V256H1143.4z
			 M1130.9,264.7h-4.1v2.6h-2.2V256h6.3V264.7z M1122,273.7v1.7h1.2v11.2h-1.2v2.6h-2.4v-15.6H1122z M1115.8,289.3h-4.2v-15.6h4.2
			V289.3z M1115.8,293.2v15.6h-4.2v-15.6H1115.8z M1115.8,312.6v15.6h-4.2v-15.6H1115.8z M1115.8,332.1v15.6h-4.2v-15.6H1115.8z
			 M1115.8,351.5v15.6h-4.2v-15.6H1115.8z M1115.8,371v15.6h-4.2V371H1115.8z M1115.8,390.4V406h-4.2v-15.6H1115.8z M1115.8,409.9
			v15.6h-4.2v-15.6H1115.8z M1119.6,409.9h2.4v1.7h1.2v11.2h-1.2v2.6h-2.4V409.9z M1124.6,411.6h6.3v11.2h-6.3V411.6z M1148.3,413.1
			h1.3v7.1h-1.3V413.1z M1150.2,413.1h3.2v7.1h-3.2V413.1z M1157.2,413.1h2.8v7.1h-2.8V413.1z M1157.2,400.8v-7.1h2.8v7.1H1157.2z
			 M1157.2,381.4v-7.1h2.8v7.1H1157.2z M1157.2,361.9v-7.1h2.8v7.1H1157.2z M1157.2,342.5v-7.1h2.8v7.1H1157.2z M1157.2,323v-7.1
			h2.8v7.1H1157.2z M1157.2,303.6v-7.1h2.8v7.1H1157.2z M1157.2,284.1V277h2.8v7.1H1157.2z M1157.2,264.7v-7.1h2.8v7.1H1157.2z
			 M1157.2,245.2v-7.1h2.8v7.1H1157.2z M1157.2,225.8v-7.1h2.8v7.1H1157.2z M1157.2,206.3v-7.1h2.8v7.1H1157.2z M1157.2,186.9v-6
			h2.8v6H1157.2z M1161.6,176v-4.2h3.7v4.2H1161.6z M1159.9,171.9v4.2h-2.8v-4.2H1159.9z M1153.4,180.9v6h-5.1v-6H1153.4z
			 M1153.4,199.2v7.1h-3.2v-5.8h-0.6v5.8h-1.3v-7.1H1153.4z M1130.9,217.1v11.2h-6.3v-11.2H1130.9z M1130.9,236.6v8.6h-4.1v2.6h-2.2
			v-11.2H1130.9z M1115.8,250.4h-4.2v-15.6h4.2V250.4z M1115.8,254.3v15.6h-4.2v-15.6H1115.8z M1111,269.9h-15.8v-15.6h15.8V269.9z
			 M1111,273.7v15.6h-15.8v-15.6H1111z M1111,293.2v15.6h-15.8v-15.6H1111z M1111,312.6v15.6h-15.8v-15.6H1111z M1111,332.1v15.6
			h-15.8v-15.6H1111z M1111,351.5v15.6h-15.8v-15.6H1111z M1111,371v15.6h-15.8V371H1111z M1111,390.4V406h-15.8v-15.6H1111z
			 M1111,409.9v15.6h-15.8v-15.6H1111z M1111,429.3v15.6h-15.8v-15.6H1111z M1111.6,429.3h4.2v15.6h-4.2V429.3z M1119.6,429.3h2.4
			v1.7h1.2v11.2h-1.2v2.6h-2.4V429.3z M1124.6,431.1h6.3v11.2h-4.1h-2.2V431.1z M1131.5,431.1h11.9v1.5h3.2v7.1h-3.2v2.6h-7.5h-4.5
			V431.1z M1148.3,432.6h1.3v7.1h-1.3V432.6z M1150.2,432.6h3.2v7.1h-3.2V432.6z M1157.2,432.6h2.8v7.1h-2.8V432.6z M1161.6,432.6
			h3.7v7.1h-3.7V432.6z M1161.6,420.3v-7.1h3.7v7.1H1161.6z M1161.6,400.8v-7.1h3.7v7.1H1161.6z M1161.6,381.4v-7.1h3.7v7.1H1161.6z
			 M1161.6,361.9v-7.1h3.7v7.1H1161.6z M1161.6,342.5v-7.1h3.7v7.1H1161.6z M1161.6,323v-7.1h3.7v7.1H1161.6z M1161.6,303.6v-7.1
			h3.7v7.1H1161.6z M1161.6,284.1V277h3.7v7.1H1161.6z M1161.6,264.7v-7.1h3.7v7.1H1161.6z M1161.6,245.2v-7.1h3.7v7.1H1161.6z
			 M1161.6,225.8v-7.1h3.7v7.1H1161.6z M1161.6,206.3v-7.1h3.7v7.1H1161.6z M1161.6,186.9v-6h3.7v6H1161.6z M1169.1,176v-4.2h5.2
			v4.2H1169.1z M1153.4,171.9v4.2h-5.1v-4.2H1153.4z M1146.6,180.9v6h-3.2v2.6h-7.5v-2.6h-9.2v2.6h-4.8v2.6h-2.4v-11.2H1146.6z
			 M1122,196v1.7h1.2v11.2h-1.2v2.6h-2.4V196H1122z M1122,215.4v1.7h1.2v11.2h-1.2v2.6h-2.4v-15.6H1122z M1115.8,231h-4.2v-15.6h4.2
			V231z M1111,231h-15.8v-15.6h15.8V231z M1111,234.8v15.6h-15.8v-15.6H1111z M1091.5,250.4h-2.2v-15.6h2.2V250.4z M1091.5,254.3
			v15.6h-2.2v-15.6H1091.5z M1091.5,273.7v15.6h-2.2v-15.6H1091.5z M1091.5,293.2v15.6h-2.2v-15.6H1091.5z M1091.5,312.6v15.6h-2.2
			v-15.6H1091.5z M1091.5,332.1v15.6h-2.2v-15.6H1091.5z M1091.5,351.5v15.6h-2.2v-15.6H1091.5z M1091.5,371v15.6h-2.2V371H1091.5z
			 M1091.5,390.4V406h-2.2v-15.6H1091.5z M1091.5,409.9v15.6h-2.2v-15.6H1091.5z M1091.5,429.3v15.6h-2.2v-15.6H1091.5z
			 M1091.5,448.8v15.6h-2.2v-15.6H1091.5z M1095.3,448.8h15.8v15.6h-15.8V448.8z M1111.6,448.8h4.2v15.6h-4.2V448.8z M1119.6,448.8
			h2.4v1.7h1.2v11.2h-1.2v2.6h-2.4V448.8z M1124.6,450.5h6.3v8.6h-4.1v2.6h-2.2V450.5z M1148.3,452h1.3v7.1h-1.3V452z M1150.2,452
			h3.2v7.1h-3.2V452z M1157.2,452h2.8v7.1h-2.8V452z M1161.6,452h3.7v7.1h-3.7V452z M1169.1,452h5.2v7.1h-5.2V452z M1169.1,439.7
			v-7.1h5.2v7.1H1169.1z M1169.1,420.3v-7.1h5.2v7.1H1169.1z M1169.1,400.8v-7.1h5.2v7.1H1169.1z M1169.1,381.4v-7.1h5.2v7.1H1169.1
			z M1169.1,361.9v-7.1h5.2v7.1H1169.1z M1169.1,342.5v-7.1h5.2v7.1H1169.1z M1169.1,323v-7.1h5.2v7.1H1169.1z M1169.1,303.6v-7.1
			h5.2v7.1H1169.1z M1169.1,284.1V277h5.2v7.1H1169.1z M1169.1,264.7v-7.1h5.2v7.1H1169.1z M1169.1,245.2v-7.1h5.2v7.1H1169.1z
			 M1169.1,225.8v-7.1h5.2v7.1H1169.1z M1169.1,206.3v-7.1h5.2v7.1H1169.1z M1169.1,186.9v-6h5.2v6H1169.1z M1257,443.6v-12.3h14.4
			v-0.7h2.1v15.1h-2.1v-2H1257z M1251.4,441.6v-8.5h3.3v-1.8h0.6v12.3h-0.6v-2H1251.4z M1241.2,252.1h6.4v8.5h-6.4V252.1z
			 M1257,425.5v-12.3h14.4v-0.7h2.1v15.1h-2.1v-2H1257z M1251.4,423.5V415h3.3v-1.8h0.6v12.3h-0.6v-2H1251.4z M1257,407.4v-12.3
			h14.4v-0.7h2.1v15.1h-2.1v-2H1257z M1271.4,391.3v-2H1257V377h14.4v-0.7h2.1v15.1H1271.4z M1271.4,373.3v-2H1257v-12.3h14.4v-0.7
			h2.1v15.1H1271.4z M1271.4,355.2v-2H1257v-12.3h14.4v-0.7h2.1v15.1H1271.4z M1271.4,337.1v-2H1257v-12.3h14.4V322h2.1v15.1H1271.4
			z M1271.4,319v-2H1257v-12.3h14.4v-0.7h2.1V319H1271.4z M1271.4,300.9v-2H1257v-12.3h14.4v-0.7h2.1v15.1H1271.4z M1271.4,282.8v-2
			H1257v-12.3h14.4v-0.7h2.1v15.1H1271.4z M1255.3,280.7h-0.6v-2h-3.3v-8.5h3.3v-1.8h0.6V280.7z M1254.7,288.3v-1.8h0.6v12.3h-0.6
			v-2h-3.3v-8.5H1254.7z M1254.7,306.4v-1.8h0.6v12.3h-0.6v-2h-3.3v-8.5H1254.7z M1254.7,324.5v-1.8h0.6V335h-0.6v-2h-3.3v-8.5
			H1254.7z M1254.7,342.6v-1.8h0.6v12.3h-0.6v-2h-3.3v-8.5H1254.7z M1254.7,360.7v-1.8h0.6v12.3h-0.6v-2h-3.3v-8.5H1254.7z
			 M1254.7,378.8V377h0.6v12.3h-0.6v-2h-3.3v-8.5H1254.7z M1254.7,396.9v-1.8h0.6v12.3h-0.6v-2h-3.3v-8.5H1254.7z M1274,412.5h3.1
			v15.1h-3.1V412.5z M1274,409.4v-15.1h3.1v15.1H1274z M1274,391.3v-15.1h3.1v15.1H1274z M1274,373.3v-15.1h3.1v15.1H1274z
			 M1274,355.2v-15.1h3.1v15.1H1274z M1274,337.1V322h3.1v15.1H1274z M1274,319v-15.1h3.1V319H1274z M1274,300.9v-15.1h3.1v15.1
			H1274z M1274,282.8v-15.1h3.1v15.1H1274z M1274,264.7v-15.1h3.1v15.1H1274z M1273.4,264.7h-2.1v-2H1257v-12.3h14.4v-0.7h2.1V264.7
			z M1255.3,262.6h-0.6v-2h-3.3v-8.5h3.3v-1.8h0.6V262.6z M1241.2,270.2h6.4v8.5h-6.4V270.2z M1241.2,288.3h6.4v8.5h-6.4V288.3z
			 M1241.2,306.4h6.4v8.5h-6.4V306.4z M1241.2,324.5h6.4v8.5h-6.4V324.5z M1241.2,342.6h6.4v8.5h-6.4V342.6z M1241.2,360.7h6.4v8.5
			h-6.4V360.7z M1241.2,378.8h6.4v8.5h-6.4V378.8z M1241.2,396.9h6.4v8.5h-6.4V396.9z M1241.2,415h6.4v8.5h-6.4V415z M1241.2,433.1
			h6.4v8.5h-6.4V433.1z M1274,430.6h3.1v15.1h-3.1V430.6z M1278.8,430.6h1.2v15.1h-1.2V430.6z M1278.8,427.5v-15.1h1.2v15.1H1278.8z
			 M1278.8,409.4v-15.1h1.2v15.1H1278.8z M1278.8,391.3v-15.1h1.2v15.1H1278.8z M1278.8,373.3v-15.1h1.2v15.1H1278.8z M1278.8,355.2
			v-15.1h1.2v15.1H1278.8z M1278.8,337.1V322h1.2v15.1H1278.8z M1278.8,319v-15.1h1.2V319H1278.8z M1278.8,300.9v-15.1h1.2v15.1
			H1278.8z M1278.8,282.8v-15.1h1.2v15.1H1278.8z M1278.8,264.7v-15.1h1.2v15.1H1278.8z M1278.8,246.6v-15.1h1.2v15.1H1278.8z
			 M1277.1,246.6h-3.1v-15.1h3.1V246.6z M1273.4,246.6h-2.1v-2H1257v-12.3h14.4v-0.7h2.1V246.6z M1255.3,244.5h-0.6v-2h-3.3V234h3.3
			v-1.8h0.6V244.5z M1247.6,242.5h-6.4V234h6.4V242.5z M1241.2,224.4v-8.5h6.4v8.5H1241.2z M1241.2,451.2h6.4v8.5h-6.4V451.2z
			 M1274,448.7h3.1v15.1h-3.1V448.7z M1278.8,448.7h1.2v15.1h-1.2V448.7z M1281.7,448.7h9.3v15.1h-9.3V448.7z M1281.7,445.6v-15.1
			h9.3v15.1H1281.7z M1281.7,427.5v-15.1h9.3v15.1H1281.7z M1281.7,409.4v-15.1h9.3v15.1H1281.7z M1281.7,391.3v-15.1h9.3v15.1
			H1281.7z M1281.7,373.3v-15.1h9.3v15.1H1281.7z M1281.7,355.2v-15.1h9.3v15.1H1281.7z M1281.7,337.1V322h9.3v15.1H1281.7z
			 M1281.7,319v-15.1h9.3V319H1281.7z M1281.7,300.9v-15.1h9.3v15.1H1281.7z M1281.7,282.8v-15.1h9.3v15.1H1281.7z M1281.7,264.7
			v-15.1h9.3v15.1H1281.7z M1281.7,246.6v-15.1h9.3v15.1H1281.7z M1281.7,228.5v-15.1h9.3v15.1H1281.7z M1280,228.5h-1.2v-15.1h1.2
			V228.5z M1277.1,228.5h-3.1v-15.1h3.1V228.5z M1273.4,228.5h-2.1v-2H1257v-12.3h14.4v-0.7h2.1V228.5z M1255.3,226.4h-0.6v-2h-3.3
			v-8.5h3.3v-1.8h0.6V226.4z M1254.7,208.3v-2h-3.3v-8.5h3.3v-1.8h0.6v12.3H1254.7z M1247.6,206.3h-6.4v-8.5h6.4V206.3z
			 M1241.2,188.2v-7.3h6.4v7.3H1241.2z M1241.2,176v-4.2h6.4v4.2H1241.2z M1119.6,168.4h4.5v3.5h22.5v4.2h-27.1V168.4z
			 M1095.3,178.9h16v1.9h4.5v11.2h-20.6V178.9z M1095.3,196h20.6v15.6h-4.2v-11h-0.6v11h-15.8V196z M1091.5,215.4V231h-2.2v-15.6
			H1091.5z M1084.9,213.5h2.6v1.9h1.3V231h-3.9V213.5z M1084.9,232.9h2.6v1.9h1.3v15.6h-3.9V232.9z M1084.9,252.4h2.6v1.9h1.3v15.6
			h-3.9V252.4z M1084.9,271.8h2.6v1.9h1.3v15.6h-3.9V271.8z M1084.9,291.2h2.6v1.9h1.3v15.6h-3.9V291.2z M1084.9,310.7h2.6v1.9h1.3
			v15.6h-3.9V310.7z M1084.9,330.1h2.6v1.9h1.3v15.6h-3.9V330.1z M1084.9,349.6h2.6v1.9h1.3v15.6h-3.9V349.6z M1084.9,369h2.6v1.9
			h1.3v15.6h-3.9V369z M1084.9,388.5h2.6v1.9h1.3V406h-3.9V388.5z M1084.9,407.9h2.6v1.9h1.3v15.6h-3.9V407.9z M1084.9,427.4h2.6
			v1.9h1.3v15.6h-3.9V427.4z M1084.9,446.8h2.6v1.9h1.3v15.6h-3.9V446.8z M1084.9,483.8v-17.5h2.6v1.9h1.3v15.6H1084.9z
			 M1089.3,483.8v-15.6h2.2v15.6H1089.3z M1095.3,483.8v-15.6h15.8v15.6H1095.3z M1111.6,483.8v-15.6h4.2v15.6H1111.6z M1122,481.2
			v2.6h-2.4v-15.6h2.4v1.7h1.2v11.2H1122z M1126.8,478.6v2.6h-2.2V470h6.3v8.6H1126.8z M1143.4,478.6v2.6h-7.5v-2.6h-4.5V470h11.9
			v1.5h3.2v7.1H1143.4z M1148.3,478.6v-7.1h1.3v7.1H1148.3z M1150.2,478.6v-7.1h3.2v7.1H1150.2z M1157.2,478.6v-7.1h2.8v7.1H1157.2z
			 M1161.6,478.6v-7.1h3.7v7.1H1161.6z M1169.1,478.6v-7.1h5.2v7.1H1169.1z M1241.2,477.8v-8.5h6.4v8.5H1241.2z M1254.7,479.8v-2
			h-3.3v-8.5h3.3v-1.8h0.6v12.3H1254.7z M1271.4,481.8v-2H1257v-12.3h14.4v-0.7h2.1v15.1H1271.4z M1274,481.8v-15.1h3.1v15.1H1274z
			 M1278.8,481.8v-15.1h1.2v15.1H1278.8z M1281.7,481.8v-15.1h9.3v15.1H1281.7z M1293.3,481.8h-1.7v-15.1h1.7V481.8z M1293.3,463.7
			h-1.7v-15.1h1.7V463.7z M1293.3,445.6h-1.7v-15.1h1.7V445.6z M1293.3,427.5h-1.7v-15.1h1.7V427.5z M1293.3,409.4h-1.7v-15.1h1.7
			V409.4z M1293.3,391.3h-1.7v-15.1h1.7V391.3z M1293.3,373.3h-1.7v-15.1h1.7V373.3z M1293.3,355.2h-1.7v-15.1h1.7V355.2z
			 M1293.3,337.1h-1.7V322h1.7V337.1z M1293.3,319h-1.7v-15.1h1.7V319z M1293.3,300.9h-1.7v-15.1h1.7V300.9z M1293.3,282.8h-1.7
			v-15.1h1.7V282.8z M1293.3,264.7h-1.7v-15.1h1.7V264.7z M1293.3,246.6h-1.7v-15.1h1.7V246.6z M1293.3,228.5h-1.7v-15.1h1.7V228.5z
			 M1293.3,195.3v15.1h-1.7v-15.1H1293.3z M1291,195.3v15.1h-9.3v-15.1H1291z M1280,195.3v15.1h-1.2v-15.1H1280z M1277.1,195.3v15.1
			h-3.1v-15.1H1277.1z M1271.4,196.1v-0.7h2.1v15.1h-2.1v-2H1257v-12.3H1271.4z M1254.7,190.3v-2h-3.3v-7.3h3.9v9.4H1254.7z
			 M1255.3,170.6v5.5h-3.9v-5.5H1255.3z M1194.7,83.9l-12.7,6v-6H1194.7z M1182,91.5l7.5,3.6h-7.5V91.5z M1189.7,100.2l-6.7,3.2h-1
			v-3.2H1189.7z M1188.1,139.9v2.8l-6.1,2.9v-6.9h11.4l1.5,0.7v0.1l-4.2,2v-1.6H1188.1z M1194.9,113.8v6.1h-10l-2.9-1.4l10-4.7
			H1194.9z M1194.9,124.6l-5.3-2.5h5.3V124.6z M1183.2,119.9h-1.2v-0.6L1183.2,119.9z M1182,122.1h5.8l7.1,3.4v0.1l-5.6,2.6h-7.3
			V122.1z M1194.9,126.4v1.8h-3.8L1194.9,126.4z M1194.9,130.4v6.1h-4.3l-8.5-4l4.4-2.1H1194.9z M1194.9,111.6H1182v-6.1h0.2
			L1194.9,111.6L1194.9,111.6z M1182,113.8h8.3l-8.3,3.9V113.8z M1182,130.4h2.7l-2.7,1.3V130.4z M1188.8,136.5h-6.8v-3.2
			L1188.8,136.5z M1188.1,143.5v2.4h-5.1L1188.1,143.5z M1194.9,110.7l-11-5.2h11V110.7z M1190.7,145.9v-3.6l4.2-2v5.6H1190.7z
			 M1194.9,103.3h-10.1l6.7-3.2h3.4V103.3z M1191.3,95.1l-9.2-4.4l12.9-6.1v10.4H1191.3z M1381.4,53.1h-3.4l1.6-3.4h0.2L1381.4,53.1
			z M1379.3,49.7l-1.6,3.4h-0.2l-1.6-3.4H1379.3z M1375.7,49.7l1.6,3.4h-3.4l1.6-3.4H1375.7z M1375.2,49.7l-1.6,3.4h-0.2l-1.6-3.4
			H1375.2z M1371.5,49.7l1.6,3.4h-3.4l1.6-3.4H1371.5z M1371.1,49.7l-1.6,3.4h-0.2l-1.6-3.4H1371.1z M1367.4,49.7l1.6,3.4h-3.4
			l1.6-3.4H1367.4z M1367,49.7l-1.6,3.4h-0.2l-1.6-3.4H1367z M1363.3,49.7l1.6,3.4h-3.4l1.6-3.4H1363.3z M1362.9,49.7l-1.6,3.4h-0.2
			l-1.6-3.4H1362.9z M1359.2,49.7l1.6,3.4h-3.4l1.6-3.4H1359.2z M1358.8,49.7l-1.6,3.4h-0.2l-1.6-3.4H1358.8z M1355.1,49.7l1.6,3.4
			h-3.4l1.6-3.4H1355.1z M1354.7,49.7l-1.6,3.4h-0.2l-1.6-3.4H1354.7z M1351,49.7l1.6,3.4h-3.4l1.6-3.4H1351z M1350.5,49.7l-1.6,3.4
			h-0.2l-1.6-3.4H1350.5z M1346.9,49.7l1.6,3.4h-3.4l1.6-3.4H1346.9z M1346.4,49.7l-1.6,3.4h-0.2l-1.6-3.4H1346.4z M1342.8,49.7
			l1.6,3.4h-3.4l1.6-3.4H1342.8z M1340.7,53.1h-0.2l-1.6-3.4h3.4L1340.7,53.1z M1336.4,53.1l-1.6-3.4h3.4l-1.6,3.4H1336.4z
			 M1332.3,53.1l-1.6-3.4h3.4l-1.6,3.4H1332.3z M1328.2,53.1l-1.6-3.4h3.4l-1.6,3.4H1328.2z M1324.1,53.1l-1.6-3.4h3.4l-1.6,3.4
			H1324.1z M1320,53.1l-1.6-3.4h3.4l-1.6,3.4H1320z M1315.8,53.1l-1.6-3.4h3.4l-1.6,3.4H1315.8z M1311.7,53.1l-1.6-3.4h3.4l-1.6,3.4
			H1311.7z M1307.6,53.1l-1.6-3.4h3.4l-1.6,3.4H1307.6z M1303.5,53.1l-1.6-3.4h3.4l-1.6,3.4H1303.5z M1299.4,53.1l-1.6-3.4h3.4
			l-1.6,3.4H1299.4z M1295.3,53.1l-1.6-3.4h3.4l-1.6,3.4H1295.3z M1291.2,53.1l-1.6-3.4h3.4l-1.6,3.4H1291.2z M1287.1,53.1l-1.6-3.4
			h3.4l-1.6,3.4H1287.1z M1283,53.1l-1.6-3.4h3.4l-1.6,3.4H1283z M1278.9,53.1l-1.6-3.4h3.4l-1.6,3.4H1278.9z M1274.8,53.1l-1.6-3.4
			h3.4l-1.6,3.4H1274.8z M1270.6,53.1l-1.6-3.4h3.4l-1.6,3.4H1270.6z M1266.5,53.1l-1.6-3.4h3.4l-1.6,3.4H1266.5z M1262.4,53.1
			l-1.6-3.4h3.4l-1.6,3.4H1262.4z M1258.3,53.1l-1.6-3.4h3.4l-1.6,3.4H1258.3z M1254.2,53.1l-1.6-3.4h3.4l-1.6,3.4H1254.2z
			 M1250.1,53.1l-1.5-3.2v-0.2h3.3l-1.6,3.4H1250.1z M1246,53.1l-0.8-1.6h1.7l-0.8,1.6H1246z M1241.9,53.1l-1.6-3.4h3.1v0.6
			l-1.3,2.8H1241.9z M1237.8,53.1l-1.6-3.4h3.4l-1.6,3.4H1237.8z M1233.7,53.1l-1.6-3.4h3.4l-1.6,3.4H1233.7z M1229.5,53.1l-1.6-3.4
			h3.4l-1.6,3.4H1229.5z M1225.4,53.1l-1.6-3.4h3.4l-1.6,3.4H1225.4z M1221.3,53.1l-1.6-3.4h3.4l-1.6,3.4H1221.3z M1217.2,53.1
			l-1.6-3.4h3.4l-1.6,3.4H1217.2z M1213.1,53.1l-1.6-3.4h3.4l-1.6,3.4H1213.1z M1209,53.1l-1.6-3.4h3.4l-1.6,3.4H1209z M1204.9,53.1
			l-1.6-3.4h3.4l-1.6,3.4H1204.9z M1202.4,49.1v-0.6h-5.2v0.6h-4.6v-2.9h-2.6V26.9h-0.5v-1.4h0.5v-0.4l53.4,23.5v0.5H1202.4z
			 M1180.2,53.1l-1.2-2.5h2.6l-1.2,2.5H1180.2z M1176.1,53.1l-1.2-2.5h2.6l-1.2,2.5H1176.1z M1172,53.1l-1.2-2.5h2.6l-1.2,2.5H1172z
			 M1317.9,49.1l0.1-0.3l-104.6-20.2l123.3,20.5H1317.9z M1248.6,49.1v-1.8h-5.2v0.6l-52-22.9l124.8,24.1H1248.6z M1187.8,25.5v1.4
			h-0.5v19.3h-1.3v-1.3h-23.9v3.6h-12.6l37.8-23.2v0.2H1187.8z M1194.8,49.7l0.6,1.3h-1.4l0.6-1.3H1194.8z M1197.3,51h-1.6l-0.6-1.3
			h2.2V51z M1193.8,51h-1.1v-1.3h1.7L1193.8,51z M1146.8,51.9l-1-2.2h1V51.9z M1173.7,50.5h1l1.2,2.5h-3.4L1173.7,50.5z
			 M1177.8,50.5h1l1.2,2.5h-3.4L1177.8,50.5z M1202.4,49.7h0.2l-0.2,0.3V49.7z M1206.9,49.7h0.2l1.6,3.4h-3.4L1206.9,49.7z
			 M1211.1,49.7h0.2l1.6,3.4h-3.4L1211.1,49.7z M1215.2,49.7h0.2l1.6,3.4h-3.4L1215.2,49.7z M1219.3,49.7h0.2l1.6,3.4h-3.4
			L1219.3,49.7z M1223.4,49.7h0.2l1.6,3.4h-3.4L1223.4,49.7z M1227.5,49.7h0.2l1.6,3.4h-3.4L1227.5,49.7z M1231.6,49.7h0.2l1.6,3.4
			h-3.4L1231.6,49.7z M1235.7,49.7h0.2l1.6,3.4h-3.4L1235.7,49.7z M1239.8,49.7h0.2l1.6,3.4h-3.4L1239.8,49.7z M1243.4,50.8v0.7h1.6
			l0.8,1.6h-3.4L1243.4,50.8z M1247.2,51.5h1.4v-1l1.3,2.6h-3.4L1247.2,51.5z M1252.2,49.7h0.2l1.6,3.4h-3.4L1252.2,49.7z
			 M1256.3,49.7h0.2l1.6,3.4h-3.4L1256.3,49.7z M1260.4,49.7h0.2l1.6,3.4h-3.4L1260.4,49.7z M1264.5,49.7h0.2l1.6,3.4h-3.4
			L1264.5,49.7z M1268.6,49.7h0.2l1.6,3.4h-3.4L1268.6,49.7z M1272.7,49.7h0.2l1.6,3.4h-3.4L1272.7,49.7z M1276.8,49.7h0.2l1.6,3.4
			h-3.4L1276.8,49.7z M1280.9,49.7h0.2l1.6,3.4h-3.4L1280.9,49.7z M1285,49.7h0.2l1.6,3.4h-3.4L1285,49.7z M1289.1,49.7h0.2l1.6,3.4
			h-3.4L1289.1,49.7z M1293.3,49.7h0.2l1.6,3.4h-3.4L1293.3,49.7z M1297.4,49.7h0.2l1.6,3.4h-3.4L1297.4,49.7z M1301.5,49.7h0.2
			l1.6,3.4h-3.4L1301.5,49.7z M1305.6,49.7h0.2l1.6,3.4h-3.4L1305.6,49.7z M1309.7,49.7h0.2l1.6,3.4h-3.4L1309.7,49.7z M1313.8,49.7
			h0.2l1.6,3.4h-3.4L1313.8,49.7z M1317.9,49.7h0.2l1.6,3.4h-3.4L1317.9,49.7z M1322,49.7h0.2l1.6,3.4h-3.4L1322,49.7z M1326.1,49.7
			h0.2l1.6,3.4h-3.4L1326.1,49.7z M1330.2,49.7h0.2l1.6,3.4h-3.4L1330.2,49.7z M1334.3,49.7h0.2l1.6,3.4h-3.4L1334.3,49.7z
			 M1338.5,49.7h0.2l1.6,3.4h-3.4L1338.5,49.7z M1184.7,26.2l-36.4,22.3h-1.5v0.6h-11.3v-0.6h-2.8L1184.7,26.2z M1143.2,53.1
			l-1.6-3.4h3.4l-1.6,3.4H1143.2z M1139.1,53.1l-1.6-3.4h3.4l-1.6,3.4H1139.1z M1141.2,49.7h0.2l1.6,3.4h-3.4L1141.2,49.7z
			 M1135.5,49.7h1.3l-1.3,2.8V49.7z M1135.5,53l1.6-3.3h0.2l1.6,3.4L1135.5,53L1135.5,53z M1143.7,53.1l1.6-3.4h0.2l1.3,2.7v0.7
			H1143.7z M1170.7,50.7l1.1,2.3h-1.1V50.7z M1180.7,53.1l1.2-2.5h1v2.5H1180.7z M1188.2,55.7l-1.8,0.9v-0.9H1188.2z M1186.4,57.1
			l2.4,1.2h-2.4V57.1z M1188.9,59.9l-2.2,1h-0.3v-1H1188.9z M1190.6,64.4v2h-3.2l-0.9-0.4l3.3-1.5H1190.6z M1190.6,67.9l-1.7-0.8
			h1.7V67.9z M1186.8,66.3h-0.4v-0.2L1186.8,66.3z M1186.4,67.1h1.9l2.3,1.1v0l-1.8,0.9h-2.4V67.1z M1190.6,63.7h-4.2v-2h0.1
			L1190.6,63.7L1190.6,63.7z M1186.4,64.4h2.7l-2.7,1.3V64.4z M1186.4,69.7h0.9l-0.9,0.4V69.7z M1186.4,70.7l2.2,1h-2.2V70.7z
			 M1186.4,70.4l1.4-0.7h2.7v2h-1.4L1186.4,70.4z M1189.3,69l1.2-0.6V69H1189.3z M1190.6,63.4l-3.6-1.7h3.6V63.4z M1190.6,61h-3.3
			l2.2-1h1.1V61z M1190.6,58.3h-1.2l-3-1.4l2.4-1.1h1.8V58.3z M1202.4,52.6V51v-0.4l0.4-0.8h0.2l1.6,3.4h-2.2V52.6z"/>
		<polygon id="XMLID_10317_" class="st4" points="1336.8,57.8 1339.1,57.8 1339.1,160.6 1337.2,160.6 1337.2,164.7 1341.5,164.7 
			1341.5,160.6 1339.6,160.6 1339.6,57.8 1341.9,57.8 1341.9,53.7 1336.8,53.7 		"/>
	</g>
	<path id="XMLID_2118_" class="st5" d="M1361.8,441.5v26.8h-20.1v31.8h-32.1v-68.9l-16-16h-29.3v-5.4h-5.9v-17.2h-9.6V375h-25.5
		v20.1H1189v87h-6.3v-6.7h-5.4V385h-14.2v-12.6h-13v8.8h-13v82l-10.5-10.5v-43.9h-16.7v22.2h-7.5v-40.2h-17.2v-25.1l-2.9-2.9h-10.5
		V454c-1.1-1.1-2.3-2.2-3.4-3.3c-2.8-2.9-2.9-2.5-6.6-2c-0.8,0.1-1.4,0.1-2,0.1v-2l-10.4-10.4v-50l-7.7-7.7h-15.9v36h-6.3v6.8
		c-0.3-0.1-0.5-0.1-0.8-0.2c-4.1-1.1-8.9-5.3-13.1-4c-5,1.6-5,6.3-10.8,4.9c-2.9-0.7-5.1-0.9-8-0.9c-4,0-6.4,1.6-10.2,2.2
		c-2.8,0.4-4.5-1-6.9-1.6c-6.4-1.7-7.8,4.5-13.1,5.9c-2.1,0.6-4.6-0.6-6.7,0c-1.9,0.6-2.7,1.9-4.6,2.4c-5.4,1.6-13.5-1.5-18.6,1.1
		c-2.4,1.2-2.5,4-4.3,5.5c-1.4,1.2-4.4,0.8-5.8,2.9c-1.1,1.7,0.2,3.7-1.2,5.3c-3.2,3.8-11.6-1.3-15.3,2.2c-1.2,1.1-0.5,4.3-2.2,5.9
		c-1.6,1.5-3,1.4-5,1.9c0.2,1-0.2,2.2,0,3.2c-3.2,1.3-7.3,0.5-10.7,1.5c-0.6,0.2-1.1,0.3-1.7,0.4v-14.8h-22.4v-14.4l-9.4-9.4v-8.4
		H830v30.5h-23v17.3h-13.6V435h-8.5V421h-11.4v15.6h-14.2l-8.4,8.4v19.8h-20.1v7.5h-5.3v-34H722v-35.1h-13.1v32.6h-7.8l-8.1,8.1
		v14.8c-0.5-0.3-1-0.4-1.4-1c-1.8-1.9-3.8-3.7-5.7-5.6c-2.8-2.9-2.9-2.5-6.6-2c-5,0.6-4.3-1.1-7.5-4.5c-2.9-3.1-8.1-6.7-12-8.9
		c-1.3,3.9-3.6,3.6-4.4,0.3c-0.7-2.7,1.2-6.5-0.4-8.8c-1.3-2-4.4-1.8-6.4-2.3c-4.2-0.9-8.2-2.1-12.3-3.2c-4.1-1.1-8.9-5.3-13.1-4
		c-5,1.6-5,6.3-10.8,4.9c-2.9-0.7-5.1-0.9-8-0.9c-4,0-6.4,1.6-10.2,2.2c-1.2,0.2-2.2,0-3.2-0.3l-0.6-0.6l-0.3,0.3
		c-0.9-0.4-1.8-0.8-2.8-1c-6.4-1.7-7.8,4.5-13.1,5.9c-2.1,0.6-4.6-0.6-6.7,0c-1.9,0.6-2.7,1.9-4.6,2.4c-5.4,1.6-13.5-1.5-18.6,1.1
		c-2.4,1.2-2.5,4-4.3,5.5c-1.4,1.2-4.4,0.8-5.8,2.9c-1.1,1.7,0.2,3.7-1.2,5.3c-0.3,0.3-0.6,0.6-1,0.8v-78.8h-33.5v72.4h-11.7v-46.4
		h-47.3v-52.5h-10.7L417,353.6v19.2h-18.8v26.9c-3.9-1.4-8.3-4.9-12.2-3.7c-5,1.6-5,6.3-10.8,4.9c-2.9-0.7-5.1-0.9-8-0.9
		c-4,0-6.4,1.6-10.2,2.2c-2.8,0.4-4.5-1-6.9-1.6c-6.4-1.7-7.8,4.5-13.1,5.9c-2.1,0.6-4.6-0.6-6.7,0c-1.9,0.6-2.7,1.9-4.6,2.4
		c-1.4,0.4-2.9,0.5-4.6,0.5v-2.7h-19.7v-38.1H276v30.1l-6.3,6.3v32.6c-2.3,0.2-4.8,0.1-7.1,0.8c-1,0.3-2,0.5-3,0.7v-14.7l-8.8-8.8
		h-13.4v-16.3h-31.8v59.3c-0.4,0-0.7,0.1-0.9,0.2c-3.2,1.4-1.1,1.8-1,3.9c0.1,1.6,0.1,3.3-0.1,4.8h-15.6v-10.9h-11.3v-41.4
		l-14.2-14.2v-53.6h-28.9v-8h-33.5v40.2H81.4v-88.7H31.6v40.6H0.1v317.1h1399.8v-207H1361.8z"/>
	<path id="XMLID_2785_" class="st6" d="M1187.9,582c-1.8-1.9-3.3-2.5-4.5-5.4c-0.7-1.7-0.6-3.7-1.7-5.2c-1.3-1.7-2.9-1.5-4.4-2.5
		c-3-2.1-1.6-2.4-3.3-4.8c-0.6-0.9-1.6-0.9-2.4-1.8c-1.8-2-3.9-3.8-5.8-5.7c-2.9-3-3-2.6-6.8-2.1c-5.2,0.7-4.4-1.2-7.7-4.6
		c-3-3.1-8.3-6.9-12.3-9.1c-1.3,4-3.6,3.7-4.5,0.3c-0.7-2.8,1.2-6.7-0.4-9.1c-1.4-2-4.5-1.9-6.6-2.3c-4.3-0.9-8.4-2.2-12.6-3.3
		c-4.2-1.1-9.1-5.5-13.4-4.1c-5.2,1.7-5.2,6.4-11,5c-2.9-0.7-5.2-0.9-8.2-0.9c-4.1,0-6.6,1.7-10.4,2.3c-2.9,0.4-4.6-1-7.1-1.7
		c-6.6-1.7-8,4.6-13.4,6.1c-2.1,0.6-4.8-0.7-6.9,0c-1.9,0.6-2.7,2-4.7,2.5c-5.6,1.6-13.8-1.6-19.1,1.1c-2.4,1.2-2.5,4.1-4.4,5.6
		c-1.5,1.2-4.5,0.8-5.9,2.9c-1.1,1.7,0.2,3.8-1.2,5.5c-3.3,3.9-11.9-1.3-15.7,2.3c-1.2,1.2-0.5,4.4-2.2,6c-1.7,1.6-3.1,1.5-5.1,1.9
		c0.3,1-0.2,2.2,0,3.2c-3.3,1.3-7.4,0.5-11,1.5c-4.4,1.3-9.4,1.3-13.6,2.6c-4.2,1.3-3,7.6-6.6,9c-2,0.8-5.1-2.5-6.6-3.1
		c-2.5-0.9-4.8-0.8-7.4-0.7c-2.9,8.8-10.9,12.7-19.8,13.2c-1.3,0.1-4.2-0.6-5.3-0.1c-3.3,1.5-1.2,1.8-1,4c0.4,6.3-0.5,12.2-8.3,14.1
		l0.4,1.1c0.7,5,11.4,2.8,14.5,3.7c4.8,1.3,8.6,4,12.5,7.2c6.5,5.3,15.3,10.9,23,14.2c5.6,2.4,10.6,3.7,16.5,4
		c14.4,0.8,28.8,1.8,43.2,3c8,0.7,16,1.1,23.9,2.9c5.7,1.3,11.1,3.9,16.8,5.2c5.2,1.3,10.4,0.4,15.7,0.1c7.6-0.4,15.2,0,22.8-0.2
		c5.7-0.1,10.8-2,16.5-3.1c9.6-1.9,19.2-2.9,28.7-5.2c10.2-2.5,21.3-5.9,30.9-10c6-2.6,4.9-4.6,5.3-10.2c0.4-5,1.3-10.9,4.8-14.5
		c3.7-3.7,8-4.2,8.8-9.5C1191.4,589.3,1190.5,584.9,1187.9,582z"/>
	<path id="XMLID_8408_" class="st7" d="M1370.4,479v-26.5h-46.8V474c-0.5,0.1-1.1,0.2-1.8,0.2c-7,0.9-6-1.6-10.5-6.2
		c-4.1-4.3-11.2-9.3-16.7-12.4c-1.8,5.5-5,5.1-6.2,0.4c-1-3.7,1.7-9.1-0.5-12.3c-1.9-2.8-6.1-2.6-9-3.2c-5.8-1.3-11.5-3-17.2-4.5
		c-5.7-1.5-12.4-7.4-18.3-5.6c-7,2.2-7,8.8-15,6.8c-4-1-7.1-1.2-11.2-1.3c-5.6,0-8.9,2.3-14.2,3.1c-4,0.6-6.2-1.4-9.6-2.3
		c-9-2.4-10.9,6.2-18.3,8.3c-2.9,0.8-6.5-0.9-9.4,0c-2.6,0.8-3.7,2.7-6.4,3.4c-7.6,2.2-18.8-2.1-25.9,1.5c-3.3,1.7-3.4,5.6-6,7.7
		c-2,1.7-6.2,1.1-8.1,4c-1.5,2.4,0.3,5.1-1.6,7.4c-4.5,5.2-16.2-1.8-21.4,3.1c-1.7,1.6-0.7,6-3,8.2c-2.2,2.1-4.2,2-7,2.6
		c0.3,1.3-0.2,3,0,4.4c-4.5,1.7-10.1,0.6-15,2.1c-6,1.7-12.8,1.7-18.5,3.5c-5.7,1.7-4.1,10.4-8.9,12.2c-2.8,1-7-3.4-9-4.2
		c-3.4-1.3-6.5-1.1-10.1-1c-0.7,2.2-1.7,4.2-2.9,6h-13.7v-12.6l-11.2-7.8h-10V520h-44.4v25.3c-4.3-5.2-8-10.9-11-16.8v-25.4h-1v23.3
		c-5.5-11.4-8.9-24.1-10.6-37.7h-9.3l2.2,23.7l-15.5-12.7c-1.3-1.1-3.1-1.5-4.8-1.2l-10.1,2.1c-0.2-0.1-0.3-0.2-0.5-0.2h-0.8
		c-0.9-5.2-5.5-9.2-11-9.2h-0.5v-0.9c0-0.8-0.6-1.6-1.5-1.7c-1-0.1-1.8,0.7-1.8,1.6v1h-1.8v-5.9h-26.6v5.9h-9.3v-2.3
		c0-0.3-0.4-0.4-0.6-0.2c-0.8,1.3-1.9,2.1-3.3,2.5v-8h1.2c1.3,0,2.3-1,2.3-2.3v-5.5c0-0.3-0.3-0.6-0.6-0.6h-0.2
		c-0.3,0-0.6-0.3-0.6-0.6v-5.9c0-0.3-0.3-0.6-0.6-0.6H825v-2h2.2c0,0.4,0.1,0.7,0.3,1c0.7,0.9,2.4,0.9,3.7-0.1c1.3-1,1.8-2.6,1-3.5
		c-0.7-0.9-2.4-0.9-3.7,0.1c-0.6,0.5-1,1.1-1.2,1.7H825v-7.5c0-0.4-0.3-0.7-0.7-0.7h-2h-35.7v-7.2h-1.1v7.2h-3h-0.1h-1.9
		c-0.4,0-0.7,0.3-0.7,0.7v25.7l-1.8,6h-2.6v-3.8h-10.9v3.9c-6.7,0.8-11.3,10.4-11.3,10.4h7.2v1.8l-4.1,3.4l1.9,2.2
		c-0.9,0.9-1.7,1.9-2.4,2.9l-2.5-1.5l-2.9,5l2.5,1.5c-0.5,1.2-1,2.3-1.3,3.6l-2.9-0.5l-1,5.7l2.9,0.5c0,0.6-0.1,1.3-0.1,1.9
		c0,0.6,0,1.3,0.1,1.9l-2.9,0.5l1,5.7l2.9-0.5c0.4,1.2,0.8,2.4,1.3,3.6l-2.5,1.5l2.9,5l2.5-1.5c0.5,0.7,1,1.3,1.6,2l-30.7,14.5
		h-44.8c-0.1-0.2-0.2-0.4-0.3-0.6c-1-2.5-0.9-5.3-2.4-7.3c-1.8-2.4-4.1-2.1-6.2-3.6c-4.2-2.9-2.3-3.4-4.7-6.8
		c-0.9-1.3-2.2-1.2-3.4-2.5c-2.5-2.8-5.6-5.4-8.3-8.2c-4.1-4.2-4.3-3.7-9.7-3c-7.3,0.9-6.3-1.7-11-6.5c-4.3-4.4-11.7-9.7-17.4-12.9
		c-1.8,5.7-5.2,5.3-6.4,0.4c-1-3.9,1.8-9.4-0.5-12.9c-1.9-2.9-6.4-2.7-9.4-3.3c-6.1-1.3-12-3.1-18-4.7c-6-1.6-13-7.7-19-5.8
		c-7.3,2.3-7.3,9.2-15.7,7.1c-4.2-1-7.4-1.3-11.7-1.3c-5.8,0-9.3,2.4-14.8,3.2c-4.1,0.6-6.5-1.4-10-2.4c-9.4-2.5-11.3,6.5-19.1,8.6
		c-3,0.8-6.8-0.9-9.8,0c-2.7,0.8-3.9,2.8-6.6,3.6c-1.5,0.4-3.1,0.6-4.7,0.7c-0.6-0.4-1.1-0.6-1.6-0.8v-7.9h-18
		c-4.4-4-10.6-8.4-15.6-11.1c-1.8,5.7-5.2,5.3-6.4,0.4c-1-3.9,1.8-9.4-0.5-12.9c-1.9-2.9-6.4-2.7-9.4-3.3c-6.1-1.3-12-3.1-18-4.7
		c-6-1.6-13-7.7-19-5.8c-7.3,2.3-7.3,9.2-15.7,7.1c-4.2-1-7.4-1.3-11.7-1.3c-4.4,0-7.5,1.4-11.1,2.4l-2.5-2.5h-35.2v-6.5h-7V433
		h-11.6v-21.1h-30.7V436h-41.3v26.3c-0.9-0.1-1.8-0.3-2.7-0.5c-2.7-0.8-3.9-2.7-6.6-3.6c-1.5-0.4-3.1-0.3-4.7,0v-34.2h-17.1v-15.1
		h-15.6v10.6h-15.6v29.4c-0.2,0-0.4,0-0.6,0c-4.3,0-7.5,0.3-11.7,1.3c-8.3,2.1-8.3-4.7-15.7-7.1c-4.4-1.4-9.2,1.4-13.8,3.7V431H92.6
		v-30.2l-3.5-3.5H76.5v76.1c-1-0.4-2-1.7-2.7-4c-5.7,3.2-13.1,8.4-17.4,12.9c-4.6,4.8-3.6,7.4-11,6.5c-5.4-0.7-5.5-1.2-9.7,3
		c-2.7,2.7-5.7,5.3-8.3,8.2c-1.1,1.3-2.5,1.2-3.4,2.5c-2.4,3.4-0.5,3.9-4.7,6.8c-2.2,1.5-4.4,1.2-6.2,3.6c-1.5,2-1.4,4.9-2.4,7.3
		c-1.6,4-3.8,4.9-6.3,7.6c-2.6,2.9-4.1,6.8-4.3,10.9H0v89.7h63.5v28.3h289.3c-5.9,5.1-9.6,8.3-9.7,8.8c-0.7,2.2,148.8,19,167.7,22.6
		c19,3.6,280.7-9.5,285.8-9.3c4.3,0.2,103.8-31.5,134-41.2v2.9H1400V479H1370.4z M791.5,466.9h22.4c1.6,0,2.9,1.1,3.3,2.5h-29
		C788.6,468,789.9,466.9,791.5,466.9z M805.7,486.1c-1.8-0.5-2.8-1.2-2.8-2.1c0.1-0.9,0.5-1.3,1.1-1.2c0.6,0,3.1,1.8,3.5,2
		c0.4,0.2,1.7,0,1.7,0l0.2,1.4l-1.2,1.2C807.7,486.7,806.8,486.4,805.7,486.1z M810.1,488.6l0,0.5l-1.1,0.1c0-0.1,0-0.2,0-0.3
		c0-0.3,0-0.6-0.1-0.9l0.4-0.4L810.1,488.6z M809.6,487.3l2.2-2.2l-0.5,3.2h-0.7L809.6,487.3z M815.3,497.8l-2.5,2.5l-3.1-3.1
		c1.4-0.7,1.1-2.3,0.7-2.9c-0.4-0.7-1.3-0.7-1.6-1.8c-0.3-0.9,0-1.5,0.1-2.6l1.7-0.1l0.9,0.9l1.1-1.1l-1.5,1.5l4.3,4.3V497.8z
		 M817.3,486.3h-1.5l-3.3,3.3l-0.7-0.8l0.5-4.2l1.5-1.5l-0.6-0.6l-1.4,1.4l-1,0.1c0,0-0.1-0.8-0.9-1.5s-4.3-3.1-6.2-4.6
		c-0.5-0.4-1.2-0.7-2-0.9c0.2-0.3,0.3-0.7,0.4-1.1l0.3,0.1c0.1-0.4,0.2-0.7,0.2-1.2c0-1.7-1.3-3.1-2.9-3.1c-1.3,0-2.5,1-2.8,2.4
		l0.5,0.2c-0.2,0.4-0.2,0.7-0.2,1.2c0,0.4,0.1,0.7,0.2,1c-0.5,0-0.8,0-0.8,0h-0.8v-1.9H793c0,0,0,9.9,0,13.3l-4.9-5.1v-12.4
		c0,0,0,0,0-0.1h29.2c0,0,0,0,0,0.1V486.3z M821.3,487.3c0,0.5-0.4,0.8-0.8,0.8h-0.3c-0.5,0-0.8-0.4-0.8-0.8v-15.7l2-2.1V487.3z
		 M914.8,522.6l1.2,5.4l-9.5-3.9l0.2-0.8c0.1-0.4-0.1-0.9-0.5-1l-9.4-3.8c0-1.1,0-2,0-2.8L914.8,522.6z M879.8,522.8
		c1.1-1.1,1.7-2.5,1.7-4v-0.3l3.4-0.8v0.1c0,3.7-3,6.6-6.6,6.6l-0.1-0.1L879.8,522.8z M878.4,546.4l1.2-2.1l-1.7-1
		c0.4-0.8,0.7-1.6,0.9-2.5l2,0.3l0.7-3.9l-2-0.4c0-0.4,0-0.9,0-1.3s0-0.9,0-1.3l2-0.4l-0.6-3.2c3.3,0,7.7,0,11.1,0
		c2.8,0,4.8-1.8,4.8-4.2c0-0.6,0-1.3,0-2l7.8,2.9c0.4,0.2,0.9-0.1,1.1-0.5l0.4-1.2l10.3,4.3l3.5,16.5H878.4z"/>
	<path id="XMLID_2790_" class="st6" d="M1398.9,476.2h-0.1h-3.5v-8.4h-1.3v8.4h-41.5h-3.1h-1c-1,0-1.9,0.8-1.9,1.9
		c0,1,0.8,1.9,1.9,1.9h1v5.7h-2.7c-0.2-0.7-0.7-1.4-1.4-2c-1.5-1.2-3.4-1.2-4.3-0.2c-0.8,1.1-0.3,2.9,1.2,4.1
		c1.5,1.2,3.4,1.2,4.3,0.2c0.3-0.3,0.4-0.7,0.4-1.2h2.6v2.3h-1.9c-0.4,0-0.7,0.3-0.7,0.7v6.8c0,0.4-0.3,0.7-0.7,0.7h-0.2
		c-0.4,0-0.7,0.3-0.7,0.7v6.3c0,1.5,1.2,2.7,2.7,2.7h1.4v9.3c-1.6-0.4-2.9-1.4-3.8-2.9c-0.2-0.3-0.7-0.2-0.7,0.2v2.7h-4.8v-20.9
		h-3.1v-3.2c0-0.4,0.3-0.7,0.7-0.7h2.4V488h-3.1c-1.9,0-3.4,1.5-3.4,3.4v3.9h-2.8v20.9h-29.7v-1.1c0-1-0.8-1.9-1.9-1.9
		c-1,0-1.9,0.8-1.9,1.9v1.1h-0.6c-2.6,0-4.9,0.7-6.9,2h-4.4v4.6c0,0,0,0,0,0l-5.6,2.5h-52.5v-2.1l-5.7-5.1v39h-16.1l-0.1-10.2
		l-5.6,0.1c0,0,1.4,21.6-3.5,37l-27,9.6l-62.7-10.9h-21.9v-13H863.7v15.9H753.6v19h-32.8L700,625.6h-35.9v15.3h-4
		c-6.3-19-4.6-46.4-4.6-46.4l-6.9-0.1l-0.2,12.6h-19.9v-48.1l-7.1,6.3v2.6h-64.8l-6.9-3.1c0,0,0,0,0-0.1v-5.7h-5.4
		c-2.5-1.6-5.4-2.5-8.6-2.5H535v-1.4c0-1.3-1-2.3-2.3-2.3s-2.3,1-2.3,2.3v1.4h-36.7v-25.8h-3.4v-4.8c0-2.3-1.9-4.2-4.2-4.2h-3.8v4.2
		h2.9c0.5,0,0.9,0.4,0.9,0.9v3.9h-3.8v25.8h-6v-3.3c0-0.5-0.6-0.6-0.8-0.2c-1.2,1.8-2.8,3-4.7,3.6v-11.5h1.8c1.9,0,3.4-1.5,3.4-3.4
		v-7.8c0-0.5-0.4-0.8-0.8-0.8h-0.3c-0.5,0-0.8-0.4-0.8-0.8v-8.4c0-0.5-0.4-0.8-0.8-0.8h-2.4v-2.9h3.2c0,0.5,0.2,1,0.5,1.4
		c1,1.3,3.4,1.3,5.3-0.2c1.9-1.4,2.5-3.7,1.5-5.1c-1-1.3-3.4-1.3-5.3,0.2c-0.9,0.7-1.5,1.6-1.8,2.4h-3.4v-7.1h1.3
		c1.3,0,2.3-1,2.3-2.3c0-1.3-1-2.3-2.3-2.3h-1.3h-3.8h-51.2v-10.3h-1.6v10.3h-4.4h-0.2h-3.7h-1.2h-0.2c-1.3,0-2.3,1-2.3,2.3
		c0,1.3,1,2.3,2.3,2.3h0.2h1.2v7.4h-3.4c-1.3,0-2.3,1-2.3,2.3c0,1.3,1,2.3,2.3,2.3h3.4v21.2l-2.6,8.6c0,0-3.4,0-8.6,0
		c0-2.7-2.2-4.9-4.9-4.9l0,0c-2.7,0-4.9,2.2-4.9,4.9v0c-3.5,0.1-6.7,1.9-9.3,4.3c-2.4-2.5-5-4.8-7.4-7.2c-4.1-4.2-4.3-3.7-9.7-3
		c-7.3,0.9-6.3-1.7-11-6.5c-4.3-4.4-11.7-9.7-17.4-12.9c-1.8,5.7-5.2,5.3-6.4,0.4c-1-3.9,1.8-9.4-0.5-12.9c-1.9-2.9-6.4-2.7-9.4-3.3
		c-6.1-1.3-12-3.1-18-4.7c-6-1.6-13-7.7-19-5.8c-7.3,2.3-7.3,9.2-15.7,7.1c-4.2-1-7.4-1.3-11.7-1.3c-5.8,0-9.3,2.4-14.8,3.2
		c-4.1,0.6-6.5-1.4-10-2.4c-9.4-2.5-11.3,6.5-19.1,8.6c-3,0.8-6.8-0.9-9.8,0c-2.7,0.8-3.9,2.8-6.6,3.6c-7.9,2.3-19.6-2.2-27.1,1.6
		c-3.4,1.8-3.6,5.8-6.2,8c-2.1,1.8-6.5,1.1-8.4,4.2c-1.6,2.5,0.3,5.4-1.7,7.7c-4.7,5.5-16.9-1.9-22.3,3.2c-1.7,1.7-0.7,6.2-3.1,8.6
		c-2.3,2.2-4.3,2.1-7.3,2.7c0.4,1.4-0.2,3.2,0,4.6c-4.7,1.8-10.5,0.7-15.6,2.2c-6.2,1.8-13.4,1.8-19.3,3.6
		c-5.9,1.8-4.2,10.8-9.3,12.8c-2.9,1.1-7.3-3.5-9.4-4.3c-3.5-1.3-6.8-1.2-10.6-1c-3.3,10.2-11.6,15.8-21.4,17.8
		C16.2,592,5.9,592.1,0,592.8V724h1400V588.6v-21v-91.3H1398.9z M384.3,640.8C384.3,640.8,384.3,640.8,384.3,640.8c0,0,0.1,0,0.1,0
		H384.3z M450,560.5c-0.6-1-1.8-1-2.4-2.5c-0.4-1.2-0.1-2.1,0.1-3.7l2.4-0.1l1.3,1.3l1.6-1.5l-2.2,2.2l6.1,6.1v3.4l-3.6,3.6
		l-4.5-4.5C450.9,563.7,450.5,561.4,450,560.5z M449.5,552.5l0,0.7l-1.6,0.1c0-0.1,0-0.3,0-0.5c0-0.5,0-0.9-0.2-1.2l1-1l-0.4,0.4
		L449.5,552.5z M448.8,550.6l3.1-3.1l-0.7,4.5h-1L448.8,550.6z M447,550.5c-0.9-0.8-2.2-1.2-3.8-1.7c-2.6-0.8-4.1-1.7-3.9-3
		c0.1-1.3,0.8-1.8,1.6-1.7c0.9,0.1,4.4,2.5,5,2.8c0.6,0.3,2.5,0,2.5,0l0.2,2L447,550.5z M450.5,622.1h15.9v4.8h-15.9V622.1z
		 M450.5,620.9v-2.6h15.9v2.6H450.5z M462.8,528.1l2.8-3v25.5c0,0.7-0.5,1.2-1.2,1.2H464c-0.7,0-1.2-0.5-1.2-1.2V528.1z
		 M422.9,521.4h32.1c2.3,0,4.2,1.5,4.7,3.6h-41.6C418.7,522.9,420.6,521.4,422.9,521.4z M422.6,640.8c1-0.6,2-1.1,2.9-1.8l1.5,1.8
		H422.6z M425,532.4c0,0-0.1,14.2,0,19.1l-7-7.4v-17.8c0,0,0-0.1,0-0.1h41.9c0,0,0,0.1,0,0.1v22.9h-2.1l-4.7,4.7l-1.1-1.2l0.8-6.1
		l2.2-2.2l-0.9-0.9l-2.1,2.1l-1.4,0.1c0,0-0.1-1.1-1.3-2.1c-1.2-1-6.1-4.5-8.9-6.6c-0.7-0.6-1.7-1-2.9-1.2c0.3-0.4,0.5-1,0.6-1.5
		l0.5,0.2c0.2-0.5,0.3-1.1,0.3-1.7c0-2.5-1.9-4.5-4.1-4.5c-1.9,0-3.6,1.4-4,3.4l0.7,0.2c-0.2,0.5-0.4,1.1-0.4,1.7
		c0,0.5,0.1,1,0.3,1.5c-0.7,0-1.1,0-1.1,0H429v-2.7H425z M500.4,640.8H430l4.6-3.9l-2.7-3.2c1.3-1.3,2.4-2.7,3.5-4.2l3.6,2.1
		l4.2-7.2l-3.6-2.1c0.7-1.7,1.4-3.4,1.9-5.1c-0.1,0.4-0.2,0.8-0.3,1.1h7.7v2.6v1.2v4.8v1.2h1.8h15.9h1.8v-1.2v-4.8v-1.2v-2.6h26.4
		c0,0.5,0,1,0,1.5c0,0.6,0,1.3,0.1,1.9l-2.9,0.5l1,5.6l2.8-0.5c0.3,1.2,0.8,2.4,1.3,3.5l-2.5,1.4l2.9,5l2.5-1.4c0.7,1,1.5,2,2.4,2.9
		L500.4,640.8z M587.2,572.3l2.9-2.3h31.3v26.9l-54-24.4C576.2,572.5,587.2,572.3,587.2,572.3z M573.7,591.2l20.8,5.5l18.6,11.9
		l-39.5-0.1c0.2-0.5,0.3-1.1,0.3-1.7C573.8,601.6,573.7,594.5,573.7,591.2z M551.8,580.1h0.9c0.8,0,1.4-0.6,1.4-1.4
		c0-0.8-0.6-1.4-1.4-1.4h-0.9v-1h0.5l0.1,0.1l11.3,0.3l25.6,14.9l-24.1-6l-5.1-2.3c-0.9-0.4-1.9-0.2-2.6,0.4l-3.4-0.9
		c0,0,0-0.1,0-0.1c0-0.8-0.6-1.4-1.4-1.4h-0.9V580.1z M549.4,601.5c1.5-1.5,2.4-3.6,2.4-5.8v-7.9h0.9c0.8,0,1.4-0.6,1.4-1.4
		c0-0.1,0-0.3-0.1-0.4l2.7,0.7v7.8c0,5.2-4.2,9.5-9.5,9.5l-0.1-0.2L549.4,601.5z M616.9,640.8h-6.6h-67.2l-1.8-2.1
		c0.9-0.9,1.7-1.9,2.4-2.9l2.5,1.4l2.9-5l-2.5-1.4c0.5-1.1,0.9-2.3,1.3-3.5l2.8,0.5l1-5.6l-2.9-0.5c0-0.6,0.1-1.2,0.1-1.9
		c0-0.6,0-1.3-0.1-1.9l2.9-0.5l-0.8-4.6c4.8,0,11.1,0,15.9,0c1.5,0,2.8-0.3,3.9-1l48.6,5.5c0,0,18.3,13.9,31.5,23.5H616.9z
		 M1283.3,532.5L1283.3,532.5l0.5,0v0.8h-0.7c-0.6,0-1.2,0.5-1.2,1.2c0,0.6,0.5,1.2,1.2,1.2h0.7v0.8h-0.7c-0.6,0-1.2,0.5-1.2,1.2
		c0,0,0,0,0,0.1l-2.8,0.7c-0.5-0.5-1.4-0.7-2.1-0.3l-4.1,1.9l-19.5,4.9l20.8-12.1L1283.3,532.5z M1266.1,558.6l-32.1,0.1l15.1-9.7
		l16.8-4.4c0,2.7,0,8.4,0,12.6C1265.9,557.7,1266,558.1,1266.1,558.6z M1227.3,527.5h25.3l2.4,1.8c0,0,8.9,0.1,16,0.1l-43.7,19.8
		V527.5z M1286.1,569.3l-0.6,0.1l-29.5-4l-17.5,1.5l-3.6,13.9l-11.7,3.6l-17.5-1.1c10.4-7.6,23.3-17.5,23.3-17.5l39.4-4.4
		c0.9,0.5,2,0.8,3.1,0.8c3.9,0,9,0,12.9,0l-0.7,3.7l2.3,0.4c0,0.5-0.1,1-0.1,1.5C1286,568.3,1286,568.8,1286.1,569.3z M1287.5,554.9
		c-4.2,0-7.7-3.4-7.7-7.7V541l2.2-0.6c0,0.1-0.1,0.2-0.1,0.3c0,0.6,0.5,1.2,1.2,1.2h0.7v6.4c0,1.8,0.7,3.4,1.9,4.7l1.8,1.8
		L1287.5,554.9z M1362.2,488h26c1.8,0,3.4,1.3,3.8,3h-33.7C1358.9,489.3,1360.4,488,1362.2,488z M1353.6,491l2.3,2.4v18.2
		c0,0.5-0.4,1-1,1h-0.4c-0.5,0-1-0.4-1-1V491z M1329.6,593.8l-11.8-5.9l-0.1-0.3c0.9-0.4,1.8-1,2.6-1.5l1.5,1.8l3.6-3l-1.5-1.8
		c0.7-0.7,1.4-1.5,2-2.3l2,1.2l2.3-4l-2-1.2c0.4-0.9,0.8-1.9,1-2.9l2.3,0.4l0.8-4.6l-2.3-0.4c0-0.5,0.1-1,0.1-1.5c0-0.4,0-0.8,0-1.2
		h21.4v2.1v1v3.9v1h1.4h10.1L1329.6,593.8z M1365.8,572.9l-1.1,0.7h-11.7v-3.9h12.9V572.9z M1365.8,568.7h-12.9v-2.1h12.9V568.7z
		 M1363.5,526.8l-2.9-2.9v-2.7l5-5l-1.8-1.8l1.3,1.2l1.1-1l1.9,0.1c0.2,1.3,0.4,2,0.1,3c-0.4,1.2-1.5,1.2-1.9,2
		c-0.4,0.7-0.8,2.6,0.8,3.4L1363.5,526.8z M1367.3,511.8l0.8,0.8c-0.1,0.3-0.1,0.6-0.1,1c0,0.1,0,0.3,0,0.4l-1.3-0.1l0-0.6l1-1.1
		L1367.3,511.8z M1366.1,512.8h-0.8l-0.6-3.7l2.5,2.5L1366.1,512.8z M1367.2,572.1v-2.4v-1v-2.1h6.2c-0.1-0.3-0.2-0.6-0.3-0.9
		c0.2,0.8,0.5,1.7,0.8,2.5L1367.2,572.1z M1371.8,510.3c-1.2,0.4-2.3,0.7-3,1.4l-1.3-1.3l0.2-1.6c0,0,1.5,0.2,2,0
		c0.5-0.2,3.4-2.2,4.1-2.3c0.7,0,1.2,0.4,1.3,1.4C1375,508.9,1373.9,509.7,1371.8,510.3z M1392.2,506.5l-5.7,6c0-4,0-15.5,0-15.5
		h-3.2v2.2h-0.9c0,0-0.3,0-0.9,0c0.1-0.4,0.2-0.8,0.2-1.2c0-0.5-0.1-0.9-0.3-1.4l0.6-0.2c-0.4-1.6-1.7-2.7-3.2-2.7
		c-1.9,0-3.4,1.6-3.4,3.6c0,0.5,0.1,0.9,0.2,1.3l0.4-0.1c0.1,0.5,0.2,0.9,0.5,1.2c-0.9,0.2-1.7,0.6-2.3,1c-2.2,1.7-6.2,4.6-7.2,5.4
		s-1.1,1.7-1.1,1.7l-1.1-0.1l-1.7-1.7l-0.7,0.7l1.8,1.8l0.6,4.9l-0.9,0.9l-3.8-3.8h-1.7V492c0,0,0,0,0-0.1h34c0,0,0,0,0,0.1V506.5z"
		/>
	<path id="XMLID_8885_" class="st8" d="M1287.3,756.4c6.3-3.5,10.6-10.1,10.6-17.8c0-0.9-0.1-1.9-0.2-2.8l1.3,0l0,1.6
		c0,0.2,0.1,0.3,0.2,0.4s0.3,0.2,0.4,0.2l11.6-0.3c0.3,0,0.6-0.3,0.6-0.6l-0.2-9c0-0.3-0.3-0.6-0.6-0.6l-2.2,0.1l0-0.9l0,0
		c0.2,0,0.3-0.2,0.3-0.4l0-1.5l0-0.6l0-1.3l0.5,0c0.8,0,0.8-1.4,0-1.4l-0.5,0l0-1.1l0.5,0c0.8,0,0.8-1.4,0-1.4l-0.5,0l0-1.1l0.5,0
		c0.8,0,0.8-1.4,0-1.4l-0.5,0l0-1.1l0.5,0c0.8,0,0.8-1.4,0-1.4l-0.5,0l0-1.3l0-1.3l0.5,0c0.3,0,0.4-0.2,0.4-0.5l-0.2-8.9
		c0-0.3-0.2-0.4-0.5-0.4l-0.5,0l0-0.6c0-0.1,0-0.1,0-0.2l1,0l0-2.1l-1.9,0l-4.2-4.8c-0.3-0.4-0.6-0.8-0.7-1.3l-0.4-1.5l-1.4-5.9
		l-2.1-8.7l-3-12.2c0,0,0,0,0,0v0c0,0,0,0,0,0c-0.4-1.5-1.7-2.5-3.2-2.4l-25.8,0.6l0-1.2c0-0.4-0.3-0.6-0.7-0.6l-1.6,0l-0.1-3.9
		c-0.1-2.6-2.2-4.6-4.8-4.5c-2.6,0.1-4.6,2.2-4.5,4.8l0.1,3.9l-1.4,0c-0.4,0-0.6,0.3-0.6,0.7l0,1.2l-9,0.2l-2.5,0.1l-0.7-27.8
		l-8.3,0.2l0-1l-0.1-2.2l-17.8,0.4l-0.1-2.8c0-0.3-0.3-0.6-0.6-0.6l-3.2,0.1c-0.3,0-0.6,0.3-0.6,0.6l0.1,2.8l-25.1,0.6l-0.1-2.8
		c0-0.3-0.3-0.6-0.6-0.6l-3.1,0.1c-0.3,0-0.6,0.3-0.6,0.6l0.1,2.8l-25.1,0.6l-0.1-2.8c0-0.3-0.3-0.6-0.6-0.6l-3.1,0.1
		c-0.3,0-0.6,0.3-0.6,0.6l0.1,2.8l-25.1,0.6l-0.1-2.8c0-0.3-0.3-0.6-0.6-0.6l-3.1,0.1c-0.3,0-0.6,0.3-0.6,0.6l0.1,2.8l-25.1,0.6
		l-0.1-2.8c0-0.3-0.3-0.6-0.6-0.6l-3.1,0.1c-0.3,0-0.6,0.3-0.6,0.6l0.1,2.8l-25.1,0.6l-0.1-2.8c0-0.3-0.3-0.6-0.6-0.6l-3.1,0.1
		c-0.3,0-0.6,0.3-0.6,0.6l0.6,23.6l-12.4,12.4l-0.4-17.6l0-0.7v0c1.3-0.8,2.2-2.3,2.2-4c-0.1-2.5-2.1-4.5-4.6-4.4s-4.5,2.1-4.4,4.6
		c0,1.7,1,3.1,2.4,3.8l0,1.5l0.5,21l-10.4,10.3c-0.2,0.2-0.4,0.6-0.4,0.9l1.6,67c-1.2,0.1-2,0.2-2.3,0.1
		c-3.8-0.4-122.7,1.1-130.7,3.3c-8,2.2-126.9-5.9-126.9-5.9h-65.6l-8.8,4.5l-20.4-0.7l-7.3-10.6L634,731.6v-25.5h-27.7v-57.6h-20.6
		v56.1h-10.4v-56.1h-20.6v56.1H531v28.1l-31.2-2.4l-63.4-26.2h-74.1l-23.2,21.5l-25.7,4.7l-65,2.4l-51,6l-25.7-1.6L79.8,711H34.5
		L0,704.2V980h1400V758.4L1287.3,756.4z M1282.1,665.7l8.3-0.2c0.2,0,0.4,0.1,0.4,0.3l5.8,24c0.1,0.3-0.1,0.5-0.4,0.5l-13.5,0.3
		c-0.2,0-0.4-0.2-0.4-0.4l-0.6-24.1C1281.7,665.9,1281.9,665.7,1282.1,665.7z M1249.5,666.4l24.2-0.6c0.2,0,0.4,0.2,0.4,0.4
		l0.6,24.2c0,0.2-0.2,0.4-0.4,0.4l-24.2,0.6c-0.2,0-0.4-0.2-0.4-0.4l-0.6-24.2C1249,666.6,1249.2,666.4,1249.5,666.4z M1066.2,746.5
		l10.8-0.3c0.1,0.3,0.1,0.7,0.2,1c-3.8,0.5-7.5,1-11,1.5L1066.2,746.5z M1236.9,742.4l3.3-0.1l0-1.8l4.2-0.1l0-1.2l10-0.2
		c0.1,0,0.2,0,0.2-0.1c0.2-0.1,0.3-0.2,0.3-0.4c0-0.1,0-0.1,0-0.2v0l0-1.6l2.3-0.1c0,0.5-0.1,1-0.1,1.6c0,7.5,4,14.1,10,17.7
		l-16.8-0.3L1236.9,742.4z"/>
	<g id="XMLID_8842_">
		<path id="XMLID_8844_" class="st9" d="M1240.1,742.4l-3.3,0.1l13.3,13.3l16.8,0.3c-6-3.6-10-10.2-10-17.7c0-0.5,0-1,0.1-1.6
			l-2.3,0.1l0,1.6v0c0,0.1,0,0.1,0,0.2c0,0.2-0.2,0.3-0.3,0.4c-0.1,0-0.1,0-0.2,0.1l-10,0.2l0,1.2l-4.2,0.1L1240.1,742.4z"/>
		<path id="XMLID_8895_" class="st9" d="M1066.3,748.8c3.5-0.5,7.2-1,11-1.5c-0.1-0.3-0.2-0.7-0.2-1l-10.8,0.3L1066.3,748.8z"/>
		<polygon id="XMLID_8896_" class="st9" points="1061.8,659.7 1051.4,659.7 1051.7,669.8 		"/>
		<path id="XMLID_8898_" class="st9" d="M1273.7,665.9l-24.2,0.6c-0.2,0-0.4,0.2-0.4,0.4l0.6,24.2c0,0.2,0.2,0.4,0.4,0.4l24.2-0.6
			c0.2,0,0.4-0.2,0.4-0.4l-0.6-24.2C1274.1,666,1273.9,665.9,1273.7,665.9z"/>
		<path id="XMLID_8899_" class="st9" d="M1282.7,690.6l13.5-0.3c0.3,0,0.5-0.3,0.4-0.5l-5.8-24c0-0.2-0.2-0.3-0.4-0.3l-8.3,0.2
			c-0.2,0-0.4,0.2-0.4,0.4l0.6,24.1C1282.3,690.4,1282.5,690.6,1282.7,690.6z"/>
		<path id="XMLID_8901_" class="st9" d="M585.7,675.7c-3.7,0-7.3,0-10.4,0v29h10.4V675.7z"/>
		<path id="XMLID_8902_" class="st9" d="M1386.5,668.4v-77.3H1374V577h-26.5v6.2H1337v6.2h-14.3v-19.5h-16.5V584h-8.5l-25.8,12.1
			v11.3h-16.5v36.2h-14.1l0.5,19.7l2.5-0.1l9-0.2l0-1.2c0-0.4,0.3-0.6,0.6-0.7l1.4,0l-0.1-3.9c-0.1-2.6,2-4.7,4.5-4.8
			c2.6-0.1,4.7,2,4.8,4.5l0.1,3.9l1.6,0c0.4,0,0.6,0.3,0.7,0.6l0,1.2l25.8-0.6c1.5,0,2.8,1,3.2,2.4c0,0,0,0,0,0v0c0,0,0,0,0,0
			l3,12.2l2.1,8.7l1.4,5.9l0.4,1.5c0.1,0.5,0.4,0.9,0.7,1.3l4.2,4.8l1.9,0l0,2.1l-1,0c0,0.1,0,0.1,0,0.2l0,0.6l0.5,0
			c0.3,0,0.5,0.2,0.5,0.4l0.2,8.9c0,0.3-0.2,0.5-0.4,0.5l-0.5,0l0,1.3l0,1.3l0.5,0c0.8,0,0.9,1.3,0,1.4l-0.5,0l0,1.1l0.5,0
			c0.8,0,0.9,1.3,0,1.4l-0.5,0l0,1.1l0.5,0c0.8,0,0.9,1.3,0,1.4l-0.5,0l0,1.1l0.5,0c0.8,0,0.9,1.3,0,1.4l-0.5,0l0,1.3l0,0.6l0,1.5
			c0,0.2-0.1,0.4-0.3,0.4l0,0l0,0.9l2.2-0.1c0.3,0,0.6,0.2,0.6,0.6l0.2,9c0,0.3-0.2,0.6-0.6,0.6l-11.6,0.3c-0.2,0-0.3-0.1-0.4-0.2
			s-0.2-0.2-0.2-0.4l0-1.6l-1.3,0c0.1,0.9,0.2,1.8,0.2,2.8c0,7.7-4.3,14.3-10.6,17.8l112.7,2v-90H1386.5z"/>
		<path id="XMLID_8904_" class="st9" d="M79.8,711l91.9,26.1l25.7,1.6l51-6l65-2.4l25.7-4.7l23.2-21.5h74.1l63.4,26.2l31.2,2.4
			v-28.1h23.7v-37.5h-20.4l-5.5-6.6h-4.9l-6.6,3.3v9.3L502,672v3.6c0,0-6.6,2.9-8.2,2.6c-1.6-0.2-8.6-3.4-11.4-2.6c-2.8,0.8-5,9-5,9
			s-6.6,4.9-8.2,4.4c-1.6-0.5-6-7.7-8.8-7.1c-2.7,0.5-6,1.6-6.6,3.8s-2.7,6.6-2.7,6.6l-82-3.8l-67.8-35.5h-96.5l0-0.3
			c-5.1,0.2-6.7-3.3-7.5-7.3c-0.3-1.4,1-1.9-1.3-2.3c-0.8-0.1-2.4,0.8-3.3,0.9c-5.6,1.2-11.2,0.1-14.4-4.8c-1.7,0.4-3.1,0.7-4.5,1.7
			c-0.8,0.6-2.2,3.1-3.6,3c-2.4-0.2-2.7-4.4-5.5-4.4c-2.8-0.1-5.9,0.7-8.8,0.7c-2.4,0-4.8,1.1-7,0.9c-0.1-0.6-0.5-1.3-0.6-2
			c-1.4,0.1-2.2,0.4-3.5-0.3c-1.3-0.7-1.4-2.8-2.4-3.4c-2.9-1.6-7.4,3-10.1,1.2c-1.2-0.8-0.7-2.3-1.6-3.2c-1.2-1.1-3-0.3-4.1-0.8
			c-1.4-0.6-1.9-2.4-3.6-2.8c-3.7-0.8-8.2,2.5-11.9,2.5c-1.3,0-2-0.7-3.3-0.8c-1.4,0-2.8,1.2-4.2,1.2c-3.6,0-5.5-3.7-9.3-1.5
			c-1.4,0.8-2.2,2-4.1,2.2c-2.5,0.3-4.3-0.4-6.8,0.3c-1.9,0.5-3.2,1-4.9,1.9c-3.4,1.9-4.2-1.1-7.6-1.2c-2.9-0.1-5.2,3.4-7.6,4.7
			c-2.4,1.4-4.8,2.9-7.2,4.1c-1.2,0.6-3.2,1.1-3.7,2.5c-0.6,1.8,1.3,3.8,1.3,5.7c0,2.3-1.4,2.8-2.8,0.6c-2.1,2-4.7,5.2-6.1,7.6
			c-1.5,2.6-0.7,3.6-4,4.1c-2.4,0.3-2.5,0.1-3.8,2.4c-0.8,1.5-1.9,3-2.6,4.5c-0.3,0.7-0.9,0.8-1.2,1.5c-0.6,1.8,0.3,1.7-1.2,3.5
			c-0.8,0.9-1.8,1-2.3,2.3c0,0,0,0,0,0.1L0,674.5v29.7l34.5,6.8H79.8z"/>
		<polygon id="XMLID_8905_" class="st9" points="1215,632.9 1232.8,632.5 1232.9,634.7 1232.9,635.7 1235.9,635.6 1235.9,628.3 
			1222.1,628.3 1222.1,631.5 1215,631.5 1215,632.7 		"/>
		<path id="XMLID_8907_" class="st9" d="M1122.4,635.2l-0.1-2.8c0-0.3,0.3-0.6,0.6-0.6l3.1-0.1c0.3,0,0.6,0.3,0.6,0.6l0.1,2.8
			l25.1-0.6l-0.1-2.8c0-0.3,0.3-0.6,0.6-0.6l3.1-0.1c0.3,0,0.6,0.3,0.6,0.6l0.1,2.8l25.1-0.6l-0.1-2.8c0-0.3,0.3-0.6,0.6-0.6
			l3.1-0.1c0.3,0,0.6,0.3,0.6,0.6l0.1,2.8l10.2-0.2l-3.6-2.5v-15.1h-33.4v-26h-5.1V583h-6.7v-5.4h-31.6v21.7h-12.5v36.4
			L1122.4,635.2z"/>
		<path id="XMLID_8912_" class="st9" d="M606.3,706.1H634v25.5l42.3,11.3l7.3,10.6l20.4,0.7l8.8-4.5h65.6c0,0,118.9,8.1,126.9,5.9
			c8-2.2,126.9-3.6,130.7-3.3c0.3,0,1.1,0,2.3-0.1l-1.6-67c0-0.3,0.1-0.6,0.4-0.9l10.4-10.3l-0.3-14.4h-48.6V638h-3.8v-13.5h4.5
			v-5.4h-13.6l-5.3-12.3h-18.7v3.4h-6.2v8.9h-4.9v5.2h5.1v12.1h-5.1v23h-2.9v4.1l-53.5,5.9c3.4-2.7,5.5-6.7,5.8-11.2l8.1-0.8
			l0.5,5.3c0,0.5,0.5,0.9,1,0.8l19.2-1.9c0.5,0,0.9-0.5,0.8-1l-5-51.5c0-0.2-0.1-0.5-0.3-0.6l-8.6-6.8l-1.5-15.7l-0.1-1.1
			c1-0.7,1.6-1.8,1.4-3.1c-0.2-1.9-1.8-3.2-3.7-3c-1.9,0.2-3.2,1.8-3,3.7c0.1,1.3,0.9,2.3,2,2.7l0,0l0.1,0.5l1.3,13.1l-10.3-8.1
			l-1.7-17.6c0-0.2-0.2-0.4-0.5-0.4l-2.3,0.2c-0.2,0-0.4,0.2-0.4,0.5l0.2,2.1l-18.7,1.8l-0.2-2.1c0-0.2-0.2-0.4-0.5-0.4l-2.3,0.2
			c-0.2,0-0.4,0.2-0.4,0.5l0.2,2.1l-18.7,1.8l-0.2-2.1c0-0.2-0.2-0.4-0.5-0.4l-2.3,0.2c-0.2,0-0.4,0.2-0.4,0.5l0.2,2.1l-18.7,1.8
			l-0.2-2.1c0-0.2-0.2-0.4-0.5-0.4l-2.3,0.2c-0.2,0-0.4,0.2-0.4,0.5l0.2,2.1l-18.7,1.8l-0.2-2.1c0-0.2-0.2-0.4-0.5-0.4l-2.3,0.2
			c-0.2,0-0.4,0.2-0.4,0.5l0.2,2.1l-18.7,1.8l-0.2-2.1c0-0.2-0.2-0.4-0.5-0.4l-2.4,0.2c-0.2,0-0.4,0.2-0.4,0.5l0.2,2.1l-13.3,1.3
			l0.2,1.6l0.1,0.8l-6.2,0.6l2,20.7l-1.8,0.2l-6.7,0.7l-0.1-0.9c0-0.3-0.3-0.5-0.5-0.4l-1.1,0.1l-0.3-2.9c-0.2-1.9-1.9-3.3-3.8-3.1
			c-1.9,0.2-3.3,1.9-3.1,3.8l0.3,2.9l-1.2,0.1c-0.3,0-0.5,0.3-0.4,0.5l0.1,0.9l-19.3,1.9c-1.1,0.1-2,1-2.1,2.1c0,0,0,0,0,0l0,0
			c0,0,0,0,0,0l-1.1,9.3l-0.8,6.6l-0.5,4.5l-0.1,1.2c0,0.4-0.2,0.7-0.4,1.1l-2.7,3.9l-1.4,0.1l0.1,1.5l0.7-0.1c0,0,0,0.1,0,0.1
			l0,0.5l-0.4,0c-0.2,0-0.3,0.2-0.3,0.4l0.6,6.7c0,0.2,0.2,0.3,0.4,0.3l0.4,0l0.1,1l0.1,0.9l-0.4,0c-0.6,0.1-0.5,1.1,0.1,1l0.4,0
			l0.1,0.8l-0.4,0c-0.6,0.1-0.5,1.1,0.1,1l0.4,0l0.1,0.8l-0.4,0c-0.6,0.1-0.5,1.1,0.1,1l0.4,0l0.1,0.8l-0.4,0
			c-0.6,0.1-0.5,1.1,0.1,1l0.4,0l0.1,0.9l0,0.5l0.1,1.1c0,0.1,0.1,0.2,0.3,0.2l0,0l0.1,0.7l-1.6,0.2c-0.2,0-0.4,0.2-0.4,0.5l0.7,6.7
			c0,0.2,0.2,0.4,0.5,0.4l8.7-0.8c0.1,0,0.2-0.1,0.3-0.2c0.1-0.1,0.1-0.2,0.1-0.3l-0.1-1.2l1-0.1c0,0.7,0,1.4,0.1,2.1
			c0.9,6.8,6.1,12,12.5,13.2l-1.2,0.1c0,0-37.2,8.8-40.5,9.8c-3.3,1.1-23,0-23,0l-7.7-8.8l-13.1-1.1l-8.8-7.1l-9.8-0.3
			c0,0-15.3-2.9-20.8-2.6c-1.7,0.1-8.1,0.1-16,0.1V706.1z M858.8,662.2l10.6-1c1.1,4.5,4.2,8.1,8.2,10.1l-25.4,2.8
			C856.1,671.4,858.6,667,858.8,662.2z M766.7,668.4L766.7,668.4c0,0,0,0.1,0,0.1c0.1,0.1,0.1,0.2,0.3,0.3c0.1,0,0.1,0,0.2,0
			l7.5-0.7l0.1,0.9l3.1-0.3l0.1,1.4l50.7-4.9c1.2,4.9,4.7,8.7,9.1,10.5l-82.1,9c6.2-2.6,10.2-9.1,9.3-16.1c0-0.4-0.1-0.8-0.2-1.2
			l1.7-0.2L766.7,668.4z M741.7,635.4l-10.1,1c-0.2,0-0.4-0.2-0.4-0.4l2.2-18.4c0-0.2,0.1-0.3,0.3-0.3l6.2-0.6
			c0.2,0,0.3,0.1,0.4,0.3l1.7,18C742,635.2,741.8,635.3,741.7,635.4z M745.8,616.5c0-0.2,0.1-0.3,0.3-0.4l18.1-1.8
			c0.2,0,0.3,0.1,0.4,0.3l1.8,18.1c0,0.2-0.1,0.3-0.3,0.4l-18.1,1.8c-0.2,0-0.3-0.1-0.4-0.3L745.8,616.5z"/>
	</g>
	<path id="XMLID_8278_" class="st10" d="M1366,849.9l-10.9,1c-2.1-1.9-3.9-3.2-5.3-6.6c-1.1-2.6-1-5.6-2.6-7.8
		c-2-2.6-4.3-2.2-6.6-3.8c-4.5-3.1-2.5-3.6-5-7.2c-1-1.4-2.4-1.3-3.6-2.6c-2.7-3-6-5.7-8.8-8.6c-4.4-4.4-4.6-3.9-10.3-3.1
		c-7.8,1-6.7-1.7-11.7-6.8c-4.6-4.7-12.5-10.3-18.6-13.6c-1.9,6.1-5.5,5.7-6.8,0.5c-1.1-4.2,1.8-10.1-0.7-13.7
		c-2.1-3.1-6.8-2.8-10-3.5c-6.5-1.4-12.7-3.2-19.1-4.9c-6.4-1.7-13.9-8.1-20.3-6c-7.8,2.5-7.7,9.8-16.6,7.6
		c-4.5-1.1-7.9-1.3-12.4-1.3c-6.2,0-9.9,2.6-15.7,3.5c-4.4,0.7-6.9-1.5-10.7-2.5c-10-2.5-12,7-20.2,9.3c-3.2,0.9-7.2-0.9-10.4,0.1
		c-2.9,0.9-4.1,3-7,3.8c-8.4,2.5-20.9-2.2-28.8,1.9c-3.7,1.9-3.8,6.2-6.6,8.6c-2.2,1.9-6.9,1.3-8.9,4.5c-1.7,2.6,0.4,5.7-1.7,8.3
		c-4.9,5.9-18-1.9-23.7,3.6c-1.8,1.8-0.7,6.7-3.3,9.1c-2.5,2.4-4.6,2.2-7.7,2.9c0.4,1.5-0.2,3.4,0,4.9c-5,2-11.2,0.8-16.6,2.4
		c-6.6,2-14.2,2-20.5,4c-6.3,2-4.4,11.5-9.8,13.6c-3.1,1.2-7.8-3.7-10.1-4.5c-3.7-1.4-7.2-1.2-11.2-1c-4.2,13.3-16.4,19.3-29.8,20.1
		c-2,0.1-6.3-0.9-8-0.1c-5,2.3-1.7,2.7-1.5,6.1c0.7,9.5-0.7,18.5-12.4,21.3l0.6,1.7c0.2,1.2,0.8,2.2,1.7,2.9c-32.2-1.5-64-3-64-3
		l-133.4-7c0,0-92.6-7-100.6-10.8c-3.8-1.8-28.1-10.1-52.5-18.2c11.6-5.1,20-16.2,21.1-29.7c0.1-1.6,0.1-3.2,0.1-4.8l2.2,0.1
		l-0.1,2.7c0,0.3,0.1,0.5,0.3,0.7c0.2,0.2,0.4,0.3,0.7,0.3l20.1,1c0.6,0,1-0.4,1.1-1l0.8-15.7c0-0.6-0.4-1-1-1.1l-3.8-0.2l0.1-1.5
		l0.1,0c0.3,0,0.6-0.2,0.6-0.6l0.1-2.6l0.1-1.1l0.1-2.2l0.8,0c1.4,0.1,1.6-2.3,0.1-2.3l-0.8,0l0.1-1.9l0.8,0
		c1.4,0.1,1.6-2.3,0.1-2.3l-0.8,0l0.1-1.9l0.8,0c1.4,0.1,1.6-2.3,0.1-2.3l-0.8,0l0.1-1.9l0.8,0c1.4,0.1,1.6-2.3,0.1-2.3l-0.8,0
		l0.1-2.2l0.1-2.3l0.9,0c0.4,0,0.8-0.3,0.8-0.7l0.8-15.5c0-0.4-0.3-0.8-0.7-0.8l-0.9,0l0.1-1.1c0-0.1,0-0.2,0-0.3l1.7,0.1l0.2-3.6
		l-3.2-0.2l-6.6-8.9c-0.5-0.7-0.9-1.5-1-2.4l-0.4-2.7l-1.7-10.4l-2.5-15.3l-3.5-21.5c0,0,0,0,0,0l0,0c0,0,0,0,0,0
		c-0.4-2.6-2.6-4.5-5.2-4.6l-44.8-2.3l0.1-2c0-0.6-0.4-1.1-1.1-1.2l-2.7-0.1l0.3-6.7c0.2-4.5-3.2-8.3-7.7-8.5s-8.3,3.2-8.5,7.7
		l-0.3,6.7l-2.5-0.1c-0.6,0-1.1,0.4-1.2,1.1l-0.1,2l-15.7-0.8l-4.3-0.2l2.5-48.2l-14.4-0.7l0.1-1.8l0.2-3.7l-31-1.6l0.2-4.8
		c0-0.6-0.4-1.1-1-1.1l-5.6-0.3c-0.6,0-1.1,0.4-1.1,1l-0.2,4.8l-43.6-2.3l0.2-4.8c0-0.6-0.4-1.1-1-1.1l-5.3-0.3
		c-0.6,0-1.1,0.4-1.1,1l-0.2,4.8l-43.6-2.3l0.2-4.8c0-0.6-0.4-1.1-1-1.1l-5.3-0.3c-0.6,0-1.1,0.4-1.1,1l-0.2,4.8l-43.6-2.3l0.2-4.8
		c0-0.6-0.4-1.1-1-1.1l-5.3-0.3c-0.6,0-1.1,0.4-1.1,1l-0.2,4.8l-43.6-2.3l0.2-4.8c0-0.6-0.4-1.1-1-1.1l-5.3-0.3
		c-0.6,0-1.1,0.4-1.1,1l-0.2,4.8l-43.6-2.3l0.2-4.8c0-0.6-0.4-1.1-1-1.1l-5.3-0.3c-0.6,0-1.1,0.4-1.1,1l-2.1,41L187,673.6l1.6-30.6
		l0.1-1.3l0,0c2.4-1.2,4.2-3.6,4.3-6.6c0.2-4.3-3.1-8-7.4-8.2c-4.3-0.2-8,3.1-8.2,7.4c-0.2,2.9,1.3,5.5,3.6,7l-0.1,2.6l-1.9,36.5
		L159.7,697c-0.4,0.4-0.7,0.9-0.7,1.5l-6.2,119.8c0,0.2,0,0.5,0.1,0.7L0,814.3V980h1400V844.9L1366,849.9z M586,697.4
		c0-0.4,0.4-0.7,0.8-0.7l14.4,0.7c0.4,0,0.6,0.3,0.7,0.6l7,42.3c0.1,0.5-0.3,0.9-0.8,0.9l-23.5-1.2c-0.4,0-0.7-0.4-0.7-0.8
		L586,697.4z M529.4,694.5c0-0.4,0.4-0.7,0.8-0.7l42.1,2.2c0.4,0,0.7,0.4,0.7,0.8l-2.2,42.1c0,0.4-0.4,0.7-0.8,0.7l-42.1-2.2
		c-0.4,0-0.7-0.4-0.7-0.8L529.4,694.5z M291.2,813.1l24.7,1.3c0.7,7.2,3.6,13.9,8,19.3l-49.7,3.1
		C282.8,831.8,289.1,823.3,291.2,813.1z M202.1,808.5l18.8,1c0.6,6.7,3.1,12.9,7,18l-26.8-5.6c0.2-0.3,0.4-0.7,0.4-1.1L202.1,808.5z
		 M383.8,829.9l-2.5,0.2c2.3-3.6,3.9-7.7,4.8-12l117.9,6.1l0.2-3.2l7.3,0.4l0.1-2l17.3,0.9c0.1,0,0.3,0,0.4-0.1
		c0.3-0.1,0.5-0.3,0.6-0.6c0-0.1,0.1-0.2,0.1-0.3v0l0.1-2.7l4,0.2c-0.1,0.9-0.3,1.8-0.3,2.7c-0.6,7.4,1.1,14.4,4.5,20.4
		c-5.5-1.8-8.9-2.9-8.9-2.9L383.8,829.9z"/>
</g>
</svg>
