<svg version="1.1" id="Layer_1" xmlns="http://www.w3.org/2000/svg" x="0" y="0" viewBox="0 0 1400 980" xml:space="preserve"><style type="text/css">.st3{opacity:.1}.st4{fill:#eecbcb}.st6{fill:#c04350}.st9{fill:#af4357}</style><g id="XMLID_16530_"><linearGradient id="XMLID_2_" gradientUnits="userSpaceOnUse" x1="2300" y1="6.92" x2="2300" y2="524.472" gradientTransform="matrix(-1 0 0 1 3000 0)"><stop offset="0" stop-color="#dd1e47"/><stop offset=".348" stop-color="#ed3d57"/><stop offset="1" stop-color="#f37f7b"/></linearGradient><path id="XMLID_11667_" fill="url(#XMLID_2_)" d="M0 0h1400v980H0z"/><linearGradient id="XMLID_3_" gradientUnits="userSpaceOnUse" x1="2300" y1="6.92" x2="2300" y2="524.472" gradientTransform="matrix(-1 0 0 1 3000 0)"><stop offset="0" stop-color="#dd1e47"/><stop offset=".348" stop-color="#ed3d57"/><stop offset="1" stop-color="#f37f7b"/></linearGradient><path id="XMLID_11666_" fill="url(#XMLID_3_)" d="M0 0h1400v980H0z"/><linearGradient id="XMLID_4_" gradientUnits="userSpaceOnUse" x1="-680" y1="-1313.06" x2="-680" y2="-957.791" gradientTransform="rotate(180 10 -409.536)"><stop offset="0" stop-color="#ed1f24"/><stop offset=".09" stop-color="#ed1f24" stop-opacity=".91"/><stop offset="1" stop-color="#ed1f24" stop-opacity="0"/></linearGradient><path id="XMLID_11665_" opacity=".8" fill="url(#XMLID_4_)" d="M0 0h1400v497.5H0z"/><g id="XMLID_1945_" class="st3"><path id="XMLID_11664_" class="st4" d="M588.4 95.2l-2.3.5L608.8 196l1.8-.4.9 4-4.2.9-.9-4 1.8-.4-22.6-100.3-2.3.5-.9-4 5.1-1.1z"/><path id="XMLID_1946_" class="st4" d="M343.8 265.2v15.6h-2.2v-11h-.6v11h-3.9v-11h-.6v11h-2.1v1.9h2.1v17.5h-2.1v1.9h2.1v17.5h-2.1v1.9h2.1V339h-2.1v1.9h2.1v17.5h-2.1v1.9h2.1V378h-2.1v1.9h2.1v17.5h-2.1v1.9h2.1v17.5h-2.1v1.9h2.1v17.5h-2.1v1.9h2.1v17.5h-2.1v1.9h2.1V475h-2.1v1.9h2.1v17.5h-2.1v1.9h2.1v17.5h-2.1v1.9h2.1v17.5h-2.1v1.9h2.1v17.5h-2.1v1.9h2.1v23.3h.6V555h2.6v1.9h1.3v21.4h.6v-21.4h2.2v13.9h3.8v-13.9h15.8v21.4h.6v-21.4h4.2v13.9h3.8v-13.9h2.4v1.7h1.2v12.2h1.4v-12.2h6.3v19.7h.6v-19.7h11.9v1.5h3.2v10.7h1.7v-10.7h1.3v18.2h.6v-18.2h3.2v10.7h3.8v-10.7h2.8v10.7h1.7v-10.7h3.7v10.7h3.8v-10.7h5.2v10.7h67v-14.2h6.4v14.2h3.8v-14.2h3.3v-1.8h.6v16h1.7v-16H524v-.7h2.1v16.7h.6v-16.7h3.1v16.7h1.7v-16.7h1.2v16.7h1.7v-16.7h9.3v16.7h.6v-16.7h1.7v16.7h1.7v-16.7h3.3v-1.5h4.1v-1.5h-7.4V536h3.3v-1.5h4.1V533h-7.4v-15.1h3.3v-1.5h4.1v-1.5h-7.4v-15.1h3.3v-1.5h4.1v-1.5h-7.4v-15.1h3.3v-1.5h4.1v-1.5h-7.4v-15.1h3.3v-1.5h4.1v-1.5h-7.4v-15.1h3.3V444h4.1v-1.5h-7.4v-15.1h3.3v-1.5h4.1v-1.5h-7.4v-15.1h3.3v-1.5h4.1v-1.5h-7.4v-15.1h3.3v-1.5h4.1v-1.5h-7.4v-15.1h3.3v-1.5h4.1v-1.5h-7.4V355h3.3v-1.5h4.1V352h-7.4v-15h3.3v-1.5h4.1V334h-7.4v-15.1h3.3v-1.5h4.1v-1.5h-7.4v-15.1h3.3v-1.5h4.1v-1.5h-7.4v-15.1h3.3v-1.5h4.1v-1.5h-7.4v-15.1h3.3v-1.5h4.1v-1.5h-7.4V256H546v5.6h-1.7V256h-.6v5.6H534V256h-1.7v5.6h-1.2V256h-1.7v5.6h-3.1V250h-.6v11.6h-2.1v-2h-14.4v-32.9h-1.7v3.2h-3.9v-3.2H500v-8h-6.5v-3.5h-5.6v-6.1h-2.6v6.1H483v-6.1h-2.6v6.1h-30.6v-45.8h2.1v-2.2h-2.1v-.7h2.1v-2.2h-2.1v-11.2h2.1V151h-3.4v-.7h3.4V148h-5.1v-2.2h-2.3v-2.2h2.3v-2.2h-3.2v-12.2h.7v-.7h-.7v-.2h.7v-.7h-.7v-1.8l5.1-1.1 3.1-.7-.5-2 178.9-40.5-.1-.6-4.2.9-2.3-2.9 3.8-.9-.1-.6-44.2 10v-.3l-150.4 8.6-.3-1.2-2.7.6.4 1.6-49.5 36-5.3 1.2 3.2 14 9.6-2.2-2-9 11-2.5.1.5 23.3-5.3-.1-.5 11.9-2.7.5 2 2.6-.6.8-.2 1.6-.4v.4h-.8v.7h.8v.2h-.8v.7h.8v12.5h-3.4v2.2h2.3v2.2h-2.3v2.2h-5.1v2.2h3.4v.7h-3.4v2.2h2.3v11.2h-2.3v2.2h2.3v.7h-2.3v2.2h2.3v45.8h-5.2v3.5h-5.8v-4.2h-4.8v4.2h-7.1v-4.2h-2.6v4.2h-5.7v-4.2h-1.7v4.2h-22.5v3.9h-7.8v4.1h-.5v18.6h-4.5v1h-16v-19.6h-3.8v19.6h-6.9v1.9h6.9v13.1h-9.3v1.9h5.3v1.9h4.2zM543.9 536h1.7v15.1h-1.7V536zm0-18.1h1.7V533h-1.7v-15.1zm0-18h1.7V515h-1.7v-15.1zm0-18.1h1.7v15.1h-1.7v-15.1zm0-18.1h1.7v15.1h-1.7v-15.1zm0-18.1h1.7v15.1h-1.7v-15.1zm0-18.1h1.7v15.1h-1.7v-15.1zm0-18.1h1.7v15.1h-1.7v-15.1zm0-18.1h1.7v15.1h-1.7v-15.1zm0-18.1h1.7v15.1h-1.7v-15.1zm0-18.1h1.7v15.1h-1.7v-15.1zm0-18.1h1.7v15h-1.7v-15zm0-18.1h1.7V334h-1.7v-15.1zm0-18.1h1.7v15.1h-1.7v-15.1zm0-18.1h1.7v15.1h-1.7v-15.1zm0-18.1h1.7v15.1h-1.7v-15.1zM534 536h9.3v15.1H534V536zm0-18.1h9.3V533H534v-15.1zm0-18h9.3V515H534v-15.1zm0-18.1h9.3v15.1H534v-15.1zm0-18.1h9.3v15.1H534v-15.1zm0-18.1h9.3v15.1H534v-15.1zm0-18.1h9.3v15.1H534v-15.1zm0-18.1h9.3v15.1H534v-15.1zm0-18.1h9.3v15.1H534v-15.1zm0-18.1h9.3v15.1H534v-15.1zm0-18.1h9.3v15.1H534v-15.1zm0-18.1h9.3v15H534v-15zm0-18.1h9.3V334H534v-15.1zm0-18.1h9.3v15.1H534v-15.1zm0-18.1h9.3v15.1H534v-15.1zm0-18.1h9.3v15.1H534v-15.1zM531.1 536h1.2v15.1h-1.2V536zm0-18.1h1.2V533h-1.2v-15.1zm0-18h1.2V515h-1.2v-15.1zm0-18.1h1.2v15.1h-1.2v-15.1zm0-18.1h1.2v15.1h-1.2v-15.1zm0-18.1h1.2v15.1h-1.2v-15.1zm0-18.1h1.2v15.1h-1.2v-15.1zm0-18.1h1.2v15.1h-1.2v-15.1zm0-18.1h1.2v15.1h-1.2v-15.1zm0-18.1h1.2v15.1h-1.2v-15.1zm0-18.1h1.2v15.1h-1.2v-15.1zm0-18.1h1.2v15h-1.2v-15zm0-18.1h1.2V334h-1.2v-15.1zm0-18.1h1.2v15.1h-1.2v-15.1zm0-18.1h1.2v15.1h-1.2v-15.1zm0-18.1h1.2v15.1h-1.2v-15.1zM526.3 536h3.1v15.1h-3.1V536zm0-18.1h3.1V533h-3.1v-15.1zm0-18h3.1V515h-3.1v-15.1zm0-18.1h3.1v15.1h-3.1v-15.1zm0-18.1h3.1v15.1h-3.1v-15.1zm0-18.1h3.1v15.1h-3.1v-15.1zm0-18.1h3.1v15.1h-3.1v-15.1zm0-18.1h3.1v15.1h-3.1v-15.1zm0-18.1h3.1v15.1h-3.1v-15.1zm0-18.1h3.1v15.1h-3.1v-15.1zm0-18.1h3.1v15.1h-3.1v-15.1zm0-18.1h3.1v15h-3.1v-15zm0-18.1h3.1V334h-3.1v-15.1zm0-18.1h3.1v15.1h-3.1v-15.1zm0-18.1h3.1v15.1h-3.1v-15.1zm0-18.1h3.1v15.1h-3.1v-15.1zm-17 272.2h14.4v-.8h2.1v15.1h-2.1v-2h-14.4v-12.3zm0-18.1h14.4v-.7h2.1v15h-2.1v-2h-14.4v-12.3zm0-18.1h14.4v-.7h2.1V515h-2.1v-2h-14.4v-12.4zm0-18.1h14.4v-.7h2.1v15.1h-2.1v-2h-14.4v-12.4zm0-18.1h14.4v-.7h2.1v15.1h-2.1v-2h-14.4v-12.4zm0-18.1h14.4v-.7h2.1v15.1h-2.1v-2h-14.4v-12.4zm0-18.1h14.4v-.7h2.1v15.1h-2.1v-2h-14.4v-12.4zm0-18.1h14.4v-.7h2.1v15.1h-2.1v-2h-14.4v-12.4zm0-18.1h14.4v-.7h2.1v15.1h-2.1v-2h-14.4V392zm0-18.1h14.4v-.7h2.1v15.1h-2.1v-2h-14.4v-12.4zm0-18.1h14.4v-.7h2.1v15.1h-2.1v-2h-14.4v-12.4zm0-18.1h14.4v-.7h2.1v15h-2.1v-2h-14.4v-12.3zm0-18.1h14.4v-.7h2.1V334h-2.1v-2h-14.4v-12.4zm0-18.1h14.4v-.7h2.1v15.1h-2.1v-2h-14.4v-12.4zm0-18.1h14.4v-.7h2.1v15.1h-2.1v-2h-14.4v-12.4zm0-18.1h14.4v-.7h2.1v15.1h-2.1v-2h-14.4v-12.4zm-5.6 273.3h3.3v-1.8h.6v12.3h-.6v-2h-3.3v-8.5zm0-18.1h3.3v-1.8h.6V531h-.6v-2h-3.3v-8.5zm0-18.1h3.3v-1.8h.6v12.3h-.6v-2h-3.3v-8.5zm0-18.1h3.3v-1.8h.6v12.3h-.6v-2h-3.3v-8.5zm0-18.1h3.3v-1.8h.6v12.3h-.6v-2h-3.3v-8.5zm0-18.1h3.3v-1.8h.6v12.3h-.6v-2h-3.3v-8.5zm0-18.1h3.3v-1.8h.6v12.3h-.6v-2h-3.3V430zm0-18.1h3.3v-1.8h.6v12.3h-.6v-2h-3.3v-8.5zm0-18.1h3.3V392h.6v12.3h-.6v-2h-3.3v-8.5zm0-18.1h3.3v-1.8h.6v12.3h-.6v-2h-3.3v-8.5zm0-18.1h3.3v-1.8h.6v12.3h-.6v-2h-3.3v-8.5zm0-18.1h3.3v-1.8h.6V350h-.6v-2h-3.3v-8.5zm0-18.1h3.3v-1.8h.6v12.3h-.6v-2h-3.3v-8.5zm0-18.1h3.3v-1.8h.6v12.3h-.6v-2h-3.3v-8.5zm0-18.1h3.3v-1.8h.6v12.3h-.6v-2h-3.3v-8.5zm0-18.1h3.3v-1.8h.6v12.3h-.6v-2h-3.3v-8.5zm0-16.9h3.9v9.4h-.6v-2h-3.3v-7.4zm0-10.4h3.9v5.5h-3.9v-5.5zm-10.2 298.8h6.4v8.5h-6.4v-8.5zm0-18.1h6.4v8.5h-6.4v-8.5zm0-18.1h6.4v8.5h-6.4v-8.5zm0-18.1h6.4v8.5h-6.4v-8.5zm0-18.1h6.4v8.5h-6.4v-8.5zm0-18.1h6.4v8.5h-6.4v-8.5zm0-18.1h6.4v8.5h-6.4V430zm0-18.1h6.4v8.5h-6.4v-8.5zm0-18.1h6.4v8.5h-6.4v-8.5zm0-18.1h6.4v8.5h-6.4v-8.5zm0-18.1h6.4v8.5h-6.4v-8.5zm0-18.1h6.4v8.5h-6.4v-8.5zm0-18.1h6.4v8.5h-6.4v-8.5zm0-18.1h6.4v8.5h-6.4v-8.5zm0-18.1h6.4v8.5h-6.4v-8.5zm0-18.1h6.4v8.5h-6.4v-8.5zm0-16.9h6.4v7.3h-6.4v-7.3zm0-9.1h6.4v4.2h-6.4v-4.2zM442.9 139v2h-1.4l-2.8-1.3 1.4-.7h2.8zm-1.3-.7l1.2-.6v.6h-1.2zm-.7 2.7h-2.2v-1l2.2 1zm-2.2-1.6v-.4h.9l-.9.4zm0-1.1v-2h1.9l2.3 1.1-1.8.9h-2.4zm4.2-2v.8l-1.7-.8h1.7zm-3.3-.7l-.9-.4 3.3-1.5h.9v2h-3.3zm-.9 0v-.2l.4.2h-.4zm0-.7v-1.3h2.7l-2.7 1.3zm0-2v-2h.1l4.1 2h-4.2zm4.2-2v1.7l-3.6-1.7h3.6zm-3.3-.7l2.2-1h1.1v1h-3.3zm-.9 0v-1h2.5l-2.2 1h-.3zm0-2.7v-.6l.8-.2 1.7.8h-2.5zm2.3-7.3l1.6-.4-.3 1.4-1 .2-.3-1.2zm-10.9 5.9l.6-2.7.9-.2.6 2.5-2.1.4zm-.5.1l-1.7-2.2 2.6-.6-.6 2.7-.3.1zm-3.6.8l.6-2.7 1-.2 1.7 2.2-3.3.7zm-.4.2l-1.7-2.2 2.6-.6-.6 2.7-.3.1zm-3.6.8l.6-2.7 1-.2 1.7 2.2-3.3.7zm-.4.1l-1.7-2.2 2.6-.6-.6 2.7-.3.1zm-1.8-2l1.6 2-1.1.2-.5-2.2zm-25.8 8.2l.8-3.6h.2l1.8 2.4.1.6-2.9.6zm1.2-3.7l1-.2.5 2.1-1.5-1.9zm-1.7 3.8l-2.3-2.9 3.3-.8-.8 3.6-.2.1zm-3.5.8l.8-3.6h.2l2.3 2.9-3.3.7zm-.5.1l-2.3-2.9 3.3-.8-.8 3.6-.2.1zm-3.5.8l.8-3.6h.2l2.3 2.9-3.3.7zm-.8-3.3l1.3-.3-.7 3.1-.6-2.8zm42.9-33.7l-30.6 29.8-1.5.3.1.6-11 2.5-.1-.6-2.7.6 45.8-33.2zm2.6.1L435 118l-1.3.3-.3-1.2-23.3 5.3.8 3.5-12.3 2.8 31.7-30.9v.1l.5-.1.3 1.3-.4.1zm59.3 7.5l.1.5-55.7-10.9 127-4-66 14.9-.4-1.7-5 1.2zm91.3-18.8L563 92v-.3l-106.5 3.4 124.8-7.2zm41.2-5.3l.8-3.6h.2l2.3 2.9-3.3.7zm-.5.1l-2.3-2.9 3.3-.8-.8 3.6-.2.1zm-3.5.8l.8-3.6h.2l2.3 2.9-3.3.7zm-.5.1l-2.3-2.9 3.3-.7-.8 3.6h-.2zm-3.6.9l.8-3.6h.2l2.3 2.9-3.3.7zm-.4.1l-2.3-2.9 3.3-.8-.8 3.6-.2.1zm-3.6.8l.8-3.6h.2l2.3 2.9-3.3.7zm-.4.1l-2.3-2.9 3.3-.8-.8 3.6-.2.1zm-3.6.8l.8-3.6h.2l2.3 2.9-3.3.7zm-.4.1l-2.3-2.9 3.3-.8-.8 3.6-.2.1zm-3.6.8l.8-3.6h.2l2.3 2.9-3.3.7zm-.4.1l-2.3-2.9 3.3-.8-.8 3.6-.2.1zm-3.6.8l.8-3.6h.2l2.3 2.9-3.3.7zm-.4.1l-2.3-2.9 3.3-.8-.8 3.6-.2.1zm-3.6.8l.8-3.6h.2l2.3 2.9-3.3.7zm-.5.1l-2.3-2.9 3.3-.8-.8 3.6-.2.1zm-3.5.8l.8-3.6h.2l2.3 2.9-3.3.7zm-.5.1l-2.3-2.9 3.3-.8-.8 3.6-.2.1zm-3.5.8l.8-3.6h.2l2.3 2.9-3.3.7zm-.5.1l-2.3-2.9 3.3-.8-.8 3.6-.2.1zm-3.5.8l.8-3.6h.2l2.3 2.9-3.3.7zm-.5.1l-2.3-2.9 3.3-.8-.8 3.6-.2.1zm-3.5.8l.8-3.6h.2l2.3 2.9-3.3.7zm-.5.1l-2.3-2.9 3.3-.8-.8 3.6-.2.1zm-3.5.8l.8-3.6h.2l2.3 2.9-3.3.7zm-.5.1l-2.3-2.9 3.3-.8-.8 3.6-.2.1zm-3.5.8l.8-3.6h.2l2.3 2.9-3.3.7zm-.5.1l-2.3-2.9 3.3-.8-.8 3.6-.2.1zm-3.6.8l.8-3.6h.2l2.3 2.9-3.3.7zm-.4.1l-2.3-2.9 3.3-.8-.8 3.6-.2.1zm-3.6.8l.8-3.6h.2l2.3 2.9-3.3.7zm-.4.1l-2.3-2.9 3.3-.8-.8 3.6-.2.1zm-3.6.8l.8-3.6h.2l2.3 2.9-3.3.7zm-.4.1l-2.3-2.9 3.3-.8-.8 3.6-.2.1zm-3.6.8l.8-3.6h.2l2.3 2.9-3.3.7zm-.4.1l-2.3-2.9 3.3-.8-.8 3.6-.2.1zm-3.6.9l.8-3.6h.2l2.3 2.9-3.3.7zm-.4.1l-2.3-2.9 3.3-.8-.8 3.6-.2.1zm-3.6.8l.8-3.6h.2l2.3 2.9-3.3.7zm-.5.1l-2.3-2.9 3.3-.8-.8 3.6-.2.1zm-3.5.8l.8-3.6h.2l2.3 2.9-3.3.7zm-.5.1l-2.3-2.9 3.3-.8-.8 3.6-.2.1zm-3.5.8l.8-3.6h.2l2.3 2.9-3.3.7zm-.5.1l-2.3-2.9 3.3-.8-.8 3.6-.2.1zm-3.5.8l.8-3.6h.2l2.3 2.9-3.3.7zm-.5.1l-2.3-2.9 3.3-.8-.8 3.6-.2.1zm-3.5.8l.8-3.6h.2l2.3 2.9-3.3.7zm-.5.1l-2.3-2.9 3.3-.8-.8 3.6-.2.1zm-3.5.8l.8-3.6h.2l2.3 2.9-3.3.7zm-.5.1l-2.3-2.9 3.3-.8-.8 3.6-.2.1zm-3.6.8l.8-3.6h.2l2.3 2.9-3.3.7zm-.4.1l-2.3-2.9 3.3-.8-.8 3.6-.2.1zm-3.6.8l.8-3.6h.2l2.3 2.9-3.3.7zm-.4.1l-2.3-2.9 3.3-.8-.8 3.6-.2.1zm-3.6.8l.8-3.6h.2l2.3 2.9-3.3.7zm-.4.1l-2.3-2.9 3.3-.8-.8 3.6-.2.1zm-3.6.8l.8-3.6h.2l2.3 2.9-3.3.7zm-.4.1l-2.3-2.9 3.3-.8-.8 3.6-.2.1zm-3.6.8l.8-3.6h.2l2.3 2.9-3.3.7zm-.4.1l-2.3-2.9 3.3-.8-.8 3.7h-.2zm-3.6.8l.8-3.6h.2l2.3 2.9-3.3.7zm-.4.1l-2.3-2.9 3.3-.8-.8 3.6-.2.1zm-3.6.8l.8-3.6h.2l2.3 2.9-3.3.7zm-.5.1l-2.2-2.8v-.2l3.2-.7-.8 3.6-.2.1zm-3.5.8l.4-1.7 1.4-.3-.2-1 1.8 2.3-3.4.7zm-.5.1l-1.1-1.4 1.7-.4-.4 1.7-.2.1zm-3.5.8l.6-2.5.2.7 1.5-.3 1.1 1.4-3.4.7zm-.5.2l-2.3-2.9 3.1-.7.1.6-.7 3h-.2zm-3.5.8l.8-3.6h.2l2.3 2.9-3.3.7zm-.5.1l-2.3-2.9 3.3-.8-.8 3.6-.2.1zm-3.5.8l.8-3.6h.2l2.3 2.9-3.3.7zm-.5.1l-2.3-2.9 3.3-.8-.8 3.6-.2.1zm-3.5.8l.8-3.6h.2l2.3 2.9-3.3.7zm-.5.1l-2.3-2.9 3.3-.8-.8 3.6-.2.1zm-3.6.8l.8-3.6h.2l2.3 2.9-3.3.7zm-.4.1l-2.3-2.9 3.3-.8-.8 3.6-.2.1zm-3.6.8l.8-3.6h.2l2.3 2.9-3.3.7zm-.4.1l-2.3-2.9 3.3-.8-.8 3.6-.2.1zm-3.6.8l.8-3.6h.2l2.3 2.9-3.3.7zm-.4.1l-2.3-2.9 3.3-.8-.8 3.6-.2.1zm-3.6.8l.8-3.6h.2l2.3 2.9-3.3.7zm-.4.1l-2.3-2.9 3.3-.8-.8 3.6-.2.1zm-3.6.8l.8-3.6h.2l2.3 2.9-3.3.7zm-.4.1l-2.3-2.9 3.3-.8-.8 3.6-.2.1zm-3.6.8l.8-3.6h.2l2.3 2.9-3.3.7zm-.5.1l-2.3-2.9 3.3-.8-.8 3.6-.2.1zm-2.9-1.9l.2-.9h.2l2.3 2.9-2.1.5-.1-.5-.4-1.6-.1-.4zm-.2-.8h.2l-.1.4-.1-.4zm-5.3-.1l.1.6-4.4 1-.6-2.8-2.6.6-4.3-18.8-.5.1-.3-1.3.5-.1-.1-.4 57.2 11.2.1.5-40 9-.1-.6-5 1zm-1 2.8l-.9-1.1 2.1-.5.3 1.2-1.5.4zm-.2 0l-1.4.3.3-1.4h.2l.9 1.1zm-1.1 5.2v1.6h-1.2l-1.9-.9.5-.1.8-.2.7-.2.6-.1.5-.1zm4.3 38.3h-3.6l-9.2-4.4 12.9-6.1v10.5zm0 8.3h-10.1l6.7-3.2h3.4v3.2zm0 7.4l-11-5.2h11v5.2zm0 9.2h-10l-2.9-1.4 10-4.7h2.8v6.1zm0 4.7l-5.3-2.5h5.3v2.5zm0 3.6h-3.8l3.8-1.8v1.8zm0 8.3h-4.3l-8.5-4 4.4-2.1h8.5v6.1zm-4.2 5.8l4.2-2v5.6H443v-3.6zm-7.6 3.6l5.1-2.4v2.4h-5.1zm-1.1-7.2h11.4l1.5.7v.1l-4.2 2v-1.6h-2.6v2.8l-6.1 2.9V208zm0-5.4l6.8 3.2h-6.8v-3.2zm0-2.9h2.7l-2.7 1.3v-1.3zm0-8.3h5.8l7.1 3.4v.1l-5.6 2.6h-7.3v-6.1zm0-2.8l1.2.6h-1.2v-.6zm0-5.5h8.3l-8.3 3.9v-3.9zm0-8.3h.2l12.7 6v.1h-12.9v-6.1zm0-5.4h7.7l-6.7 3.2h-1v-3.2zm0-8.6l7.5 3.6h-7.5v-3.6zm0-7.6H447l-12.7 6v-6zm-13 387.5h5.2v7.1h-5.2v-7.1zm0-19.4h5.2v7.1h-5.2v-7.1zm0-19.5h5.2v7.1h-5.2v-7.1zm0-19.4h5.2v7.1h-5.2v-7.1zm0-19.5h5.2v7.1h-5.2v-7.1zm0-19.4h5.2v7.1h-5.2v-7.1zm0-19.5h5.2v7.1h-5.2V424zm0-19.4h5.2v7.1h-5.2v-7.1zm0-19.4h5.2v7.1h-5.2v-7.1zm0-19.5h5.2v7.1h-5.2v-7.1zm0-19.4h5.2v7.1h-5.2v-7.1zm0-19.5h5.2v7.1h-5.2v-7.1zm0-19.4h5.2v7.1h-5.2v-7.1zm0-19.5h5.2v7.1h-5.2v-7.1zm0-19.4h5.2v7.1h-5.2v-7.1zm0-18.3h5.2v6h-5.2v-6zm0-9.1h5.2v4.2h-5.2v-4.2zm-7.4 299.6h3.7v7.1h-3.7v-7.1zm0-19.4h3.7v7.1h-3.7v-7.1zm0-19.5h3.7v7.1h-3.7v-7.1zm0-19.4h3.7v7.1h-3.7v-7.1zm0-19.5h3.7v7.1h-3.7v-7.1zm0-19.4h3.7v7.1h-3.7v-7.1zm0-19.5h3.7v7.1h-3.7V424zm0-19.4h3.7v7.1h-3.7v-7.1zm0-19.4h3.7v7.1h-3.7v-7.1zm0-19.5h3.7v7.1h-3.7v-7.1zm0-19.4h3.7v7.1h-3.7v-7.1zm0-19.5h3.7v7.1h-3.7v-7.1zm0-19.4h3.7v7.1h-3.7v-7.1zm0-19.5h3.7v7.1h-3.7v-7.1zm0-19.4h3.7v7.1h-3.7v-7.1zm0-18.3h3.7v6h-3.7v-6zm0-9.1h3.7v4.2h-3.7v-4.2zm-4.4 299.6h2.8v7.1h-2.8v-7.1zm0-19.4h2.8v7.1h-2.8v-7.1zm0-19.5h2.8v7.1h-2.8v-7.1zm0-19.4h2.8v7.1h-2.8v-7.1zm0-19.5h2.8v7.1h-2.8v-7.1zm0-19.4h2.8v7.1h-2.8v-7.1zm0-19.5h2.8v7.1h-2.8V424zm0-19.4h2.8v7.1h-2.8v-7.1zm0-19.4h2.8v7.1h-2.8v-7.1zm0-19.5h2.8v7.1h-2.8v-7.1zm0-19.4h2.8v7.1h-2.8v-7.1zm0-19.5h2.8v7.1h-2.8v-7.1zm0-19.4h2.8v7.1h-2.8v-7.1zm0-19.5h2.8v7.1h-2.8v-7.1zm0-19.4h2.8v7.1h-2.8v-7.1zm0-18.3h2.8v6h-2.8v-6zm0-9.1h2.8v4.2h-2.8v-4.2zm-7 299.6h3.2v7.1h-3.2v-7.1zm0-19.4h3.2v7.1h-3.2v-7.1zm0-19.5h3.2v7.1h-3.2v-7.1zm0-19.4h3.2v7.1h-3.2v-7.1zm0-19.5h3.2v7.1h-3.2v-7.1zm0-19.4h3.2v7.1h-3.2v-7.1zm0-19.5h3.2v7.1h-3.2V424zm0-19.4h3.2v7.1h-3.2v-7.1zm0-19.4h3.2v7.1h-3.2v-7.1zm0-19.5h3.2v7.1h-3.2v-7.1zm0-19.4h3.2v7.1h-3.2v-7.1zm0-19.5h3.2v7.1h-3.2v-7.1zm0-19.4h3.2v7.1h-3.2v-7.1zm0-19.5h3.2v7.1h-3.2v-7.1zm-1.9 252.8h1.3v7.1h-1.3v-7.1zm0-19.4h1.3v7.1h-1.3v-7.1zm0-19.5h1.3v7.1h-1.3v-7.1zm0-19.4h1.3v7.1h-1.3v-7.1zm0-19.5h1.3v7.1h-1.3v-7.1zm0-19.4h1.3v7.1h-1.3v-7.1zm0-19.5h1.3v7.1h-1.3V424zm0-19.4h1.3v7.1h-1.3v-7.1zm0-19.4h1.3v7.1h-1.3v-7.1zm0-19.5h1.3v7.1h-1.3v-7.1zm0-19.4h1.3v7.1h-1.3v-7.1zm0-19.5h1.3v7.1h-1.3v-7.1zm0-19.4h1.3v7.1h-1.3v-7.1zm0-19.5h1.3v7.1h-1.3v-7.1zm0-19.4h5.1v7.1h-3.2v-5.8h-.6v5.8h-1.3v-7.1zm0-18.3h5.1v6h-5.1v-6zm0-9.1h5.1v4.2h-5.1v-4.2zm-16.8 298.1h11.9v1.5h3.2v7.1h-3.2v2.6h-7.5v-2.6h-4.5v-8.6zm0-19.4h11.9v1.5h3.2v7.1h-3.2v2.6h-7.5v-2.6h-4.5v-8.6zm0-19.5h11.9v1.5h3.2v7.1h-3.2v2.6h-12v-11.2zm0-19.4h11.9v1.5h3.2v7.1h-3.2v2.6h-1v-2.6h-9.2v2.6h-1.7v-11.2zm0-19.5h11.9v1.5h3.2v7.1h-3.2v2.6h-1.1V470h-9.2v2.6h-1.6v-11.2zm0-19.4h11.9v1.5h3.2v7.1h-3.2v2.6h-7.5v-2.6h-4.5V442zm0-19.5h11.9v1.5h3.2v7.1h-3.2v2.6h-7.5v-2.6h-4.5v-8.6zm0-19.4h11.9v1.5h3.2v7.1h-3.2v2.6H391v-2.6h-7.2v-8.6zm0-19.5h11.9v1.5h3.2v7.1h-3.2v2.6h-12v-11.2zm0-19.4h11.9v1.5h3.2v7.1h-3.2v2.6h-7.5v-2.6h-4.5v-8.6zm0-19.5h11.9v1.5h3.2v7.1h-3.2v2.6h-12v-11.2zm0-19.4h11.9v1.5h3.2v7.1h-3.2v2.6h-7.5v-2.6h-4.5v-8.6zm0-19.5h11.9v1.5h3.2v7.1h-3.2v2.6h-7.5v-2.6h-4.5v-8.6zm0-19.4h11.9v1.5h3.2v7.1h-3.2v2.6H393V295h-9.2v2.6h-.1v-11.2zm-6.9 252.8h6.3v8.6h-4.1v2.6h-2.2v-11.2zm0-19.4h6.3v8.6h-4.1v2.6h-2.2v-11.2zm0-19.5h6.3v11.2h-6.3v-11.2zm0-19.4h6.3v11.2h-6.3v-11.2zm0-19.5h6.3v11.2h-6.3v-11.2zm0-19.4h6.3v8.6h-4.1v2.6h-2.2V442zm0-19.5h6.3v8.6h-4.1v2.6h-2.2v-11.2zm0-19.4h6.3v8.6h-1.4v2.6h-5v-11.2zm0-19.5h6.3v11.2h-6.3v-11.2zm0-19.4h6.3v8.6h-4.1v2.6h-2.2v-11.2zm0-19.5h6.3V356h-6.3v-11.3zm0-19.4h6.3v8.6h-4.1v2.6h-2.2v-11.2zm0-19.5h6.3v8.6h-4.1v2.6h-2.2v-11.2zm0-19.4h6.3v11.2h-6.3v-11.2zm0-19.4h18.8v1.5h3.2v7.1h-3.2v2.6h-7.5v-2.6h-4.5v-5.8h-.6v5.8H379v2.6h-2.2V267zm-5 270.5h2.4v1.7h1.2v11.2h-1.2v2.6h-2.4v-15.5zm0-19.5h2.4v1.7h1.2V531h-1.2v2.6h-2.4V518zm0-19.4h2.4v1.7h1.2v11.2h-1.2v2.6h-2.4v-15.5zm0-19.4h2.4v1.7h1.2v11.2h-1.2v2.6h-2.4v-15.5zm0-19.5h2.4v1.7h1.2v11.2h-1.2v2.6h-2.4v-15.5zm0-19.4h2.4v1.7h1.2v11.2h-1.2v2.6h-2.4v-15.5zm0-19.5h2.4v1.7h1.2v11.2h-1.2v2.6h-2.4v-15.5zm0-19.4h2.4v1.7h1.2v11.2h-1.2v2.6h-2.4v-15.5zm0-19.5h2.4v1.7h1.2v11.2h-1.2v2.6h-2.4v-15.5zm0-19.4h2.4v1.7h1.2v11.2h-1.2v2.6h-2.4v-15.5zm0-19.5h2.4v1.7h1.2V356h-1.2v2.6h-2.4V343zm0-19.4h2.4v1.7h1.2v11.2h-1.2v2.6h-2.4v-15.5zm0-19.5h2.4v1.7h1.2V317h-1.2v2.6h-2.4v-15.5zm0-19.4h2.4v1.7h1.2v11.2h-1.2v2.6h-2.4v-15.5zm0-19.5h2.4v1.7h1.2v11.2h-1.2v2.6h-2.4v-15.5zm0-15H399v6h-3.2v2.6h-7.5v-2.6h-9.2v2.6h-4.8v2.6h-2.4v-11.2zm0-12.5h4.5v3.5h22.5v4.2h-27.1v-7.7zm-8 299.8h4.2v15.6h-4.2v-15.6zm0-19.5h4.2v15.6h-4.2V518zm0-19.4h4.2v15.6h-4.2v-15.6zm0-19.4h4.2v15.6h-4.2v-15.6zm0-19.5h4.2v15.6h-4.2v-15.6zm0-19.4h4.2v15.6h-4.2v-15.6zm0-19.5h4.2v15.6h-4.2v-15.6zm0-19.4h4.2V417h-4.2v-15.6zm0-19.5h4.2v15.6h-4.2v-15.6zm0-19.4h4.2V378h-4.2v-15.5zm0-19.5h4.2v15.6h-4.2V343zm0-19.4h4.2v15.6h-4.2v-15.6zm0-19.5h4.2v15.6h-4.2v-15.6zm0-19.4h4.2v15.6h-4.2v-15.6zm-16.3 252.8h15.8v15.6h-15.8v-15.6zm0-19.5h15.8v15.6h-15.8V518zm0-19.4h15.8v15.6h-15.8v-15.6zm0-19.4h15.8v15.6h-15.8v-15.6zm0-19.5h15.8v15.6h-15.8v-15.6zm0-19.4h15.8v15.6h-15.8v-15.6zm0-19.5h15.8v15.6h-15.8v-15.6zm0-19.4h15.8V417h-15.8v-15.6zm0-19.5h15.8v15.6h-15.8v-15.6zm0-19.4h15.8V378h-15.8v-15.5zm0-19.5h15.8v15.6h-15.8V343zm0-19.4h15.8v15.6h-15.8v-15.6zm0-19.5h15.8v15.6h-15.8v-15.6zm0-19.4h15.8v15.6h-15.8v-15.6zm0-19.5h20.6v15.6H364v-11h-.6v11h-15.8v-15.6zm0-17h16v1.9h4.5v11.2h-20.6v-13.1zm-6.6 52h-3.9v-17.5h2.6v1.9h1.3v15.6zm0 19.5h-3.9v-17.5h2.6v1.9h1.3v15.6zm0 19.4h-3.9v-17.5h2.6v1.9h1.3v15.6zm0 19.5h-3.9v-17.5h2.6v1.9h1.3v15.6zm0 19.4h-3.9v-17.5h2.6v1.9h1.3V378zm0 19.5h-3.9V380h2.6v1.9h1.3v15.6zm0 19.4h-3.9v-17.5h2.6v1.9h1.3v15.6zm0 19.5h-3.9v-17.5h2.6v1.9h1.3v15.6zm0 19.4h-3.9v-17.5h2.6v1.9h1.3v15.6zm0 19.5h-3.9v-17.5h2.6v1.9h1.3v15.6zm0 19.4h-3.9v-17.5h2.6v1.9h1.3v15.6zm0 19.5h-3.9v-17.5h2.6v1.9h1.3v15.6zm0 19.4h-3.9v-17.5h2.6v1.9h1.3v15.6zm0 19.5h-3.9v-17.5h2.6v1.9h1.3v15.6zm.6-15.6h2.2v15.6h-2.2v-15.6zm0-19.5h2.2v15.6h-2.2V518zm0-19.4h2.2v15.6h-2.2v-15.6zm0-19.4h2.2v15.6h-2.2v-15.6zm0-19.5h2.2v15.6h-2.2v-15.6zm0-19.4h2.2v15.6h-2.2v-15.6zm0-19.5h2.2v15.6h-2.2v-15.6zm0-19.4h2.2V417h-2.2v-15.6zm0-19.5h2.2v15.6h-2.2v-15.6zm0-19.4h2.2V378h-2.2v-15.5zm0-19.5h2.2v15.6h-2.2V343zm0-19.4h2.2v15.6h-2.2v-15.6zm0-19.5h2.2v15.6h-2.2v-15.6zm2.2-19.4v15.6h-2.2v-15.6h2.2z"/></g><g id="XMLID_1947_" class="st3"><path id="XMLID_2071_" class="st4" d="M18.7 78v.6h183.5v2.1h11v2.6h-.7v.7h.7v.2h-.7v.7h.7v12.3H210v2.2h2.3v2.2H210v2.2h-5v2.2h3.4v.7H205v2.2h2.1V120H205v2.2h2.1v.7H205v2.2h2.1v45.8h-30.6v-6.1h-2.6v6.1h-2.3v-6.1H169v6.1h-5.6v3.5h-6.5v8h-3.7v3.2h-3.9v-3.2h-1.7v32.9h-14.4v2h-2.1v-11.6h-.6v11.6h-3.1v-5.6h-1.7v5.6h-1.2v-5.6h-1.7v5.6h-9.3v-5.6h-.5v5.6h-1.7v-5.6h-1.7v5.6h-7.4v1.5h4.1v1.5h3.3v15.1h-7.4v1.5h4.1v1.5h3.3v15.1h-7.4v1.5h4.1v1.5h3.3v15.1h-7.4v1.5h4.1v1.5h3.3v15.1h-7.4v1.5h4.1v1.5h3.3v15.1h-7.4v1.5h4.1v1.5h3.3v15.1h-7.4v1.5h4.1v1.5h3.3V344h-7.4v1.5h4.1v1.5h3.3v15h-7.4v1.5h4.1v1.5h3.3v15.1h-7.4v1.5h4.1v1.5h3.3v15.1h-7.4v1.5h4.1v1.5h3.3v15.1h-7.4v1.5h4.1v1.5h3.3v15.1h-7.4v1.5h4.1v1.5h3.3v15.1h-7.4v1.5h4.1v1.5h3.3v15.1h-7.4v1.5h4.1v1.5h3.3v15.1h-7.4v1.5h4.1v1.5h3.3v15.1h-7.4v1.5h4.1v1.5h3.3v16.7h1.7v-16.7h1.7v16.7h.6v-16.7h9.3v16.7h1.7v-16.7h1.2v16.7h1.7v-16.7h3.1v16.7h.6v-16.7h2.1v.7h14.4v16h1.7v-16h.6v1.8h3.3v14.2h3.8v-14.2h6.4v14.2h67v-10.7h5.2v10.7h3.8v-10.7h3.7v10.7h1.7v-10.7h2.8v10.7h3.8v-10.7h3.2V534h.6v-18.2h1.3v10.7h1.7v-10.7h3.2v-1.5h11.9V534h.6v-19.7h6.3v12.2h1.4v-12.2h1.2v-1.7h2.4v13.9h3.8v-13.9h4.2V534h.6v-21.4h15.8v13.9h3.8v-13.9h2.2V534h.6v-21.4h1.3v-1.9h2.6V534h.6v-23.3h2.1v-1.9h-2.1v-17.5h2.1v-1.9h-2.1v-17.5h2.1V470h-2.1v-17.5h2.1v-1.9h-2.1v-17.5h2.1V431h-2.1v-17.5h2.1v-1.9h-2.1V394h2.1v-1.9h-2.1v-17.5h2.1v-1.9h-2.1v-17.5h2.1v-1.9h-2.1v-17.5h2.1v-1.9h-2.1v-17.5h2.1v-1.9h-2.1V297h2.1v-1.9h-2.1v-17.5h2.1v-1.9h-2.1v-17.5h2.1v-1.9h-2.1v-17.5h2.1v-1.9h-2.1v-11h-.6v11h-3.9v-11h-.6v11h-2.2v-15.6h4V219h5.3v-2h-9.3v-13.1h6.9V202h-6.9v-19.6h-3.8V202h-16v-1h-4.5v-18.6h-.5v-4.1h-7.8v-3.9H258v-4.2h-1.7v4.2h-5.7v-4.2H248v4.2h-7v-4.2h-4.8v4.2h-5.8v-3.5h-5.2v-45.8h2.3v-2.2h-2.3v-.7h2.3V120h-2.3v-11.2h2.3v-2.2h-3.4v-.7h3.4v-2.2h-5.1v-2.2h-2.3v-2.2h2.3v-2.2H219V84.9h.8v-.7h-.8V84h.8v-.7h-.8v-2.6h2.7v-2.1H234v.5h23.9v-.5h11.3v9.3h9.9V73.5h-5.4l-56.2-24.2v-1.6h-2.8V49L65.9 73.8l.1.3H20.7v.6h3.9L23 78h-4.3zm114.6 408.7v2h-2.1v-15.1h2.1v.7h14.4v12.3h-14.4zm16.7-2.1v2h-.6v-12.3h.6v1.8h3.3v8.5H150zm118.7-.5v2.6h-7.5v-2.6H258V477h3.2v-1.5h11.9v8.6h-4.4zm13.9-222.6v-1.7h2.4v15.6h-2.4v-2.6h-1.2v-11.2h1.2zm-2.6-38.9v11.2h-2.2v-2.6h-4.1v-5.8h-.6v5.8h-4.5v2.6h-7.5v-2.6H258v-7.1h3.2v-1.5H280zm-17.7 222.6v2.6h-1v-2.6H258v-7.1h3.2v-1.5h11.9v11.2h-1.7v-2.6h-9.1zM282.6 281v-1.7h2.4v15.6h-2.4v-2.6h-1.2V281h1.2zm-21.4-37.4v-1.5h11.9v11.2h-.1v-2.6h-9.2v2.6h-2.6v-2.6H258v-7.1h3.2zm1.2 182.2v2.6h-1.1v-2.6H258v-7.1h3.2v-1.5h11.9v11.2h-1.6v-2.6h-9.1zm20.2-105.9v-1.7h2.4v15.6h-2.4v-2.6h-1.2V320h1.2zm-21.4-18v-1.5h11.9v11.2h-12V309H258v-7.1h3.2zm-4.9-19.4v7.1H255v-7.1h1.3zm-1.3-12.3V263h1.3v7.1H255zm1.3 31.7v7.1H255v-7.1h1.3zm12.4 104.4v2.6h-7.5v-2.6H258v-7.1h3.2v-1.5h11.9v8.6h-4.4zm-7.5-84.9v-1.5h11.9v8.6h-4.5v2.6h-7.5v-2.6H258v-7.1h3.2zm12 17.9v11.2h-12V348H258v-7.1h3.2v-1.5h12zm-4.5 47.6v2.6h-7.5v-2.6H258v-7.1h3.2v-1.5h11.9v8.6h-4.4zM258 367.4v-7.1h3.2v-1.5h11.9v8.6h-7.2v2.6h-4.7v-2.6H258zm15.7-28.1h6.3v11.2h-6.3v-11.2zm6.3 19.5V370h-5v-2.6h-1.4v-8.6h6.4zm0 19.4v11.2h-2.2v-2.6h-4.1v-8.6h6.3zm0 19.5v11.2h-2.2v-2.6h-4.1v-8.6h6.3zm-23.7 8.6H255v-7.1h1.3v7.1zm-1.3-19.4v-7.1h1.3v7.1H255zm0-19.5v-7.1h1.3v7.1H255zm0-19.4v-7.1h1.3v7.1H255zm0-19.5v-7.1h1.3v7.1H255zm18.7-28.1h6.3v11.2h-6.3v-11.2zm6.3 19.5v11.2h-2.2v-2.6h-4.1v-8.6h6.3zm5.1 17.7v15.6h-2.4v-2.6h-1.2v-11.2h1.2v-1.7h2.4zm0 19.4v15.6h-2.4V370h-1.2v-11.2h1.2V357h2.4zm0 19.5v15.6h-2.4v-2.6h-1.2v-11.2h1.2v-1.7h2.4zm0 19.4v15.6h-2.4v-2.6h-1.2v-11.2h1.2V396h2.4zm0 19.5V431h-2.4v-2.6h-1.2v-11.2h1.2v-1.7h2.4zm-5.1 13h-6.3v-11.2h6.3v11.2zm-23.7-2.6H255v-7.1h1.3v7.1zm-1.9 0h-3.2v-7.1h3.2v7.1zm-3.2-19.5v-7.1h3.2v7.1h-3.2zm0-19.4v-7.1h3.2v7.1h-3.2zm0-19.5v-7.1h3.2v7.1h-3.2zm0-19.4v-7.1h3.2v7.1h-3.2zm0-19.5v-7.1h3.2v7.1h-3.2zm0-19.4V302h3.2v7.1h-3.2zm0-19.5v-7.1h3.2v7.1h-3.2zm0-19.4V263h3.2v7.1h-3.2zm0-19.5v-7.1h3.2v7.1h-3.2zm3.8-7.1h1.3v7.1H255v-7.1zm18.2 17.9v8.6h-4.5v2.6h-7.5v-2.6H258V263h3.2v-1.5h12zm0 19.5v8.6h-4.5v2.6h-7.5v-2.6H258v-7.1h3.2V281h12zm.5 0h6.3v11.2h-2.2v-2.6h-4.1V281zm11.4 17.7v15.6h-2.4v-2.6h-1.2v-11.2h1.2v-1.7h2.4zm3.7 0h4.2v15.6h-4.2v-15.6zm4.2 19.5v15.6h-4.2v-15.6h4.2zm0 19.4v15.6h-4.2v-15.6h4.2zm0 19.4v15.6h-4.2V357h4.2zm0 19.5v15.6h-4.2v-15.6h4.2zm0 19.4v15.6h-4.2v-15.6h4.2zm0 19.5V431h-4.2v-15.6h4.2zm0 19.4v15.6h-4.2v-15.6h4.2zm-7.9 15.6h-2.4v-2.6h-1.2v-11.2h1.2v-1.7h2.4v15.5zm-5.1-2.6h-6.3v-11.2h6.3v11.2zm-23.7-2.6H255v-7.1h1.3v7.1zm-1.9 0h-3.2v-7.1h3.2v7.1zm-6.9 0h-2.8v-7.1h2.8v7.1zm-2.8-19.4v-7.1h2.8v7.1h-2.8zm0-19.5v-7.1h2.8v7.1h-2.8zm0-19.4v-7.1h2.8v7.1h-2.8zm0-19.5v-7.1h2.8v7.1h-2.8zm0-19.4v-7.1h2.8v7.1h-2.8zm0-19.5v-7.1h2.8v7.1h-2.8zm0-19.4V302h2.8v7.1h-2.8zm0-19.5v-7.1h2.8v7.1h-2.8zm0-19.4V263h2.8v7.1h-2.8zm0-19.5v-7.1h2.8v7.1h-2.8zm0-19.4v-7.1h2.8v7.1h-2.8zm0-19.5v-6h2.8v6h-2.8zm-5.4-10.8v-4.2h3.7v4.2h-3.7zm8.2-4.2v4.2h-2.8v-4.2h2.8zm8.8 9v6h-5.1v-6h5.1zm0 18.4v7.1H255v-5.8h-.6v5.8h-3.2v-7.1h5.1zm23.7 17.9v11.2h-6.3v-11.2h6.3zm0 19.4v11.2h-2.2v-2.6h-4.1v-8.6h6.3zm8.8-1.7h4.2v15.6h-4.2v-15.6zm4.2 19.5v15.6h-4.2v-15.6h4.2zm.6 0h15.8v15.6h-15.8v-15.6zm15.8 19.4v15.6h-15.8v-15.6h15.8zm0 19.5v15.6h-15.8v-15.6h15.8zm0 19.4v15.6h-15.8v-15.6h15.8zm0 19.4v15.6h-15.8V357h15.8zm0 19.5v15.6h-15.8v-15.6h15.8zm0 19.4v15.6h-15.8v-15.6h15.8zm0 19.5V431h-15.8v-15.6h15.8zm0 19.4v15.6h-15.8v-15.6h15.8zm0 19.5v15.6h-15.8v-15.6h15.8zM293 469.8h-4.2v-15.6h4.2v15.6zm-7.9 0h-2.4v-2.6h-1.2V456h1.2v-1.7h2.4v15.5zm-5.1-2.5h-6.3V456h6.3v11.3zm-6.8 0h-12v-2.6H258v-7.1h3.2V456h11.9v11.3zm-16.9-2.6H255v-7.1h1.3v7.1zm-1.9 0h-3.2v-7.1h3.2v7.1zm-6.9 0h-2.8v-7.1h2.8v7.1zm-4.5 0h-3.7v-7.1h3.7v7.1zm-3.7-19.5v-7.1h3.7v7.1h-3.7zm0-19.4v-7.1h3.7v7.1h-3.7zm0-19.5v-7.1h3.7v7.1h-3.7zm0-19.4v-7.1h3.7v7.1h-3.7zm0-19.5v-7.1h3.7v7.1h-3.7zm0-19.4v-7.1h3.7v7.1h-3.7zm0-19.5v-7.1h3.7v7.1h-3.7zm0-19.4V302h3.7v7.1h-3.7zm0-19.5v-7.1h3.7v7.1h-3.7zm0-19.4V263h3.7v7.1h-3.7zm0-19.5v-7.1h3.7v7.1h-3.7zm0-19.4v-7.1h3.7v7.1h-3.7zm0-19.5v-6h3.7v6h-3.7zm-8.9-10.8v-4.2h5.2v4.2h-5.2zm25.9-4.2v4.2h-5.1v-4.2h5.1zm28.8 9V217h-2.4v-2.6h-4.8v-2.6h-9.2v2.6h-7.5v-2.6H258v-6h27.1zm0 15.1v15.6h-2.4v-2.6h-1.2v-11.2h1.2V221h2.4zm0 19.5V256h-2.4v-2.6h-1.2v-11.2h1.2v-1.7h2.4zm3.7 0h4.2V256h-4.2v-15.6zm4.8 0h15.8V256h-15.8v-15.6zm15.8 19.4v15.6h-15.8v-15.6h15.8zm3.7 0h2.2v15.6h-2.2v-15.6zm2.2 19.5v15.6h-2.2v-15.6h2.2zm0 19.4v15.6h-2.2v-15.6h2.2zm0 19.5v15.6h-2.2v-15.6h2.2zm0 19.4v15.6h-2.2v-15.6h2.2zm0 19.4v15.6h-2.2V357h2.2zm0 19.5v15.6h-2.2v-15.6h2.2zm0 19.4v15.6h-2.2v-15.6h2.2zm0 19.5V431h-2.2v-15.6h2.2zm0 19.4v15.6h-2.2v-15.6h2.2zm0 19.5v15.6h-2.2v-15.6h2.2zm0 19.4v15.6h-2.2v-15.6h2.2zm-5.9 15.6h-15.8v-15.6h15.8v15.6zm-16.4 0h-4.2v-15.6h4.2v15.6zm-7.9 0h-2.4v-2.6h-1.2v-11.2h1.2v-1.7h2.4v15.5zm-5.1-2.6h-2.2v-2.6h-4.1v-8.6h6.3v11.2zm-23.7-2.6H255V477h1.3v7.1zm-1.9 0h-3.2V477h3.2v7.1zm-6.9 0h-2.8V477h2.8v7.1zm-4.5 0h-3.7V477h3.7v7.1zm-7.4 0h-5.2V477h5.2v7.1zm-5.2-19.4v-7.1h5.2v7.1h-5.2zm0-19.5v-7.1h5.2v7.1h-5.2zm0-19.4v-7.1h5.2v7.1h-5.2zm0-19.5v-7.1h5.2v7.1h-5.2zm0-19.4v-7.1h5.2v7.1h-5.2zm0-19.5v-7.1h5.2v7.1h-5.2zm0-19.4v-7.1h5.2v7.1h-5.2zm0-19.5v-7.1h5.2v7.1h-5.2zm0-19.4V302h5.2v7.1h-5.2zm0-19.5v-7.1h5.2v7.1h-5.2zm0-19.4V263h5.2v7.1h-5.2zm0-19.5v-7.1h5.2v7.1h-5.2zm0-19.4v-7.1h5.2v7.1h-5.2zm0-19.5v-6h5.2v6h-5.2zm-97.1 256.8v2h-2.1v-15.1h2.1v.7h14.4v12.3h-14.4zm16.7-2v2h-.6v-12.3h.6v1.8h3.3v8.5H150zm13.4-181H157v-8.5h6.4v8.5zm-30.1 164.9v2h-2.1v-15.1h2.1v.7h14.4v12.3h-14.4zm16.7-2v2h-.6v-12.3h.6v1.8h3.3v8.5H150zm-16.7-16.1v2h-2.1v-15.1h2.1v.7h14.4v12.3h-14.4zm-2.1-16.1v-15.1h2.1v.7h14.4v12.3h-14.4v2h-2.1zm0-18.1v-15.1h2.1v.7h14.4v12.3h-14.4v2h-2.1zm0-18.1V365h2.1v.7h14.4V378h-14.4v2h-2.1zm0-18.1v-15h2.1v.7h14.4V360h-14.4v2h-2.1zm0-18.1v-15.1h2.1v.7h14.4v12.3h-14.4v2h-2.1zm0-18.1v-15.1h2.1v.7h14.4v12.3h-14.4v2h-2.1zm0-18.1v-15.1h2.1v.7h14.4v12.3h-14.4v2h-2.1zm18.1-14.3h.6v1.8h3.3v8.5H150v2h-.6v-12.3zm4 19.9v8.5H150v2h-.6v-12.3h.6v1.8h3.3zm0 18.1v8.5H150v2h-.6v-12.3h.6v1.8h3.3zm0 18.1v8.5H150v2h-.6v-12.3h.6v1.8h3.3zm0 18.1v8.5H150v2h-.6v-12.3h.6v1.8h3.3zm0 18.1v8.5H150v2h-.6v-12.3h.6v1.8h3.3zm0 18.1v8.5H150v2h-.6V402h.6v1.8h3.3zm0 18.1v8.5H150v2h-.6v-12.3h.6v1.8h3.3zm-22.7 30.6h-3.1v-15.1h3.1v15.1zm-3.1-18.1v-15.1h3.1v15.1h-3.1zm0-18.1v-15.1h3.1v15.1h-3.1zm0-18.1v-15.1h3.1v15.1h-3.1zm0-18.1V365h3.1v15.1h-3.1zm0-18.1v-15h3.1v15h-3.1zm0-18.1v-15.1h3.1v15.1h-3.1zm0-18.1v-15.1h3.1v15.1h-3.1zm0-18.1v-15.1h3.1v15.1h-3.1zm0-18.1v-15.1h3.1v15.1h-3.1zm3.7-15h2.1v.7h14.4v12.3h-14.4v2h-2.1v-15zm18.1.7h.6v1.8h3.3v8.5H150v2h-.6v-12.3zm14.1 28.4H157v-8.5h6.4v8.5zm0 18.1H157v-8.5h6.4v8.5zm0 18.1H157v-8.5h6.4v8.5zm0 18.1H157v-8.5h6.4v8.5zm0 18.1H157v-8.5h6.4v8.5zm0 18.1H157v-8.5h6.4v8.5zm0 18.1H157v-8.5h6.4v8.5zm0 18.1H157v-8.5h6.4v8.5zm0 18.1H157V440h6.4v8.5zm0 18.1H157v-8.5h6.4v8.5zm-32.8 4h-3.1v-15.1h3.1v15.1zm-4.8 0h-1.2v-15.1h1.2v15.1zm-1.2-18.1v-15.1h1.2v15.1h-1.2zm0-18.1v-15.1h1.2v15.1h-1.2zm0-18.1v-15.1h1.2v15.1h-1.2zm0-18.1v-15.1h1.2v15.1h-1.2zm0-18.1V365h1.2v15.1h-1.2zm0-18.1v-15h1.2v15h-1.2zm0-18.1v-15.1h1.2v15.1h-1.2zm0-18.1v-15.1h1.2v15.1h-1.2zm0-18.1v-15.1h1.2v15.1h-1.2zm0-18.1v-15.1h1.2v15.1h-1.2zm0-18.1v-15.1h1.2v15.1h-1.2zm2.9-15h3.1v15.1h-3.1v-15.1zm3.7 0h2.1v.7h14.4v12.3h-14.4v2h-2.1v-15zm18.1.7h.6v1.8h3.3v8.5H150v2h-.6v-12.3zm7.7 1.8h6.4v8.5H157V259zm0-9.6v-8.5h6.4v8.5H157zm6.4 235.2H157v-8.5h6.4v8.5zm-32.8 4.1h-3.1v-15.1h3.1v15.1zm-4.8 0h-1.2v-15.1h1.2v15.1zm-2.9 0h-9.3v-15.1h9.3v15.1zm-9.3-18.1v-15.1h9.3v15.1h-9.3zm0-18.1v-15.1h9.3v15.1h-9.3zm0-18.1v-15.1h9.3v15.1h-9.3zm0-18.1v-15.1h9.3v15.1h-9.3zm0-18.1v-15.1h9.3v15.1h-9.3zm0-18.1V365h9.3v15.1h-9.3zm0-18.1v-15h9.3v15h-9.3zm0-18.1v-15.1h9.3v15.1h-9.3zm0-18.1v-15.1h9.3v15.1h-9.3zm0-18.1v-15.1h9.3v15.1h-9.3zm0-18.1v-15.1h9.3v15.1h-9.3zm0-18.1v-15.1h9.3v15.1h-9.3zm0-18.1v-15.1h9.3v15.1h-9.3zm11-15h1.2v15.1h-1.2v-15.1zm2.9 0h3.1v15.1h-3.1v-15.1zm3.7 0h2.1v.7h14.4v12.3h-14.4v2h-2.1v-15zm18.1.7h.6v1.8h3.3v8.5H150v2h-.6v-12.3zm0-5.8V221h.6v1.8h3.3v8.5H150v2h-.7zm7.7-10.5h6.4v8.5H157v-8.5zm0-9.6v-7.3h6.4v7.3H157zm0-12.2v-4.2h6.4v4.2H157zm128.1 0H258v-4.2h22.5v-3.5h4.5v7.7zm24.3 16h-20.6v-11.2h4.5v-1.9h16V217zm0 19.5h-15.8v-11h-.6v11h-4.2v-15.6h20.6v15.6zm5.9 3.9V256h-2.2v-15.6h2.2zm4.5 15.5h-3.9v-15.6h1.3v-1.9h2.6v17.5zm0 19.5h-3.9v-15.6h1.3v-1.9h2.6v17.5zm0 19.4h-3.9v-15.6h1.3v-1.9h2.6v17.5zm0 19.5h-3.9v-15.6h1.3v-1.9h2.6v17.5zm0 19.4h-3.9v-15.6h1.3v-1.9h2.6v17.5zm0 19.5h-3.9v-15.6h1.3v-1.9h2.6v17.5zm0 19.4h-3.9V357h1.3v-1.9h2.6v17.5zm0 19.5h-3.9v-15.6h1.3v-1.9h2.6v17.5zm0 19.4h-3.9v-15.6h1.3V394h2.6v17.5zm0 19.5h-3.9v-15.6h1.3v-1.9h2.6V431zm0 19.4h-3.9v-15.6h1.3v-1.9h2.6v17.5zm0 19.4h-3.9v-15.6h1.3v-1.9h2.6v17.5zm0 19.5h-3.9v-15.6h1.3v-1.9h2.6v17.5zm-3.9 19.4v-15.6h1.3v-1.9h2.6v17.5h-3.9zm-2.8 0v-15.6h2.2v15.6h-2.2zm-19.5 0v-15.6h15.8v15.6h-15.8zm-4.8 0v-15.6h4.2v15.6h-4.2zm-7.3-2.5V495h1.2v-1.7h2.4v15.6h-2.4v-2.6h-1.2zm-7.8-2.6V495h6.3v11.2h-2.2v-2.6h-4.1zm-15.7 0v-7.1h3.2V495h11.9v8.6h-4.5v2.6h-7.5v-2.6H258zm-3 0v-7.1h1.3v7.1H255zm-3.8 0v-7.1h3.2v7.1h-3.2zm-6.5 0v-7.1h2.8v7.1h-2.8zm-5.4 0v-7.1h3.7v7.1h-3.7zm-8.9 0v-7.1h5.2v7.1h-5.2zm-73.4-.9v-8.5h6.4v8.5H157zm-7.7 2.1v-12.3h.6v1.8h3.3v8.5H150v2h-.7zm-18.1 2v-15.1h2.1v.7h14.4v12.3h-14.4v2h-2.1zm-3.7 0v-15.1h3.1v15.1h-3.1zm-2.9 0v-15.1h1.2v15.1h-1.2zm-11 0v-15.1h9.3v15.1h-9.3zm-2.3-15.1h1.7v15.1h-1.7v-15.1zm0-18.1h1.7v15.1h-1.7v-15.1zm0-18.1h1.7v15.1h-1.7v-15.1zm0-18.1h1.7v15.1h-1.7v-15.1zm0-18.1h1.7v15.1h-1.7v-15.1zm0-18.1h1.7v15.1h-1.7v-15.1zm0-18.1h1.7v15.1h-1.7v-15.1zm0-18h1.7v15.1h-1.7v-15.1zm0-18.1h1.7v15h-1.7v-15zm0-18.1h1.7V344h-1.7v-15.1zm0-18.1h1.7v15.1h-1.7v-15.1zm0-18.1h1.7v15.1h-1.7v-15.1zm0-18.1h1.7v15.1h-1.7v-15.1zm0-18.1h1.7v15.1h-1.7v-15.1zm0-18.1h1.7v15.1h-1.7v-15.1zm1.7-18.1v15.1h-1.7v-15.1h1.7zm9.9 0v15.1h-9.3v-15.1h9.3zm2.9 0v15.1h-1.2v-15.1h1.2zm4.8 0v15.1h-3.1v-15.1h3.1zm17 .7v12.3h-14.4v2h-2.1v-15.1h2.1v.7h14.4zm1.7-5.8v-9.4h3.9v7.3H150v2h-.7zm4-19.7v5.5h-3.9v-5.5h3.9zm69.3-86.7v6l-12.7-6h12.7zm0 11.2h-7.5l7.5-3.6v3.6zm0 5.1v3.2h-1l-6.7-3.2h7.7zm-8.7 39.7v1.6l-4.2-2v-.1l1.5-.7h11.4v6.9l-6.1-2.9v-2.8h-2.6zm-1.4-26l10 4.7-2.9 1.4h-10v-6.1h2.9zm-2.8 8.3h5.3l-5.3 2.5v-2.5zm12.9-2.8v.6h-1.2l1.2-.6zm0 8.9h-7.3l-5.6-2.6v-.1l7.1-3.4h5.8v6.1zm-9.1 0h-3.8v-1.8l3.8 1.8zm4.7 2.2l4.4 2.1-8.5 4h-4.3v-6.1h8.4zm-8.5-18.9l12.7-6h.2v6.1l-12.9-.1zm12.9 6.2l-8.3-3.9h8.3v3.9zm0 13.9l-2.7-1.3h2.7v1.3zm0 1.6v3.2h-6.8l6.8-3.2zm-1 12.7h-5.1v-2.4l5.1 2.4zm-11.9-40.4h11l-11 5.2v-5.2zm0 40.4v-5.6l4.2 2v3.6h-4.2zm0-45.8h3.4l6.7 3.2h-10.1v-3.2zm0-5.1v-10.4l12.9 6.1-9.2 4.4h-3.7zM24.9 74.6h.2l1.6 3.4h-3.4l1.6-3.4zm3.8 0L27.1 78h-.2l-1.6-3.4h3.4zm.5 0l1.6 3.4h-3.4l1.6-3.4h.2zm3.7 0L31.3 78H31l-1.6-3.4h3.5zm.4 0l1.6 3.4h-3.4l1.6-3.4h.2zm3.7 0L35.4 78h-.2l-1.6-3.4H37zm.4 0L39 78h-3.4l1.6-3.4h.2zm3.7 0L39.5 78h-.2l-1.6-3.4h3.4zm.4 0l1.6 3.4h-3.4l1.6-3.4h.2zm3.7 0L43.6 78h-.2l-1.6-3.4h3.4zm.4 0l1.6 3.4h-3.4l1.6-3.4h.2zm3.7 0L47.7 78h-.2l-1.6-3.4h3.4zm.4 0l1.6 3.4h-3.4l1.6-3.4h.2zm3.7 0L51.8 78h-.2L50 74.6h3.4zm.5 0l1.6 3.4H52l1.6-3.4h.3zm3.6 0L55.9 78h-.2l-1.6-3.4h3.4zm.5 0l1.6 3.4h-3.4l1.6-3.4h.2zm3.6 0L60 78h-.2l-1.6-3.4h3.4zm.5 0l1.6 3.4h-3.4l1.6-3.4h.2zm.2 0h3.4L64.1 78h-.2l-1.6-3.4zM68 78l-1.6-3.4h3.4L68.2 78H68zm4.1 0l-1.6-3.4h3.4L72.4 78h-.3zm4.1 0l-1.6-3.4H78L76.5 78h-.3zm4.1 0l-1.6-3.4h3.4L80.6 78h-.3zm4.2 0l-1.6-3.4h3.4L84.7 78h-.2zm4.1 0L87 74.6h3.4L88.8 78h-.2zm4.1 0l-1.6-3.4h3.4L92.9 78h-.2zm4.1 0l-1.6-3.4h3.4L97 78h-.2zm4.1 0l-1.6-3.4h3.4l-1.6 3.4h-.2zm4.1 0l-1.6-3.4h3.4l-1.6 3.4h-.2zm4.1 0l-1.6-3.4h3.4l-1.6 3.4h-.2zm4.1 0l-1.6-3.4h3.4l-1.6 3.4h-.2zm4.1 0l-1.6-3.4h3.4l-1.6 3.4h-.2zm4.1 0l-1.6-3.4h3.4l-1.6 3.4h-.2zm4.2 0l-1.6-3.4h3.4l-1.6 3.4h-.2zm4.1 0l-1.6-3.4h3.4l-1.6 3.4h-.2zm4.1 0l-1.6-3.4h3.4L134 78h-.2zm4.1 0l-1.6-3.4h3.4l-1.6 3.4h-.2zm4.1 0l-1.6-3.4h3.4l-1.6 3.4h-.2zm4.1 0l-1.6-3.4h3.4l-1.6 3.4h-.2zm4.1 0l-1.6-3.4h3.4l-1.6 3.4h-.2zm4.1 0l-1.6-3.4h3.3v.2l-1.5 3.2h-.2zm4.1 0l-.8-1.6h1.7l-.8 1.6h-.1zm4.1 0l-1.3-2.8v-.6h3.1l-1.6 3.4h-.2zm4.1 0l-1.6-3.4h3.4l-1.6 3.4h-.2zm4.2 0l-1.6-3.4h3.4L171 78h-.2zm4.1 0l-1.6-3.4h3.4l-1.6 3.4h-.2zm4.1 0l-1.6-3.4h3.4l-1.6 3.4h-.2zm4.1 0l-1.6-3.4h3.4l-1.6 3.4h-.2zm4.1 0l-1.6-3.4h3.4l-1.6 3.4h-.2zm4.1 0l-1.6-3.4h3.4l-1.6 3.4h-.2zm4.1 0l-1.6-3.4h3.4l-1.6 3.4h-.2zm4.1 0l-1.6-3.4h3.4l-1.6 3.4h-.2zm-38.3-3.9v-.5l53.4-23.5v.4h.5v1.4h-.5v19.3H212v2.9h-4.6v-.6h-5.2v.6h-41zm63 3.9l-1.2-2.5h2.6l-1.2 2.5h-.2zm4.1 0l-1.2-2.5h2.6l-1.2 2.5h-.2zm4.1 0l-1.2-2.5h2.6l-1.2 2.5h-.2zM68 74.1l123.3-20.5L86.6 73.8l.1.3H68zm20.4 0L213.2 50l-52 22.9v-.6H156v1.8H88.4zm128.9-23.6v-.2l37.8 23.2h-12.6v-3.6h-23.9v1.3h-1.3V51.9h-.5v-1.4h.5zM210 74.6l.6 1.3h-1.4l.6-1.3h.2zm-2.6 0h2.2l-.6 1.3h-1.6v-1.3zm2.9 0h1.7v1.3h-1.1l-.6-1.3zm47.5 0h1l-1 2.2v-2.2zM232.2 78h-3.4l1.2-2.5h1l1.2 2.5zm-4.2 0h-3.4l1.2-2.5h1L228 78zm-25.8-3l-.2-.3h.2v.3zm-2.9 3h-3.4l1.6-3.4h.2l1.6 3.4zm-4.1 0h-3.4l1.6-3.4h.2l1.6 3.4zm-4.1 0h-3.4l1.6-3.4h.2l1.6 3.4zm-4.1 0h-3.4l1.6-3.4h.2L187 78zm-4.2 0h-3.4l1.6-3.4h.2l1.6 3.4zm-4.1 0h-3.4l1.6-3.4h.2l1.6 3.4zm-4.1 0h-3.4l1.6-3.4h.2l1.6 3.4zm-4.1 0h-3.4l1.6-3.4h.2l1.6 3.4zm-4.1 0H163l1.6-3.4h.2l1.6 3.4zm-4.1 0h-3.4l.8-1.6h1.6v-.7l1 2.3zm-4.1 0h-3.4l1.3-2.6v1h1.4l.7 1.6zm-4.1 0h-3.4l1.6-3.4h.2l1.6 3.4zm-4.1 0h-3.4l1.6-3.4h.2L150 78zm-4.1 0h-3.4l1.6-3.4h.2l1.6 3.4zm-4.2 0h-3.4l1.6-3.4h.2l1.6 3.4zm-4.1 0h-3.4l1.6-3.4h.2l1.6 3.4zm-4.1 0h-3.4l1.6-3.4h.2l1.6 3.4zm-4.1 0H126l1.6-3.4h.2l1.6 3.4zm-4.1 0h-3.4l1.6-3.4h.2l1.6 3.4zm-4.1 0h-3.4l1.6-3.4h.2l1.6 3.4zm-4.1 0h-3.4l1.6-3.4h.2l1.6 3.4zm-4.1 0h-3.4l1.6-3.4h.2L113 78zm-4.1 0h-3.4l1.6-3.4h.2l1.6 3.4zm-4.1 0h-3.4l1.6-3.4h.2l1.6 3.4zm-4.1 0h-3.4l1.6-3.4h.2l1.6 3.4zm-4.2 0h-3.4l1.6-3.4h.3l1.5 3.4zm-4.1 0H89l1.6-3.4h.2l1.6 3.4zm-4.1 0h-3.4l1.6-3.4h.2l1.6 3.4zm-4.1 0h-3.4l1.6-3.4h.2l1.6 3.4zm-4.1 0h-3.4l1.6-3.4h.2l1.6 3.4zM76 78h-3.4l1.6-3.4h.2L76 78zm-4.1 0h-3.4l1.6-3.4h.2l1.6 3.4zm-4.1 0h-3.4l1.6-3.4h.2l1.6 3.4zm204.1-4.5h-2.8v.6h-11.3v-.6h-1.5l-36.4-22.3 52 22.3zM261.2 78l-1.6-3.4h3.4l-1.6 3.4h-.2zm4.1 0l-1.6-3.4h3.4l-1.6 3.4h-.2zm-.3 0h-3.4l1.6-3.4h.2L265 78zm4.1-.5l-1.3-2.8h1.3v2.8zm0 .5h-3.4l1.6-3.4h.2l1.6 3.4zm-11.3 0v-.7l1.3-2.7h.2l1.6 3.4h-3.1zM234 78h-1.1l1.1-2.3V78zm-12.2 0v-2.5h1L224 78h-2.2zm-3.5 2.7v.9l-1.8-.9h1.8zm0 2.5h-2.4l2.4-1.2v1.2zm0 1.7v1h-.3l-2.2-1h2.5zm-3.3 4.4l3.3 1.5-.9.4h-3.2v-2h.8zm-.9 2.7h1.7l-1.7.8V92zm4.2-.9v.2h-.4l.4-.2zm0 2.9h-2.4l-1.8-.9 2.3-1.1h1.9v2zm-4.2-5.4l4.1-2h.1v2h-4.2zm4.2 2l-2.7-1.3h2.7v1.3zm0 4.5l-.9-.4h.9v.4zm0 1.6h-2.2l2.2-1v1zm-2.8 0h-1.4v-2h2.7l1.4.7-2.7 1.3zm-1.4-2.7v-.6l1.2.6h-1.2zm0-7.4h3.6l-3.6 1.7v-1.7zm0-1.7h1.1l2.2 1h-3.3v-1zm0-4.2h1.8l2.4 1.1-3 1.4h-1.2v-2.5zM202.2 78H200l1.6-3.4h.2l.4.8V78z"/><path id="XMLID_10766_" class="st4" d="M67.9 82.7h-2.3v102.9h1.8v4.1h-4.2v-4.1H65V82.7h-2.3v-4.1h5.2z"/></g><g id="XMLID_2073_" class="st3"><path id="XMLID_2074_" class="st4" d="M1381.6 53.1l-1.6-3.4h3.9v-.6h-45.3l.1-.3-148.6-24.7v-1.3h-2.8v1.6l-56.2 24.2h-5.4v14.3h9.9v-9.3h11.3v.5h23.9v-.5h12.2v2.1h2.7v2.6h-.8v.7h.8v.2h-.8v.7h.8v12.3h-3.4v2.2h2.3v2.2h-2.3v2.2h-5.1V81h3.4v.7h-3.4v2.2h2.3v11.2h-2.3v2.2h2.3v.7h-2.3v2.2h2.3V146h-5.2v3.5h-5.8v-4.2h-4.8v4.2h-7.1v-4.2h-2.6v4.2h-5.7v-4.2h-1.7v4.2h-22.5v3.9h-7.8v4.1h-.5V176h-4.5v1h-16v-19.6h-3.8V177h-6.9v1.9h6.9V192h-9.3v1.9h5.3v1.9h4v15.6h-2.2v-11h-.6v11h-3.9v-11h-.6v11h-2.1v1.9h2.1V231h-2.1v1.9h2.1v17.5h-2.1v1.9h2.1v17.5h-2.1v1.9h2.1v17.5h-2.1v1.9h2.1v17.5h-2.1v1.9h2.1V328h-2.1v1.9h2.1v17.5h-2.1v1.9h2.1v17.5h-2.1v1.9h2.1v17.5h-2.1v1.9h2.1V406h-2.1v1.9h2.1v17.5h-2.1v1.9h2.1v17.5h-2.1v1.9h2.1v17.5h-2.1v1.9h2.1v17.5h-2.1v1.9h2.1v23.3h.6v-23.3h2.6v1.9h1.3v21.4h.6v-21.4h2.2v13.9h3.8v-13.9h15.8v21.4h.6v-21.4h4.2v13.9h3.8v-13.9h2.4v1.7h1.2v12.2h1.4v-12.2h6.3v19.7h.6v-19.7h11.9v1.5h3.2v10.7h1.7v-10.7h1.3v18.2h.6v-18.2h3.2v10.7h3.8v-10.7h2.8v10.7h1.7v-10.7h3.7v10.7h3.8v-10.7h5.2v10.7h67v-14.2h6.4v14.2h3.8v-14.2h3.3v-1.8h.6v16h1.7v-16h14.4v-.7h2.1v16.7h.6v-16.7h3.1v16.7h1.7v-16.7h1.2v16.7h1.7v-16.7h9.3v16.7h.6v-16.7h1.7v16.7h1.7v-16.7h3.3v-1.5h4.1v-1.5h-7.4v-15.1h3.3V465h4.1v-1.5h-7.4v-15.1h3.3v-1.5h4.1v-1.5h-7.4v-15.1h3.3v-1.5h4.1v-1.5h-7.4v-15.1h3.3V411h4.1v-1.5h-7.4v-15.1h3.3v-1.5h4.1v-1.5h-7.4v-15.1h3.3v-1.5h4.1v-1.5h-7.4v-15.1h3.3v-1.5h4.1v-1.5h-7.4v-15.1h3.3v-1.5h4.1v-1.5h-7.4V322h3.3v-1.5h4.1V319h-7.4v-15.1h3.3v-1.5h4.1v-1.5h-7.4v-15.1h3.3v-1.5h4.1v-1.5h-7.4v-15.1h3.3v-1.5h4.1v-1.5h-7.4v-15.1h3.3v-1.5h4.1v-1.5h-7.4v-15.1h3.3V230h4.1v-1.5h-7.4v-15.1h3.3v-1.5h4.1v-1.5h-7.4v-15.1h3.3v-1.5h4.1v-1.5h-7.4v-5.6h-1.7v5.6h-1.7v-5.6h-.6v5.6h-9.3v-5.6h-1.7v5.6h-1.2v-5.6h-1.7v5.6h-3.1v-11.6h-.6v11.6h-2.1v-2H1257v-32.9h-1.7v3.2h-3.9v-3.2h-3.7v-8h-6.5v-3.5h-5.6v-6.1h-2.6v6.1h-2.3v-6.1h-2.6v6.1h-30.6v-45.8h2.1V98h-2.1v-.7h2.1v-2.2h-2.1V83.9h2.1v-2.2h-3.4V81h3.4v-2.2h-5.1v-2.2h-2.3v-2.2h2.3v-2.2h-3.2V59.9h.7v-.7h-.7V59h.7v-.7h-.7v-2.6h11v-2.1h183.5V53h-4.2zM1257 461.7v-12.3h14.4v-.7h2.1v15.1h-2.1v-2H1257zm-5.6-2v-8.5h3.3v-1.8h.6v12.3h-.6v-2h-3.3zm-119.9-.5v-8.6h11.9v1.5h3.2v7.1h-3.2v2.6h-7.5v-2.6h-4.4zm-8.3-222.6v11.2h-1.2v2.6h-2.4v-15.6h2.4v1.7h1.2zm20.2-38.9v1.5h3.2v7.1h-3.2v2.6h-7.5v-2.6h-4.5v-5.8h-.6v5.8h-4.1v2.6h-2.2v-11.2h18.9zm-10.2 222.6v2.6h-1.7v-11.2h11.9v1.5h3.2v7.1h-3.2v2.6h-1v-2.6h-9.2zm-10-164.3v11.2h-1.2v2.6h-2.4v-15.6h2.4v1.7h1.2zm23.4-37.4v7.1h-3.2v2.6h-2.6v-2.6h-9.2v2.6h-.1v-11.2h11.9v1.5h3.2zm-13.5 182.2v2.6h-1.6v-11.2h11.9v1.5h3.2v7.1h-3.2v2.6h-1.1v-2.6h-9.2zm-9.9-105.9v11.2h-1.2v2.6h-2.4v-15.6h2.4v1.7h1.2zm23.4-17.9v7.1h-3.2v2.6h-12v-11.2h11.9v1.5h3.3zm3-19.5v7.1h-1.3v-7.1h1.3zm-1.3-12.3v-7.1h1.3v7.1h-1.3zm1.3 31.8v7.1h-1.3V277h1.3zm-18.1 104.4v-8.6h11.9v1.5h3.2v7.1h-3.2v2.6h-7.5v-2.6h-4.4zm15.1-85v7.1h-3.2v2.6h-7.5v-2.6h-4.5v-8.6h11.9v1.5h3.3zm-3.2 18v1.5h3.2v7.1h-3.2v2.6h-12v-11.2h12zm-11.9 47.5v-8.6h11.9v1.5h3.2v7.1h-3.2v2.6h-7.5v-2.6h-4.4zm11.9-19.4v2.6h-4.7v-2.6h-7.2v-8.6h11.9v1.5h3.2v7.1h-3.2zm-12.5-16.9h-6.3v-11.2h6.3v11.2zm0 8.2v8.6h-1.4v2.6h-5v-11.2h6.4zm0 19.5v8.6h-4.1v2.6h-2.2v-11.2h6.3zm0 19.4v8.6h-4.1v2.6h-2.2v-11.2h6.3zm17.4 1.5h1.3v7.1h-1.3v-7.1zm0-12.3v-7.1h1.3v7.1h-1.3zm0-19.4v-7.1h1.3v7.1h-1.3zm0-19.5v-7.1h1.3v7.1h-1.3zm0-19.4v-7.1h1.3v7.1h-1.3zm-17.4-16.9h-6.3v-11.2h6.3v11.2zm0 8.2v8.6h-4.1v2.6h-2.2v-11.2h6.3zm-8.9 17.7v1.7h1.2v11.2h-1.2v2.6h-2.4v-15.6h2.4zm0 19.5v1.7h1.2V345h-1.2v2.6h-2.4V332h2.4zm0 19.4v1.7h1.2v11.2h-1.2v2.6h-2.4v-15.6h2.4zm0 19.5v1.7h1.2V384h-1.2v2.6h-2.4V371h2.4zm0 19.4v1.7h1.2v11.2h-1.2v2.6h-2.4v-15.6h2.4zm2.6 1.8h6.3v11.2h-6.3v-11.2zm23.7 1.5h1.3v7.1h-1.3v-7.1zm1.9 0h3.2v7.1h-3.2v-7.1zm0-12.3v-7.1h3.2v7.1h-3.2zm0-19.5v-7.1h3.2v7.1h-3.2zm0-19.4v-7.1h3.2v7.1h-3.2zm0-19.5v-7.1h3.2v7.1h-3.2zm0-19.4v-7.1h3.2v7.1h-3.2zm0-19.5V277h3.2v7.1h-3.2zm0-19.4v-7.1h3.2v7.1h-3.2zm0-19.5v-7.1h3.2v7.1h-3.2zm0-19.4v-7.1h3.2v7.1h-3.2zm-.6 0h-1.3v-7.1h1.3v7.1zm-6.2 10.8v1.5h3.2v7.1h-3.2v2.6h-7.5v-2.6h-4.5v-8.6h12zm0 19.4v1.5h3.2v7.1h-3.2v2.6h-7.5v-2.6h-4.5V256h12zm-12.5 8.7h-4.1v2.6h-2.2V256h6.3v8.7zm-8.9 9v1.7h1.2v11.2h-1.2v2.6h-2.4v-15.6h2.4zm-6.2 15.6h-4.2v-15.6h4.2v15.6zm0 3.9v15.6h-4.2v-15.6h4.2zm0 19.4v15.6h-4.2v-15.6h4.2zm0 19.5v15.6h-4.2v-15.6h4.2zm0 19.4v15.6h-4.2v-15.6h4.2zm0 19.5v15.6h-4.2V371h4.2zm0 19.4V406h-4.2v-15.6h4.2zm0 19.5v15.6h-4.2v-15.6h4.2zm3.8 0h2.4v1.7h1.2v11.2h-1.2v2.6h-2.4v-15.5zm5 1.7h6.3v11.2h-6.3v-11.2zm23.7 1.5h1.3v7.1h-1.3v-7.1zm1.9 0h3.2v7.1h-3.2v-7.1zm7 0h2.8v7.1h-2.8v-7.1zm0-12.3v-7.1h2.8v7.1h-2.8zm0-19.4v-7.1h2.8v7.1h-2.8zm0-19.5v-7.1h2.8v7.1h-2.8zm0-19.4v-7.1h2.8v7.1h-2.8zm0-19.5v-7.1h2.8v7.1h-2.8zm0-19.4v-7.1h2.8v7.1h-2.8zm0-19.5V277h2.8v7.1h-2.8zm0-19.4v-7.1h2.8v7.1h-2.8zm0-19.5v-7.1h2.8v7.1h-2.8zm0-19.4v-7.1h2.8v7.1h-2.8zm0-19.5v-7.1h2.8v7.1h-2.8zm0-19.4v-6h2.8v6h-2.8zm4.4-10.9v-4.2h3.7v4.2h-3.7zm-1.7-4.1v4.2h-2.8v-4.2h2.8zm-6.5 9v6h-5.1v-6h5.1zm0 18.3v7.1h-3.2v-5.8h-.6v5.8h-1.3v-7.1h5.1zm-22.5 17.9v11.2h-6.3v-11.2h6.3zm0 19.5v8.6h-4.1v2.6h-2.2v-11.2h6.3zm-15.1 13.8h-4.2v-15.6h4.2v15.6zm0 3.9v15.6h-4.2v-15.6h4.2zm-4.8 15.6h-15.8v-15.6h15.8v15.6zm0 3.8v15.6h-15.8v-15.6h15.8zm0 19.5v15.6h-15.8v-15.6h15.8zm0 19.4v15.6h-15.8v-15.6h15.8zm0 19.5v15.6h-15.8v-15.6h15.8zm0 19.4v15.6h-15.8v-15.6h15.8zm0 19.5v15.6h-15.8V371h15.8zm0 19.4V406h-15.8v-15.6h15.8zm0 19.5v15.6h-15.8v-15.6h15.8zm0 19.4v15.6h-15.8v-15.6h15.8zm.6 0h4.2v15.6h-4.2v-15.6zm8 0h2.4v1.7h1.2v11.2h-1.2v2.6h-2.4v-15.5zm5 1.8h6.3v11.2h-6.3v-11.2zm6.9 0h11.9v1.5h3.2v7.1h-3.2v2.6h-12v-11.2zm16.8 1.5h1.3v7.1h-1.3v-7.1zm1.9 0h3.2v7.1h-3.2v-7.1zm7 0h2.8v7.1h-2.8v-7.1zm4.4 0h3.7v7.1h-3.7v-7.1zm0-12.3v-7.1h3.7v7.1h-3.7zm0-19.5v-7.1h3.7v7.1h-3.7zm0-19.4v-7.1h3.7v7.1h-3.7zm0-19.5v-7.1h3.7v7.1h-3.7zm0-19.4v-7.1h3.7v7.1h-3.7zm0-19.5v-7.1h3.7v7.1h-3.7zm0-19.4v-7.1h3.7v7.1h-3.7zm0-19.5V277h3.7v7.1h-3.7zm0-19.4v-7.1h3.7v7.1h-3.7zm0-19.5v-7.1h3.7v7.1h-3.7zm0-19.4v-7.1h3.7v7.1h-3.7zm0-19.5v-7.1h3.7v7.1h-3.7zm0-19.4v-6h3.7v6h-3.7zm7.5-10.9v-4.2h5.2v4.2h-5.2zm-15.7-4.1v4.2h-5.1v-4.2h5.1zm-6.8 9v6h-3.2v2.6h-7.5v-2.6h-9.2v2.6h-4.8v2.6h-2.4v-11.2h27.1zM1122 196v1.7h1.2v11.2h-1.2v2.6h-2.4V196h2.4zm0 19.4v1.7h1.2v11.2h-1.2v2.6h-2.4v-15.6h2.4zm-6.2 15.6h-4.2v-15.6h4.2V231zm-4.8 0h-15.8v-15.6h15.8V231zm0 3.8v15.6h-15.8v-15.6h15.8zm-19.5 15.6h-2.2v-15.6h2.2v15.6zm0 3.9v15.6h-2.2v-15.6h2.2zm0 19.4v15.6h-2.2v-15.6h2.2zm0 19.5v15.6h-2.2v-15.6h2.2zm0 19.4v15.6h-2.2v-15.6h2.2zm0 19.5v15.6h-2.2v-15.6h2.2zm0 19.4v15.6h-2.2v-15.6h2.2zm0 19.5v15.6h-2.2V371h2.2zm0 19.4V406h-2.2v-15.6h2.2zm0 19.5v15.6h-2.2v-15.6h2.2zm0 19.4v15.6h-2.2v-15.6h2.2zm0 19.5v15.6h-2.2v-15.6h2.2zm3.8 0h15.8v15.6h-15.8v-15.6zm16.3 0h4.2v15.6h-4.2v-15.6zm8 0h2.4v1.7h1.2v11.2h-1.2v2.6h-2.4v-15.5zm5 1.7h6.3v8.6h-4.1v2.6h-2.2v-11.2zm23.7 1.5h1.3v7.1h-1.3V452zm1.9 0h3.2v7.1h-3.2V452zm7 0h2.8v7.1h-2.8V452zm4.4 0h3.7v7.1h-3.7V452zm7.5 0h5.2v7.1h-5.2V452zm0-12.3v-7.1h5.2v7.1h-5.2zm0-19.4v-7.1h5.2v7.1h-5.2zm0-19.5v-7.1h5.2v7.1h-5.2zm0-19.4v-7.1h5.2v7.1h-5.2zm0-19.5v-7.1h5.2v7.1h-5.2zm0-19.4v-7.1h5.2v7.1h-5.2zm0-19.5v-7.1h5.2v7.1h-5.2zm0-19.4v-7.1h5.2v7.1h-5.2zm0-19.5V277h5.2v7.1h-5.2zm0-19.4v-7.1h5.2v7.1h-5.2zm0-19.5v-7.1h5.2v7.1h-5.2zm0-19.4v-7.1h5.2v7.1h-5.2zm0-19.5v-7.1h5.2v7.1h-5.2zm0-19.4v-6h5.2v6h-5.2zm87.9 256.7v-12.3h14.4v-.7h2.1v15.1h-2.1v-2H1257zm-5.6-2v-8.5h3.3v-1.8h.6v12.3h-.6v-2h-3.3zm-10.2-189.5h6.4v8.5h-6.4v-8.5zm15.8 173.4v-12.3h14.4v-.7h2.1v15.1h-2.1v-2H1257zm-5.6-2V415h3.3v-1.8h.6v12.3h-.6v-2h-3.3zm5.6-16.1v-12.3h14.4v-.7h2.1v15.1h-2.1v-2H1257zm14.4-16.1v-2H1257V377h14.4v-.7h2.1v15.1h-2.1zm0-18v-2H1257V359h14.4v-.7h2.1v15.1h-2.1zm0-18.1v-2H1257v-12.3h14.4v-.7h2.1v15.1h-2.1zm0-18.1v-2H1257v-12.3h14.4v-.8h2.1v15.1h-2.1zm0-18.1v-2H1257v-12.3h14.4v-.7h2.1v15h-2.1zm0-18.1v-2H1257v-12.3h14.4v-.7h2.1V301h-2.1zm0-18.1v-2H1257v-12.3h14.4v-.7h2.1v15.1h-2.1zm-16.1-2.1h-.6v-2h-3.3v-8.5h3.3v-1.8h.6v12.3zm-.6 7.6v-1.8h.6v12.3h-.6v-2h-3.3v-8.5h3.3zm0 18.1v-1.8h.6v12.3h-.6v-2h-3.3v-8.5h3.3zm0 18.1v-1.8h.6V335h-.6v-2h-3.3v-8.5h3.3zm0 18.1v-1.8h.6v12.3h-.6v-2h-3.3v-8.5h3.3zm0 18.1v-1.8h.6v12.3h-.6v-2h-3.3v-8.5h3.3zm0 18.1V377h.6v12.3h-.6v-2h-3.3v-8.5h3.3zm0 18.1v-1.8h.6v12.3h-.6v-2h-3.3v-8.5h3.3zm19.3 15.6h3.1v15.1h-3.1v-15.1zm0-3.1v-15.1h3.1v15.1h-3.1zm0-18.1v-15.1h3.1v15.1h-3.1zm0-18v-15.1h3.1v15.1h-3.1zm0-18.1v-15.1h3.1v15.1h-3.1zm0-18.1V322h3.1v15.1h-3.1zm0-18.1v-15.1h3.1V319h-3.1zm0-18.1v-15.1h3.1v15.1h-3.1zm0-18.1v-15.1h3.1v15.1h-3.1zm0-18.1v-15.1h3.1v15.1h-3.1zm-.6 0h-2.1v-2H1257v-12.3h14.4v-.7h2.1v15zm-18.1-2.1h-.6v-2h-3.3v-8.5h3.3v-1.8h.6v12.3zm-14.1 7.6h6.4v8.5h-6.4v-8.5zm0 18.1h6.4v8.5h-6.4v-8.5zm0 18.1h6.4v8.5h-6.4v-8.5zm0 18.1h6.4v8.5h-6.4v-8.5zm0 18.1h6.4v8.5h-6.4v-8.5zm0 18.1h6.4v8.5h-6.4v-8.5zm0 18.1h6.4v8.5h-6.4v-8.5zm0 18.1h6.4v8.5h-6.4v-8.5zm0 18.1h6.4v8.5h-6.4V415zm0 18.1h6.4v8.5h-6.4v-8.5zm32.8-2.5h3.1v15.1h-3.1v-15.1zm4.8 0h1.2v15.1h-1.2v-15.1zm0-3.1v-15.1h1.2v15.1h-1.2zm0-18.1v-15.1h1.2v15.1h-1.2zm0-18.1v-15.1h1.2v15.1h-1.2zm0-18v-15.1h1.2v15.1h-1.2zm0-18.1v-15.1h1.2v15.1h-1.2zm0-18.1V322h1.2v15.1h-1.2zm0-18.1v-15.1h1.2V319h-1.2zm0-18.1v-15.1h1.2v15.1h-1.2zm0-18.1v-15.1h1.2v15.1h-1.2zm0-18.1v-15.1h1.2v15.1h-1.2zm0-18.1v-15.1h1.2v15.1h-1.2zm-1.7 0h-3.1v-15.1h3.1v15.1zm-3.7 0h-2.1v-2H1257v-12.3h14.4v-.7h2.1v15zm-18.1-2.1h-.6v-2h-3.3V234h3.3v-1.8h.6v12.3zm-7.7-2h-6.4V234h6.4v8.5zm-6.4-18.1v-8.5h6.4v8.5h-6.4zm0 226.8h6.4v8.5h-6.4v-8.5zm32.8-2.5h3.1v15.1h-3.1v-15.1zm4.8 0h1.2v15.1h-1.2v-15.1zm2.9 0h9.3v15.1h-9.3v-15.1zm0-3.1v-15.1h9.3v15.1h-9.3zm0-18.1v-15.1h9.3v15.1h-9.3zm0-18.1v-15.1h9.3v15.1h-9.3zm0-18.1v-15.1h9.3v15.1h-9.3zm0-18v-15.1h9.3v15.1h-9.3zm0-18.1v-15.1h9.3v15.1h-9.3zm0-18.1V322h9.3v15.1h-9.3zm0-18.1v-15.1h9.3V319h-9.3zm0-18.1v-15.1h9.3v15.1h-9.3zm0-18.1v-15.1h9.3v15.1h-9.3zm0-18.1v-15.1h9.3v15.1h-9.3zm0-18.1v-15.1h9.3v15.1h-9.3zm0-18.1v-15.1h9.3v15.1h-9.3zm-1.7 0h-1.2v-15.1h1.2v15.1zm-2.9 0h-3.1v-15.1h3.1v15.1zm-3.7 0h-2.1v-2H1257v-12.3h14.4v-.7h2.1v15zm-18.1-2.1h-.6v-2h-3.3v-8.5h3.3v-1.8h.6v12.3zm-.6-18.1v-2h-3.3v-8.5h3.3V196h.6v12.3h-.6zm-7.1-2h-6.4v-8.5h6.4v8.5zm-6.4-18.1v-7.3h6.4v7.3h-6.4zm0-12.2v-4.2h6.4v4.2h-6.4zm-121.6-7.6h4.5v3.5h22.5v4.2h-27.1v-7.7zm-24.3 10.5h16v1.9h4.5V192h-20.6v-13.1zm0 17.1h20.6v15.6h-4.2v-11h-.6v11h-15.8V196zm-3.8 19.4V231h-2.2v-15.6h2.2zm-6.6-1.9h2.6v1.9h1.3V231h-3.9v-17.5zm0 19.4h2.6v1.9h1.3v15.6h-3.9v-17.5zm0 19.5h2.6v1.9h1.3v15.6h-3.9v-17.5zm0 19.4h2.6v1.9h1.3v15.6h-3.9v-17.5zm0 19.4h2.6v1.9h1.3v15.6h-3.9v-17.5zm0 19.5h2.6v1.9h1.3v15.6h-3.9v-17.5zm0 19.4h2.6v1.9h1.3v15.6h-3.9v-17.5zm0 19.5h2.6v1.9h1.3v15.6h-3.9v-17.5zm0 19.4h2.6v1.9h1.3v15.6h-3.9V369zm0 19.5h2.6v1.9h1.3V406h-3.9v-17.5zm0 19.4h2.6v1.9h1.3v15.6h-3.9v-17.5zm0 19.5h2.6v1.9h1.3v15.6h-3.9v-17.5zm0 19.4h2.6v1.9h1.3v15.6h-3.9v-17.5zm0 37v-17.5h2.6v1.9h1.3v15.6h-3.9zm4.4 0v-15.6h2.2v15.6h-2.2zm6 0v-15.6h15.8v15.6h-15.8zm16.3 0v-15.6h4.2v15.6h-4.2zm10.4-2.6v2.6h-2.4v-15.6h2.4v1.7h1.2v11.2h-1.2zm4.8-2.6v2.6h-2.2V470h6.3v8.6h-4.1zm16.6 0v2.6h-7.5v-2.6h-4.5V470h11.9v1.5h3.2v7.1h-3.1zm4.9 0v-7.1h1.3v7.1h-1.3zm1.9 0v-7.1h3.2v7.1h-3.2zm7 0v-7.1h2.8v7.1h-2.8zm4.4 0v-7.1h3.7v7.1h-3.7zm7.5 0v-7.1h5.2v7.1h-5.2zm72.1-.8v-8.5h6.4v8.5h-6.4zm13.5 2v-2h-3.3v-8.5h3.3v-1.8h.6v12.3h-.6zm16.7 2v-2H1257v-12.3h14.4v-.7h2.1v15.1h-2.1zm2.6 0v-15.1h3.1v15.1h-3.1zm4.8 0v-15.1h1.2v15.1h-1.2zm2.9 0v-15.1h9.3v15.1h-9.3zm11.6 0h-1.7v-15.1h1.7v15.1zm0-18.1h-1.7v-15.1h1.7v15.1zm0-18.1h-1.7v-15.1h1.7v15.1zm0-18.1h-1.7v-15.1h1.7v15.1zm0-18.1h-1.7v-15.1h1.7v15.1zm0-18.1h-1.7v-15.1h1.7v15.1zm0-18h-1.7v-15.1h1.7v15.1zm0-18.1h-1.7v-15.1h1.7v15.1zm0-18.1h-1.7V322h1.7v15.1zm0-18.1h-1.7v-15.1h1.7V319zm0-18.1h-1.7v-15.1h1.7v15.1zm0-18.1h-1.7v-15.1h1.7v15.1zm0-18.1h-1.7v-15.1h1.7v15.1zm0-18.1h-1.7v-15.1h1.7v15.1zm0-18.1h-1.7v-15.1h1.7v15.1zm0-33.2v15.1h-1.7v-15.1h1.7zm-2.3 0v15.1h-9.3v-15.1h9.3zm-11 0v15.1h-1.2v-15.1h1.2zm-2.9 0v15.1h-3.1v-15.1h3.1zm-5.7.8v-.7h2.1v15.1h-2.1v-2H1257v-12.3h14.4zm-16.7-5.8v-2h-3.3V181h3.9v9.4h-.6zm.6-19.7v5.5h-3.9v-5.5h3.9zm-60.6-86.7l-12.7 6v-6h12.7zm-12.7 7.6l7.5 3.6h-7.5v-3.6zm7.7 8.7l-6.7 3.2h-1v-3.2h7.7zm-1.6 39.7v2.8l-6.1 2.9v-6.9h11.4l1.5.7v.1l-4.2 2v-1.6h-2.6zm6.8-26.1v6.1h-10l-2.9-1.4 10-4.7h2.9zm0 10.8l-5.3-2.5h5.3v2.5zm-11.7-4.7h-1.2v-.6l1.2.6zm-1.2 2.2h5.8l7.1 3.4v.1l-5.6 2.6h-7.3v-6.1zm12.9 4.3v1.8h-3.8l3.8-1.8zm0 4v6.1h-4.3l-8.5-4 4.4-2.1h8.4zm0-18.8H1182v-6.1h.2l12.7 6.1zm-12.9 2.2h8.3l-8.3 3.9v-3.9zm0 16.6h2.7l-2.7 1.3v-1.3zm6.8 6.1h-6.8v-3.2l6.8 3.2zm-.7 7v2.4h-5.1l5.1-2.4zm6.8-32.8l-11-5.2h11v5.2zm-4.2 35.2v-3.6l4.2-2v5.6h-4.2zm4.2-42.6h-10.1l6.7-3.2h3.4v3.2zm-3.6-8.2l-9.2-4.4 12.9-6.1V95h-3.7zm190.1-42h-3.4l1.6-3.4h.2l1.6 3.4zm-2.1-3.4l-1.6 3.4h-.2l-1.6-3.4h3.4zm-3.6 0l1.6 3.4h-3.4l1.6-3.4h.2zm-.5 0l-1.6 3.4h-.2l-1.6-3.4h3.4zm-3.7 0l1.6 3.4h-3.4l1.6-3.4h.2zm-.4 0l-1.6 3.4h-.2l-1.6-3.4h3.4zm-3.7 0l1.6 3.4h-3.4l1.6-3.4h.2zm-.4 0l-1.6 3.4h-.2l-1.6-3.4h3.4zm-3.7 0l1.6 3.4h-3.4l1.6-3.4h.2zm-.4 0l-1.6 3.4h-.2l-1.6-3.4h3.4zm-3.7 0l1.6 3.4h-3.4l1.6-3.4h.2zm-.4 0l-1.6 3.4h-.2l-1.6-3.4h3.4zm-3.7 0l1.6 3.4h-3.4l1.6-3.4h.2zm-.4 0l-1.6 3.4h-.2l-1.6-3.4h3.4zm-3.7 0l1.6 3.4h-3.4l1.6-3.4h.2zm-.5 0l-1.6 3.4h-.2l-1.6-3.4h3.4zm-3.6 0l1.6 3.4h-3.4l1.6-3.4h.2zm-.5 0l-1.6 3.4h-.2l-1.6-3.4h3.4zm-3.6 0l1.6 3.4h-3.4l1.6-3.4h.2zm-2.1 3.4h-.2l-1.6-3.4h3.4l-1.6 3.4zm-4.3 0l-1.6-3.4h3.4l-1.6 3.4h-.2zm-4.1 0l-1.6-3.4h3.4l-1.6 3.4h-.2zm-4.1 0l-1.6-3.4h3.4l-1.6 3.4h-.2zm-4.1 0l-1.6-3.4h3.4l-1.6 3.4h-.2zm-4.1 0l-1.6-3.4h3.4l-1.6 3.4h-.2zm-4.2 0l-1.6-3.4h3.4l-1.6 3.4h-.2zm-4.1 0l-1.6-3.4h3.4l-1.6 3.4h-.2zm-4.1 0l-1.6-3.4h3.4l-1.6 3.4h-.2zm-4.1 0l-1.6-3.4h3.4l-1.6 3.4h-.2zm-4.1 0l-1.6-3.4h3.4l-1.6 3.4h-.2zm-4.1 0l-1.6-3.4h3.4l-1.6 3.4h-.2zm-4.1 0l-1.6-3.4h3.4l-1.6 3.4h-.2zm-4.1 0l-1.6-3.4h3.4l-1.6 3.4h-.2zm-4.1 0l-1.6-3.4h3.4l-1.6 3.4h-.2zm-4.1 0l-1.6-3.4h3.4l-1.6 3.4h-.2zm-4.1 0l-1.6-3.4h3.4l-1.6 3.4h-.2zm-4.2 0l-1.6-3.4h3.4l-1.6 3.4h-.2zm-4.1 0l-1.6-3.4h3.4l-1.6 3.4h-.2zm-4.1 0l-1.6-3.4h3.4l-1.6 3.4h-.2zm-4.1 0l-1.6-3.4h3.4l-1.6 3.4h-.2zm-4.1 0l-1.6-3.4h3.4l-1.6 3.4h-.2zm-4.1 0l-1.5-3.2v-.2h3.3l-1.6 3.4h-.2zm-4.1 0l-.8-1.6h1.7l-.8 1.6h-.1zm-4.1 0l-1.6-3.4h3.1v.6l-1.3 2.8h-.2zm-4.1 0l-1.6-3.4h3.4l-1.6 3.4h-.2zm-4.1 0l-1.6-3.4h3.4l-1.6 3.4h-.2zm-4.2 0l-1.6-3.4h3.4l-1.6 3.4h-.2zm-4.1 0l-1.6-3.4h3.4l-1.6 3.4h-.2zm-4.1 0l-1.6-3.4h3.4l-1.6 3.4h-.2zm-4.1 0l-1.6-3.4h3.4l-1.6 3.4h-.2zm-4.1 0l-1.6-3.4h3.4l-1.6 3.4h-.2zm-4.1 0l-1.6-3.4h3.4l-1.6 3.4h-.2zm-4.1 0l-1.6-3.4h3.4l-1.6 3.4h-.2zm-2.5-4v-.6h-5.2v.6h-4.6v-2.9h-2.6V26.9h-.5v-1.4h.5v-.4l53.4 23.5v.5h-41zm-22.2 4l-1.2-2.5h2.6l-1.2 2.5h-.2zm-4.1 0l-1.2-2.5h2.6l-1.2 2.5h-.2zm-4.1 0l-1.2-2.5h2.6l-1.2 2.5h-.2zm145.9-4l.1-.3-104.6-20.2 123.3 20.5h-18.8zm-69.3 0v-1.8h-5.2v.6l-52-22.9 124.8 24.1h-67.6zm-60.8-23.6v1.4h-.5v19.3h-1.3v-1.3h-23.9v3.6h-12.6l37.8-23.2v.2h.5zm7 24.2l.6 1.3h-1.4l.6-1.3h.2zm2.5 1.3h-1.6l-.6-1.3h2.2V51zm-3.5 0h-1.1v-1.3h1.7l-.6 1.3zm-47 .9l-1-2.2h1v2.2zm26.9-1.4h1l1.2 2.5h-3.4l1.2-2.5zm4.1 0h1l1.2 2.5h-3.4l1.2-2.5zm24.6-.8h.2l-.2.3v-.3zm4.5 0h.2l1.6 3.4h-3.4l1.6-3.4zm4.2 0h.2l1.6 3.4h-3.4l1.6-3.4zm4.1 0h.2l1.6 3.4h-3.4l1.6-3.4zm4.1 0h.2l1.6 3.4h-3.4l1.6-3.4zm4.1 0h.2l1.6 3.4h-3.4l1.6-3.4zm4.1 0h.2l1.6 3.4h-3.4l1.6-3.4zm4.1 0h.2l1.6 3.4h-3.4l1.6-3.4zm4.1 0h.2l1.6 3.4h-3.4l1.6-3.4zm4.1 0h.2l1.6 3.4h-3.4l1.6-3.4zm3.6 1.1v.7h1.6l.8 1.6h-3.4l1-2.3zm3.8.7h1.4v-1l1.3 2.6h-3.4l.7-1.6zm5-1.8h.2l1.6 3.4h-3.4l1.6-3.4zm4.1 0h.2l1.6 3.4h-3.4l1.6-3.4zm4.1 0h.2l1.6 3.4h-3.4l1.6-3.4zm4.1 0h.2l1.6 3.4h-3.4l1.6-3.4zm4.1 0h.2l1.6 3.4h-3.4l1.6-3.4zm4.1 0h.2l1.6 3.4h-3.4l1.6-3.4zm4.1 0h.2l1.6 3.4h-3.4l1.6-3.4zm4.1 0h.2l1.6 3.4h-3.4l1.6-3.4zm4.1 0h.2l1.6 3.4h-3.4l1.6-3.4zm4.1 0h.2l1.6 3.4h-3.4l1.6-3.4zm4.2 0h.2l1.6 3.4h-3.4l1.6-3.4zm4.1 0h.2l1.6 3.4h-3.4l1.6-3.4zm4.1 0h.2l1.6 3.4h-3.4l1.6-3.4zm4.1 0h.2l1.6 3.4h-3.4l1.6-3.4zm4.1 0h.2l1.6 3.4h-3.4l1.6-3.4zm4.1 0h.2l1.6 3.4h-3.4l1.6-3.4zm4.1 0h.2l1.6 3.4h-3.4l1.6-3.4zm4.1 0h.2l1.6 3.4h-3.4l1.6-3.4zm4.1 0h.2l1.6 3.4h-3.4l1.6-3.4zm4.1 0h.2l1.6 3.4h-3.4l1.6-3.4zm4.1 0h.2l1.6 3.4h-3.4l1.6-3.4zm4.2 0h.2l1.6 3.4h-3.4l1.6-3.4zm-153.8-23.5l-36.4 22.3h-1.5v.6h-11.3v-.6h-2.8l52-22.3zm-41.5 26.9l-1.6-3.4h3.4l-1.6 3.4h-.2zm-4.1 0l-1.6-3.4h3.4l-1.6 3.4h-.2zm2.1-3.4h.2l1.6 3.4h-3.4l1.6-3.4zm-5.7 0h1.3l-1.3 2.8v-2.8zm0 3.3l1.6-3.3h.2l1.6 3.4-3.4-.1zm8.2.1l1.6-3.4h.2l1.3 2.7v.7h-3.1zm27-2.4l1.1 2.3h-1.1v-2.3zm10 2.4l1.2-2.5h1v2.5h-2.2zm7.5 2.6l-1.8.9v-.9h1.8zm-1.8 1.4l2.4 1.2h-2.4v-1.2zm2.5 2.8l-2.2 1h-.3v-1h2.5zm1.7 4.5v2h-3.2l-.9-.4 3.3-1.5h.8zm0 3.5l-1.7-.8h1.7v.8zm-3.8-1.6h-.4v-.2l.4.2zm-.4.8h1.9l2.3 1.1-1.8.9h-2.4v-2zm4.2-3.4h-4.2v-2h.1l4.1 2zm-4.2.7h2.7l-2.7 1.3v-1.3zm0 5.3h.9l-.9.4v-.4zm0 1l2.2 1h-2.2v-1zm0-.3l1.4-.7h2.7v2h-1.4l-2.7-1.3zm2.9-1.4l1.2-.6v.6h-1.2zm1.3-5.6l-3.6-1.7h3.6v1.7zm0-2.4h-3.3l2.2-1h1.1v1zm0-2.7h-1.2l-3-1.4 2.4-1.1h1.8v2.5zm11.8-5.7v-2l.4-.8h.2l1.6 3.4h-2.2v-.6z"/><path id="XMLID_10317_" class="st4" d="M1336.8 57.8h2.3v102.8h-1.9v4.1h4.3v-4.1h-1.9V57.8h2.3v-4.1h-5.1z"/></g><path id="XMLID_2118_" d="M1361.8 441.5v26.8h-20.1v31.8h-32.1v-68.9l-16-16h-29.3v-5.4h-5.9v-17.2h-9.6V375h-25.5v20.1H1189v87h-6.3v-6.7h-5.4V385h-14.2v-12.6h-13v8.8h-13v82l-10.5-10.5v-43.9h-16.7V431h-7.5v-40.2h-17.2v-25.1l-2.9-2.9h-10.5V454c-1.1-1.1-2.3-2.2-3.4-3.3-2.8-2.9-2.9-2.5-6.6-2-.8.1-1.4.1-2 .1v-2l-10.4-10.4v-50l-7.7-7.7h-15.9v36h-6.3v6.8c-.3-.1-.5-.1-.8-.2-4.1-1.1-8.9-5.3-13.1-4-5 1.6-5 6.3-10.8 4.9-2.9-.7-5.1-.9-8-.9-4 0-6.4 1.6-10.2 2.2-2.8.4-4.5-1-6.9-1.6-6.4-1.7-7.8 4.5-13.1 5.9-2.1.6-4.6-.6-6.7 0-1.9.6-2.7 1.9-4.6 2.4-5.4 1.6-13.5-1.5-18.6 1.1-2.4 1.2-2.5 4-4.3 5.5-1.4 1.2-4.4.8-5.8 2.9-1.1 1.7.2 3.7-1.2 5.3-3.2 3.8-11.6-1.3-15.3 2.2-1.2 1.1-.5 4.3-2.2 5.9-1.6 1.5-3 1.4-5 1.9.2 1-.2 2.2 0 3.2-3.2 1.3-7.3.5-10.7 1.5-.6.2-1.1.3-1.7.4v-14.8h-22.4v-14.4l-9.4-9.4v-8.4H830v30.5h-23v17.3h-13.6V435h-8.5v-14h-11.4v15.6h-14.2l-8.4 8.4v19.8h-20.1v7.5h-5.3v-34H722v-35.1h-13.1v32.6h-7.8l-8.1 8.1v14.8c-.5-.3-1-.4-1.4-1-1.8-1.9-3.8-3.7-5.7-5.6-2.8-2.9-2.9-2.5-6.6-2-5 .6-4.3-1.1-7.5-4.5-2.9-3.1-8.1-6.7-12-8.9-1.3 3.9-3.6 3.6-4.4.3-.7-2.7 1.2-6.5-.4-8.8-1.3-2-4.4-1.8-6.4-2.3-4.2-.9-8.2-2.1-12.3-3.2-4.1-1.1-8.9-5.3-13.1-4-5 1.6-5 6.3-10.8 4.9-2.9-.7-5.1-.9-8-.9-4 0-6.4 1.6-10.2 2.2-1.2.2-2.2 0-3.2-.3l-.6-.6-.3.3c-.9-.4-1.8-.8-2.8-1-6.4-1.7-7.8 4.5-13.1 5.9-2.1.6-4.6-.6-6.7 0-1.9.6-2.7 1.9-4.6 2.4-5.4 1.6-13.5-1.5-18.6 1.1-2.4 1.2-2.5 4-4.3 5.5-1.4 1.2-4.4.8-5.8 2.9-1.1 1.7.2 3.7-1.2 5.3-.3.3-.6.6-1 .8v-78.8h-33.5v72.4h-11.7v-46.4h-47.3v-52.5h-10.7L417 353.6v19.2h-18.8v26.9c-3.9-1.4-8.3-4.9-12.2-3.7-5 1.6-5 6.3-10.8 4.9-2.9-.7-5.1-.9-8-.9-4 0-6.4 1.6-10.2 2.2-2.8.4-4.5-1-6.9-1.6-6.4-1.7-7.8 4.5-13.1 5.9-2.1.6-4.6-.6-6.7 0-1.9.6-2.7 1.9-4.6 2.4-1.4.4-2.9.5-4.6.5v-2.7h-19.7v-38.1H276v30.1l-6.3 6.3v32.6c-2.3.2-4.8.1-7.1.8-1 .3-2 .5-3 .7v-14.7l-8.8-8.8h-13.4v-16.3h-31.8v59.3c-.4 0-.7.1-.9.2-3.2 1.4-1.1 1.8-1 3.9.1 1.6.1 3.3-.1 4.8H188v-10.9h-11.3v-41.4L162.5 401v-53.6h-28.9v-8h-33.5v40.2H81.4v-88.7H31.6v40.6H.1v317.1h1399.8v-207h-38.1z" fill="#dc4b52"/><path id="XMLID_2785_" class="st6" d="M1187.9 582c-1.8-1.9-3.3-2.5-4.5-5.4-.7-1.7-.6-3.7-1.7-5.2-1.3-1.7-2.9-1.5-4.4-2.5-3-2.1-1.6-2.4-3.3-4.8-.6-.9-1.6-.9-2.4-1.8-1.8-2-3.9-3.8-5.8-5.7-2.9-3-3-2.6-6.8-2.1-5.2.7-4.4-1.2-7.7-4.6-3-3.1-8.3-6.9-12.3-9.1-1.3 4-3.6 3.7-4.5.3-.7-2.8 1.2-6.7-.4-9.1-1.4-2-4.5-1.9-6.6-2.3-4.3-.9-8.4-2.2-12.6-3.3-4.2-1.1-9.1-5.5-13.4-4.1-5.2 1.7-5.2 6.4-11 5-2.9-.7-5.2-.9-8.2-.9-4.1 0-6.6 1.7-10.4 2.3-2.9.4-4.6-1-7.1-1.7-6.6-1.7-8 4.6-13.4 6.1-2.1.6-4.8-.7-6.9 0-1.9.6-2.7 2-4.7 2.5-5.6 1.6-13.8-1.6-19.1 1.1-2.4 1.2-2.5 4.1-4.4 5.6-1.5 1.2-4.5.8-5.9 2.9-1.1 1.7.2 3.8-1.2 5.5-3.3 3.9-11.9-1.3-15.7 2.3-1.2 1.2-.5 4.4-2.2 6-1.7 1.6-3.1 1.5-5.1 1.9.3 1-.2 2.2 0 3.2-3.3 1.3-7.4.5-11 1.5-4.4 1.3-9.4 1.3-13.6 2.6-4.2 1.3-3 7.6-6.6 9-2 .8-5.1-2.5-6.6-3.1-2.5-.9-4.8-.8-7.4-.7-2.9 8.8-10.9 12.7-19.8 13.2-1.3.1-4.2-.6-5.3-.1-3.3 1.5-1.2 1.8-1 4 .4 6.3-.5 12.2-8.3 14.1l.4 1.1c.7 5 11.4 2.8 14.5 3.7 4.8 1.3 8.6 4 12.5 7.2 6.5 5.3 15.3 10.9 23 14.2 5.6 2.4 10.6 3.7 16.5 4 14.4.8 28.8 1.8 43.2 3 8 .7 16 1.1 23.9 2.9 5.7 1.3 11.1 3.9 16.8 5.2 5.2 1.3 10.4.4 15.7.1 7.6-.4 15.2 0 22.8-.2 5.7-.1 10.8-2 16.5-3.1 9.6-1.9 19.2-2.9 28.7-5.2 10.2-2.5 21.3-5.9 30.9-10 6-2.6 4.9-4.6 5.3-10.2.4-5 1.3-10.9 4.8-14.5 3.7-3.7 8-4.2 8.8-9.5.5-4-.4-8.4-3-11.3z"/><path id="XMLID_8408_" d="M1370.4 479v-26.5h-46.8V474c-.5.1-1.1.2-1.8.2-7 .9-6-1.6-10.5-6.2-4.1-4.3-11.2-9.3-16.7-12.4-1.8 5.5-5 5.1-6.2.4-1-3.7 1.7-9.1-.5-12.3-1.9-2.8-6.1-2.6-9-3.2-5.8-1.3-11.5-3-17.2-4.5-5.7-1.5-12.4-7.4-18.3-5.6-7 2.2-7 8.8-15 6.8-4-1-7.1-1.2-11.2-1.3-5.6 0-8.9 2.3-14.2 3.1-4 .6-6.2-1.4-9.6-2.3-9-2.4-10.9 6.2-18.3 8.3-2.9.8-6.5-.9-9.4 0-2.6.8-3.7 2.7-6.4 3.4-7.6 2.2-18.8-2.1-25.9 1.5-3.3 1.7-3.4 5.6-6 7.7-2 1.7-6.2 1.1-8.1 4-1.5 2.4.3 5.1-1.6 7.4-4.5 5.2-16.2-1.8-21.4 3.1-1.7 1.6-.7 6-3 8.2-2.2 2.1-4.2 2-7 2.6.3 1.3-.2 3 0 4.4-4.5 1.7-10.1.6-15 2.1-6 1.7-12.8 1.7-18.5 3.5-5.7 1.7-4.1 10.4-8.9 12.2-2.8 1-7-3.4-9-4.2-3.4-1.3-6.5-1.1-10.1-1-.7 2.2-1.7 4.2-2.9 6h-13.7v-12.6l-11.2-7.8h-10V520h-44.4v25.3c-4.3-5.2-8-10.9-11-16.8v-25.4h-1v23.3c-5.5-11.4-8.9-24.1-10.6-37.7h-9.3l2.2 23.7-15.5-12.7c-1.3-1.1-3.1-1.5-4.8-1.2l-10.1 2.1c-.2-.1-.3-.2-.5-.2h-.8c-.9-5.2-5.5-9.2-11-9.2h-.5v-.9c0-.8-.6-1.6-1.5-1.7-1-.1-1.8.7-1.8 1.6v1h-1.8v-5.9H838v5.9h-9.3v-2.3c0-.3-.4-.4-.6-.2-.8 1.3-1.9 2.1-3.3 2.5v-8h1.2c1.3 0 2.3-1 2.3-2.3v-5.5c0-.3-.3-.6-.6-.6h-.2c-.3 0-.6-.3-.6-.6v-5.9c0-.3-.3-.6-.6-.6H825v-2h2.2c0 .4.1.7.3 1 .7.9 2.4.9 3.7-.1 1.3-1 1.8-2.6 1-3.5-.7-.9-2.4-.9-3.7.1-.6.5-1 1.1-1.2 1.7H825v-7.5c0-.4-.3-.7-.7-.7h-37.7v-7.2h-1.1v7.2h-5c-.4 0-.7.3-.7.7v25.7l-1.8 6h-2.6v-3.8h-10.9v3.9c-6.7.8-11.3 10.4-11.3 10.4h7.2v1.8l-4.1 3.4 1.9 2.2c-.9.9-1.7 1.9-2.4 2.9l-2.5-1.5-2.9 5 2.5 1.5c-.5 1.2-1 2.3-1.3 3.6l-2.9-.5-1 5.7 2.9.5c0 .6-.1 1.3-.1 1.9 0 .6 0 1.3.1 1.9l-2.9.5 1 5.7 2.9-.5c.4 1.2.8 2.4 1.3 3.6l-2.5 1.5 2.9 5 2.5-1.5c.5.7 1 1.3 1.6 2l-30.7 14.5h-44.8l-.3-.6c-1-2.5-.9-5.3-2.4-7.3-1.8-2.4-4.1-2.1-6.2-3.6-4.2-2.9-2.3-3.4-4.7-6.8-.9-1.3-2.2-1.2-3.4-2.5-2.5-2.8-5.6-5.4-8.3-8.2-4.1-4.2-4.3-3.7-9.7-3-7.3.9-6.3-1.7-11-6.5-4.3-4.4-11.7-9.7-17.4-12.9-1.8 5.7-5.2 5.3-6.4.4-1-3.9 1.8-9.4-.5-12.9-1.9-2.9-6.4-2.7-9.4-3.3-6.1-1.3-12-3.1-18-4.7s-13-7.7-19-5.8c-7.3 2.3-7.3 9.2-15.7 7.1-4.2-1-7.4-1.3-11.7-1.3-5.8 0-9.3 2.4-14.8 3.2-4.1.6-6.5-1.4-10-2.4-9.4-2.5-11.3 6.5-19.1 8.6-3 .8-6.8-.9-9.8 0-2.7.8-3.9 2.8-6.6 3.6-1.5.4-3.1.6-4.7.7-.6-.4-1.1-.6-1.6-.8v-7.9h-18c-4.4-4-10.6-8.4-15.6-11.1-1.8 5.7-5.2 5.3-6.4.4-1-3.9 1.8-9.4-.5-12.9-1.9-2.9-6.4-2.7-9.4-3.3-6.1-1.3-12-3.1-18-4.7s-13-7.7-19-5.8c-7.3 2.3-7.3 9.2-15.7 7.1-4.2-1-7.4-1.3-11.7-1.3-4.4 0-7.5 1.4-11.1 2.4l-2.5-2.5h-35.2v-6.5h-7V433h-11.6v-21.1h-30.7V436h-41.3v26.3c-.9-.1-1.8-.3-2.7-.5-2.7-.8-3.9-2.7-6.6-3.6-1.5-.4-3.1-.3-4.7 0V424h-17.1v-15.1h-15.6v10.6h-15.6v29.4h-.6c-4.3 0-7.5.3-11.7 1.3-8.3 2.1-8.3-4.7-15.7-7.1-4.4-1.4-9.2 1.4-13.8 3.7V431H92.6v-30.2l-3.5-3.5H76.5v76.1c-1-.4-2-1.7-2.7-4-5.7 3.2-13.1 8.4-17.4 12.9-4.6 4.8-3.6 7.4-11 6.5-5.4-.7-5.5-1.2-9.7 3-2.7 2.7-5.7 5.3-8.3 8.2-1.1 1.3-2.5 1.2-3.4 2.5-2.4 3.4-.5 3.9-4.7 6.8-2.2 1.5-4.4 1.2-6.2 3.6-1.5 2-1.4 4.9-2.4 7.3-1.6 4-3.8 4.9-6.3 7.6-2.6 2.9-4.1 6.8-4.3 10.9H0v89.7h63.5v28.3h289.3c-5.9 5.1-9.6 8.3-9.7 8.8-.7 2.2 148.8 19 167.7 22.6 19 3.6 280.7-9.5 285.8-9.3 4.3.2 103.8-31.5 134-41.2v2.9H1400V479h-29.6zm-578.9-12.1h22.4c1.6 0 2.9 1.1 3.3 2.5h-29c.4-1.4 1.7-2.5 3.3-2.5zm14.2 19.2c-1.8-.5-2.8-1.2-2.8-2.1.1-.9.5-1.3 1.1-1.2.6 0 3.1 1.8 3.5 2 .4.2 1.7 0 1.7 0l.2 1.4-1.2 1.2c-.5-.7-1.4-1-2.5-1.3zm4.4 2.5v.5l-1.1.1v-.3c0-.3 0-.6-.1-.9l.4-.4.8 1zm-.5-1.3l2.2-2.2-.5 3.2h-.7l-1-1zm5.7 10.5l-2.5 2.5-3.1-3.1c1.4-.7 1.1-2.3.7-2.9-.4-.7-1.3-.7-1.6-1.8-.3-.9 0-1.5.1-2.6l1.7-.1.9.9 1.1-1.1-1.5 1.5 4.3 4.3v2.4zm2-11.5h-1.5l-3.3 3.3-.7-.8.5-4.2 1.5-1.5-.6-.6-1.4 1.4-1 .1s-.1-.8-.9-1.5-4.3-3.1-6.2-4.6c-.5-.4-1.2-.7-2-.9.2-.3.3-.7.4-1.1l.3.1c.1-.4.2-.7.2-1.2 0-1.7-1.3-3.1-2.9-3.1-1.3 0-2.5 1-2.8 2.4l.5.2c-.2.4-.2.7-.2 1.2 0 .4.1.7.2 1h-1.6v-1.9H793v13.3l-4.9-5.1v-12.5h29.2v16zm4 1c0 .5-.4.8-.8.8h-.3c-.5 0-.8-.4-.8-.8v-15.7l2-2.1v17.8zm93.5 35.3l1.2 5.4-9.5-3.9.2-.8c.1-.4-.1-.9-.5-1l-9.4-3.8v-2.8l18 6.9zm-35 .2c1.1-1.1 1.7-2.5 1.7-4v-.3l3.4-.8v.1c0 3.7-3 6.6-6.6 6.6l-.1-.1 1.6-1.5zm-1.4 23.6l1.2-2.1-1.7-1c.4-.8.7-1.6.9-2.5l2 .3.7-3.9-2-.4v-2.6l2-.4-.6-3.2H892c2.8 0 4.8-1.8 4.8-4.2v-2l7.8 2.9c.4.2.9-.1 1.1-.5l.4-1.2 10.3 4.3 3.5 16.5h-41.5z" fill="#ce464c"/><path id="XMLID_2790_" class="st6" d="M1398.9 476.2h-3.6v-8.4h-1.3v8.4h-45.6c-1 0-1.9.8-1.9 1.9 0 1 .8 1.9 1.9 1.9h1v5.7h-2.7c-.2-.7-.7-1.4-1.4-2-1.5-1.2-3.4-1.2-4.3-.2-.8 1.1-.3 2.9 1.2 4.1 1.5 1.2 3.4 1.2 4.3.2.3-.3.4-.7.4-1.2h2.6v2.3h-1.9c-.4 0-.7.3-.7.7v6.8c0 .4-.3.7-.7.7h-.2c-.4 0-.7.3-.7.7v6.3c0 1.5 1.2 2.7 2.7 2.7h1.4v9.3c-1.6-.4-2.9-1.4-3.8-2.9-.2-.3-.7-.2-.7.2v2.7h-4.8v-20.9h-3.1V492c0-.4.3-.7.7-.7h2.4V488h-3.1c-1.9 0-3.4 1.5-3.4 3.4v3.9h-2.8v20.9h-29.7v-1.1c0-1-.8-1.9-1.9-1.9-1 0-1.9.8-1.9 1.9v1.1h-.6c-2.6 0-4.9.7-6.9 2h-4.4v4.6l-5.6 2.5h-52.5v-2.1l-5.7-5.1v39h-16.1l-.1-10.2-5.6.1s1.4 21.6-3.5 37l-27 9.6-62.7-10.9h-21.9v-13h-221v15.9H753.6v19h-32.8l-20.8 21h-35.9v15.3h-4c-6.3-19-4.6-46.4-4.6-46.4l-6.9-.1-.2 12.6h-19.9v-48.1l-7.1 6.3v2.6h-64.8l-6.9-3.1v-5.8h-5.4c-2.5-1.6-5.4-2.5-8.6-2.5h-.7V555c0-1.3-1-2.3-2.3-2.3s-2.3 1-2.3 2.3v1.4h-36.7v-25.8h-3.4v-4.8c0-2.3-1.9-4.2-4.2-4.2h-3.8v4.2h2.9c.5 0 .9.4.9.9v3.9h-3.8v25.8h-6v-3.3c0-.5-.6-.6-.8-.2-1.2 1.8-2.8 3-4.7 3.6V545h1.8c1.9 0 3.4-1.5 3.4-3.4v-7.8c0-.5-.4-.8-.8-.8h-.3c-.5 0-.8-.4-.8-.8v-8.4c0-.5-.4-.8-.8-.8h-2.4v-2.9h3.2c0 .5.2 1 .5 1.4 1 1.3 3.4 1.3 5.3-.2 1.9-1.4 2.5-3.7 1.5-5.1-1-1.3-3.4-1.3-5.3.2-.9.7-1.5 1.6-1.8 2.4h-3.4v-7.1h1.3c1.3 0 2.3-1 2.3-2.3 0-1.3-1-2.3-2.3-2.3h-56.3v-10.3h-1.6v10.3h-9.7c-1.3 0-2.3 1-2.3 2.3 0 1.3 1 2.3 2.3 2.3h1.4v7.4h-3.4c-1.3 0-2.3 1-2.3 2.3 0 1.3 1 2.3 2.3 2.3h3.4v21.2l-2.6 8.6h-8.6c0-2.7-2.2-4.9-4.9-4.9s-4.9 2.2-4.9 4.9c-3.5.1-6.7 1.9-9.3 4.3-2.4-2.5-5-4.8-7.4-7.2-4.1-4.2-4.3-3.7-9.7-3-7.3.9-6.3-1.7-11-6.5-4.3-4.4-11.7-9.7-17.4-12.9-1.8 5.7-5.2 5.3-6.4.4-1-3.9 1.8-9.4-.5-12.9-1.9-2.9-6.4-2.7-9.4-3.3-6.1-1.3-12-3.1-18-4.7s-13-7.7-19-5.8c-7.3 2.3-7.3 9.2-15.7 7.1-4.2-1-7.4-1.3-11.7-1.3-5.8 0-9.3 2.4-14.8 3.2-4.1.6-6.5-1.4-10-2.4-9.4-2.5-11.3 6.5-19.1 8.6-3 .8-6.8-.9-9.8 0-2.7.8-3.9 2.8-6.6 3.6-7.9 2.3-19.6-2.2-27.1 1.6-3.4 1.8-3.6 5.8-6.2 8-2.1 1.8-6.5 1.1-8.4 4.2-1.6 2.5.3 5.4-1.7 7.7-4.7 5.5-16.9-1.9-22.3 3.2-1.7 1.7-.7 6.2-3.1 8.6-2.3 2.2-4.3 2.1-7.3 2.7.4 1.4-.2 3.2 0 4.6-4.7 1.8-10.5.7-15.6 2.2-6.2 1.8-13.4 1.8-19.3 3.6s-4.2 10.8-9.3 12.8c-2.9 1.1-7.3-3.5-9.4-4.3-3.5-1.3-6.8-1.2-10.6-1-3.3 10.2-11.6 15.8-21.4 17.8-11.3-.4-21.6-.3-27.5.4V724h1400V476.3h-1.1zM384.3 640.8h.1-.1zm65.7-80.3c-.6-1-1.8-1-2.4-2.5-.4-1.2-.1-2.1.1-3.7l2.4-.1 1.3 1.3 1.6-1.5-2.2 2.2 6.1 6.1v3.4l-3.6 3.6-4.5-4.5c2.1-1.1 1.7-3.4 1.2-4.3zm-.5-8v.7l-1.6.1v-.5c0-.5 0-.9-.2-1.2l1-1-.4.4 1.2 1.5zm-.7-1.9l3.1-3.1-.7 4.5h-1l-1.4-1.4zm-1.8-.1c-.9-.8-2.2-1.2-3.8-1.7-2.6-.8-4.1-1.7-3.9-3 .1-1.3.8-1.8 1.6-1.7.9.1 4.4 2.5 5 2.8.6.3 2.5 0 2.5 0l.2 2-1.6 1.6zm3.5 71.6h15.9v4.8h-15.9v-4.8zm0-1.2v-2.6h15.9v2.6h-15.9zm12.3-92.8l2.8-3v25.5c0 .7-.5 1.2-1.2 1.2h-.4c-.7 0-1.2-.5-1.2-1.2v-22.5zm-39.9-6.7H455c2.3 0 4.2 1.5 4.7 3.6h-41.6c.6-2.1 2.5-3.6 4.8-3.6zm-.3 119.4c1-.6 2-1.1 2.9-1.8l1.5 1.8h-4.4zm2.4-108.4s-.1 14.2 0 19.1l-7-7.4v-17.9h41.9v23h-2.1l-4.7 4.7-1.1-1.2.8-6.1 2.2-2.2-.9-.9-2.1 2.1-1.4.1s-.1-1.1-1.3-2.1-6.1-4.5-8.9-6.6c-.7-.6-1.7-1-2.9-1.2.3-.4.5-1 .6-1.5l.5.2c.2-.5.3-1.1.3-1.7 0-2.5-1.9-4.5-4.1-4.5-1.9 0-3.6 1.4-4 3.4l.7.2c-.2.5-.4 1.1-.4 1.7 0 .5.1 1 .3 1.5H429v-2.7h-4zm75.4 108.4H430l4.6-3.9-2.7-3.2c1.3-1.3 2.4-2.7 3.5-4.2l3.6 2.1 4.2-7.2-3.6-2.1c.7-1.7 1.4-3.4 1.9-5.1-.1.4-.2.8-.3 1.1h7.7v9.8h19.5v-9.8h26.4v1.5c0 .6 0 1.3.1 1.9l-2.9.5 1 5.6 2.8-.5c.3 1.2.8 2.4 1.3 3.5l-2.5 1.4 2.9 5 2.5-1.4c.7 1 1.5 2 2.4 2.9l-2 2.1zm86.8-68.5l2.9-2.3h31.3v26.9l-54-24.4c8.8 0 19.8-.2 19.8-.2zm-13.5 18.9l20.8 5.5 18.6 11.9-39.5-.1c.2-.5.3-1.1.3-1.7-.1-5.2-.2-12.3-.2-15.6zm-21.9-11.1h.9c.8 0 1.4-.6 1.4-1.4 0-.8-.6-1.4-1.4-1.4h-.9v-1h.5l.1.1 11.3.3 25.6 14.9-24.1-6-5.1-2.3c-.9-.4-1.9-.2-2.6.4l-3.4-.9v-.1c0-.8-.6-1.4-1.4-1.4h-.9v-1.2zm-2.4 21.4c1.5-1.5 2.4-3.6 2.4-5.8v-7.9h.9c.8 0 1.4-.6 1.4-1.4 0-.1 0-.3-.1-.4l2.7.7v7.8c0 5.2-4.2 9.5-9.5 9.5l-.1-.2 2.3-2.3zm67.5 39.3h-73.8l-1.8-2.1c.9-.9 1.7-1.9 2.4-2.9l2.5 1.4 2.9-5-2.5-1.4c.5-1.1.9-2.3 1.3-3.5l2.8.5 1-5.6-2.9-.5c0-.6.1-1.2.1-1.9 0-.6 0-1.3-.1-1.9l2.9-.5-.8-4.6h15.9c1.5 0 2.8-.3 3.9-1l48.6 5.5s18.3 13.9 31.5 23.5h-33.9zm666.4-108.3h.5v.8h-.7c-.6 0-1.2.5-1.2 1.2 0 .6.5 1.2 1.2 1.2h.7v.8h-.7c-.6 0-1.2.5-1.2 1.2v.1l-2.8.7c-.5-.5-1.4-.7-2.1-.3l-4.1 1.9-19.5 4.9 20.8-12.1 9.1-.4zm-17.2 26.1l-32.1.1 15.1-9.7 16.8-4.4v12.6c0 .5.1.9.2 1.4zm-38.8-31.1h25.3l2.4 1.8s8.9.1 16 .1l-43.7 19.8v-21.7zm58.8 41.8l-.6.1-29.5-4-17.5 1.5-3.6 13.9-11.7 3.6-17.5-1.1c10.4-7.6 23.3-17.5 23.3-17.5l39.4-4.4c.9.5 2 .8 3.1.8h12.9l-.7 3.7 2.3.4c0 .5-.1 1-.1 1.5.1.5.1 1 .2 1.5zm1.4-14.4c-4.2 0-7.7-3.4-7.7-7.7V541l2.2-.6c0 .1-.1.2-.1.3 0 .6.5 1.2 1.2 1.2h.7v6.4c0 1.8.7 3.4 1.9 4.7l1.8 1.8v.1zm74.7-66.9h26c1.8 0 3.4 1.3 3.8 3h-33.7c.6-1.7 2.1-3 3.9-3zm-8.6 3l2.3 2.4v18.2c0 .5-.4 1-1 1h-.4c-.5 0-1-.4-1-1V491zm-24 102.8l-11.8-5.9-.1-.3c.9-.4 1.8-1 2.6-1.5l1.5 1.8 3.6-3-1.5-1.8c.7-.7 1.4-1.5 2-2.3l2 1.2 2.3-4-2-1.2c.4-.9.8-1.9 1-2.9l2.3.4.8-4.6-2.3-.4c0-.5.1-1 .1-1.5v-1.2h21.4v8h11.5l-33.4 19.2zm36.2-20.9l-1.1.7H1353v-3.9h12.9v3.2zm0-4.2h-12.9v-2.1h12.9v2.1zm-2.3-41.9l-2.9-2.9v-2.7l5-5-1.8-1.8 1.3 1.2 1.1-1 1.9.1c.2 1.3.4 2 .1 3-.4 1.2-1.5 1.2-1.9 2-.4.7-.8 2.6.8 3.4l-3.6 3.7zm3.8-15l.8.8c-.1.3-.1.6-.1 1v.4l-1.3-.1v-.6l1-1.1-.4-.4zm-1.2 1h-.8l-.6-3.7 2.5 2.5-1.1 1.2zm1.1 59.3v-5.5h6.2l-.3-.9c.2.8.5 1.7.8 2.5l-6.7 3.9zm4.6-61.8c-1.2.4-2.3.7-3 1.4l-1.3-1.3.2-1.6s1.5.2 2 0 3.4-2.2 4.1-2.3c.7 0 1.2.4 1.3 1.4-.1 1-1.2 1.8-3.3 2.4zm20.4-3.8l-5.7 6V497h-3.2v2.2h-1.8c.1-.4.2-.8.2-1.2 0-.5-.1-.9-.3-1.4l.6-.2c-.4-1.6-1.7-2.7-3.2-2.7-1.9 0-3.4 1.6-3.4 3.6 0 .5.1.9.2 1.3l.4-.1c.1.5.2.9.5 1.2-.9.2-1.7.6-2.3 1-2.2 1.7-6.2 4.6-7.2 5.4s-1.1 1.7-1.1 1.7l-1.1-.1-1.7-1.7-.7.7 1.8 1.8.6 4.9-.9.9-3.8-3.8h-1.7v-18.6h34v14.6z"/><path id="XMLID_8885_" d="M1287.3 756.4c6.3-3.5 10.6-10.1 10.6-17.8 0-.9-.1-1.9-.2-2.8h1.3v1.6c0 .2.1.3.2.4s.3.2.4.2l11.6-.3c.3 0 .6-.3.6-.6l-.2-9c0-.3-.3-.6-.6-.6l-2.2.1v-.9c.2 0 .3-.2.3-.4v-3.4h.5c.8 0 .8-1.4 0-1.4h-.5v-1.1h.5c.8 0 .8-1.4 0-1.4h-.5v-1.1h.5c.8 0 .8-1.4 0-1.4h-.5v-1.1h.5c.8 0 .8-1.4 0-1.4h-.5v-2.6h.5c.3 0 .4-.2.4-.5l-.2-8.9c0-.3-.2-.4-.5-.4h-.5v-.8h1v-2.1h-1.9l-4.2-4.8c-.3-.4-.6-.8-.7-1.3l-.4-1.5-1.4-5.9-2.1-8.7-3-12.2c-.4-1.5-1.7-2.5-3.2-2.4l-25.8.6v-1.2c0-.4-.3-.6-.7-.6h-1.6l-.1-3.9c-.1-2.6-2.2-4.6-4.8-4.5-2.6.1-4.6 2.2-4.5 4.8l.1 3.9h-1.4c-.4 0-.6.3-.6.7v1.2l-9 .2-2.5.1-.7-27.8-8.3.2v-1l-.1-2.2-17.8.4-.1-2.8c0-.3-.3-.6-.6-.6l-3.2.1c-.3 0-.6.3-.6.6l.1 2.8-25.1.6-.1-2.8c0-.3-.3-.6-.6-.6l-3.1.1c-.3 0-.6.3-.6.6l.1 2.8-25.1.6-.1-2.8c0-.3-.3-.6-.6-.6l-3.1.1c-.3 0-.6.3-.6.6l.1 2.8-25.1.6-.1-2.8c0-.3-.3-.6-.6-.6l-3.1.1c-.3 0-.6.3-.6.6l.1 2.8-25.1.6-.1-2.8c0-.3-.3-.6-.6-.6l-3.1.1c-.3 0-.6.3-.6.6l.1 2.8-25.1.6-.1-2.8c0-.3-.3-.6-.6-.6l-3.1.1c-.3 0-.6.3-.6.6l.6 23.6-12.4 12.4-.4-17.6v-.7c1.3-.8 2.2-2.3 2.2-4-.1-2.5-2.1-4.5-4.6-4.4s-4.5 2.1-4.4 4.6c0 1.7 1 3.1 2.4 3.8v1.5l.5 21-10.4 10.3c-.2.2-.4.6-.4.9l1.6 67c-1.2.1-2 .2-2.3.1-3.8-.4-122.7 1.1-130.7 3.3-8 2.2-126.9-5.9-126.9-5.9h-65.6L704 754l-20.4-.7-7.3-10.6-42.3-11.1v-25.5h-27.7v-57.6h-20.6v56.1h-10.4v-56.1h-20.6v56.1H531v28.1l-31.2-2.4-63.4-26.2h-74.1l-23.2 21.5-25.7 4.7-65 2.4-51 6-25.7-1.6L79.8 711H34.5L0 704.2V980h1400V758.4l-112.7-2zm-5.2-90.7l8.3-.2c.2 0 .4.1.4.3l5.8 24c.1.3-.1.5-.4.5l-13.5.3c-.2 0-.4-.2-.4-.4l-.6-24.1c0-.2.2-.4.4-.4zm-32.6.7l24.2-.6c.2 0 .4.2.4.4l.6 24.2c0 .2-.2.4-.4.4l-24.2.6c-.2 0-.4-.2-.4-.4l-.6-24.2c-.1-.2.1-.4.4-.4zm-183.3 80.1l10.8-.3c.1.3.1.7.2 1-3.8.5-7.5 1-11 1.5v-2.2zm170.7-4.1l3.3-.1v-1.8l4.2-.1v-1.2l10-.2c.1 0 .2 0 .2-.1.2-.1.3-.2.3-.4v-1.8l2.3-.1c0 .5-.1 1-.1 1.6 0 7.5 4 14.1 10 17.7l-16.8-.3-13.4-13.2z" fill="#a44059"/><g id="XMLID_8842_"><path id="XMLID_8844_" class="st9" d="M1240.1 742.4l-3.3.1 13.3 13.3 16.8.3c-6-3.6-10-10.2-10-17.7 0-.5 0-1 .1-1.6l-2.3.1v1.8c0 .2-.2.3-.3.4-.1 0-.1 0-.2.1l-10 .2v1.2l-4.2.1.1 1.7z"/><path id="XMLID_8895_" class="st9" d="M1066.3 748.8c3.5-.5 7.2-1 11-1.5-.1-.3-.2-.7-.2-1l-10.8.3v2.2z"/><path id="XMLID_8896_" class="st9" d="M1061.8 659.7h-10.4l.3 10.1z"/><path id="XMLID_8898_" class="st9" d="M1273.7 665.9l-24.2.6c-.2 0-.4.2-.4.4l.6 24.2c0 .2.2.4.4.4l24.2-.6c.2 0 .4-.2.4-.4l-.6-24.2c0-.3-.2-.4-.4-.4z"/><path id="XMLID_8899_" class="st9" d="M1282.7 690.6l13.5-.3c.3 0 .5-.3.4-.5l-5.8-24c0-.2-.2-.3-.4-.3l-8.3.2c-.2 0-.4.2-.4.4l.6 24.1c0 .2.2.4.4.4z"/><path id="XMLID_8901_" class="st9" d="M585.7 675.7h-10.4v29h10.4v-29z"/><path id="XMLID_8902_" class="st9" d="M1386.5 668.4v-77.3H1374V577h-26.5v6.2H1337v6.2h-14.3v-19.5h-16.5V584h-8.5l-25.8 12.1v11.3h-16.5v36.2h-14.1l.5 19.7 2.5-.1 9-.2v-1.2c0-.4.3-.6.6-.7h1.4l-.1-3.9c-.1-2.6 2-4.7 4.5-4.8 2.6-.1 4.7 2 4.8 4.5l.1 3.9h1.6c.4 0 .6.3.7.6v1.2l25.8-.6c1.5 0 2.8 1 3.2 2.4l3 12.2 2.1 8.7 1.4 5.9.4 1.5c.1.5.4.9.7 1.3l4.2 4.8h1.9v2.1h-1v.8h.5c.3 0 .5.2.5.4l.2 8.9c0 .3-.2.5-.4.5h-.5v2.6h.5c.8 0 .9 1.3 0 1.4h-.5v1.1h.5c.8 0 .9 1.3 0 1.4h-.5v1.1h.5c.8 0 .9 1.3 0 1.4h-.5v1.1h.5c.8 0 .9 1.3 0 1.4h-.5v3.4c0 .2-.1.4-.3.4v.9l2.2-.1c.3 0 .6.2.6.6l.2 9c0 .3-.2.6-.6.6l-11.6.3c-.2 0-.3-.1-.4-.2s-.2-.2-.2-.4v-1.6h-1.3c.1.9.2 1.8.2 2.8 0 7.7-4.3 14.3-10.6 17.8l112.7 2v-90h-13.3z"/><path id="XMLID_8904_" class="st9" d="M79.8 711l91.9 26.1 25.7 1.6 51-6 65-2.4 25.7-4.7 23.2-21.5h74.1l63.4 26.2 31.2 2.4v-28.1h23.7v-37.5h-20.4l-5.5-6.6h-4.9l-6.6 3.3v9.3L502 672v3.6s-6.6 2.9-8.2 2.6c-1.6-.2-8.6-3.4-11.4-2.6-2.8.8-5 9-5 9s-6.6 4.9-8.2 4.4c-1.6-.5-6-7.7-8.8-7.1-2.7.5-6 1.6-6.6 3.8s-2.7 6.6-2.7 6.6l-82-3.8-67.8-35.5h-96.5v-.3c-5.1.2-6.7-3.3-7.5-7.3-.3-1.4 1-1.9-1.3-2.3-.8-.1-2.4.8-3.3.9-5.6 1.2-11.2.1-14.4-4.8-1.7.4-3.1.7-4.5 1.7-.8.6-2.2 3.1-3.6 3-2.4-.2-2.7-4.4-5.5-4.4-2.8-.1-5.9.7-8.8.7-2.4 0-4.8 1.1-7 .9-.1-.6-.5-1.3-.6-2-1.4.1-2.2.4-3.5-.3-1.3-.7-1.4-2.8-2.4-3.4-2.9-1.6-7.4 3-10.1 1.2-1.2-.8-.7-2.3-1.6-3.2-1.2-1.1-3-.3-4.1-.8-1.4-.6-1.9-2.4-3.6-2.8-3.7-.8-8.2 2.5-11.9 2.5-1.3 0-2-.7-3.3-.8-1.4 0-2.8 1.2-4.2 1.2-3.6 0-5.5-3.7-9.3-1.5-1.4.8-2.2 2-4.1 2.2-2.5.3-4.3-.4-6.8.3-1.9.5-3.2 1-4.9 1.9-3.4 1.9-4.2-1.1-7.6-1.2-2.9-.1-5.2 3.4-7.6 4.7-2.4 1.4-4.8 2.9-7.2 4.1-1.2.6-3.2 1.1-3.7 2.5-.6 1.8 1.3 3.8 1.3 5.7 0 2.3-1.4 2.8-2.8.6-2.1 2-4.7 5.2-6.1 7.6-1.5 2.6-.7 3.6-4 4.1-2.4.3-2.5.1-3.8 2.4-.8 1.5-1.9 3-2.6 4.5-.3.7-.9.8-1.2 1.5-.6 1.8.3 1.7-1.2 3.5-.8.9-1.8 1-2.3 2.3v.1L0 674.5v29.7l34.5 6.8h45.3z"/><path id="XMLID_8905_" class="st9" d="M1215 632.9l17.8-.4.1 2.2v1l3-.1v-7.3h-13.8v3.2h-7.1v1.2z"/><path id="XMLID_8907_" class="st9" d="M1122.4 635.2l-.1-2.8c0-.3.3-.6.6-.6l3.1-.1c.3 0 .6.3.6.6l.1 2.8 25.1-.6-.1-2.8c0-.3.3-.6.6-.6l3.1-.1c.3 0 .6.3.6.6l.1 2.8 25.1-.6-.1-2.8c0-.3.3-.6.6-.6l3.1-.1c.3 0 .6.3.6.6l.1 2.8 10.2-.2-3.6-2.5v-15.1h-33.4v-26h-5.1V583h-6.7v-5.4h-31.6v21.7h-12.5v36.4l19.6-.5z"/><path id="XMLID_8912_" class="st9" d="M606.3 706.1H634v25.5l42.3 11.3 7.3 10.6 20.4.7 8.8-4.5h65.6s118.9 8.1 126.9 5.9c8-2.2 126.9-3.6 130.7-3.3.3 0 1.1 0 2.3-.1l-1.6-67c0-.3.1-.6.4-.9l10.4-10.3-.3-14.4h-48.6V638h-3.8v-13.5h4.5v-5.4h-13.6l-5.3-12.3h-18.7v3.4h-6.2v8.9h-4.9v5.2h5.1v12.1h-5.1v23h-2.9v4.1l-53.5 5.9c3.4-2.7 5.5-6.7 5.8-11.2l8.1-.8.5 5.3c0 .5.5.9 1 .8l19.2-1.9c.5 0 .9-.5.8-1l-5-51.5c0-.2-.1-.5-.3-.6l-8.6-6.8-1.5-15.7-.1-1.1c1-.7 1.6-1.8 1.4-3.1-.2-1.9-1.8-3.2-3.7-3-1.9.2-3.2 1.8-3 3.7.1 1.3.9 2.3 2 2.7l.1.5 1.3 13.1-10.3-8.1-1.7-17.6c0-.2-.2-.4-.5-.4l-2.3.2c-.2 0-.4.2-.4.5l.2 2.1-18.7 1.8-.2-2.1c0-.2-.2-.4-.5-.4l-2.3.2c-.2 0-.4.2-.4.5l.2 2.1-18.7 1.8-.2-2.1c0-.2-.2-.4-.5-.4l-2.3.2c-.2 0-.4.2-.4.5l.2 2.1-18.7 1.8-.2-2.1c0-.2-.2-.4-.5-.4l-2.3.2c-.2 0-.4.2-.4.5l.2 2.1-18.7 1.8-.2-2.1c0-.2-.2-.4-.5-.4l-2.3.2c-.2 0-.4.2-.4.5l.2 2.1-18.7 1.8-.2-2.1c0-.2-.2-.4-.5-.4l-2.4.2c-.2 0-.4.2-.4.5l.2 2.1-13.3 1.3.2 1.6.1.8-6.2.6 2 20.7-1.8.2-6.7.7-.1-.9c0-.3-.3-.5-.5-.4l-1.1.1-.3-2.9c-.2-1.9-1.9-3.3-3.8-3.1-1.9.2-3.3 1.9-3.1 3.8l.3 2.9-1.2.1c-.3 0-.5.3-.4.5l.1.9-19.3 1.9c-1.1.1-2 1-2.1 2.1l-1.1 9.3-.8 6.6-.5 4.5-.1 1.2c0 .4-.2.7-.4 1.1l-2.7 3.9-1.4.1.1 1.5.7-.1v.6h-.4c-.2 0-.3.2-.3.4l.6 6.7c0 .2.2.3.4.3h.4l.1 1 .1.9h-.4c-.6.1-.5 1.1.1 1h.4l.1.8h-.4c-.6.1-.5 1.1.1 1h.4l.1.8h-.4c-.6.1-.5 1.1.1 1h.4l.1.8h-.4c-.6.1-.5 1.1.1 1h.4l.1.9v.5l.1 1.1c0 .1.1.2.3.2l.1.7-1.6.2c-.2 0-.4.2-.4.5l.7 6.7c0 .2.2.4.5.4l8.7-.8c.1 0 .2-.1.3-.2.1-.1.1-.2.1-.3l-.1-1.2 1-.1c0 .7 0 1.4.1 2.1.9 6.8 6.1 12 12.5 13.2l-1.2.1s-37.2 8.8-40.5 9.8c-3.3 1.1-23 0-23 0l-7.7-8.8-13.1-1.1-8.8-7.1-9.8-.3s-15.3-2.9-20.8-2.6c-1.7.1-8.1.1-16 .1v30.8zm252.5-43.9l10.6-1c1.1 4.5 4.2 8.1 8.2 10.1l-25.4 2.8c3.9-2.7 6.4-7.1 6.6-11.9zm-92.1 6.2v.1c.1.1.1.2.3.3h.2l7.5-.7.1.9 3.1-.3.1 1.4 50.7-4.9c1.2 4.9 4.7 8.7 9.1 10.5l-82.1 9c6.2-2.6 10.2-9.1 9.3-16.1 0-.4-.1-.8-.2-1.2l1.7-.2.2 1.2zm-25-33l-10.1 1c-.2 0-.4-.2-.4-.4l2.2-18.4c0-.2.1-.3.3-.3l6.2-.6c.2 0 .3.1.4.3l1.7 18c0 .2-.2.3-.3.4zm4.1-18.9c0-.2.1-.3.3-.4l18.1-1.8c.2 0 .3.1.4.3l1.8 18.1c0 .2-.1.3-.3.4l-18.1 1.8c-.2 0-.3-.1-.4-.3l-1.8-18.1z"/></g><path id="XMLID_8278_" d="M1366 849.9l-10.9 1c-2.1-1.9-3.9-3.2-5.3-6.6-1.1-2.6-1-5.6-2.6-7.8-2-2.6-4.3-2.2-6.6-3.8-4.5-3.1-2.5-3.6-5-7.2-1-1.4-2.4-1.3-3.6-2.6-2.7-3-6-5.7-8.8-8.6-4.4-4.4-4.6-3.9-10.3-3.1-7.8 1-6.7-1.7-11.7-6.8-4.6-4.7-12.5-10.3-18.6-13.6-1.9 6.1-5.5 5.7-6.8.5-1.1-4.2 1.8-10.1-.7-13.7-2.1-3.1-6.8-2.8-10-3.5-6.5-1.4-12.7-3.2-19.1-4.9-6.4-1.7-13.9-8.1-20.3-6-7.8 2.5-7.7 9.8-16.6 7.6-4.5-1.1-7.9-1.3-12.4-1.3-6.2 0-9.9 2.6-15.7 3.5-4.4.7-6.9-1.5-10.7-2.5-10-2.5-12 7-20.2 9.3-3.2.9-7.2-.9-10.4.1-2.9.9-4.1 3-7 3.8-8.4 2.5-20.9-2.2-28.8 1.9-3.7 1.9-3.8 6.2-6.6 8.6-2.2 1.9-6.9 1.3-8.9 4.5-1.7 2.6.4 5.7-1.7 8.3-4.9 5.9-18-1.9-23.7 3.6-1.8 1.8-.7 6.7-3.3 9.1-2.5 2.4-4.6 2.2-7.7 2.9.4 1.5-.2 3.4 0 4.9-5 2-11.2.8-16.6 2.4-6.6 2-14.2 2-20.5 4-6.3 2-4.4 11.5-9.8 13.6-3.1 1.2-7.8-3.7-10.1-4.5-3.7-1.4-7.2-1.2-11.2-1-4.2 13.3-16.4 19.3-29.8 20.1-2 .1-6.3-.9-8-.1-5 2.3-1.7 2.7-1.5 6.1.7 9.5-.7 18.5-12.4 21.3l.6 1.7c.2 1.2.8 2.2 1.7 2.9-32.2-1.5-64-3-64-3L737 884s-92.6-7-100.6-10.8c-3.8-1.8-28.1-10.1-52.5-18.2 11.6-5.1 20-16.2 21.1-29.7.1-1.6.1-3.2.1-4.8l2.2.1-.1 2.7c0 .3.1.5.3.7.2.2.4.3.7.3l20.1 1c.6 0 1-.4 1.1-1l.8-15.7c0-.6-.4-1-1-1.1l-3.8-.2.1-1.5h.1c.3 0 .6-.2.6-.6l.1-2.6.1-1.1.1-2.2h.8c1.4.1 1.6-2.3.1-2.3h-.8l.1-1.9h.8c1.4.1 1.6-2.3.1-2.3h-.8l.1-1.9h.8c1.4.1 1.6-2.3.1-2.3h-.8l.1-1.9h.8c1.4.1 1.6-2.3.1-2.3h-.8l.1-2.2.1-2.3h.9c.4 0 .8-.3.8-.7l.8-15.5c0-.4-.3-.8-.7-.8h-.9l.1-1.1v-.3l1.7.1.2-3.6-3.2-.2-6.6-8.9c-.5-.7-.9-1.5-1-2.4l-.4-2.7-1.7-10.4-2.5-15.3-3.5-21.5c-.4-2.6-2.6-4.5-5.2-4.6l-44.8-2.3.1-2c0-.6-.4-1.1-1.1-1.2l-2.7-.1.3-6.7c.2-4.5-3.2-8.3-7.7-8.5s-8.3 3.2-8.5 7.7l-.3 6.7-2.5-.1c-.6 0-1.1.4-1.2 1.1l-.1 2-15.7-.8-4.3-.2 2.5-48.2-14.4-.7.1-1.8.2-3.7-31-1.6.2-4.8c0-.6-.4-1.1-1-1.1l-5.6-.3c-.6 0-1.1.4-1.1 1l-.2 4.8-43.6-2.3.2-4.8c0-.6-.4-1.1-1-1.1l-5.3-.3c-.6 0-1.1.4-1.1 1l-.2 4.8-43.6-2.3.2-4.8c0-.6-.4-1.1-1-1.1l-5.3-.3c-.6 0-1.1.4-1.1 1l-.2 4.8-43.6-2.3.2-4.8c0-.6-.4-1.1-1-1.1l-5.3-.3c-.6 0-1.1.4-1.1 1l-.2 4.8-43.6-2.3.2-4.8c0-.6-.4-1.1-1-1.1l-5.3-.3c-.6 0-1.1.4-1.1 1l-.2 4.8-43.6-2.3.2-4.8c0-.6-.4-1.1-1-1.1l-5.3-.3c-.6 0-1.1.4-1.1 1l-2.1 41-23.5 19.7 1.6-30.6.1-1.3c2.4-1.2 4.2-3.6 4.3-6.6.2-4.3-3.1-8-7.4-8.2-4.3-.2-8 3.1-8.2 7.4-.2 2.9 1.3 5.5 3.6 7l-.1 2.6-1.9 36.5-19.3 16.6c-.4.4-.7.9-.7 1.5l-6.2 119.8c0 .2 0 .5.1.7L0 814.3V980h1400V844.9l-34 5zM586 697.4c0-.4.4-.7.8-.7l14.4.7c.4 0 .6.3.7.6l7 42.3c.1.5-.3.9-.8.9l-23.5-1.2c-.4 0-.7-.4-.7-.8l2.1-41.8zm-56.6-2.9c0-.4.4-.7.8-.7l42.1 2.2c.4 0 .7.4.7.8l-2.2 42.1c0 .4-.4.7-.8.7l-42.1-2.2c-.4 0-.7-.4-.7-.8l2.2-42.1zM291.2 813.1l24.7 1.3c.7 7.2 3.6 13.9 8 19.3l-49.7 3.1c8.6-5 14.9-13.5 17-23.7zm-89.1-4.6l18.8 1c.6 6.7 3.1 12.9 7 18l-26.8-5.6c.2-.3.4-.7.4-1.1l.6-12.3zm181.7 21.4l-2.5.2c2.3-3.6 3.9-7.7 4.8-12l117.9 6.1.2-3.2 7.3.4.1-2 17.3.9c.1 0 .3 0 .4-.1.3-.1.5-.3.6-.6 0-.1.1-.2.1-.3l.1-2.7 4 .2c-.1.9-.3 1.8-.3 2.7-.6 7.4 1.1 14.4 4.5 20.4-5.5-1.8-8.9-2.9-8.9-2.9l-145.6-7.1z" fill="#354a61"/></g></svg>