<?xml version="1.0" encoding="UTF-8"?>
<svg width="1400px" height="902px" viewBox="0 0 1400 902" version="1.1" xmlns="http://www.w3.org/2000/svg" xmlns:xlink="http://www.w3.org/1999/xlink">
    <!-- Generator: Sketch Beta 52 (66463) - http://www.bohemiancoding.com/sketch -->
    <title>bench-woman@2x</title>
    <desc>Created with Sketch Beta.</desc>
    <g id="Page-1" stroke="none" stroke-width="1" fill="none" fill-rule="evenodd" opacity="0.260811942">
        <g id="bench-woman">
            <g id="Background">
                <path d="M0,544.1 C0,544.1 86.9,496.5 203.9,507 C320.9,517.5 373.4,554.1 526.4,544.1 C679.4,534.1 758.9,500.8 890.9,525.7 C1022.9,550.6 1060.4,561.6 1127.9,560.6 C1195.4,559.6 1400,533.1 1400,533.1 L1400,898 C1400,898 0,904.9 0,898 C0,891.1 0,544.1 0,544.1 Z" id="Path" fill="#D7D7D7"></path>
                <path d="M0,44.4 C0,44.4 45.9,32.9 76.3,44.4 C106.7,55.9 174.1,88.9 228.3,79.7 C282.5,70.5 315.5,72.9 336.7,81.3 C357.8,89.7 380.3,108.1 410.7,107.3 C441.1,106.5 499.2,108.1 492.6,116.5 C486,124.9 464.9,130.6 422.6,130.8 C380.3,131 363.1,141.8 322.2,150.2 C281.2,158.6 297.1,159.6 235,155.7 C172.9,151.8 161,154.1 139.9,163.3 C118.8,172.5 92.3,183.8 72.5,181.6 C52.7,179.4 0.2,181.6 0.2,181.6 L0.2,44.4 L0,44.4 Z" id="Path" fill="#FFFFFF"></path>
                <path d="M1400,83.4 C1400,83.4 1372.3,90.3 1353.9,83.4 C1335.5,76.5 1294.8,56.5 1262.1,62.1 C1229.4,67.7 1209.4,66.2 1196.6,61.1 C1183.8,56 1170.3,44.9 1151.9,45.4 C1133.5,45.9 1098.4,44.9 1102.4,39.8 C1106.4,34.7 1119.2,31.3 1144.7,31.2 C1170.2,31 1180.6,24.6 1205.4,19.5 C1230.1,14.4 1220.6,13.8 1258.1,16.2 C1295.6,18.6 1302.8,17.2 1315.6,11.6 C1328.4,6 1344.3,-0.8 1356.3,0.5 C1368.3,1.8 1400,0.5 1400,0.5 L1400,83.4 Z" id="Path" fill="#FFFFFF"></path>
                <path d="M616.1,335.5 C616.1,335.5 657.2,323.9 689.1,323.8 C721.1,323.7 730.8,336.2 785,329.7 C839.2,323.1 885.1,310.6 926.8,312 C968.5,313.4 1015.8,329.6 1063,320.6 C1110.3,311.6 1115.8,299.8 1161.7,299.9 C1207.6,300.1 1249.3,296.3 1264.6,301.8 C1279.9,307.3 1291,327.3 1300.7,329.1 C1310.4,330.9 1346.6,330.9 1352.1,333.3 C1357.7,335.7 1399.7,339.9 1399.7,339.9 L1399.7,382.4 C1399.7,382.4 1304.8,401.2 1253.3,397.5 C1201.9,393.9 1207.4,384.8 1147.6,386 C1087.8,387.2 1026.6,393.3 986.3,386.6 C946,379.9 968.2,369.5 891.8,364.4 C815.3,359.3 818.1,365.5 766.7,367.6 C715.3,369.7 673.6,370.7 652.7,364.4 C631.8,358.1 619.3,351.4 592.9,353.9 C566.9,356.4 586.2,335.2 616.1,335.5 Z" id="Path" fill="#FFFFFF"></path>
                <path d="M261.4,428.7 C245.9,430.1 238.6,426.2 226.4,422.5 C214.2,418.8 189.7,419.4 159.6,420.6 C129.4,421.8 131.1,425.4 86.2,422.5 C41.4,419.5 54.4,413.4 30.8,409.5 C22,408 11.5,407.6 0,407.7 L0,446.8 C22.9,446 45.5,452.7 65.8,453.3 C90.3,454.1 117.1,446.8 148.9,442.9 C180.7,439.1 186.4,446.4 205.1,446.3 C223.8,446.2 247.9,439.4 247.9,439.4 C265.5,439.7 276.9,427.2 261.4,428.7 Z" id="Path" fill="#FFFFFF"></path>
            </g>
            <g id="Object" transform="translate(186.000000, 158.000000)">
                <rect id="Rectangle-path" fill="#B3B3B3" fill-rule="nonzero" x="0.7" y="524" width="1213.3" height="90"></rect>
                <polygon id="Path" fill="#8C8B8B" points="313.9 614 620.1 614 623.7 598.3 735.7 545.7 886.4 561 931.7 532.3 929.9 524 234.7 524 335.2 539"></polygon>
                <path d="M440.4,631.7 C440.4,631.7 472.9,688.3 479.7,703.7 C487.4,721 494.4,740 494.4,740 L534.4,740 C534.4,740 521.7,708.1 514,679.7 C506.3,651.3 491.2,622.3 491.2,622.3 L440.4,631.7 Z" id="Path" fill="#473B3B"></path>
                <path d="M447.7,630.3 L443,636.2 C445.9,641.3 451,650.2 456.5,660 C456.5,660 487.3,672 498.3,690.5 C504.5,701 511.2,723 516.1,740 L534.4,740 C534.4,740 521.7,708.1 514,679.7 C507.6,656.1 496.2,632.3 492.4,624.8 C491.8,624 491.2,623.2 490.7,622.5 L447.7,630.3 Z" id="Path" fill="#473B3B"></path>
                <path d="M366.4,587.7 C366.4,587.7 339.7,625.7 322.4,645 C305.1,664.3 268.4,740 268.4,740 L226.4,740 L317.7,539 L366.4,587.7 Z" id="Path" fill="#473B3B"></path>
                <path d="M247.7,740 L268.4,740 C268.4,740 305.1,664.3 322.4,645 C339.7,625.7 366.4,587.7 366.4,587.7 L335.3,556.6 L319.2,552.9 C319.2,552.9 323.7,585.6 308.7,622.3 C297.4,650 263.6,711.5 247.7,740 Z" id="Path" fill="#473B3B"></path>
                <path d="M432.2,281 L412.7,373.7 L395,391.4 L308.7,502.6 L270.7,502.6 C270.7,502.6 242.2,517.4 227.4,519.1 C227.4,519.1 226.4,522.4 234.7,524.1 C243,525.8 275,517.8 275.7,517.8 C276.4,517.8 288.5,523.8 288.5,523.8 L324.3,523 L334.3,508.5 L425.1,412.7 L436.1,393.9 L439.9,388.6 L443.9,374.8 L463.9,311.8 L432.2,281 Z" id="Path" fill="#59404D"></path>
                <g id="Group" transform="translate(230.000000, 302.000000)" fill="#3F2B37">
                    <path d="M196.5,6.3 L194.4,16.3 C200.3,21.9 212.3,34 213.1,40.6 C214.1,49.4 199.1,89.7 199.1,89.7 L115.6,194.6 L195,110.8 L206,92 L209.8,86.7 L213.8,72.9 L233.8,9.9 L229.7,5.9 L200.4,0.9 L196.5,6.3 Z" id="Path"></path>
                    <path d="M57.7,213.7 L43.7,210.7 L0,220.5 C1.1,221.1 2.6,221.6 4.7,222 C13,223.8 45,215.7 45.7,215.7 C46.4,215.7 58.5,221.7 58.5,221.7 L94.3,220.9 L104.3,206.4 L115.7,194.4 L57.7,213.7 Z" id="Path"></path>
                </g>
                <path d="M487.7,175 C487.7,175 474.3,187 459.3,197.5 C444.3,208 432.3,213.5 430.8,226 C429.3,238.5 423.3,302.5 410.8,314 C410.8,314 445.3,324 466.3,325 C466.3,325 483.3,356 521.8,362.5 C521.8,362.5 533.3,381 531.8,396.5 C530.3,412 526.8,411 526.8,411 C526.8,411 422.8,423 391.3,424.5 C359.8,426 348.3,431 331.3,442 C314.3,453 261.3,494 261.3,494 C261.3,494 326.7,574.2 370.8,609 C450.8,672 535.3,646.6 535.3,646.6 C535.3,646.6 514,607 506.7,576.5 C506.7,576.5 601.7,577.5 631.7,567.5 C661.7,557.5 698.2,513.5 707.2,492.5 C716.2,471.5 712,443.3 694.7,416.5 C678,390.6 664.8,355.4 664.8,355.4 C664.8,355.4 684,352.5 710.6,337 C710.6,337 689.2,293 679.2,269.5 C669.2,246 664.2,222 641.7,207 C619.2,192 592.7,176 567.7,172 C542.7,168 506.3,159.7 487.7,175 Z" id="Path" fill="#EFEFEF"></path>
                <path d="M479.1,141.4 C479.1,141.4 489.7,170.7 489.4,183.7 C489.1,196.7 484.4,211 498.4,216.4 C512.4,221.7 543.7,219.1 553.7,202.4 C563.7,185.7 556,172.4 545.4,160.4 C534.8,148.4 509.4,103.7 509.4,103.7 L479.1,141.4" id="Path" fill="#473B3B"></path>
                <path d="M545.4,160.3 C534.7,148.3 509.4,103.6 509.4,103.6 L479.1,141.3 C479.1,141.3 481.2,147 483.4,154.4 C485.9,151.9 499,139.4 508.7,143.6 C519.5,148.3 528.7,160.3 528.7,160.3 L506.3,179 C506.3,179 538.5,173.3 546.7,179 C550.5,181.7 554.8,184.5 558.3,186.8 C558.3,177 552.5,168.4 545.4,160.3 Z" id="Path" fill="#473B3B"></path>
                <path d="M435.2,47.5 C431.6,52.1 429.1,64.8 429.4,70.9 C429.6,77 433.7,90.4 430.4,97.5 C427,104.7 418.9,108.5 420.2,111.3 C421.6,114.3 428.6,114.6 431.4,115 C431.4,115 429.4,121.1 428,121.8 C428,121.8 429.9,123.7 431.6,124.5 L436.4,127.5 C436.4,127.5 430.9,129.2 430.8,130.5 C430.6,131.9 432.2,134.7 433.5,135 C434.8,135.3 430.6,153.4 437.2,159.8 C443.8,166.3 483.8,148.1 496.6,137.6 C509.4,127.1 523.4,99.7 516.6,76.2 C509.7,52.7 463.5,11.1 435.2,47.5 Z" id="Path" fill="#473B3B"></path>
                <path d="M438.3,76.5 C438.3,76.5 442.7,69.3 453.2,71.2 C463.7,73 475.9,80.2 475.9,80.2 C475.9,80.2 457.4,72.4 451.1,73.5 C444.7,74.7 438.3,76.5 438.3,76.5 Z" id="Path" fill="#210C37"></path>
                <path d="M664.8,355.4 L700.2,342.5 L704.8,349.1 L732.5,384 L797.9,504.5 C797.9,504.5 818.4,516.7 839.2,518.7 C847.6,519.5 873,517.2 873,517.2 L904.5,542.3 C904.5,542.3 897.4,542.4 893,541.1 C888.6,539.8 888.5,539.8 888.5,539.8 L894.5,546.9 C894.5,546.9 891.2,547.8 886.3,545.6 C882.5,543.9 872.8,537.3 872.8,537.3 L843.8,540.5 C843.8,540.5 853.4,543.1 858.6,546.8 C861.3,548.7 861.5,552.6 861.5,552.6 C861.5,552.6 850.6,550.6 842.5,550.3 C834.4,550 805.6,545.4 797.8,539.2 C786.3,530.1 780.8,516.2 780.8,516.2 L704.6,423.5 L689.3,395.8 L664.8,355.4 Z" id="Path" fill="#473B3B"></path>
                <path d="M418.973877,36.3970997 C418.907977,36.3663041 417.784646,36.9902623 417.459709,37.7718441 C417.134773,38.5534259 417.150116,40.8431156 417.595475,41.5352699 C418.040835,42.2274242 419.342875,43.5466488 419.718368,43.9021105 C421.532823,45.6197675 422.794125,45.8021833 424.358686,46.2770324 C432.815579,48.8437253 450.170367,53.0370377 463.8,50 C482.2,45.9 482.2,45.9 482.2,45.9 C482.2,45.9 477.1,68.6 486,73.4 C501.9,81.9 511.3,101.4 506.3,111.3 C500.4,123 536.000181,156.589911 550.412018,138.08904 C564.823854,119.588169 573.785675,87 573.785675,87 C573.785675,87 572.536849,68.421403 566.723387,51.4840018 C560.909925,34.5466005 552.089912,24.2499509 547.5,21.7 C538.5,16.7 501.8,0.7 490.5,0.7 C480.189472,0.7 446.704542,18.8855156 430.247173,39.7154977 C429.485579,40.6794426 425.314653,41.7438973 424.204303,41.7438973 C423.093952,41.7438973 420.757573,41.095113 420.139061,40.4053053 C419.520548,39.7154977 419.026731,39.0687358 418.850435,38.4544319 C418.67414,37.8401279 419.051895,36.4335582 418.973877,36.3970997 Z" id="Path" fill="#151515"></path>
                <path d="M427.9,121.8 C427.9,121.8 441.4,124.8 448.8,124 C448.8,124 442.4,129.3 437.6,130.5 C432.8,131.7 430.4,131.1 430.7,130.5 C431,129.9 431.4,127.8 432.8,127.1 C432.7,127.1 428.5,126.4 427.9,121.8 Z" id="Path" fill="#AD6385"></path>
                <path d="M484.9,159.6 C484.9,159.6 490.2,165.2 504.2,161.3 C518.2,157.3 533.5,143.9 533.5,143.9 C533.5,143.9 539.7,143.9 541.2,146.1 C542.7,148.3 554,158.9 545,163.9 C536,168.9 512.5,179.2 502.7,179.7 C492.9,180.2 489,178.5 489,178.5 C489,178.5 478.9,169.2 484.9,159.6 Z" id="Path" fill="#E2E2E2"></path>
                <path d="M466.2,325 C466.2,325 468,294.3 466,272 C464,249.7 445.7,224 445.7,224 C445.7,224 445.7,247.3 443.4,266 C441.6,280.3 433.5,302.6 427.2,318.3 C439,321.2 454.7,324.4 466.2,325 Z" id="Path" fill="#D9D6D6"></path>
                <path d="M664.8,355.4 C648.9,355.3 642.2,353.5 642.2,353.5 L615.7,243.5 C615.7,243.5 619.2,312 587.7,327.5 C578,332.3 562.9,335.7 548.4,332.7 C533.9,329.7 521.7,337.6 508.2,339.6 C494.7,341.6 476.2,337.9 476.2,337.9 L490.1,349.7 C498.3,355.3 508.8,360.2 521.7,362.4 C521.7,362.4 524.3,366.5 526.8,372.5 L558.2,364.9 C558.2,364.9 614.2,382.4 627.2,398.4 C640.2,414.4 670.8,430.9 664.8,467.9 C658.8,504.9 629.7,532.9 629.7,532.9 L646.2,552.8 L563.2,511.4 L612.2,559.9 C612.2,559.9 514.7,569.4 509.7,565.9 C504.7,562.4 480.7,544.9 480.7,544.9 L486.5,559.4 C480.3,557.4 440.4,543.4 440.4,543.4 C440.4,543.4 436.7,547.9 437.2,552.8 C437.7,557.7 453.7,563.9 463.7,581.9 C473.7,599.9 477.2,602.9 476.7,617.4 C476.4,627.3 471.9,641.9 469.2,650.2 C507.7,654.8 535.2,646.6 535.2,646.6 C535.2,646.6 514,607 506.7,576.5 C506.7,576.5 601.7,577.5 631.7,567.5 C661.7,557.5 698.2,513.5 707.2,492.5 C716.2,471.5 712,443.3 694.7,416.5 C678,390.6 664.8,355.4 664.8,355.4 Z" id="Path" fill="#D9D6D6"></path>
                <path d="M510.8,137.2 C502.9,137.2 496.5,130.8 496.5,122.9 C496.5,115 502.9,108.6 510.8,108.6 C518.7,108.6 525.1,115 525.1,122.9 C525.1,130.8 518.7,137.2 510.8,137.2 Z M510.8,111.9 C504.7,111.9 499.7,116.9 499.7,123 C499.7,129.1 504.7,134.1 510.8,134.1 C516.9,134.1 521.9,129.1 521.9,123 C521.9,116.8 516.9,111.9 510.8,111.9 Z" id="Shape" fill="#E2E2E2" fill-rule="nonzero"></path>
                <path d="M732.5,384.1 L704.8,349.2 L700.2,342.6 L664.8,355.5 L672.5,368.2 L705,384 L711.8,388.3 C711.8,388.3 729,398.9 732.4,402.6 C735.7,406.3 792.9,495.3 792.9,495.4 L732.5,384.1 Z" id="Path" fill="#473B3B"></path>
                <rect id="Rectangle-path" fill="#B3B3B3" fill-rule="nonzero" x="0.7" y="614" width="61" height="126"></rect>
                <rect id="Rectangle-path" fill="#8C8B8B" fill-rule="nonzero" transform="translate(67.396300, 677.000000) rotate(-180.000000) translate(-67.396300, -677.000000) " x="36.3963" y="614" width="62" height="126"></rect>
                <ellipse id="Oval" fill="#210C37" cx="444" cy="87.7" rx="3.3" ry="4.3"></ellipse>
            </g>
        </g>
    </g>
</svg>