<?xml version="1.0" encoding="UTF-8"?>
<svg width="1435px" height="567px" viewBox="0 0 1435 567" version="1.1" xmlns="http://www.w3.org/2000/svg" xmlns:xlink="http://www.w3.org/1999/xlink">
    <!-- Generator: Sketch Beta 52 (66463) - http://www.bohemiancoding.com/sketch -->
    <title>T_31</title>
    <desc>Created with Sketch Beta.</desc>
    <defs>
        <linearGradient x1="0.25781251%" y1="49.7500002%" x2="96.4113771%" y2="118.170063%" id="linearGradient-1">
            <stop stop-color="#3023AE" offset="0%"></stop>
            <stop stop-color="#53A0FD" offset="76.5715318%"></stop>
            <stop stop-color="#EC51CD" offset="100%"></stop>
        </linearGradient>
    </defs>
    <g id="Page-1" stroke="none" stroke-width="1" fill="none" fill-rule="evenodd" opacity="0.0455496652">
        <g id="T_31">
            <g id="Group">
                <path d="M16.3,83.8 C55.6,46.6 106.4,23.9 160.7,21.7 C212.1,19.7 260.4,38.9 304.4,63.8 C348.2,88.6 388.8,118.7 433.1,142.6 C454.6,154.2 477.1,164.2 500.7,171.1 C528.8,179.3 558.2,182.3 587.4,180.7 C613.8,179.2 639.9,173.6 664.5,164 C665.9,163.5 665.3,161.2 663.9,161.8 C607.4,182.4 545.8,183.6 488.7,164.2 C440.8,147.9 398.3,119.1 356,91.9 C314.8,65.4 272.3,39.1 224.6,26.2 C175.2,12.9 123,17.8 76.6,39 C53.7,49.5 32.5,64.2 15.3,82.6 C14.4,83.4 15.5,84.5 16.3,83.8 Z" id="Path" fill="url(#linearGradient-1)"></path>
                <path d="M657.9,175.4 C607.2,202.9 546.9,200 493.3,183.1 C435.4,164.9 384.3,130.2 332.1,100.3 C281.2,71.2 226.1,45.3 166.6,42.4 C112.8,39.8 59.5,60 20.6,97.2 C18.6,99.1 16.9,101.1 15.1,103.1 C14.4,103.9 15.5,104.9 16.2,104.2 C36.4,84.5 59,68.6 85.2,58 C111.6,47.4 140,43.1 168.4,44.5 C229.8,47.5 286.7,76.3 339,106.5 C390.2,136.1 440.6,169.1 497.7,186.3 C548.2,201.5 606.6,204.1 654.1,178.3 C655.5,177.5 657,176.7 658.4,175.9 C658.7,175.8 658.3,175.2 657.9,175.4 Z" id="Path" fill="url(#linearGradient-1)"></path>
                <path d="M649.7,186.7 C599.1,214.9 538.1,212 484.2,195.6 C425.8,177.9 373.8,144.6 319.8,117.2 C267.2,90.5 209.5,68.3 149.5,72 C98.4,75.1 49.3,99.1 14.4,136.3 C11.5,139.4 8.8,142.6 6.2,145.8 C5.5,146.7 6.7,147.9 7.4,147 C42.4,105.7 91.9,78.8 146.1,74.1 C207.9,68.8 268,93 322,120.5 C375.1,147.6 426.3,179.7 483.6,197.4 C534.6,213.1 592.5,216.3 641.6,192.6 C644.6,191.2 647.5,189.6 650.4,187.9 C651.2,187.5 650.5,186.2 649.7,186.7 Z" id="Path" fill="url(#linearGradient-1)"></path>
                <path d="M635.8,202.1 C585.8,230.1 525.5,235.7 470.3,221.4 C413.2,206.7 365.2,170.1 312.8,144.7 C259.9,119.1 200.1,105.2 141.3,112.8 C91.2,119.3 41.3,142.7 8.5,181.7 C7.2,183.3 5.9,185 4.6,186.6 C3.9,187.5 5.1,188.8 5.9,187.9 C40.7,146.3 91,121.3 144.5,114.8 C205.5,107.3 266.9,124 321.1,151.4 C372.2,177.3 419.6,211.9 476.2,225.2 C528.9,237.5 586.1,231.2 633.5,204.8 C634.5,204.3 635.4,203.7 636.4,203.1 C637.1,202.7 636.5,201.7 635.8,202.1 Z" id="Path" fill="url(#linearGradient-1)"></path>
                <path d="M588.9,234 C559.7,242.3 530.4,247 500,245.6 C469.2,244.2 439.1,236.5 411,223.9 C383,211.3 356.9,194.9 328.8,182.4 C301.7,170.3 273.3,161 244.2,155.2 C158.3,138.1 60.2,158.2 3.2,229.1 C2.4,230.1 3.8,231.6 4.7,230.6 C38.6,189.1 88.3,164 140.7,155 C200,144.9 261.1,157.1 316.2,179.6 C361.9,198.2 402.5,227.9 450.7,240.3 C495.2,251.8 545.9,251.3 589.1,234.7 C589.5,234.5 589.3,233.8 588.9,234 Z" id="Path" fill="url(#linearGradient-1)"></path>
                <path d="M458.9,259.1 C429.6,256.6 403.2,246.8 377,233.8 C352.3,221.6 328.4,207.9 302.5,198.2 C253.4,179.9 199.2,175.2 147.6,184.4 C119.9,189.4 93,198.8 68.2,212.2 C44.6,225 19.2,242.3 8.9,268.2 C8.6,269 10,269.6 10.3,268.8 C22.2,243.7 45.6,227.2 69.3,214.2 C92.9,201.2 118.6,192.4 145,187.2 C198.2,176.8 254.2,182.3 304.8,201.5 C331.5,211.6 356.2,226.4 381.9,238.6 C405.7,249.9 432,260.3 458.8,259.9 C459.5,260 459.5,259.2 458.9,259.1 Z" id="Path" fill="url(#linearGradient-1)"></path>
                <path d="M419.4,269.9 C388.2,268.8 360.7,256.1 332.7,243.6 C305.3,231.4 276.8,222 247.2,216.8 C192.1,207.1 134.3,213.3 84.6,239.8 C57.3,254.3 29.4,276.3 15,304.2 C14.5,305.1 15.8,305.8 16.3,305 C47.6,256.6 100.5,227.5 156.5,218 C218.2,207.5 280.2,222.6 336.5,247.6 C362.4,259.1 390.3,272.7 419.4,270.7 C419.9,270.7 419.9,269.9 419.4,269.9 Z" id="Path" fill="url(#linearGradient-1)"></path>
                <path d="M383.7,282.9 C353.8,281.4 327,269 299.9,257.7 C272.3,246.1 243.8,238.9 213.8,238.1 C160.8,236.7 105.7,255.3 66,290.8 C59.3,296.8 52.9,303.3 47.5,310.5 C46.9,311.3 48.2,312.2 48.8,311.5 C57.8,302 66.8,292.7 77,284.5 C87.2,276.4 98.4,269.5 110,263.7 C135.9,250.7 164.8,243 193.6,240.8 C224.5,238.5 255.6,243.4 284.6,254.1 C311.7,264.1 337.5,278.2 366.3,282.8 C372,283.7 377.8,283.9 383.6,283.7 C384.2,283.6 384.2,282.9 383.7,282.9 Z" id="Path" fill="url(#linearGradient-1)"></path>
                <path d="M359.9,298.2 C345.3,298.1 330.7,298.1 316.4,294.9 C303.1,291.9 290.5,286.3 278,281.2 C255.8,272.2 233.3,266.4 209.3,265.6 C164.2,264.2 118.7,280.4 84.7,310 C83.5,311 85.2,312.8 86.4,311.7 C121.4,281.2 167.7,266.2 213.9,268.2 C238,269.3 260.1,276.4 282.3,285.3 C294.4,290.1 306.5,294.8 319.3,297.5 C332.7,300.2 346.4,299.7 359.9,298.9 C360.3,298.9 360.3,298.2 359.9,298.2 Z" id="Path" fill="url(#linearGradient-1)"></path>
                <path d="M334.9,313.4 C297.3,317.8 264.2,294.8 228.2,288.5 C195.8,282.8 158.1,291.8 133.1,313.7 C132.3,314.4 133.4,315.8 134.2,315.1 C148.3,304.7 162.9,296.8 180,292.4 C197.7,287.8 216.4,287.7 234.2,291.6 C267.8,298.9 299.5,319.9 335.1,314.5 C335.7,314.5 335.5,313.3 334.9,313.4 Z" id="Path" fill="url(#linearGradient-1)"></path>
                <path d="M322.2,325.8 C312.2,326.3 302.2,326.7 292.2,326 C281.7,325.3 272,322.5 262.2,319 C245.3,312.9 224.6,309.7 207.4,316.8 C206.6,317.1 206.9,318.3 207.8,318.1 C217.3,316.2 226.2,314.4 235.9,314.8 C246.1,315.2 255.6,318.3 265.2,321.8 C283.9,328.5 302.7,328.4 322.2,326.6 C322.7,326.5 322.7,325.8 322.2,325.8 Z" id="Path" fill="url(#linearGradient-1)"></path>
                <path d="M264.7,337 C249.4,334.5 234.1,332.2 218.9,328.9 C218.1,328.7 217.5,329.9 218.3,330.3 C224.2,333.6 231.8,333.7 238.4,334.6 C247.1,335.8 255.9,336.7 264.6,337.7 C265,337.7 265,337 264.7,337 Z" id="Path" fill="url(#linearGradient-1)"></path>
                <path d="M222.1,347.6 C220.2,346.8 218.2,346.1 216.2,345.4 C214.2,344.7 212.1,343.8 210,343.9 C209.4,343.9 209.3,344.6 209.7,344.9 C211.2,346 213.1,346.3 214.9,346.8 C217.2,347.5 219.5,348 221.8,348.5 C222.5,348.8 222.8,347.9 222.1,347.6 Z" id="Path" fill="url(#linearGradient-1)"></path>
                <path d="M673.2,169.3 C665.2,179.2 658,189.6 649.5,199.2 C641,208.7 631.7,217.5 621.9,225.7 C611.8,234.2 601,241.8 589.7,248.7 C578.8,255.4 567.1,260.4 555.8,266.3 C555.1,266.7 555.6,267.8 556.3,267.6 C568.3,263.6 579.8,256.9 590.6,250.3 C601.6,243.7 612,236.1 621.9,228 C632.1,219.5 641.7,210.2 650.5,200.4 C658.8,191.1 667.6,180.8 673.5,169.7 C673.7,169.3 673.4,169 673.2,169.3 Z" id="Path" fill="url(#linearGradient-1)"></path>
                <path d="M199.3,311.6 C192.4,315.8 186,320.1 178.5,323.2 C171,326.3 163.1,328.3 155.2,329.8 C137.3,333 119,332 101.1,329.4 C82.8,326.7 64.8,322.3 46.8,318.4 C33,315.4 13.7,309.3 0.8,318.1 C0.2,318.5 0.6,319.8 1.4,319.4 C18.9,312.1 38,318.5 55.6,322.4 C73.7,326.4 91.8,330.5 110.3,332.4 C126.4,334.1 142.8,333.8 158.7,330.6 C172.8,327.8 189,322.1 199.6,312 C199.9,311.9 199.6,311.5 199.3,311.6 Z" id="Path" fill="url(#linearGradient-1)"></path>
                <path d="M199.8,317.4 C185.4,350.2 149.7,364.2 115.9,365.1 C93.9,365.7 72.1,361.3 50.7,357.1 C37.5,354.5 17.1,347.8 5.9,358.8 C5.2,359.5 6.1,360.8 7,360.2 C15.2,354.4 24.2,354.6 33.8,356.1 C44.4,357.8 54.9,360.1 65.5,362 C86.4,365.7 107.7,368.3 128.9,365.9 C158.1,362.5 189.5,346.5 200.8,317.9 C201,317.3 200.1,316.9 199.8,317.4 Z" id="Path" fill="url(#linearGradient-1)"></path>
                <path d="M189.1,347.5 C172,377.2 138.2,390.4 106.7,399 C88.1,404.1 68.9,407.2 49.7,408.3 C37.3,409.1 15.8,407.8 12.6,424 C12.4,424.9 13.6,425.2 14,424.4 C17.8,414.7 27.1,411.7 36.8,410.8 C46.1,409.9 55.4,409.7 64.7,408.7 C82.8,406.6 100.6,402.7 117.9,397.2 C145.4,388.6 176.2,375 189.8,347.8 C190,347.5 189.4,347.1 189.1,347.5 Z" id="Path" fill="url(#linearGradient-1)"></path>
                <path d="M99.3,382.6 C84,384 68.6,384.1 53.3,382.4 C40.8,381.1 26.5,378.5 16.5,387.9 C16.1,388.3 16.6,388.9 17.1,388.6 C29.2,380.2 43.6,383.3 57.2,384.5 C71.3,385.8 85.4,385.3 99.5,383.2 C99.9,383.3 99.8,382.6 99.3,382.6 Z" id="Path" fill="url(#linearGradient-1)"></path>
                <path d="M147.6,393.7 C130,411.3 109.3,425.3 86.7,435.7 C75.5,440.8 63.7,444.8 51.7,447.9 C45.9,449.4 40.1,450.5 34.2,451.5 C27.9,452.5 21.2,452.4 15,453.9 C14.5,454 14.7,454.7 15.1,454.7 C20.4,455.2 26.1,454.1 31.4,453.3 C37.8,452.4 44.2,451.1 50.5,449.6 C62.6,446.7 74.5,442.5 85.9,437.5 C109.2,427.3 130.4,412.4 148.3,394.4 C148.7,394 148,393.3 147.6,393.7 Z" id="Path" fill="url(#linearGradient-1)"></path>
                <path d="M353.2,324.6 C388.9,286.9 440.9,269.4 492.1,271.2 C521.7,272.2 549,282 577.3,289.4 C602.6,296 630.1,299 654.7,288.2 C658.6,286.5 662.2,284.3 665.6,281.8 C666.6,281.1 665.7,279.4 664.6,280.1 C639.7,296.8 609.5,295.1 581.5,288.4 C553.6,281.7 527,271.7 498.1,269.6 C449.9,266.2 399.1,280.5 362.9,313.3 C359.2,316.6 355.7,320.2 352.4,323.9 C352,324.4 352.8,325.1 353.2,324.6 Z" id="Path" fill="url(#linearGradient-1)"></path>
                <path d="M675.3,295.8 C629.7,332.2 571.4,311.3 519.9,304 C494.1,300.3 467.3,299.9 441.4,303.7 C421.2,306.7 398.7,313.9 385.8,330.8 C385.2,331.6 386.5,332.5 387.1,331.8 C403.6,314.2 425.7,307.4 449.1,304.8 C477.5,301.6 506.4,303.6 534.5,308.4 C560.8,312.9 587,319.3 613.9,318.3 C635.8,317.5 659.4,311.5 675.8,296.3 C676.2,296 675.6,295.5 675.3,295.8 Z" id="Path" fill="url(#linearGradient-1)"></path>
                <path d="M673.6,310.3 C654.7,323.6 634.9,333.7 612.1,338.5 C587.8,343.6 563.4,340.7 539.1,336.5 C516,332.5 492.8,327.4 469.2,327.8 C451.6,328.1 426.2,331.2 415.9,347.7 C415.5,348.3 416.4,348.9 416.9,348.5 C424.9,341.1 433.3,336.2 443.8,333.4 C455.5,330.3 467.8,329.7 479.9,330.2 C504.6,331.1 528.7,337.3 553,340.6 C574.6,343.6 596.1,343.8 617.3,338.8 C637.6,334 658.2,324.7 674,310.9 C674.3,310.6 673.9,310.1 673.6,310.3 Z" id="Path" fill="url(#linearGradient-1)"></path>
                <path d="M672,321.6 C658.5,358.1 618,369.6 582.7,368.1 C563.9,367.3 545.8,362.7 527.2,360.2 C510.4,358 492.9,357.5 477.4,365.4 C476.4,365.9 477.3,367.4 478.3,366.9 C497,357.9 517.5,360.1 537.3,363.5 C556.8,366.8 576,370.5 595.9,369.9 C627.4,368.9 661.9,353.7 672.8,321.9 C672.9,321.4 672.2,321.2 672,321.6 Z" id="Path" fill="url(#linearGradient-1)"></path>
                <path d="M664.7,350.2 C652.5,364.7 638.1,375.6 619.7,380.8 C610.2,383.5 600.1,383.1 590.8,386.7 C585.1,388.9 578.5,394.2 578.3,400.8 C578.3,401.2 578.9,401.4 579.1,401 C581.2,396.5 583.3,393.1 587.5,390.3 C591.6,387.5 596.7,386.4 601.5,385.6 C610.9,384 619.9,382.9 628.9,379.4 C643.2,373.8 656.9,363.7 665.2,350.7 C665.3,350.3 664.9,349.9 664.7,350.2 Z" id="Path" fill="url(#linearGradient-1)"></path>
                <path d="M10.6,482.8 C107.2,456 175.2,369.5 273.9,347.6 C336,333.9 399,353 457.4,373.1 C514.6,392.8 572.5,414.3 634.1,411.9 C680.9,410.1 729.1,395.4 767.8,368.6 C768.7,368 767.9,366.6 766.9,367.1 C741.8,382.6 715.4,394.8 686.7,402.1 C658.1,409.4 628.4,411.5 599,408.9 C536.3,403.3 478.2,376.3 418.6,358.3 C389.1,349.4 358.8,342.6 328,341.2 C300.7,340 273.8,344 248,352.9 C201.3,368.9 160.7,398.5 120,425.4 C85.6,448.1 50,469.8 10.5,482.1 C10,482.3 10.2,483 10.6,482.8 Z" id="Path" fill="url(#linearGradient-1)"></path>
                <path d="M772,378.4 C731.5,417.1 679,440.9 622.7,442.7 C566.3,444.5 512.6,423.4 460.4,404.7 C411.9,387.3 362.3,371.1 310.2,372.9 C257.7,374.8 204.7,393.7 162.1,424.3 C161.5,424.8 162,425.8 162.7,425.4 C211.8,393 268,373.2 327.3,375.1 C383.9,376.9 437.1,399.3 489.9,417.7 C538.2,434.6 588.7,449.1 640.4,443.2 C689.5,437.7 738.1,414.7 772.2,378.7 C772.4,378.4 772.2,378.2 772,378.4 Z" id="Path" fill="url(#linearGradient-1)"></path>
                <path d="M771.4,391.1 C757.2,414 734.6,429 710.4,439.8 C683,452 653.3,460.1 623.7,464.9 C592,470 559.8,469.7 528.4,463.2 C499.3,457.2 471.3,446.6 443.4,436.5 C415.3,426.4 387,416.7 357.4,412.1 C328.2,407.5 298.4,407.9 269.2,412.7 C213,421.9 165.3,451.8 114.6,475.5 C85.1,489.3 54.2,500 21.3,501.3 C20.3,501.3 20.3,502.9 21.3,502.9 C75.2,501.8 123.2,473.4 170.1,449.9 C195.8,437 222.1,425.4 250.1,418.6 C280.3,411.2 311.8,409.2 342.7,412.2 C403.3,418 457.5,447.5 515.9,462.2 C575.4,477.2 636.6,469 693.7,448.1 C724.2,437 755.2,420.4 772.3,391.6 C772.5,391.1 771.7,390.6 771.4,391.1 Z" id="Path" fill="url(#linearGradient-1)"></path>
                <path d="M772.6,406.5 C740.8,447.8 696.4,476.7 646.3,490.4 C621.6,497.1 595.9,499.8 570.3,498.5 C540.1,496.9 510.6,488.7 482.1,479.2 C446.8,467.4 412.4,453.1 376.2,444.2 C341.7,435.6 302.6,430.8 268.1,441.9 C267.3,442.2 267.6,443.3 268.4,443.1 C284,439.7 299.5,437.6 315.4,437.7 C331.4,437.8 347.3,440 362.9,443.2 C393.4,449.4 422.6,460.2 451.8,470.7 C480.8,481.1 510,491.3 540.5,496.7 C565.3,501.2 590.8,501.8 615.7,498.3 C677.1,489.7 736.8,457.9 773.5,407.1 C773.8,406.5 773,406 772.6,406.5 Z" id="Path" fill="url(#linearGradient-1)"></path>
                <path d="M768,429.4 C705.2,509.5 598,550.5 497.8,530.5 C441.6,519.3 390.9,490.9 336.4,474.2 C309.3,465.9 281.4,461.2 253.1,462.2 C223.3,463.3 194,470.7 166.3,481.2 C141.5,490.6 118.4,503.5 94.7,515.1 C69.8,527.3 42.7,537.4 14.6,532.6 C13.5,532.4 13.1,534 14.2,534.2 C41.6,539.2 68,529.8 92.5,518.2 C120.2,505.1 146.5,490.2 175.5,480 C204.5,469.8 235,463.7 265.9,464.1 C294.9,464.5 323.3,471.6 350.6,480.8 C403.9,498.9 454.5,526.1 510.7,534.5 C559.1,541.8 609.2,534.6 654.4,516.4 C699.2,498.4 739.7,468.6 768.9,430 C769.1,429.5 768.3,428.9 768,429.4 Z" id="Path" fill="url(#linearGradient-1)"></path>
                <path d="M763.3,449.4 C756.3,463 749.7,476.6 739,487.8 C728.2,499.2 714.6,508.3 701.6,516.9 C689.6,524.9 676.9,532 663.7,537.9 C649.4,544.3 634.7,547.9 619.6,551.3 C619.2,551.4 619.3,552 619.7,552 C649.2,549.9 678.1,534.1 702.4,518.1 C715.2,509.7 727.9,500.7 738.8,489.9 C750.2,478.6 757.5,464.1 763.9,449.6 C764,449.4 763.5,449.1 763.3,449.4 Z" id="Path" fill="url(#linearGradient-1)"></path>
                <path d="M737.4,507.4 C731.6,518.6 721.5,527 712.1,535.1 C700.8,544.9 686.5,550.6 675.2,560.3 C674.8,560.6 675.3,561.1 675.7,560.9 C682.9,557.6 689.5,552.6 696.2,548.4 C702.2,544.6 707.9,540.9 713.2,536.2 C722.6,527.9 732.7,519.3 738.4,508 C738.7,507.3 737.8,506.7 737.4,507.4 Z" id="Path" fill="url(#linearGradient-1)"></path>
                <path d="M492.6,554 C432.6,541.9 376.6,515.9 316.7,503.5 C261.2,492.1 203.4,495.6 149.5,512.7 C125.7,520.2 101.9,530.3 80.9,544.1 C80.2,544.6 80.8,545.6 81.6,545.2 C107.3,531.2 133.3,519.2 161.6,511.2 C189.5,503.3 218.5,499.3 247.6,498.9 C277.5,498.5 307,502.7 335.9,509.9 C365.5,517.3 394.3,527.6 423.4,536.8 C446.1,544 469,550.6 492.4,555 C493,555.1 493.3,554.1 492.6,554 Z" id="Path" fill="url(#linearGradient-1)"></path>
                <path d="M414.2,554.3 C332.2,525.3 227.5,503.5 150.4,556.8 C149.6,557.4 150.3,558.7 151.2,558.1 C187.8,534.2 231.1,525.3 274.4,526.4 C322.6,527.7 368.1,542.3 414,555.3 C414.6,555.5 414.9,554.5 414.2,554.3 Z" id="Path" fill="url(#linearGradient-1)"></path>
                <path d="M317.6,45.4 C336.6,31.9 358.6,23 380.8,16.3 C406.7,8.5 433.5,4 460.4,2.4 C487.8,0.8 515.8,2.3 542.2,10.2 C570.6,18.6 596.7,33.7 621.2,50 C665.9,79.8 707.6,114 760.3,128.7 C810.1,142.6 865,140.3 913.7,123.1 C914.7,122.8 914.3,121.2 913.3,121.5 C856.7,139.8 795.4,140.9 739.4,119.8 C683,98.5 639.1,54.7 586.3,26.6 C563.7,14.6 539.4,5.6 514,2.3 C489.9,-0.9 465.3,-0.3 441.2,2.4 C398.5,7.2 352.4,18.8 317.2,44.5 C316.6,44.9 317.1,45.8 317.6,45.4 Z" id="Path" fill="url(#linearGradient-1)"></path>
                <path d="M641.4,226.8 C650.4,238.3 663.7,251.2 679.6,249.1 C680,249 680.1,248.4 679.6,248.4 C662.9,248.7 652.8,237.2 641.9,226.3 C641.6,226 641.2,226.5 641.4,226.8 Z" id="Path" fill="url(#linearGradient-1)"></path>
                <path d="M659.2,212.2 C668.3,221.2 678.7,228.3 690.2,234 C701.1,239.3 715.3,245.4 727.6,242.5 C728.1,242.4 728,241.5 727.5,241.6 C714.5,243.2 701,237.7 689.5,232.2 C678.6,227 668.6,220 659.6,212.1 C659.3,211.8 659.1,212 659.2,212.2 Z" id="Path" fill="url(#linearGradient-1)"></path>
                <path d="M904.7,129.9 C862.7,163.9 802.9,162.1 752.8,151.1 C733.8,146.9 716.1,137.7 699.4,128.1 C679.9,116.8 661.2,104.1 642.4,91.7 C604.3,66.5 564.6,40.5 519.6,29.6 C496.2,23.9 473.2,25 449.5,28.1 C420.8,31.9 392.6,38.7 365.7,49.3 C354.3,53.8 343.2,59 332.5,64.9 C331.2,65.6 332.4,67.5 333.6,66.8 C360.5,52.6 388.9,42.2 418.6,35.8 C444.4,30.2 472.1,25.6 498.6,28.3 C545.1,33 587.3,58.8 625.7,83.7 C661.5,106.8 696.5,134.1 736.9,148.8 C757.9,156.5 781.5,158.7 803.7,159.7 C828.3,160.7 854,158.3 876.9,148.5 C887.3,144 896.9,138.2 905.5,130.9 C906,130.2 905.3,129.4 904.7,129.9 Z" id="Path" fill="url(#linearGradient-1)"></path>
                <path d="M896.8,148 C874.9,165.9 849.2,177.8 821.1,182 C791.2,186.5 761.5,179.9 733.8,168.6 C705.3,157 678.5,141 651.6,126 C625.2,111.3 598.7,96.7 571,84.4 C508.2,56.5 424.9,39.2 364.9,83.5 C363.9,84.3 364.8,86 365.9,85.3 C411.4,54.3 468.5,54.1 520.1,68.2 C578.1,84 630,117.2 682.3,145.7 C717.9,165.1 755.7,184.2 797.1,185.2 C833.2,186.1 870.6,173 897.4,148.7 C897.8,148.2 897.2,147.7 896.8,148 Z" id="Path" fill="url(#linearGradient-1)"></path>
                <path d="M874.9,175.5 C850.1,190.5 822.8,199.2 793.7,198.8 C762.7,198.4 734.5,185.6 707.4,171.6 C652.6,143.3 597.4,114.8 537,100.6 C492.9,90.3 444.9,87.3 400.9,99.8 C399.6,100.2 400.2,102 401.4,101.7 C432.2,94.4 463.1,92.5 494.6,95.7 C526,98.9 556.7,107.1 586.3,117.8 C616.2,128.6 644.9,142.2 673.3,156.5 C700,170 726.2,185.5 754.9,194.5 C794.5,206.8 841.5,201.1 875.2,176.1 C875.5,175.8 875.2,175.3 874.9,175.5 Z" id="Path" fill="url(#linearGradient-1)"></path>
                <path d="M858.7,192.8 C831,208.6 800.9,216.1 768.9,212.4 C752.4,210.5 736.9,204.6 721.7,198 C714.5,194.9 707.4,191.6 700.1,188.6 C693,185.7 685.5,182.3 677.9,181.3 C676.9,181.2 676.9,182.6 677.7,182.9 C685.4,186 693.5,188.2 701.2,191.3 C708.9,194.5 716.5,198 724.2,201.2 C739.2,207.5 754.3,212.4 770.6,214.3 C800.6,217.7 834.1,210.6 859.1,193.3 C859.5,193.1 859.2,192.5 858.7,192.8 Z" id="Path" fill="url(#linearGradient-1)"></path>
                <path d="M915.8,129.8 C908.8,140.1 902.7,150.9 895.5,161.2 C888.1,171.8 880.1,181.9 871.1,191.3 C862.7,200.1 853.5,207.9 843.4,214.7 C833.1,221.7 822.1,225.8 811,230.9 C810.3,231.2 810.8,232.3 811.5,232.1 C822.6,229.8 833.6,223.2 842.9,217.1 C853.2,210.4 862.5,202.3 871,193.5 C888.8,175.2 904.6,152.8 916.1,130 C916.4,129.8 916,129.5 915.8,129.8 Z" id="Path" fill="url(#linearGradient-1)"></path>
                <path d="M807.7,222.8 C782.9,229.9 757.7,230.8 733.1,222.7 C710.5,215.4 691.1,200.3 668.2,194.1 C667.1,193.8 666.7,195.4 667.8,195.7 C691.3,204 712.2,218.3 736.1,225.4 C759.1,232.3 785.5,232.1 808.1,223.6 C808.5,223.5 808.3,222.7 807.7,222.8 Z" id="Path" fill="url(#linearGradient-1)"></path>
                <path d="M639.1,160.1 C624.8,149.6 607.9,143.2 591.5,136.9 C573.4,130 554.9,124.1 535.9,120 C518.3,116.2 500.3,114.2 482.3,114.5 C465.2,114.8 445.4,116.9 429.8,124.4 C428.9,124.8 429.5,126.2 430.5,126 C438.8,123.9 446.8,121.1 455.3,119.5 C464.2,117.8 473.3,117 482.3,116.7 C500.7,116.1 519.2,118.6 537.2,122.5 C554.9,126.4 572.2,132 589.3,138 C606.5,144.1 623.2,151.2 638.8,160.7 C639.2,161.2 639.6,160.5 639.1,160.1 Z" id="Path" fill="url(#linearGradient-1)"></path>
                <path d="M608.3,162.6 C586.1,151.8 562.3,144 537.8,140.3 C515,136.9 489.4,137.4 467.8,146 C466.8,146.4 467.2,148 468.3,147.6 C479.9,144.3 491.3,141.7 503.3,140.8 C515.2,139.9 527.3,140.7 539.1,142.4 C563,145.8 585.7,154.3 608,163.2 C608.4,163.6 608.8,162.8 608.3,162.6 Z" id="Path" fill="url(#linearGradient-1)"></path>
                <path d="M571.8,164.6 C555.7,160.5 537.2,159.4 520.9,163.3 C520.1,163.5 520.3,164.8 521.1,164.7 C529.3,163.9 537.2,162.9 545.5,162.9 C554.3,162.9 562.9,164.1 571.5,165.5 C572.1,165.6 572.4,164.8 571.8,164.6 Z" id="Path" fill="url(#linearGradient-1)"></path>
                <path d="M619.3,245.1 C626.8,253.7 638.4,258.1 649.7,255.7 C650,255.6 650,255.1 649.6,255.1 C638.4,256.2 627.8,252.7 620,244.4 C619.6,244 618.9,244.6 619.3,245.1 Z" id="Path" fill="url(#linearGradient-1)"></path>
                <path d="M608.2,259.3 C614.6,265.3 623,270.2 631.7,271.7 C632.2,271.8 632.4,271.1 631.9,270.9 C623.4,267.7 616.1,264.2 609.1,258.4 C608.5,257.8 607.5,258.7 608.2,259.3 Z" id="Path" fill="url(#linearGradient-1)"></path>
                <path d="M680.5,268.6 C739.4,248 802.5,237.8 864.2,251.4 C921,263.9 971.5,294.7 1026.8,311.8 C1101.7,335 1188.6,324 1252,276.3 C1252.6,275.8 1252,274.8 1251.4,275.2 C1204.4,306.9 1150,324 1093.1,321.9 C1034.4,319.7 982,292.9 928.7,271.1 C889.9,255.2 850.4,244.2 808.2,243.7 C764.6,243.2 720.8,252.5 680.3,268.1 C680.1,268.3 680.2,268.7 680.5,268.6 Z" id="Path" fill="url(#linearGradient-1)"></path>
                <path d="M1259.1,288 C1225.6,333.7 1162.6,345.1 1109.5,347 C1078.2,348.1 1046.8,344.8 1016.4,337.5 C985.4,330.1 956.4,317.1 926.6,306.3 C885.6,291.5 842.2,279.4 798.5,276.5 C779.4,275.3 760.2,275.6 741.1,277.8 C724.7,279.7 707.6,283.1 693,291.1 C692.4,291.4 692.9,292.2 693.5,292 C714.6,282 738.6,279 761.7,278 C785.1,276.9 808.9,278.2 831.9,282.4 C862.6,288 893,296.6 922.4,306.9 C952.4,317.4 981.3,330.6 1012.2,338.4 C1059.5,350.4 1109.3,352 1157.3,343.5 C1195.7,336.7 1236.2,321.4 1259.5,288.4 C1259.8,288 1259.3,287.7 1259.1,288 Z" id="Path" fill="url(#linearGradient-1)"></path>
                <path d="M1261.6,306.5 C1226.3,347.8 1172.6,369.6 1119.5,374.8 C1056.7,381 993.9,364.5 935.2,343.7 C891.2,328.1 847.6,310.4 800.6,306.1 C780.5,304.3 760.1,304.4 740,306.7 C722.5,308.7 704.7,312.5 689.1,321 C688.2,321.5 689,322.9 689.9,322.4 C711,311.3 735.8,308.1 759.3,307.1 C783.3,306 807.6,307.7 831.1,312.5 C861.7,318.7 891.1,329.8 920.4,340.5 C950,351.3 979.8,361.2 1010.6,368.1 C1057.6,378.7 1106.7,381.9 1153.9,370.7 C1195.5,360.8 1234.1,339.6 1261.6,306.6 C1261.9,306.5 1261.7,306.4 1261.6,306.5 Z" id="Path" fill="url(#linearGradient-1)"></path>
                <path d="M1259.1,327.7 C1223.3,368.8 1171.9,391.3 1118.3,397.3 C1055.7,404.4 992.7,388.9 933.7,369 C888.2,353.7 843,335.1 794.8,331.1 C754.9,327.8 712.1,335.3 680.5,361.2 C679.7,361.8 680.8,362.8 681.6,362.3 C727.7,325.9 789.9,327.8 843.9,341.7 C874.3,349.5 903.6,360.8 933.2,370.8 C963.1,380.9 993.6,389.5 1024.8,394.9 C1106.4,409.1 1204.3,396.9 1259.2,327.9 C1259.4,327.8 1259.2,327.6 1259.1,327.7 Z" id="Path" fill="url(#linearGradient-1)"></path>
                <path d="M1254.9,351.7 C1235.1,370.7 1213.4,386.3 1188.3,397.7 C1163,409.2 1135.6,416.1 1108,419.3 C1044.9,426.7 981.3,413.5 921,395.6 C898.3,388.9 876.1,380.7 853.2,374.7 C832.1,369.1 809.3,365.2 787.5,368.6 C786.8,368.7 787,369.9 787.7,369.8 C803.6,368.7 819,369.4 834.7,372.3 C849.9,375.1 864.8,379.6 879.6,384.3 C909.7,393.9 939.7,403.5 970.6,410.5 C1028.2,423.6 1088.6,428.4 1146.3,413.8 C1186.5,403.6 1227.4,383.6 1255.1,352 C1255.4,351.8 1255.1,351.5 1254.9,351.7 Z" id="Path" fill="url(#linearGradient-1)"></path>
                <path d="M954.4,431.6 C925.3,429.7 898.7,419.8 871.7,409.6 C858.5,404.6 845.2,399.7 831.5,396.1 C818.8,392.7 804.8,389.8 791.6,390.9 C790.7,391 790.7,392.2 791.6,392.3 C806.2,393.2 820,394.7 834.2,398.6 C847.8,402.3 861.1,407.4 874.3,412.4 C899.8,422 926.7,432.6 954.4,432.2 C954.7,432.1 954.7,431.6 954.4,431.6 Z" id="Path" fill="url(#linearGradient-1)"></path>
                <path d="M912.9,440.5 C891.2,441.2 870.2,440.5 849,435.5 C829.4,430.9 810.5,422.5 790.3,420.5 C789.4,420.4 789.2,421.9 790.1,422.1 C810.7,425.5 830.1,432.8 850.4,437.4 C870.6,442 892.4,443.8 912.9,440.9 C913.1,440.8 913.1,440.5 912.9,440.5 Z" id="Path" fill="url(#linearGradient-1)"></path>
                <path d="M874.3,456.2 C858.4,457.1 842.3,456.3 826.5,453.9 C818.6,452.7 810.7,451 803,449 C795.2,447 787.8,444 780.1,441.8 C779.5,441.6 779.1,442.5 779.7,442.8 C793.9,449.7 810.7,453 826.2,455.3 C842.2,457.7 858.3,458 874.4,456.8 C874.7,456.9 874.7,456.2 874.3,456.2 Z" id="Path" fill="url(#linearGradient-1)"></path>
                <path d="M849.6,471.9 C836.7,471.8 823.8,472.1 810.8,472.2 C804.8,472.3 798.8,472.1 792.9,471.7 C785.7,471.1 779.3,469 772.3,467.4 C771.6,467.2 771.1,468.2 771.8,468.6 C782.1,474.2 795.8,474.1 807.2,474 C821.3,473.9 835.5,473.2 849.6,472.4 C849.9,472.3 849.9,471.9 849.6,471.9 Z" id="Path" fill="url(#linearGradient-1)"></path>
                <path d="M817.1,489.3 C807.2,489.7 797.4,490.2 787.5,490.1 C776.3,490 765.9,487.6 755,486 C754.4,485.9 754,486.7 754.6,487 C763.5,490.8 774.3,491.2 783.9,491.6 C795,492 806.1,491.1 817.2,490.2 C817.6,490.1 817.6,489.3 817.1,489.3 Z" id="Path" fill="url(#linearGradient-1)"></path>
                <path d="M795.7,506.1 C788.7,505.5 781.9,506.5 774.9,507.2 C767.8,507.9 761.4,507 754.5,505.1 C754,505 753.6,505.7 754.1,506 C766.1,513.2 782.8,506.7 795.7,506.7 C796.1,506.8 796.1,506.2 795.7,506.1 Z" id="Path" fill="url(#linearGradient-1)"></path>
                <path d="M777.4,526.4 C765.5,528.3 753.4,528 741.5,529.6 C741,529.7 741.2,530.4 741.6,530.5 C753.3,531.9 766.2,529.4 777.7,527.3 C778.3,527.2 778,526.3 777.4,526.4 Z" id="Path" fill="url(#linearGradient-1)"></path>
                <path d="M758.9,544.8 C746.3,546.4 734.2,545.8 721.6,545.7 C721.2,545.7 721.1,546.4 721.5,546.5 C733.6,548.9 746.9,547.8 759,545.8 C759.5,545.7 759.4,544.7 758.9,544.8 Z" id="Path" fill="url(#linearGradient-1)"></path>
                <path d="M1252.6,372.3 C1238.8,386.3 1224.3,398.6 1207.1,408.4 C1190,418.1 1171.8,424.1 1152.7,428.6 C1151.9,428.8 1152.3,429.9 1153,429.8 C1190.4,423.5 1228.7,401.9 1253.2,373 C1253.6,372.5 1253.1,371.9 1252.6,372.3 Z" id="Path" fill="url(#linearGradient-1)"></path>
                <path d="M1231.2,414.6 C1219.9,425.3 1207.5,431.9 1192.6,436.3 C1192.2,436.4 1192.4,436.9 1192.8,436.9 C1207.6,434.6 1221.9,426.3 1231.9,415.3 C1232.2,414.9 1231.6,414.2 1231.2,414.6 Z" id="Path" fill="url(#linearGradient-1)"></path>
                <path d="M750.2,366.5 C733.5,366.5 717,370.7 701.4,376.5 C688.3,381.3 674,387.6 663.8,397.4 C663.4,397.8 664,398.3 664.4,398 C675.5,389 688.5,382.7 701.7,377.6 C717.1,371.7 733.7,367.5 750.2,367.2 C750.7,367.2 750.7,366.5 750.2,366.5 Z" id="Path" fill="url(#linearGradient-1)"></path>
                <path d="M768.4,555.8 C801.2,513.3 844.8,480.1 894.5,459.8 C950.7,436.9 1011.1,434.6 1070.7,442.6 C1130.9,450.7 1189.3,468.4 1249.3,478.1 C1305.9,487.2 1364.8,490.5 1420.9,476.8 C1422.1,476.5 1421.6,474.7 1420.4,475 C1360.4,489.6 1297.4,484.7 1237.2,474.2 C1175.1,463.4 1114.6,445.1 1051.7,438.7 C995.3,432.9 939,438.7 886.7,461.3 C839.9,481.6 798,514.1 767.5,555.1 C767.1,555.8 768,556.3 768.4,555.8 Z" id="Path" fill="url(#linearGradient-1)"></path>
                <path d="M800.6,558 C845.1,524.8 893.2,496.3 947.1,481.7 C990.9,469.8 1036.4,468.7 1081.4,473 C1105,475.3 1128.4,478.9 1151.8,482.9 C1182.9,488.2 1213.5,495.7 1244.5,501.6 C1269.6,506.4 1294.1,509.2 1319.7,508.2 C1344.3,507.3 1369.1,504.1 1393.1,498.6 C1401.9,496.6 1410.6,494 1419.1,490.8 C1420.1,490.4 1419.7,488.9 1418.7,489.2 C1396.3,497.3 1372.3,501.4 1348.6,504.1 C1325.1,506.8 1301,507.9 1277.5,505.1 C1245.5,501.4 1214.1,493.2 1182.6,486.8 C1157.6,481.7 1132.4,477.6 1107.2,474.2 C1063.3,468.3 1018.7,466.4 974.9,474 C924.8,482.7 878.1,504.1 835.7,531.8 C823.5,539.8 811.7,548.4 800.2,557.4 C799.9,557.7 800.3,558.3 800.6,558 Z" id="Path" fill="url(#linearGradient-1)"></path>
                <path d="M861.6,552.9 C913.4,525.1 969.2,507 1027.8,500.7 C1056.3,497.6 1085.2,497.5 1113.8,500.1 C1136.8,502.2 1159.2,507 1181.8,511.2 C1215.7,517.6 1249.9,521.6 1284.4,521.7 C1330.2,521.9 1377.8,515.7 1420.9,499.9 C1421.7,499.6 1421.4,498.3 1420.5,498.5 C1390.3,507.4 1360.1,514.6 1328.6,517.8 C1302.4,520.4 1276,520.5 1249.8,518.6 C1228.2,517.1 1206.7,514 1185.4,510.1 C1164.4,506.3 1143.6,501.7 1122.3,499.2 C1033.3,489 938.9,507 861.1,551.8 C860.5,552.3 861,553.2 861.6,552.9 Z" id="Path" fill="url(#linearGradient-1)"></path>
                <path d="M907.8,549.8 C938,541 967.8,531.8 998.7,525.8 C1029.8,519.8 1061.4,516.6 1093.1,517.7 C1127.6,518.9 1161.3,528.3 1195.6,532.1 C1231.2,536.1 1267.2,537.2 1302.9,534.7 C1343.4,531.9 1384.4,524.4 1421.6,507.6 C1422.3,507.3 1421.7,506.2 1421,506.5 C1373.7,526.7 1322,533.7 1270.9,534.3 C1234.2,534.7 1197.3,531.9 1161.2,525.7 C1150.2,523.8 1139.4,521.2 1128.4,519.5 C1103.9,515.7 1078.9,515.2 1054.2,516.9 C1029.8,518.6 1005.7,522.6 981.8,527.9 C956.8,533.5 931.7,540.3 907.6,549 C907.3,549.3 907.4,549.9 907.8,549.8 Z" id="Path" fill="url(#linearGradient-1)"></path>
                <path d="M1423.8,515.4 C1406.9,525.4 1389.3,533.9 1371,541 C1353.1,547.9 1334.8,552.3 1316.2,556.9 C1315.7,557 1315.9,557.7 1316.4,557.7 C1335.7,554.9 1354.8,548.6 1373,541.6 C1390.8,534.7 1407.9,526.1 1424.2,516.1 C1424.6,515.8 1424.2,515.1 1423.8,515.4 Z" id="Path" fill="url(#linearGradient-1)"></path>
                <path d="M1421.1,525.4 C1407.5,547 1381.7,556.7 1358.9,565.7 C1358.4,565.9 1358.6,566.7 1359.1,566.5 C1372,563.2 1384.4,557.1 1395.8,550.3 C1405.9,544.3 1416.8,536.8 1421.8,525.8 C1422.1,525.4 1421.4,525 1421.1,525.4 Z" id="Path" fill="url(#linearGradient-1)"></path>
                <path d="M1009.4,547.8 C1024.5,542.7 1040.1,539.4 1056,538.4 C1069.1,537.5 1083.8,537.5 1096.5,541 C1105,543.3 1113.2,546.6 1121.3,549.9 C1128.7,552.9 1137.5,556 1143.8,561 C1144.3,561.4 1145.1,560.8 1144.6,560.2 C1139.7,555 1131.4,552.4 1125,549.7 C1115.8,545.8 1106.4,542.2 1096.9,539.5 C1084.5,536 1070.5,536.3 1057.8,536.9 C1041.2,537.8 1024.7,541.2 1009.2,547 C1008.9,547.3 1009,548 1009.4,547.8 Z" id="Path" fill="url(#linearGradient-1)"></path>
                <path d="M1424.7,165.7 C1297.4,161.8 1187.8,91.2 1072.1,46.8 C959,3.2 835.3,-9 715.8,11.2 C689.5,15.7 663.3,21.6 637.7,29.5 C636.7,29.8 637.1,31.3 638.1,31.1 C697.2,14.2 757.8,4.5 819.4,3.5 C880.7,2.5 942.1,10.1 1001.4,25.6 C1122.1,57.3 1227.5,130.4 1349.6,157.6 C1374.3,163.1 1399.4,166.4 1424.6,166.8 C1425.4,166.8 1425.4,165.7 1424.7,165.7 Z" id="Path" fill="url(#linearGradient-1)"></path>
                <path d="M1433.7,182 C1305.9,197 1192.3,123.1 1080.1,74.4 C1025,50.4 967.6,33.6 907.8,26.8 C848.5,20 788.1,23.1 729.7,35.2 C705.6,40.2 681.6,46.7 658.5,55.3 C657.5,55.7 657.9,57.2 658.9,56.9 C716.9,37.9 776.3,26.6 837.5,25.7 C898.2,24.8 959,33.9 1016.8,52.5 C1134.3,90.2 1237.4,168.2 1362.1,183.2 C1385.8,186.1 1409.9,186.2 1433.6,183.2 C1434.5,183.1 1434.5,181.9 1433.7,182 Z" id="Path" fill="url(#linearGradient-1)"></path>
                <path d="M1426.2,199.9 C1364.3,205.9 1302.1,200 1243,180.2 C1183.6,160.2 1130.4,126 1073.6,100 C965.2,50.3 840.6,25.8 724.5,62.6 C712.5,66.4 700.6,70.9 689.2,76.2 C688.1,76.7 689.1,78.3 690.2,77.9 C746.5,53.6 807.3,44.3 868.4,47.6 C930.1,51 990.5,67.6 1047.5,90.9 C1104.9,114.4 1157.6,147.7 1214.8,171.6 C1271,195.1 1332.3,206.3 1393.2,203.8 C1404.2,203.3 1415.3,202.4 1426.2,201 C1426.9,200.9 1426.9,199.8 1426.2,199.9 Z" id="Path" fill="url(#linearGradient-1)"></path>
                <path d="M1428.4,213.1 C1364.5,223.1 1300.5,215.5 1238.8,197.2 C1178.4,179.3 1121.7,151.5 1065.8,122.9 C1038.4,108.9 1010.9,95.1 981.7,85.4 C954.4,76.3 926,70.6 897.4,67.9 C840,62.5 780,70.2 726.4,91.6 C724.8,92.3 723.1,92.9 721.5,93.6 C720.6,94 721,95.5 721.9,95.1 C777.3,73.6 836.3,64.6 895.6,69.6 C925.3,72.1 954.6,78.3 982.8,87.8 C1013.1,97.9 1041.5,112.7 1069.9,127.2 C1124.8,155.3 1180.9,181.8 1240.2,199.4 C1298.8,216.8 1362.4,225.3 1423.1,215.1 C1425,214.8 1426.8,214.4 1428.7,214.1 C1429.2,213.8 1428.9,213 1428.4,213.1 Z" id="Path" fill="url(#linearGradient-1)"></path>
                <path d="M1427.9,226.5 C1366.4,240.5 1304.3,233.6 1244.2,216.6 C1184.2,199.6 1127.7,172.8 1070.3,149 C1018.5,127.5 965.6,108.4 909.8,100.6 C858.6,93.4 803.7,95.6 755.8,116.6 C755.2,116.9 755.6,117.9 756.2,117.6 C812.7,95.7 873,94.7 932.1,106.1 C993.1,117.9 1050.7,142.6 1107.5,166.9 C1158.9,188.9 1210.6,210.8 1265.1,224.1 C1317.9,236.9 1375.1,241.7 1428.1,227.4 C1428.7,227.3 1428.4,226.4 1427.9,226.5 Z" id="Path" fill="url(#linearGradient-1)"></path>
                <path d="M1424,240.3 C1394.2,249.7 1363.7,253.5 1332.5,252.1 C1300.5,250.7 1268.9,243.9 1238.1,235.4 C1176.9,218.5 1117.4,195.7 1058.5,172.4 C1016.8,155.9 974.7,139.5 931,129 C929.8,128.7 929.3,130.5 930.5,130.8 C991,146.2 1048.1,171.2 1106.3,193.4 C1136.3,204.8 1166.7,215.3 1197.3,225.2 C1227.6,235 1258.3,243.9 1289.8,249.3 C1333.8,256.8 1382,257.1 1424.3,240.9 C1424.5,240.7 1424.4,240.2 1424,240.3 Z" id="Path" fill="url(#linearGradient-1)"></path>
                <path d="M1427.1,254.2 C1373.6,272.4 1315.6,271.8 1259.9,266.1 C1215.1,261.5 1171.3,250.8 1128.9,235.6 C1058.4,210.2 991,171.9 916.2,160.2 C915.4,160.1 915,161.3 915.8,161.5 C936,166.1 956.1,170.9 975.9,177.2 C994.4,183.2 1012.5,190.1 1030.5,197.5 C1066.5,212.2 1102,228.3 1138.8,240.9 C1180,255.1 1222.7,264.4 1266.1,268.5 C1319.7,273.5 1376.1,273.4 1427.4,255.3 C1428.1,255.1 1427.8,254 1427.1,254.2 Z" id="Path" fill="url(#linearGradient-1)"></path>
                <path d="M1425.8,267.9 C1376.9,288.1 1323.4,293.7 1271.4,284.7 C1270.6,284.6 1270.2,285.8 1271.1,286 C1323,295.6 1377.6,289.2 1426.1,268.5 C1426.4,268.4 1426.1,267.8 1425.8,267.9 Z" id="Path" fill="url(#linearGradient-1)"></path>
                <path d="M1424.9,280.8 C1402.2,291.9 1379.6,300.8 1354.4,304.8 C1342.1,306.8 1329.7,307.5 1317.3,307.2 C1304.2,306.9 1291.5,304.8 1278.7,302.7 C1277.8,302.6 1277.4,303.8 1278.3,304.1 C1302.2,310.5 1328.8,310 1353.1,306.4 C1377.9,302.8 1403.9,294.8 1425,281.1 C1425.3,280.9 1425.1,280.7 1424.9,280.8 Z" id="Path" fill="url(#linearGradient-1)"></path>
                <path d="M1426,294.1 C1406.4,310.2 1379.2,315.6 1354.8,319.6 C1341.4,321.8 1327.7,322.8 1314.1,322.6 C1306.8,322.5 1299.4,321.9 1292.1,320.9 C1285.3,320 1278.8,318.1 1272.1,317 C1271.3,316.9 1271,317.9 1271.8,318.2 C1284.2,322.9 1299.1,323.6 1312.3,324 C1326,324.4 1339.8,323.2 1353.3,321.1 C1378.2,317.3 1407.1,311.6 1426.5,294.5 C1426.9,294.3 1426.4,293.8 1426,294.1 Z" id="Path" fill="url(#linearGradient-1)"></path>
                <path d="M1425.8,310.9 C1401.8,323.4 1376.4,332.6 1349.8,337.4 C1322.5,342.3 1295.3,341.6 1267.9,337.8 C1267,337.7 1266.5,339.1 1267.5,339.3 C1320.4,349.5 1379.9,338.7 1426.1,311.3 C1426.3,311.1 1426,310.7 1425.8,310.9 Z" id="Path" fill="url(#linearGradient-1)"></path>
                <path d="M1427.5,323.8 C1415.3,330.3 1403.8,337.2 1390.8,342.2 C1378.4,346.9 1365.6,350.3 1352.5,352.6 C1324.9,357.5 1297.4,356.4 1269.7,353 C1268.9,352.9 1268.7,354.3 1269.5,354.5 C1296.3,359.3 1324.5,358.9 1351.3,354.4 C1365.5,352.1 1379.3,348.2 1392.7,343.1 C1404.8,338.4 1417.7,332.6 1427.9,324.4 C1428.3,324.1 1427.8,323.7 1427.5,323.8 Z" id="Path" fill="url(#linearGradient-1)"></path>
                <path d="M1428,336.4 C1404,350.3 1379.1,362.1 1352.2,369.2 C1338.3,372.8 1324,375 1309.7,375.7 C1295.1,376.5 1281.1,374.6 1266.6,372.8 C1265.9,372.7 1265.7,373.9 1266.4,374.1 C1279.6,377.6 1294.2,377.9 1307.8,377.5 C1322.3,377 1336.8,374.7 1350.9,371.3 C1378.3,364.6 1404.7,352.6 1428.7,337.7 C1429.5,337.1 1428.8,336 1428,336.4 Z" id="Path" fill="url(#linearGradient-1)"></path>
                <path d="M1427.2,351 C1414,358 1401.5,366.2 1387.8,372.5 C1373.7,379 1359.1,384.2 1344.2,388.2 C1314.6,396.2 1284.8,397.4 1254.4,394.1 C1253.7,394 1253.5,395.3 1254.2,395.4 C1284,400.7 1315.5,397.2 1344.5,389.5 C1359,385.7 1373.2,380.5 1386.9,374.3 C1400.8,368.1 1415.7,361 1427.7,351.6 C1428.1,351.4 1427.6,350.8 1427.2,351 Z" id="Path" fill="url(#linearGradient-1)"></path>
                <path d="M1426.1,365.7 C1414.8,374.1 1403.9,382.2 1391.3,388.7 C1377.9,395.5 1363.7,400.6 1349.1,404.3 C1332.8,408.5 1316,410.7 1299.3,411.7 C1282.6,412.7 1266.2,411.7 1249.5,411.4 C1248.5,411.4 1248.6,412.8 1249.5,412.9 C1266.5,414.8 1284.1,414.4 1301.2,413.3 C1317.5,412.3 1333.7,409.9 1349.6,405.9 C1363.8,402.3 1377.6,397.3 1390.7,390.8 C1403.4,384.5 1416.8,376.7 1426.9,366.6 C1427.3,366.2 1426.6,365.3 1426.1,365.7 Z" id="Path" fill="url(#linearGradient-1)"></path>
                <path d="M1427.8,378.5 C1402.4,397.1 1375.4,412.6 1345.2,421.9 C1311.7,432.2 1276.7,433.4 1242.5,426 C1241.4,425.8 1241,427.4 1242,427.7 C1306.6,444.2 1377.8,420.6 1428.3,379.4 C1428.8,378.9 1428.2,378.2 1427.8,378.5 Z" id="Path" fill="url(#linearGradient-1)"></path>
                <path d="M1426.7,390.2 C1413.3,401.1 1399.8,411.1 1384.4,419.3 C1369.2,427.3 1353.1,433.3 1336.5,437.7 C1317.9,442.6 1298.7,444.9 1279.6,445.3 C1270.1,445.5 1260.6,445.1 1251.2,444.3 C1241.1,443.4 1231.2,441.3 1221.2,440.2 C1220.3,440.1 1220.2,441.5 1221,441.7 C1230.1,444.2 1240,445.1 1249.3,446 C1259.4,447 1269.5,447.3 1279.6,447.2 C1298.9,446.9 1318.3,444.3 1337,439.5 C1369.7,431.2 1403.3,415.1 1427.5,391.2 C1428.1,390.5 1427.3,389.7 1426.7,390.2 Z" id="Path" fill="url(#linearGradient-1)"></path>
                <path d="M1425.7,403.7 C1413,419 1396.4,428.7 1378.7,437.3 C1360.4,446.1 1341.1,452.7 1321.2,456.7 C1301.9,460.7 1282.1,461.8 1262.5,460.3 C1252.4,459.5 1242.5,457.8 1232.6,455.5 C1222.6,453.1 1213.4,449.2 1203.6,446.1 C1202.8,445.8 1202.2,447.1 1203,447.5 C1211.4,452 1221.1,454.6 1230.3,457 C1240.2,459.6 1250.4,461.1 1260.6,462.1 C1281,464 1301.6,462.5 1321.6,458.5 C1341.6,454.5 1361,447.6 1379.4,438.8 C1397.1,430.3 1414.2,420.3 1426.4,404.5 C1426.8,403.9 1426.1,403.3 1425.7,403.7 Z" id="Path" fill="url(#linearGradient-1)"></path>
                <path d="M1425.6,418.4 C1409.5,434.5 1391.9,446.8 1370.7,455.3 C1359.4,459.8 1347.6,463.1 1335.6,465.6 C1323.5,468.1 1311.1,468.9 1299,470.9 C1298.2,471 1298.4,472.3 1299.2,472.3 C1311.4,472.2 1324.1,469.7 1336.1,467.3 C1348.6,464.8 1360.8,461.1 1372.7,456.4 C1392.5,448.4 1412.8,436.2 1426.5,419.4 C1426.9,418.6 1426.2,417.8 1425.6,418.4 Z" id="Path" fill="url(#linearGradient-1)"></path>
                <path d="M1426,432.9 C1417.9,442.2 1409.2,450.6 1399,457.7 C1394.2,461.1 1389.1,464.1 1383.9,466.8 C1378.7,469.5 1373,471.2 1367.8,474.1 C1367.3,474.4 1367.7,475 1368.2,475 C1373.9,474 1379.6,470.9 1384.7,468.3 C1390.4,465.4 1395.9,461.9 1401.1,458.2 C1410.7,451.3 1419.5,442.9 1426.5,433.4 C1426.9,433 1426.3,432.6 1426,432.9 Z" id="Path" fill="url(#linearGradient-1)"></path>
                <path d="M1424.9,452.9 C1421.2,456.1 1417.7,459.4 1413.7,462.1 C1410,464.6 1406,466.4 1402.2,468.6 C1401.6,468.9 1402,469.8 1402.6,469.6 C1411.2,467.2 1420.4,460.5 1425.8,453.5 C1426.2,453 1425.3,452.5 1424.9,452.9 Z" id="Path" fill="url(#linearGradient-1)"></path>
                <path d="M879.3,121.3 C855.1,119.6 828.8,120.5 805.1,126.5 C804.6,126.6 804.8,127.3 805.3,127.2 C817.9,125.5 830.3,123.2 843,122.3 C855.1,121.4 867.2,121.4 879.3,121.7 C879.6,121.7 879.6,121.3 879.3,121.3 Z" id="Path" fill="url(#linearGradient-1)"></path>
                <path d="M898,183.5 C928.1,186.2 955.7,195.3 982.8,208.3 C1007.9,220.3 1032.7,232.3 1058.8,242 C1085.1,251.7 1112.1,259.5 1139.6,265.5 C1166.9,271.5 1195.1,276.2 1223,277.6 C1223.8,277.6 1223.8,276.5 1223,276.4 C1194.5,273.4 1166.2,270 1138.2,263.9 C1110.8,257.9 1083.8,249.9 1057.5,240.2 C1030.3,230.2 1004.6,217.3 978.3,205 C952.9,193.1 926.2,184.9 898,183 C897.6,182.9 897.6,183.5 898,183.5 Z" id="Path" fill="url(#linearGradient-1)"></path>
                <path d="M1191.8,294.7 C1162.3,292.6 1132.7,290.3 1103.7,284.1 C1076.7,278.3 1051.2,268 1026.4,256.2 C1003.4,245.2 980.9,233.2 957.5,223.1 C935.1,213.5 911,204.8 886.5,203.1 C885.7,203 885.5,204.4 886.3,204.5 C911.9,208.4 935.9,215.5 959.7,225.8 C983.6,236.1 1006.6,248.4 1030.2,259.5 C1054.3,270.8 1079.1,280.2 1105.2,285.7 C1133.7,291.8 1162.8,293.9 1191.8,295 C1192,295.1 1192,294.7 1191.8,294.7 Z" id="Path" fill="url(#linearGradient-1)"></path>
                <path d="M1130.2,308.5 C1106.7,309.1 1083.2,307 1060.2,301.6 C1036.4,296.1 1014,286.6 992.5,275.1 C952.3,253.6 911.8,224.4 864.5,223.5 C863.5,223.5 863.5,225 864.5,225 C913.9,228 954.2,256.9 996.6,279.2 C1037.7,300.7 1083.7,312.1 1130.2,308.9 C1130.4,308.8 1130.4,308.5 1130.2,308.5 Z" id="Path" fill="url(#linearGradient-1)"></path>
                <rect id="Rectangle" fill="#FFFFFF" opacity="0.364932106" x="6" y="0" width="1423" height="567"></rect>
            </g>
        </g>
    </g>
</svg>