<svg width="1400" height="902" viewBox="0 0 1400 902" version="1.1" xmlns="http://www.w3.org/2000/svg"><g id="Page-1" stroke="none" stroke-width="1" fill="none" fill-rule="evenodd" opacity=".261"><g id="bench-woman"><g id="Background"><path d="M0 544.1s86.9-47.6 203.9-37.1 169.5 47.1 322.5 37.1 232.5-43.3 364.5-18.4 169.5 35.9 237 34.9 272.1-27.5 272.1-27.5V898S0 904.9 0 898V544.1z" id="Path" fill="#D7D7D7"/><path d="M0 44.4s45.9-11.5 76.3 0 97.8 44.5 152 35.3c54.2-9.2 87.2-6.8 108.4 1.6 21.1 8.4 43.6 26.8 74 26 30.4-.8 88.5.8 81.9 9.2-6.6 8.4-27.7 14.1-70 14.3-42.3.2-59.5 11-100.4 19.4-41 8.4-25.1 9.4-87.2 5.5-62.1-3.9-74-1.6-95.1 7.6-21.1 9.2-47.6 20.5-67.4 18.3-19.8-2.2-72.3 0-72.3 0V44.4H0zm1400 39s-27.7 6.9-46.1 0c-18.4-6.9-59.1-26.9-91.8-21.3-32.7 5.6-52.7 4.1-65.5-1-12.8-5.1-26.3-16.2-44.7-15.7-18.4.5-53.5-.5-49.5-5.6s16.8-8.5 42.3-8.6c25.5-.2 35.9-6.6 60.7-11.7 24.7-5.1 15.2-5.7 52.7-3.3 37.5 2.4 44.7 1 57.5-4.6C1328.4 6 1344.3-.8 1356.3.5c12 1.3 43.7 0 43.7 0v82.9zM616.1 335.5s41.1-11.6 73-11.7c32-.1 41.7 12.4 95.9 5.9 54.2-6.6 100.1-19.1 141.8-17.7 41.7 1.4 89 17.6 136.2 8.6 47.3-9 52.8-20.8 98.7-20.7 45.9.2 87.6-3.6 102.9 1.9 15.3 5.5 26.4 25.5 36.1 27.3 9.7 1.8 45.9 1.8 51.4 4.2 5.6 2.4 47.6 6.6 47.6 6.6v42.5s-94.9 18.8-146.4 15.1c-51.4-3.6-45.9-12.7-105.7-11.5-59.8 1.2-121 7.3-161.3.6-40.3-6.7-18.1-17.1-94.5-22.2-76.5-5.1-73.7 1.1-125.1 3.2-51.4 2.1-93.1 3.1-114-3.2-20.9-6.3-33.4-13-59.8-10.5-26 2.5-6.7-18.7 23.2-18.4zm-354.7 93.2c-15.5 1.4-22.8-2.5-35-6.2s-36.7-3.1-66.8-1.9c-30.2 1.2-28.5 4.8-73.4 1.9-44.8-3-31.8-9.1-55.4-13-8.8-1.5-19.3-1.9-30.8-1.8v39.1c22.9-.8 45.5 5.9 65.8 6.5 24.5.8 51.3-6.5 83.1-10.4 31.8-3.8 37.5 3.5 56.2 3.4 18.7-.1 42.8-6.9 42.8-6.9 17.6.3 29-12.2 13.5-10.7z" id="Path" fill="#FFF"/></g><g id="Object" transform="translate(186 158)"><path id="Rectangle-path" fill="#B3B3B3" fill-rule="nonzero" d="M.7 524H1214v90H.7z"/><path id="Path" fill="#8C8B8B" d="M313.9 614h306.2l3.6-15.7 112-52.6L886.4 561l45.3-28.7-1.8-8.3H234.7l100.5 15z"/><path d="M440.4 631.7s32.5 56.6 39.3 72c7.7 17.3 14.7 36.3 14.7 36.3h40s-12.7-31.9-20.4-60.3c-7.7-28.4-22.8-57.4-22.8-57.4l-50.8 9.4z" id="Path" fill="#473B3B"/><path d="M447.7 630.3l-4.7 5.9c2.9 5.1 8 14 13.5 23.8 0 0 30.8 12 41.8 30.5 6.2 10.5 12.9 32.5 17.8 49.5h18.3s-12.7-31.9-20.4-60.3c-6.4-23.6-17.8-47.4-21.6-54.9-.6-.8-1.2-1.6-1.7-2.3l-43 7.8zm-81.3-42.6s-26.7 38-44 57.3c-17.3 19.3-54 95-54 95h-42l91.3-201 48.7 48.7z" id="Path" fill="#473B3B"/><path d="M247.7 740h20.7s36.7-75.7 54-95c17.3-19.3 44-57.3 44-57.3l-31.1-31.1-16.1-3.7s4.5 32.7-10.5 69.4c-11.3 27.7-45.1 89.2-61 117.7z" id="Path" fill="#473B3B"/><path d="M432.2 281l-19.5 92.7-17.7 17.7-86.3 111.2h-38s-28.5 14.8-43.3 16.5c0 0-1 3.3 7.3 5 8.3 1.7 40.3-6.3 41-6.3.7 0 12.8 6 12.8 6l35.8-.8 10-14.5 90.8-95.8 11-18.8 3.8-5.3 4-13.8 20-63-31.7-30.8z" id="Path" fill="#59404D"/><g id="Group" transform="translate(230 302)" fill="#3F2B37"><path d="M196.5 6.3l-2.1 10c5.9 5.6 17.9 17.7 18.7 24.3 1 8.8-14 49.1-14 49.1l-83.5 104.9 79.4-83.8L206 92l3.8-5.3 4-13.8 20-63-4.1-4-29.3-5-3.9 5.4z" id="Path"/><path d="M57.7 213.7l-14-3L0 220.5c1.1.6 2.6 1.1 4.7 1.5 8.3 1.8 40.3-6.3 41-6.3.7 0 12.8 6 12.8 6l35.8-.8 10-14.5 11.4-12-58 19.3z" id="Path"/></g><path d="M487.7 175s-13.4 12-28.4 22.5c-15 10.5-27 16-28.5 28.5s-7.5 76.5-20 88c0 0 34.5 10 55.5 11 0 0 17 31 55.5 37.5 0 0 11.5 18.5 10 34s-5 14.5-5 14.5-104 12-135.5 13.5-43 6.5-60 17.5-70 52-70 52 65.4 80.2 109.5 115c80 63 164.5 37.6 164.5 37.6S514 607 506.7 576.5c0 0 95 1 125-9s66.5-54 75.5-75 4.8-49.2-12.5-76c-16.7-25.9-29.9-61.1-29.9-61.1s19.2-2.9 45.8-18.4c0 0-21.4-44-31.4-67.5s-15-47.5-37.5-62.5-49-31-74-35-61.4-12.3-80 3z" id="Path" fill="#EFEFEF"/><path d="M479.1 141.4s10.6 29.3 10.3 42.3c-.3 13-5 27.3 9 32.7 14 5.3 45.3 2.7 55.3-14s2.3-30-8.3-42c-10.6-12-36-56.7-36-56.7l-30.3 37.7" id="Path" fill="#473B3B"/><path d="M545.4 160.3c-10.7-12-36-56.7-36-56.7l-30.3 37.7s2.1 5.7 4.3 13.1c2.5-2.5 15.6-15 25.3-10.8 10.8 4.7 20 16.7 20 16.7L506.3 179s32.2-5.7 40.4 0c3.8 2.7 8.1 5.5 11.6 7.8 0-9.8-5.8-18.4-12.9-26.5z" id="Path" fill="#473B3B"/><path d="M435.2 47.5c-3.6 4.6-6.1 17.3-5.8 23.4.2 6.1 4.3 19.5 1 26.6-3.4 7.2-11.5 11-10.2 13.8 1.4 3 8.4 3.3 11.2 3.7 0 0-2 6.1-3.4 6.8 0 0 1.9 1.9 3.6 2.7l4.8 3s-5.5 1.7-5.6 3c-.2 1.4 1.4 4.2 2.7 4.5 1.3.3-2.9 18.4 3.7 24.8 6.6 6.5 46.6-11.7 59.4-22.2 12.8-10.5 26.8-37.9 20-61.4-6.9-23.5-53.1-65.1-81.4-28.7z" id="Path" fill="#473B3B"/><path d="M438.3 76.5s4.4-7.2 14.9-5.3c10.5 1.8 22.7 9 22.7 9s-18.5-7.8-24.8-6.7c-6.4 1.2-12.8 3-12.8 3z" id="Path" fill="#210C37"/><path d="M664.8 355.4l35.4-12.9 4.6 6.6 27.7 34.9 65.4 120.5s20.5 12.2 41.3 14.2c8.4.8 33.8-1.5 33.8-1.5l31.5 25.1s-7.1.1-11.5-1.2-4.5-1.3-4.5-1.3l6 7.1s-3.3.9-8.2-1.3c-3.8-1.7-13.5-8.3-13.5-8.3l-29 3.2s9.6 2.6 14.8 6.3c2.7 1.9 2.9 5.8 2.9 5.8s-10.9-2-19-2.3c-8.1-.3-36.9-4.9-44.7-11.1-11.5-9.1-17-23-17-23l-76.2-92.7-15.3-27.7-24.5-40.4z" id="Path" fill="#473B3B"/><path d="M418.974 36.397c-.066-.03-1.19.593-1.514 1.375-.325.781-.31 3.071.135 3.763.446.692 1.748 2.012 2.123 2.367 1.815 1.718 3.076 1.9 4.64 2.375 8.458 2.567 25.812 6.76 39.442 3.723l18.4-4.1s-5.1 22.7 3.8 27.5c15.9 8.5 25.3 28 20.3 37.9-5.9 11.7 29.7 45.29 44.112 26.789C564.824 119.589 573.786 87 573.786 87s-1.25-18.579-7.063-35.516C560.91 34.547 552.09 24.25 547.5 21.7c-9-5-45.7-21-57-21-10.31 0-43.795 18.186-60.253 39.015-.761.964-4.932 2.029-6.043 2.029-1.11 0-3.446-.649-4.065-1.339-.618-.69-1.112-1.336-1.289-1.95-.176-.615.202-2.021.124-2.058z" id="Path" fill="#151515"/><path d="M427.9 121.8s13.5 3 20.9 2.2c0 0-6.4 5.3-11.2 6.5-4.8 1.2-7.2.6-6.9 0 .3-.6.7-2.7 2.1-3.4-.1 0-4.3-.7-4.9-5.3z" id="Path" fill="#AD6385"/><path d="M484.9 159.6s5.3 5.6 19.3 1.7c14-4 29.3-17.4 29.3-17.4s6.2 0 7.7 2.2 12.8 12.8 3.8 17.8-32.5 15.3-42.3 15.8c-9.8.5-13.7-1.2-13.7-1.2s-10.1-9.3-4.1-18.9z" id="Path" fill="#E2E2E2"/><path d="M466.2 325s1.8-30.7-.2-53-20.3-48-20.3-48 0 23.3-2.3 42c-1.8 14.3-9.9 36.6-16.2 52.3 11.8 2.9 27.5 6.1 39 6.7zm198.6 30.4c-15.9-.1-22.6-1.9-22.6-1.9l-26.5-110s3.5 68.5-28 84c-9.7 4.8-24.8 8.2-39.3 5.2-14.5-3-26.7 4.9-40.2 6.9-13.5 2-32-1.7-32-1.7l13.9 11.8c8.2 5.6 18.7 10.5 31.6 12.7 0 0 2.6 4.1 5.1 10.1l31.4-7.6s56 17.5 69 33.5 43.6 32.5 37.6 69.5-35.1 65-35.1 65l16.5 19.9-83-41.4 49 48.5s-97.5 9.5-102.5 6-29-21-29-21l5.8 14.5c-6.2-2-46.1-16-46.1-16s-3.7 4.5-3.2 9.4 16.5 11.1 26.5 29.1 13.5 21 13 35.5c-.3 9.9-4.8 24.5-7.5 32.8 38.5 4.6 66-3.6 66-3.6S514 607 506.7 576.5c0 0 95 1 125-9s66.5-54 75.5-75 4.8-49.2-12.5-76c-16.7-25.9-29.9-61.1-29.9-61.1z" id="Path" fill="#D9D6D6"/><path d="M510.8 137.2c-7.9 0-14.3-6.4-14.3-14.3s6.4-14.3 14.3-14.3 14.3 6.4 14.3 14.3-6.4 14.3-14.3 14.3zm0-25.3c-6.1 0-11.1 5-11.1 11.1s5 11.1 11.1 11.1 11.1-5 11.1-11.1c0-6.2-5-11.1-11.1-11.1z" id="Shape" fill="#E2E2E2" fill-rule="nonzero"/><path d="M732.5 384.1l-27.7-34.9-4.6-6.6-35.4 12.9 7.7 12.7L705 384l6.8 4.3s17.2 10.6 20.6 14.3c3.3 3.7 60.5 92.7 60.5 92.8l-60.4-111.3z" id="Path" fill="#473B3B"/><path id="Rectangle-path" fill="#B3B3B3" fill-rule="nonzero" d="M.7 614h61v126H.7z"/><path id="Rectangle-path" fill="#8C8B8B" fill-rule="nonzero" transform="rotate(-180 67.396 677)" d="M36.396 614h62v126h-62z"/><ellipse id="Oval" fill="#210C37" cx="444" cy="87.7" rx="3.3" ry="4.3"/></g></g></g></svg>