<svg width="704" height="308" viewBox="0 0 704 308" version="1.1" xmlns="http://www.w3.org/2000/svg"><g id="Brand-Guideline" stroke="none" stroke-width="1" fill="none" fill-rule="evenodd"><g id="INTRODUCTION" transform="translate(-498 -147)"><g id="Group" transform="translate(498 147)"><g id="ff-icon-worldmap-pacific-black" fill="#17292E" fill-rule="nonzero"><path id="Shape" style="mix-blend-mode:multiply" d="M277.324 259.102L265 242.356l5.374-18.213 17.982-8.735 4.633-5.836 8.697-6.409 14.508.592-4.634 11.653 12.76 5.244L326.638 202l5.811 4.654 7.539 18.08L351 238.714l-6.817 25.919-14.64 4.367-14.508-9.612-13.918-5.684-23.793 5.398zM582 182.607L592.347 187l1.653-9.73-8.15-.27zM379.197 258.9l9.217 3.1 4.389-4.27 1.197-9.34-10.793-7.39-5.207 3.9 1.197 14zM356 291l11.108-2.062L385 266.856 373.644 262zm49-99.177L391.284 186 386 198.886l8.357 8.114L405 191.823zM410 52l-10 1.937.893 4.972 7.513.091L410 52zm47.754 68.18L435.636 118 424 127.992 458 145l-.246-24.82zm-144.041 71.34l4.899 6.552 6.123.329 7.611-1.836 9.816 2.435 7.838-3.885-14.413-4.948-2.92-7.209-18.653-3.962L300.242 176 298 188.621l15.713 2.9zm-29.469-31.047L290.89 164l3.11-.443-.889-14.572-6.645-8.384.444-10.601-9.91 11.063 1.932 11.816 5.312 7.594zm-18.912 6.064H258l.377 6.49 4.316 9.538 7.39.435L277 166.972 268.367 157l-3.035 9.537zM249.337 200L255 189.246 238.414 165 232 172.71zM290 198.444v-5.34L255.833 189 250 199l40-.556z"/><path id="Shape" style="mix-blend-mode:multiply" d="M296 177.664L266 169l4.014 14 22.786-.918zm-39.737-19.883V135.61l3.048-6.093 18.043-1.443 8.593-19.874-2.61-11.731 7.412-8.276 4.363 10.44 7.354 2.354.953-15.395 6.535-6.966 23.15-14.35 2.61-7.385-12.213-8.276 14.842-6.511 27.055-5.22-10.479 9.13-3.925 13.478 1.753 6.093 14.842-13.914 3.925-11.313h7.43L393.35 29.48l3.925-2.164 8.726 1.29v-3.91l-25.76-7.82-13.965 1.29-24.007-6.947-15.28 4.347-6.117-4.784-15.718.874L300.35 6l-33.61 1.31-99.094 8.694-20.386-1.31-21.969 12.186-20.52 9.13 3.487 7.821 9.622 3.057 11.775-8.277 16.595-8.257-9.165 16.534-16.157 5.22-10.479-.437-3.487-4.347-5.677 3.037-16.157 7.82-13.966-2.6-9.165 5.22 3.487 5.657-2.458 5.752-16.31-5.372-10.04 14.35 4.363 3.93 9.279 2.277 19.967-9.206 8.612-2.183-2.057 14.806 7.85 1.31 7.43-17.843 5.24 6.093-1.753 9.567 4.801 5.657 6.554-3.474 12.213-.873-1.295 11.294-8.746 3.493-5.24-1.746-14.403-3.91-6.554 5.656-7.85-2.62-5.24-3.037-20.958.873-10.48-3.056-31.418 22.19L0 141.266l4.363 10.44 10.041 16.098 28.808-1.31 9.184 1.727-2.191 9.567 11.355 20.88-1.753 20.881L88.615 260l15.72-2.6 7.868-23.937-2.191-7.384 9.164-16.534-4.363-24.354 22.273-23.48 2.172-6.967-17.014.873-9.184-21.317-7.85-22.607 3.925-5.657 13.547 16.95 7.85 16.971 13.528 3.474 16.157-14.787-11.775-10.004-6.993-10.44 7.85-10.858 13.966 17.388 17.033 14.787 9.165 30.884 9.603-1.31 5.677-14.35 11.794-16.952 8.288-1.31 10.48 13.478 10.478 25.664 10.48-7.84zM66.653 50l6.58-1.5L77 38l-6.58 1.207L64.455 44H56.63L56 49.689 66.653 50z"/><path id="Shape" style="mix-blend-mode:multiply" d="M137.959 242L144 219.353 140.508 206l-12.344 9.56L127 240.748zM344.054 87L348 78.53 336.393 75 335 83.707 344.054 87zm-12.179 0l-5.737 8.684-17.48 6.895-3.658 4.088 3.138 4.333 7.835-3.316 19.04-5.613L341 90.316zM432.29 44.342l-14.54 5.797v6.388l20.344-8.707 20.419-14.428 23.198 19.067 11.627 6.976 17.431 31.936 15.7 13.363 9.877 19.75 4.662 1.73 1.16-11.614 9.877 13.363 17.451 11.615 16.86 2.908L606.7 159.33l8.144 7.546-5.823 23.23 9.896 26.708 5.804 8.136-19.182 40.66-12.217 13.345-11.628 16.842L586.357 308l11.037-2.32.59-8.724 15.11-15.094 17.45-12.204 32.542-24.959 4.072-8.706 16.86-4.068L704 200.674l-3.387-14.942-25.31-6.653-4.644-11.614-19.772-15.683h-16.27l-2.912-6.387-18.611 8.706-21.504-22.659-12.217.59-9.306-6.388.59-15.682 22.094-2.32 5.804 12.775 8.145-3.479-6.984-14.523 6.394-8.725 1.18-15.664 6.965-1.749 4.662-6.976-7.574-7.547 9.306-5.798-14.54-9.295-26.147-5.817-13.968-2.32 1.751 14.524-10.466-6.976-15.681-6.083-5.1-13.212 3.35-5.094 30.314 1.577-12.693-12.679L529.381 6l-43.598 3.555-25.995 5.455-33.892-3.193L416 26.34l9.896 11.615 6.394 6.387zM568 6.175l4.96 7.4 19.229.44 16.615 9.195 16.616 10.076L650.333 46l6.105-1.759-6.105-6.137L663 28.468V23.65L635.893 9.196l-2.175-3.938L601.803 0l-27.966 7.495z"/><path id="Shape" style="mix-blend-mode:multiply" d="M613.711 135l9.289-8.453L605.736 124 600 127.82zm14.225-7L620 139l19.697-2.685L645 130.89 627.936 128z"/></g><circle id="Oval" stroke="#7FFFD4" stroke-width="5" cx="601" cy="109" r="19"/><circle id="Oval" stroke="#B91DFF" stroke-width="5" cx="601.5" cy="108.5" r="32.5"/><circle id="Oval" stroke="#C33C54" stroke-width="5" cx="601.5" cy="108.5" r="45.5"/></g></g></g></svg>