<svg viewBox="0 0 469 84" preserveAspectRatio="xMidYMin slice"><g id="Symbols" stroke="none" stroke-width="1" fill="none" fill-rule="evenodd"><g id="Miami-Rising-Minimal-Dark"><g id="Group-2"><path d="M20.888 84l-8.052-52.8-.466-3.543h-.7V84H0V0h15.404l7.468 38.4.583 4.457h.234l.583-4.457L31.741 0h15.403v84H35.475V27.657h-.7l-.467 3.543L26.256 84h-5.368zM61.53 0h13.507v84H61.53V0zm18.815 84L93.298 0h15.404l12.953 84h-12.253l-2.334-17.143H94.932L92.598 84H80.345zM101.7 27.314l-.35-2.171h-.7l-.35 2.171-3.618 26.515h8.636L101.7 27.314zM151.092 84l-8.052-52.8-.467-3.543h-.7V84h-11.67V0h15.404l7.468 38.4.584 4.457h.233l.584-4.457L161.944 0h15.404v84h-11.67V27.657h-.7l-.467 3.543L156.46 84h-5.367zm38.305-84H202v84h-12.603V0z" id="MIAMI" fill="#FFF" opacity=".974" style="mix-blend-mode:hard-light"/><path d="M268.007 83.061h-13.43c-.718-2.111-1.198-3.402-1.198-10.089V60.067c0-7.626-2.638-10.441-8.633-10.441h-4.557V83.06H227V.94h19.904c13.67 0 19.544 6.217 19.544 18.888v6.452c0 8.447-2.757 13.844-8.633 16.542v.235c6.595 2.698 8.753 8.799 8.753 17.363v12.67c0 3.99.12 6.922 1.44 9.972zm-21.463-70.39h-6.355v25.223h5.156c4.916 0 7.914-2.112 7.914-8.682v-8.095c0-5.866-2.038-8.447-6.715-8.447zm31.446 70.39V.94h13.19v82.12h-13.19zm23.892-62.413C301.882 7.508 308.476 0 321.306 0c12.83 0 19.424 7.508 19.424 20.648v2.581h-12.47v-3.402c0-5.866-2.398-8.095-6.594-8.095-4.197 0-6.595 2.229-6.595 8.095 0 5.983 2.638 10.441 11.271 17.832 11.031 9.503 14.508 16.307 14.508 25.693 0 13.14-6.714 20.648-19.664 20.648-12.95 0-19.664-7.508-19.664-20.648v-5.045h12.47v5.866c0 5.866 2.638 7.978 6.834 7.978 4.197 0 6.835-2.112 6.835-7.978 0-5.983-2.638-10.441-11.271-17.832-11.031-9.503-14.508-16.307-14.508-25.693zm49.31 62.413V.94h13.19v82.12h-13.19zm53.749 0l-16.188-59.48h-.24v59.48h-11.87V.94h16.547l13.31 49.156h.24V.939h11.75V83.06h-13.55zm45.594-34.022V37.307H469v26.045C469 76.492 462.285 84 449.336 84c-12.95 0-19.665-7.508-19.665-20.648V20.648C429.671 7.508 436.386 0 449.336 0S469 7.508 469 20.648v7.978h-12.47v-8.8c0-5.865-2.638-8.094-6.835-8.094-4.196 0-6.834 2.229-6.834 8.095v44.346c0 5.866 2.638 7.978 6.834 7.978 4.197 0 6.835-2.112 6.835-7.978V49.04h-5.995z" id="RISING" fill="#fff" style="mix-blend-mode:luminosity"/></g></g></g></svg>