<svg width="1435" height="567" viewBox="0 0 1435 567" version="1.1" xmlns="http://www.w3.org/2000/svg"><defs><linearGradient x1=".258%" y1="49.75%" x2="96.411%" y2="118.17%" id="linearGradient-1"><stop stop-color="#3023AE" offset="0%"/><stop stop-color="#53A0FD" offset="76.572%"/><stop stop-color="#EC51CD" offset="100%"/></linearGradient></defs><g id="Page-1" stroke="none" stroke-width="1" fill="none" fill-rule="evenodd" opacity=".046"><g id="T_31"><g id="Group"><path d="M16.3 83.8c39.3-37.2 90.1-59.9 144.4-62.1 51.4-2 99.7 17.2 143.7 42.1 43.8 24.8 84.4 54.9 128.7 78.8 21.5 11.6 44 21.6 67.6 28.5 28.1 8.2 57.5 11.2 86.7 9.6 26.4-1.5 52.5-7.1 77.1-16.7 1.4-.5.8-2.8-.6-2.2-56.5 20.6-118.1 21.8-175.2 2.4-47.9-16.3-90.4-45.1-132.7-72.3-41.2-26.5-83.7-52.8-131.4-65.7C175.2 12.9 123 17.8 76.6 39 53.7 49.5 32.5 64.2 15.3 82.6c-.9.8.2 1.9 1 1.2z" id="Path" fill="url(#linearGradient-1)"/><path d="M657.9 175.4c-50.7 27.5-111 24.6-164.6 7.7-57.9-18.2-109-52.9-161.2-82.8-50.9-29.1-106-55-165.5-57.9-53.8-2.6-107.1 17.6-146 54.8-2 1.9-3.7 3.9-5.5 5.9-.7.8.4 1.8 1.1 1.1C36.4 84.5 59 68.6 85.2 58c26.4-10.6 54.8-14.9 83.2-13.5 61.4 3 118.3 31.8 170.6 62 51.2 29.6 101.6 62.6 158.7 79.8 50.5 15.2 108.9 17.8 156.4-8 1.4-.8 2.9-1.6 4.3-2.4.3-.1-.1-.7-.5-.5z" id="Path" fill="url(#linearGradient-1)"/><path d="M649.7 186.7c-50.6 28.2-111.6 25.3-165.5 8.9-58.4-17.7-110.4-51-164.4-78.4C267.2 90.5 209.5 68.3 149.5 72 98.4 75.1 49.3 99.1 14.4 136.3c-2.9 3.1-5.6 6.3-8.2 9.5-.7.9.5 2.1 1.2 1.2 35-41.3 84.5-68.2 138.7-72.9C207.9 68.8 268 93 322 120.5c53.1 27.1 104.3 59.2 161.6 76.9 51 15.7 108.9 18.9 158-4.8 3-1.4 5.9-3 8.8-4.7.8-.4.1-1.7-.7-1.2z" id="Path" fill="url(#linearGradient-1)"/><path d="M635.8 202.1c-50 28-110.3 33.6-165.5 19.3-57.1-14.7-105.1-51.3-157.5-76.7-52.9-25.6-112.7-39.5-171.5-31.9-50.1 6.5-100 29.9-132.8 68.9-1.3 1.6-2.6 3.3-3.9 4.9-.7.9.5 2.2 1.3 1.3 34.8-41.6 85.1-66.6 138.6-73.1 61-7.5 122.4 9.2 176.6 36.6 51.1 25.9 98.5 60.5 155.1 73.8 52.7 12.3 109.9 6 157.3-20.4 1-.5 1.9-1.1 2.9-1.7.7-.4.1-1.4-.6-1z" id="Path" fill="url(#linearGradient-1)"/><path d="M588.9 234c-29.2 8.3-58.5 13-88.9 11.6-30.8-1.4-60.9-9.1-89-21.7-28-12.6-54.1-29-82.2-41.5-27.1-12.1-55.5-21.4-84.6-27.2-85.9-17.1-184 3-241 73.9-.8 1 .6 2.5 1.5 1.5 33.9-41.5 83.6-66.6 136-75.6 59.3-10.1 120.4 2.1 175.5 24.6 45.7 18.6 86.3 48.3 134.5 60.7 44.5 11.5 95.2 11 138.4-5.6.4-.2.2-.9-.2-.7z" id="Path" fill="url(#linearGradient-1)"/><path d="M458.9 259.1c-29.3-2.5-55.7-12.3-81.9-25.3-24.7-12.2-48.6-25.9-74.5-35.6-49.1-18.3-103.3-23-154.9-13.8-27.7 5-54.6 14.4-79.4 27.8-23.6 12.8-49 30.1-59.3 56-.3.8 1.1 1.4 1.4.6 11.9-25.1 35.3-41.6 59-54.6 23.6-13 49.3-21.8 75.7-27 53.2-10.4 109.2-4.9 159.8 14.3 26.7 10.1 51.4 24.9 77.1 37.1 23.8 11.3 50.1 21.7 76.9 21.3.7.1.7-.7.1-.8z" id="Path" fill="url(#linearGradient-1)"/><path d="M419.4 269.9c-31.2-1.1-58.7-13.8-86.7-26.3-27.4-12.2-55.9-21.6-85.5-26.8-55.1-9.7-112.9-3.5-162.6 23-27.3 14.5-55.2 36.5-69.6 64.4-.5.9.8 1.6 1.3.8 31.3-48.4 84.2-77.5 140.2-87 61.7-10.5 123.7 4.6 180 29.6 25.9 11.5 53.8 25.1 82.9 23.1.5 0 .5-.8 0-.8z" id="Path" fill="url(#linearGradient-1)"/><path d="M383.7 282.9c-29.9-1.5-56.7-13.9-83.8-25.2-27.6-11.6-56.1-18.8-86.1-19.6-53-1.4-108.1 17.2-147.8 52.7-6.7 6-13.1 12.5-18.5 19.7-.6.8.7 1.7 1.3 1 9-9.5 18-18.8 28.2-27 10.2-8.1 21.4-15 33-20.8 25.9-13 54.8-20.7 83.6-22.9 30.9-2.3 62 2.6 91 13.3 27.1 10 52.9 24.1 81.7 28.7 5.7.9 11.5 1.1 17.3.9.6-.1.6-.8.1-.8z" id="Path" fill="url(#linearGradient-1)"/><path d="M359.9 298.2c-14.6-.1-29.2-.1-43.5-3.3-13.3-3-25.9-8.6-38.4-13.7-22.2-9-44.7-14.8-68.7-15.6-45.1-1.4-90.6 14.8-124.6 44.4-1.2 1 .5 2.8 1.7 1.7 35-30.5 81.3-45.5 127.5-43.5 24.1 1.1 46.2 8.2 68.4 17.1 12.1 4.8 24.2 9.5 37 12.2 13.4 2.7 27.1 2.2 40.6 1.4.4 0 .4-.7 0-.7z" id="Path" fill="url(#linearGradient-1)"/><path d="M334.9 313.4c-37.6 4.4-70.7-18.6-106.7-24.9-32.4-5.7-70.1 3.3-95.1 25.2-.8.7.3 2.1 1.1 1.4 14.1-10.4 28.7-18.3 45.8-22.7 17.7-4.6 36.4-4.7 54.2-.8 33.6 7.3 65.3 28.3 100.9 22.9.6 0 .4-1.2-.2-1.1z" id="Path" fill="url(#linearGradient-1)"/><path d="M322.2 325.8c-10 .5-20 .9-30 .2-10.5-.7-20.2-3.5-30-7-16.9-6.1-37.6-9.3-54.8-2.2-.8.3-.5 1.5.4 1.3 9.5-1.9 18.4-3.7 28.1-3.3 10.2.4 19.7 3.5 29.3 7 18.7 6.7 37.5 6.6 57 4.8.5-.1.5-.8 0-.8zM264.7 337c-15.3-2.5-30.6-4.8-45.8-8.1-.8-.2-1.4 1-.6 1.4 5.9 3.3 13.5 3.4 20.1 4.3 8.7 1.2 17.5 2.1 26.2 3.1.4 0 .4-.7.1-.7zm-42.6 10.6c-1.9-.8-3.9-1.5-5.9-2.2-2-.7-4.1-1.6-6.2-1.5-.6 0-.7.7-.3 1 1.5 1.1 3.4 1.4 5.2 1.9 2.3.7 4.6 1.2 6.9 1.7.7.3 1-.6.3-.9zm451.1-178.3c-8 9.9-15.2 20.3-23.7 29.9-8.5 9.5-17.8 18.3-27.6 26.5-10.1 8.5-20.9 16.1-32.2 23-10.9 6.7-22.6 11.7-33.9 17.6-.7.4-.2 1.5.5 1.3 12-4 23.5-10.7 34.3-17.3 11-6.6 21.4-14.2 31.3-22.3 10.2-8.5 19.8-17.8 28.6-27.6 8.3-9.3 17.1-19.6 23-30.7.2-.4-.1-.7-.3-.4zM199.3 311.6c-6.9 4.2-13.3 8.5-20.8 11.6-7.5 3.1-15.4 5.1-23.3 6.6-17.9 3.2-36.2 2.2-54.1-.4-18.3-2.7-36.3-7.1-54.3-11-13.8-3-33.1-9.1-46-.3-.6.4-.2 1.7.6 1.3 17.5-7.3 36.6-.9 54.2 3 18.1 4 36.2 8.1 54.7 10 16.1 1.7 32.5 1.4 48.4-1.8 14.1-2.8 30.3-8.5 40.9-18.6.3-.1 0-.5-.3-.4z" id="Path" fill="url(#linearGradient-1)"/><path d="M199.8 317.4c-14.4 32.8-50.1 46.8-83.9 47.7-22 .6-43.8-3.8-65.2-8-13.2-2.6-33.6-9.3-44.8 1.7-.7.7.2 2 1.1 1.4 8.2-5.8 17.2-5.6 26.8-4.1 10.6 1.7 21.1 4 31.7 5.9 20.9 3.7 42.2 6.3 63.4 3.9 29.2-3.4 60.6-19.4 71.9-48 .2-.6-.7-1-1-.5z" id="Path" fill="url(#linearGradient-1)"/><path d="M189.1 347.5c-17.1 29.7-50.9 42.9-82.4 51.5-18.6 5.1-37.8 8.2-57 9.3-12.4.8-33.9-.5-37.1 15.7-.2.9 1 1.2 1.4.4 3.8-9.7 13.1-12.7 22.8-13.6 9.3-.9 18.6-1.1 27.9-2.1 18.1-2.1 35.9-6 53.2-11.5 27.5-8.6 58.3-22.2 71.9-49.4.2-.3-.4-.7-.7-.3z" id="Path" fill="url(#linearGradient-1)"/><path d="M99.3 382.6c-15.3 1.4-30.7 1.5-46-.2-12.5-1.3-26.8-3.9-36.8 5.5-.4.4.1 1 .6.7 12.1-8.4 26.5-5.3 40.1-4.1 14.1 1.3 28.2.8 42.3-1.3.4.1.3-.6-.2-.6zm48.3 11.1c-17.6 17.6-38.3 31.6-60.9 42-11.2 5.1-23 9.1-35 12.2-5.8 1.5-11.6 2.6-17.5 3.6-6.3 1-13 .9-19.2 2.4-.5.1-.3.8.1.8 5.3.5 11-.6 16.3-1.4 6.4-.9 12.8-2.2 19.1-3.7 12.1-2.9 24-7.1 35.4-12.1 23.3-10.2 44.5-25.1 62.4-43.1.4-.4-.3-1.1-.7-.7zm205.6-69.1c35.7-37.7 87.7-55.2 138.9-53.4 29.6 1 56.9 10.8 85.2 18.2 25.3 6.6 52.8 9.6 77.4-1.2 3.9-1.7 7.5-3.9 10.9-6.4 1-.7.1-2.4-1-1.7-24.9 16.7-55.1 15-83.1 8.3-27.9-6.7-54.5-16.7-83.4-18.8-48.2-3.4-99 10.9-135.2 43.7-3.7 3.3-7.2 6.9-10.5 10.6-.4.5.4 1.2.8.7z" id="Path" fill="url(#linearGradient-1)"/><path d="M675.3 295.8c-45.6 36.4-103.9 15.5-155.4 8.2-25.8-3.7-52.6-4.1-78.5-.3-20.2 3-42.7 10.2-55.6 27.1-.6.8.7 1.7 1.3 1 16.5-17.6 38.6-24.4 62-27 28.4-3.2 57.3-1.2 85.4 3.6 26.3 4.5 52.5 10.9 79.4 9.9 21.9-.8 45.5-6.8 61.9-22 .4-.3-.2-.8-.5-.5z" id="Path" fill="url(#linearGradient-1)"/><path d="M673.6 310.3c-18.9 13.3-38.7 23.4-61.5 28.2-24.3 5.1-48.7 2.2-73-2-23.1-4-46.3-9.1-69.9-8.7-17.6.3-43 3.4-53.3 19.9-.4.6.5 1.2 1 .8 8-7.4 16.4-12.3 26.9-15.1 11.7-3.1 24-3.7 36.1-3.2 24.7.9 48.8 7.1 73.1 10.4 21.6 3 43.1 3.2 64.3-1.8 20.3-4.8 40.9-14.1 56.7-27.9.3-.3-.1-.8-.4-.6z" id="Path" fill="url(#linearGradient-1)"/><path d="M672 321.6c-13.5 36.5-54 48-89.3 46.5-18.8-.8-36.9-5.4-55.5-7.9-16.8-2.2-34.3-2.7-49.8 5.2-1 .5-.1 2 .9 1.5 18.7-9 39.2-6.8 59-3.4 19.5 3.3 38.7 7 58.6 6.4 31.5-1 66-16.2 76.9-48 .1-.5-.6-.7-.8-.3z" id="Path" fill="url(#linearGradient-1)"/><path d="M664.7 350.2c-12.2 14.5-26.6 25.4-45 30.6-9.5 2.7-19.6 2.3-28.9 5.9-5.7 2.2-12.3 7.5-12.5 14.1 0 .4.6.6.8.2 2.1-4.5 4.2-7.9 8.4-10.7 4.1-2.8 9.2-3.9 14-4.7 9.4-1.6 18.4-2.7 27.4-6.2 14.3-5.6 28-15.7 36.3-28.7.1-.4-.3-.8-.5-.5z" id="Path" fill="url(#linearGradient-1)"/><path d="M10.6 482.8c96.6-26.8 164.6-113.3 263.3-135.2C336 333.9 399 353 457.4 373.1c57.2 19.7 115.1 41.2 176.7 38.8 46.8-1.8 95-16.5 133.7-43.3.9-.6.1-2-.9-1.5-25.1 15.5-51.5 27.7-80.2 35-28.6 7.3-58.3 9.4-87.7 6.8-62.7-5.6-120.8-32.6-180.4-50.6-29.5-8.9-59.8-15.7-90.6-17.1-27.3-1.2-54.2 2.8-80 11.7-46.7 16-87.3 45.6-128 72.5-34.4 22.7-70 44.4-109.5 56.7-.5.2-.3.9.1.7z" id="Path" fill="url(#linearGradient-1)"/><path d="M772 378.4c-40.5 38.7-93 62.5-149.3 64.3-56.4 1.8-110.1-19.3-162.3-38-48.5-17.4-98.1-33.6-150.2-31.8-52.5 1.9-105.5 20.8-148.1 51.4-.6.5-.1 1.5.6 1.1 49.1-32.4 105.3-52.2 164.6-50.3 56.6 1.8 109.8 24.2 162.6 42.6 48.3 16.9 98.8 31.4 150.5 25.5 49.1-5.5 97.7-28.5 131.8-64.5.2-.3 0-.5-.2-.3z" id="Path" fill="url(#linearGradient-1)"/><path d="M771.4 391.1c-14.2 22.9-36.8 37.9-61 48.7-27.4 12.2-57.1 20.3-86.7 25.1-31.7 5.1-63.9 4.8-95.3-1.7-29.1-6-57.1-16.6-85-26.7-28.1-10.1-56.4-19.8-86-24.4-29.2-4.6-59-4.2-88.2.6-56.2 9.2-103.9 39.1-154.6 62.8-29.5 13.8-60.4 24.5-93.3 25.8-1 0-1 1.6 0 1.6 53.9-1.1 101.9-29.5 148.8-53 25.7-12.9 52-24.5 80-31.3 30.2-7.4 61.7-9.4 92.6-6.4 60.6 5.8 114.8 35.3 173.2 50 59.5 15 120.7 6.8 177.8-14.1 30.5-11.1 61.5-27.7 78.6-56.5.2-.5-.6-1-.9-.5z" id="Path" fill="url(#linearGradient-1)"/><path d="M772.6 406.5c-31.8 41.3-76.2 70.2-126.3 83.9-24.7 6.7-50.4 9.4-76 8.1-30.2-1.6-59.7-9.8-88.2-19.3-35.3-11.8-69.7-26.1-105.9-35-34.5-8.6-73.6-13.4-108.1-2.3-.8.3-.5 1.4.3 1.2 15.6-3.4 31.1-5.5 47-5.4 16 .1 31.9 2.3 47.5 5.5 30.5 6.2 59.7 17 88.9 27.5 29 10.4 58.2 20.6 88.7 26 24.8 4.5 50.3 5.1 75.2 1.6 61.4-8.6 121.1-40.4 157.8-91.2.3-.6-.5-1.1-.9-.6z" id="Path" fill="url(#linearGradient-1)"/><path d="M768 429.4c-62.8 80.1-170 121.1-270.2 101.1-56.2-11.2-106.9-39.6-161.4-56.3-27.1-8.3-55-13-83.3-12-29.8 1.1-59.1 8.5-86.8 19-24.8 9.4-47.9 22.3-71.6 33.9-24.9 12.2-52 22.3-80.1 17.5-1.1-.2-1.5 1.4-.4 1.6 27.4 5 53.8-4.4 78.3-16 27.7-13.1 54-28 83-38.2 29-10.2 59.5-16.3 90.4-15.9 29 .4 57.4 7.5 84.7 16.7 53.3 18.1 103.9 45.3 160.1 53.7 48.4 7.3 98.5.1 143.7-18.1 44.8-18 85.3-47.8 114.5-86.4.2-.5-.6-1.1-.9-.6z" id="Path" fill="url(#linearGradient-1)"/><path d="M763.3 449.4c-7 13.6-13.6 27.2-24.3 38.4-10.8 11.4-24.4 20.5-37.4 29.1-12 8-24.7 15.1-37.9 21-14.3 6.4-29 10-44.1 13.4-.4.1-.3.7.1.7 29.5-2.1 58.4-17.9 82.7-33.9 12.8-8.4 25.5-17.4 36.4-28.2 11.4-11.3 18.7-25.8 25.1-40.3.1-.2-.4-.5-.6-.2zm-25.9 58c-5.8 11.2-15.9 19.6-25.3 27.7-11.3 9.8-25.6 15.5-36.9 25.2-.4.3.1.8.5.6 7.2-3.3 13.8-8.3 20.5-12.5 6-3.8 11.7-7.5 17-12.2 9.4-8.3 19.5-16.9 25.2-28.2.3-.7-.6-1.3-1-.6zM492.6 554c-60-12.1-116-38.1-175.9-50.5-55.5-11.4-113.3-7.9-167.2 9.2-23.8 7.5-47.6 17.6-68.6 31.4-.7.5-.1 1.5.7 1.1 25.7-14 51.7-26 80-34 27.9-7.9 56.9-11.9 86-12.3 29.9-.4 59.4 3.8 88.3 11 29.6 7.4 58.4 17.7 87.5 26.9 22.7 7.2 45.6 13.8 69 18.2.6.1.9-.9.2-1z" id="Path" fill="url(#linearGradient-1)"/><path d="M414.2 554.3c-82-29-186.7-50.8-263.8 2.5-.8.6-.1 1.9.8 1.3 36.6-23.9 79.9-32.8 123.2-31.7 48.2 1.3 93.7 15.9 139.6 28.9.6.2.9-.8.2-1zM317.6 45.4c19-13.5 41-22.4 63.2-29.1C406.7 8.5 433.5 4 460.4 2.4c27.4-1.6 55.4-.1 81.8 7.8 28.4 8.4 54.5 23.5 79 39.8 44.7 29.8 86.4 64 139.1 78.7 49.8 13.9 104.7 11.6 153.4-5.6 1-.3.6-1.9-.4-1.6-56.6 18.3-117.9 19.4-173.9-1.7C683 98.5 639.1 54.7 586.3 26.6c-22.6-12-46.9-21-72.3-24.3-24.1-3.2-48.7-2.6-72.8.1-42.7 4.8-88.8 16.4-124 42.1-.6.4-.1 1.3.4.9zm323.8 181.4c9 11.5 22.3 24.4 38.2 22.3.4-.1.5-.7 0-.7-16.7.3-26.8-11.2-37.7-22.1-.3-.3-.7.2-.5.5zm17.8-14.6c9.1 9 19.5 16.1 31 21.8 10.9 5.3 25.1 11.4 37.4 8.5.5-.1.4-1-.1-.9-13 1.6-26.5-3.9-38-9.4-10.9-5.2-20.9-12.2-29.9-20.1-.3-.3-.5-.1-.4.1z" id="Path" fill="url(#linearGradient-1)"/><path d="M904.7 129.9c-42 34-101.8 32.2-151.9 21.2-19-4.2-36.7-13.4-53.4-23-19.5-11.3-38.2-24-57-36.4-38.1-25.2-77.8-51.2-122.8-62.1-23.4-5.7-46.4-4.6-70.1-1.5-28.7 3.8-56.9 10.6-83.8 21.2-11.4 4.5-22.5 9.7-33.2 15.6-1.3.7-.1 2.6 1.1 1.9 26.9-14.2 55.3-24.6 85-31 25.8-5.6 53.5-10.2 80-7.5 46.5 4.7 88.7 30.5 127.1 55.4 35.8 23.1 70.8 50.4 111.2 65.1 21 7.7 44.6 9.9 66.8 10.9 24.6 1 50.3-1.4 73.2-11.2 10.4-4.5 20-10.3 28.6-17.6.5-.7-.2-1.5-.8-1z" id="Path" fill="url(#linearGradient-1)"/><path d="M896.8 148c-21.9 17.9-47.6 29.8-75.7 34-29.9 4.5-59.6-2.1-87.3-13.4-28.5-11.6-55.3-27.6-82.2-42.6-26.4-14.7-52.9-29.3-80.6-41.6-62.8-27.9-146.1-45.2-206.1-.9-1 .8-.1 2.5 1 1.8 45.5-31 102.6-31.2 154.2-17.1 58 15.8 109.9 49 162.2 77.5 35.6 19.4 73.4 38.5 114.8 39.5 36.1.9 73.5-12.2 100.3-36.5.4-.5-.2-1-.6-.7z" id="Path" fill="url(#linearGradient-1)"/><path d="M874.9 175.5c-24.8 15-52.1 23.7-81.2 23.3-31-.4-59.2-13.2-86.3-27.2-54.8-28.3-110-56.8-170.4-71-44.1-10.3-92.1-13.3-136.1-.8-1.3.4-.7 2.2.5 1.9 30.8-7.3 61.7-9.2 93.2-6 31.4 3.2 62.1 11.4 91.7 22.1 29.9 10.8 58.6 24.4 87 38.7 26.7 13.5 52.9 29 81.6 38 39.6 12.3 86.6 6.6 120.3-18.4.3-.3 0-.8-.3-.6z" id="Path" fill="url(#linearGradient-1)"/><path d="M858.7 192.8c-27.7 15.8-57.8 23.3-89.8 19.6-16.5-1.9-32-7.8-47.2-14.4-7.2-3.1-14.3-6.4-21.6-9.4-7.1-2.9-14.6-6.3-22.2-7.3-1-.1-1 1.3-.2 1.6 7.7 3.1 15.8 5.3 23.5 8.4 7.7 3.2 15.3 6.7 23 9.9 15 6.3 30.1 11.2 46.4 13.1 30 3.4 63.5-3.7 88.5-21 .4-.2.1-.8-.4-.5z" id="Path" fill="url(#linearGradient-1)"/><path d="M915.8 129.8c-7 10.3-13.1 21.1-20.3 31.4-7.4 10.6-15.4 20.7-24.4 30.1-8.4 8.8-17.6 16.6-27.7 23.4-10.3 7-21.3 11.1-32.4 16.2-.7.3-.2 1.4.5 1.2 11.1-2.3 22.1-8.9 31.4-15 10.3-6.7 19.6-14.8 28.1-23.6 17.8-18.3 33.6-40.7 45.1-63.5.3-.2-.1-.5-.3-.2zm-108.1 93c-24.8 7.1-50 8-74.6-.1-22.6-7.3-42-22.4-64.9-28.6-1.1-.3-1.5 1.3-.4 1.6 23.5 8.3 44.4 22.6 68.3 29.7 23 6.9 49.4 6.7 72-1.8.4-.1.2-.9-.4-.8zm-168.6-62.7c-14.3-10.5-31.2-16.9-47.6-23.2-18.1-6.9-36.6-12.8-55.6-16.9-17.6-3.8-35.6-5.8-53.6-5.5-17.1.3-36.9 2.4-52.5 9.9-.9.4-.3 1.8.7 1.6 8.3-2.1 16.3-4.9 24.8-6.5 8.9-1.7 18-2.5 27-2.8 18.4-.6 36.9 1.9 54.9 5.8 17.7 3.9 35 9.5 52.1 15.5 17.2 6.1 33.9 13.2 49.5 22.7.4.5.8-.2.3-.6z" id="Path" fill="url(#linearGradient-1)"/><path d="M608.3 162.6c-22.2-10.8-46-18.6-70.5-22.3-22.8-3.4-48.4-2.9-70 5.7-1 .4-.6 2 .5 1.6 11.6-3.3 23-5.9 35-6.8 11.9-.9 24-.1 35.8 1.6 23.9 3.4 46.6 11.9 68.9 20.8.4.4.8-.4.3-.6zm-36.5 2c-16.1-4.1-34.6-5.2-50.9-1.3-.8.2-.6 1.5.2 1.4 8.2-.8 16.1-1.8 24.4-1.8 8.8 0 17.4 1.2 26 2.6.6.1.9-.7.3-.9zm47.5 80.5c7.5 8.6 19.1 13 30.4 10.6.3-.1.3-.6-.1-.6-11.2 1.1-21.8-2.4-29.6-10.7-.4-.4-1.1.2-.7.7zm-11.1 14.2c6.4 6 14.8 10.9 23.5 12.4.5.1.7-.6.2-.8-8.5-3.2-15.8-6.7-22.8-12.5-.6-.6-1.6.3-.9.9zm72.3 9.3c58.9-20.6 122-30.8 183.7-17.2 56.8 12.5 107.3 43.3 162.6 60.4 74.9 23.2 161.8 12.2 225.2-35.5.6-.5 0-1.5-.6-1.1-47 31.7-101.4 48.8-158.3 46.7-58.7-2.2-111.1-29-164.4-50.8-38.8-15.9-78.3-26.9-120.5-27.4-43.6-.5-87.4 8.8-127.9 24.4-.2.2-.1.6.2.5z" id="Path" fill="url(#linearGradient-1)"/><path d="M1259.1 288c-33.5 45.7-96.5 57.1-149.6 59-31.3 1.1-62.7-2.2-93.1-9.5-31-7.4-60-20.4-89.8-31.2-41-14.8-84.4-26.9-128.1-29.8-19.1-1.2-38.3-.9-57.4 1.3-16.4 1.9-33.5 5.3-48.1 13.3-.6.3-.1 1.1.5.9 21.1-10 45.1-13 68.2-14 23.4-1.1 47.2.2 70.2 4.4 30.7 5.6 61.1 14.2 90.5 24.5 30 10.5 58.9 23.7 89.8 31.5 47.3 12 97.1 13.6 145.1 5.1 38.4-6.8 78.9-22.1 102.2-55.1.3-.4-.2-.7-.4-.4z" id="Path" fill="url(#linearGradient-1)"/><path d="M1261.6 306.5c-35.3 41.3-89 63.1-142.1 68.3-62.8 6.2-125.6-10.3-184.3-31.1-44-15.6-87.6-33.3-134.6-37.6-20.1-1.8-40.5-1.7-60.6.6-17.5 2-35.3 5.8-50.9 14.3-.9.5-.1 1.9.8 1.4 21.1-11.1 45.9-14.3 69.4-15.3 24-1.1 48.3.6 71.8 5.4 30.6 6.2 60 17.3 89.3 28 29.6 10.8 59.4 20.7 90.2 27.6 47 10.6 96.1 13.8 143.3 2.6 41.6-9.9 80.2-31.1 107.7-64.1.3-.1.1-.2 0-.1z" id="Path" fill="url(#linearGradient-1)"/><path d="M1259.1 327.7c-35.8 41.1-87.2 63.6-140.8 69.6-62.6 7.1-125.6-8.4-184.6-28.3-45.5-15.3-90.7-33.9-138.9-37.9-39.9-3.3-82.7 4.2-114.3 30.1-.8.6.3 1.6 1.1 1.1 46.1-36.4 108.3-34.5 162.3-20.6 30.4 7.8 59.7 19.1 89.3 29.1 29.9 10.1 60.4 18.7 91.6 24.1 81.6 14.2 179.5 2 234.4-67 .2-.1 0-.3-.1-.2z" id="Path" fill="url(#linearGradient-1)"/><path d="M1254.9 351.7c-19.8 19-41.5 34.6-66.6 46-25.3 11.5-52.7 18.4-80.3 21.6-63.1 7.4-126.7-5.8-187-23.7-22.7-6.7-44.9-14.9-67.8-20.9-21.1-5.6-43.9-9.5-65.7-6.1-.7.1-.5 1.3.2 1.2 15.9-1.1 31.3-.4 47 2.5 15.2 2.8 30.1 7.3 44.9 12 30.1 9.6 60.1 19.2 91 26.2 57.6 13.1 118 17.9 175.7 3.3 40.2-10.2 81.1-30.2 108.8-61.8.3-.2 0-.5-.2-.3zm-300.5 79.9c-29.1-1.9-55.7-11.8-82.7-22-13.2-5-26.5-9.9-40.2-13.5-12.7-3.4-26.7-6.3-39.9-5.2a.7.7 0 0 0 0 1.4c14.6.9 28.4 2.4 42.6 6.3 13.6 3.7 26.9 8.8 40.1 13.8 25.5 9.6 52.4 20.2 80.1 19.8.3-.1.3-.6 0-.6zm-41.5 8.9c-21.7.7-42.7 0-63.9-5-19.6-4.6-38.5-13-58.7-15-.9-.1-1.1 1.4-.2 1.6 20.6 3.4 40 10.7 60.3 15.3 20.2 4.6 42 6.4 62.5 3.5.2-.1.2-.4 0-.4zm-38.6 15.7c-15.9.9-32 .1-47.8-2.3-7.9-1.2-15.8-2.9-23.5-4.9-7.8-2-15.2-5-22.9-7.2-.6-.2-1 .7-.4 1 14.2 6.9 31 10.2 46.5 12.5 16 2.4 32.1 2.7 48.2 1.5.3.1.3-.6-.1-.6zm-24.7 15.7c-12.9-.1-25.8.2-38.8.3-6 .1-12-.1-17.9-.5-7.2-.6-13.6-2.7-20.6-4.3-.7-.2-1.2.8-.5 1.2 10.3 5.6 24 5.5 35.4 5.4 14.1-.1 28.3-.8 42.4-1.6.3-.1.3-.5 0-.5zm-32.5 17.4c-9.9.4-19.7.9-29.6.8-11.2-.1-21.6-2.5-32.5-4.1-.6-.1-1 .7-.4 1 8.9 3.8 19.7 4.2 29.3 4.6 11.1.4 22.2-.5 33.3-1.4.4-.1.4-.9-.1-.9zm-21.4 16.8c-7-.6-13.8.4-20.8 1.1-7.1.7-13.5-.2-20.4-2.1-.5-.1-.9.6-.4.9 12 7.2 28.7.7 41.6.7.4.1.4-.5 0-.6zm-18.3 20.3c-11.9 1.9-24 1.6-35.9 3.2-.5.1-.3.8.1.9 11.7 1.4 24.6-1.1 36.1-3.2.6-.1.3-1-.3-.9zm-18.5 18.4c-12.6 1.6-24.7 1-37.3.9-.4 0-.5.7-.1.8 12.1 2.4 25.4 1.3 37.5-.7.5-.1.4-1.1-.1-1zm493.7-172.5c-13.8 14-28.3 26.3-45.5 36.1-17.1 9.7-35.3 15.7-54.4 20.2-.8.2-.4 1.3.3 1.2 37.4-6.3 75.7-27.9 100.2-56.8.4-.5-.1-1.1-.6-.7zm-21.4 42.3c-11.3 10.7-23.7 17.3-38.6 21.7-.4.1-.2.6.2.6 14.8-2.3 29.1-10.6 39.1-21.6.3-.4-.3-1.1-.7-.7zm-481-48.1c-16.7 0-33.2 4.2-48.8 10-13.1 4.8-27.4 11.1-37.6 20.9-.4.4.2.9.6.6 11.1-9 24.1-15.3 37.3-20.4 15.4-5.9 32-10.1 48.5-10.4.5 0 .5-.7 0-.7zm18.2 189.3c32.8-42.5 76.4-75.7 126.1-96 56.2-22.9 116.6-25.2 176.2-17.2 60.2 8.1 118.6 25.8 178.6 35.5 56.6 9.1 115.5 12.4 171.6-1.3 1.2-.3.7-2.1-.5-1.8-60 14.6-123 9.7-183.2-.8-62.1-10.8-122.6-29.1-185.5-35.5-56.4-5.8-112.7 0-165 22.6-46.8 20.3-88.7 52.8-119.2 93.8-.4.7.5 1.2.9.7z" id="Path" fill="url(#linearGradient-1)"/><path d="M800.6 558c44.5-33.2 92.6-61.7 146.5-76.3 43.8-11.9 89.3-13 134.3-8.7 23.6 2.3 47 5.9 70.4 9.9 31.1 5.3 61.7 12.8 92.7 18.7 25.1 4.8 49.6 7.6 75.2 6.6 24.6-.9 49.4-4.1 73.4-9.6 8.8-2 17.5-4.6 26-7.8 1-.4.6-1.9-.4-1.6-22.4 8.1-46.4 12.2-70.1 14.9-23.5 2.7-47.6 3.8-71.1 1-32-3.7-63.4-11.9-94.9-18.3-25-5.1-50.2-9.2-75.4-12.6-43.9-5.9-88.5-7.8-132.3-.2-50.1 8.7-96.8 30.1-139.2 57.8-12.2 8-24 16.6-35.5 25.6-.3.3.1.9.4.6z" id="Path" fill="url(#linearGradient-1)"/><path d="M861.6 552.9c51.8-27.8 107.6-45.9 166.2-52.2 28.5-3.1 57.4-3.2 86-.6 23 2.1 45.4 6.9 68 11.1 33.9 6.4 68.1 10.4 102.6 10.5 45.8.2 93.4-6 136.5-21.8.8-.3.5-1.6-.4-1.4-30.2 8.9-60.4 16.1-91.9 19.3-26.2 2.6-52.6 2.7-78.8.8-21.6-1.5-43.1-4.6-64.4-8.5-21-3.8-41.8-8.4-63.1-10.9-89-10.2-183.4 7.8-261.2 52.6-.6.5-.1 1.4.5 1.1z" id="Path" fill="url(#linearGradient-1)"/><path d="M907.8 549.8c30.2-8.8 60-18 90.9-24 31.1-6 62.7-9.2 94.4-8.1 34.5 1.2 68.2 10.6 102.5 14.4 35.6 4 71.6 5.1 107.3 2.6 40.5-2.8 81.5-10.3 118.7-27.1.7-.3.1-1.4-.6-1.1-47.3 20.2-99 27.2-150.1 27.8-36.7.4-73.6-2.4-109.7-8.6-11-1.9-21.8-4.5-32.8-6.2-24.5-3.8-49.5-4.3-74.2-2.6-24.4 1.7-48.5 5.7-72.4 11-25 5.6-50.1 12.4-74.2 21.1-.3.3-.2.9.2.8zm516-34.4c-16.9 10-34.5 18.5-52.8 25.6-17.9 6.9-36.2 11.3-54.8 15.9-.5.1-.3.8.2.8 19.3-2.8 38.4-9.1 56.6-16.1 17.8-6.9 34.9-15.5 51.2-25.5.4-.3 0-1-.4-.7zm-2.7 10c-13.6 21.6-39.4 31.3-62.2 40.3-.5.2-.3 1 .2.8 12.9-3.3 25.3-9.4 36.7-16.2 10.1-6 21-13.5 26-24.5.3-.4-.4-.8-.7-.4z" id="Path" fill="url(#linearGradient-1)"/><path d="M1009.4 547.8c15.1-5.1 30.7-8.4 46.6-9.4 13.1-.9 27.8-.9 40.5 2.6 8.5 2.3 16.7 5.6 24.8 8.9 7.4 3 16.2 6.1 22.5 11.1.5.4 1.3-.2.8-.8-4.9-5.2-13.2-7.8-19.6-10.5-9.2-3.9-18.6-7.5-28.1-10.2-12.4-3.5-26.4-3.2-39.1-2.6-16.6.9-33.1 4.3-48.6 10.1-.3.3-.2 1 .2.8zm415.3-382.1c-127.3-3.9-236.9-74.5-352.6-118.9C959 3.2 835.3-9 715.8 11.2c-26.3 4.5-52.5 10.4-78.1 18.3-1 .3-.6 1.8.4 1.6C697.2 14.2 757.8 4.5 819.4 3.5c61.3-1 122.7 6.6 182 22.1 120.7 31.7 226.1 104.8 348.2 132 24.7 5.5 49.8 8.8 75 9.2.8 0 .8-1.1.1-1.1z" id="Path" fill="url(#linearGradient-1)"/><path d="M1433.7 182c-127.8 15-241.4-58.9-353.6-107.6-55.1-24-112.5-40.8-172.3-47.6-59.3-6.8-119.7-3.7-178.1 8.4-24.1 5-48.1 11.5-71.2 20.1-1 .4-.6 1.9.4 1.6 58-19 117.4-30.3 178.6-31.2 60.7-.9 121.5 8.2 179.3 26.8 117.5 37.7 220.6 115.7 345.3 130.7 23.7 2.9 47.8 3 71.5 0 .9-.1.9-1.3.1-1.2z" id="Path" fill="url(#linearGradient-1)"/><path d="M1426.2 199.9c-61.9 6-124.1.1-183.2-19.7-59.4-20-112.6-54.2-169.4-80.2-108.4-49.7-233-74.2-349.1-37.4-12 3.8-23.9 8.3-35.3 13.6-1.1.5-.1 2.1 1 1.7 56.3-24.3 117.1-33.6 178.2-30.3 61.7 3.4 122.1 20 179.1 43.3 57.4 23.5 110.1 56.8 167.3 80.7 56.2 23.5 117.5 34.7 178.4 32.2 11-.5 22.1-1.4 33-2.8.7-.1.7-1.2 0-1.1z" id="Path" fill="url(#linearGradient-1)"/><path d="M1428.4 213.1c-63.9 10-127.9 2.4-189.6-15.9-60.4-17.9-117.1-45.7-173-74.3-27.4-14-54.9-27.8-84.1-37.5-27.3-9.1-55.7-14.8-84.3-17.5-57.4-5.4-117.4 2.3-171 23.7-1.6.7-3.3 1.3-4.9 2-.9.4-.5 1.9.4 1.5 55.4-21.5 114.4-30.5 173.7-25.5 29.7 2.5 59 8.7 87.2 18.2 30.3 10.1 58.7 24.9 87.1 39.4 54.9 28.1 111 54.6 170.3 72.2 58.6 17.4 122.2 25.9 182.9 15.7 1.9-.3 3.7-.7 5.6-1 .5-.3.2-1.1-.3-1z" id="Path" fill="url(#linearGradient-1)"/><path d="M1427.9 226.5c-61.5 14-123.6 7.1-183.7-9.9-60-17-116.5-43.8-173.9-67.6-51.8-21.5-104.7-40.6-160.5-48.4-51.2-7.2-106.1-5-154 16-.6.3-.2 1.3.4 1 56.5-21.9 116.8-22.9 175.9-11.5 61 11.8 118.6 36.5 175.4 60.8 51.4 22 103.1 43.9 157.6 57.2 52.8 12.8 110 17.6 163 3.3.6-.1.3-1-.2-.9z" id="Path" fill="url(#linearGradient-1)"/><path d="M1424 240.3c-29.8 9.4-60.3 13.2-91.5 11.8-32-1.4-63.6-8.2-94.4-16.7-61.2-16.9-120.7-39.7-179.6-63-41.7-16.5-83.8-32.9-127.5-43.4-1.2-.3-1.7 1.5-.5 1.8 60.5 15.4 117.6 40.4 175.8 62.6 30 11.4 60.4 21.9 91 31.8 30.3 9.8 61 18.7 92.5 24.1 44 7.5 92.2 7.8 134.5-8.4.2-.2.1-.7-.3-.6z" id="Path" fill="url(#linearGradient-1)"/><path d="M1427.1 254.2c-53.5 18.2-111.5 17.6-167.2 11.9-44.8-4.6-88.6-15.3-131-30.5-70.5-25.4-137.9-63.7-212.7-75.4-.8-.1-1.2 1.1-.4 1.3 20.2 4.6 40.3 9.4 60.1 15.7 18.5 6 36.6 12.9 54.6 20.3 36 14.7 71.5 30.8 108.3 43.4 41.2 14.2 83.9 23.5 127.3 27.6 53.6 5 110 4.9 161.3-13.2.7-.2.4-1.3-.3-1.1zm-1.3 13.7c-48.9 20.2-102.4 25.8-154.4 16.8-.8-.1-1.2 1.1-.3 1.3 51.9 9.6 106.5 3.2 155-17.5.3-.1 0-.7-.3-.6z" id="Path" fill="url(#linearGradient-1)"/><path d="M1424.9 280.8c-22.7 11.1-45.3 20-70.5 24-12.3 2-24.7 2.7-37.1 2.4-13.1-.3-25.8-2.4-38.6-4.5-.9-.1-1.3 1.1-.4 1.4 23.9 6.4 50.5 5.9 74.8 2.3 24.8-3.6 50.8-11.6 71.9-25.3.3-.2.1-.4-.1-.3z" id="Path" fill="url(#linearGradient-1)"/><path d="M1426 294.1c-19.6 16.1-46.8 21.5-71.2 25.5-13.4 2.2-27.1 3.2-40.7 3-7.3-.1-14.7-.7-22-1.7-6.8-.9-13.3-2.8-20-3.9-.8-.1-1.1.9-.3 1.2 12.4 4.7 27.3 5.4 40.5 5.8 13.7.4 27.5-.8 41-2.9 24.9-3.8 53.8-9.5 73.2-26.6.4-.2-.1-.7-.5-.4zm-.2 16.8c-24 12.5-49.4 21.7-76 26.5-27.3 4.9-54.5 4.2-81.9.4-.9-.1-1.4 1.3-.4 1.5 52.9 10.2 112.4-.6 158.6-28 .2-.2-.1-.6-.3-.4z" id="Path" fill="url(#linearGradient-1)"/><path d="M1427.5 323.8c-12.2 6.5-23.7 13.4-36.7 18.4-12.4 4.7-25.2 8.1-38.3 10.4-27.6 4.9-55.1 3.8-82.8.4-.8-.1-1 1.3-.2 1.5 26.8 4.8 55 4.4 81.8-.1 14.2-2.3 28-6.2 41.4-11.3 12.1-4.7 25-10.5 35.2-18.7.4-.3-.1-.7-.4-.6z" id="Path" fill="url(#linearGradient-1)"/><path d="M1428 336.4c-24 13.9-48.9 25.7-75.8 32.8-13.9 3.6-28.2 5.8-42.5 6.5-14.6.8-28.6-1.1-43.1-2.9-.7-.1-.9 1.1-.2 1.3 13.2 3.5 27.8 3.8 41.4 3.4 14.5-.5 29-2.8 43.1-6.2 27.4-6.7 53.8-18.7 77.8-33.6.8-.6.1-1.7-.7-1.3z" id="Path" fill="url(#linearGradient-1)"/><path d="M1427.2 351c-13.2 7-25.7 15.2-39.4 21.5-14.1 6.5-28.7 11.7-43.6 15.7-29.6 8-59.4 9.2-89.8 5.9-.7-.1-.9 1.2-.2 1.3 29.8 5.3 61.3 1.8 90.3-5.9 14.5-3.8 28.7-9 42.4-15.2 13.9-6.2 28.8-13.3 40.8-22.7.4-.2-.1-.8-.5-.6z" id="Path" fill="url(#linearGradient-1)"/><path d="M1426.1 365.7c-11.3 8.4-22.2 16.5-34.8 23-13.4 6.8-27.6 11.9-42.2 15.6-16.3 4.2-33.1 6.4-49.8 7.4-16.7 1-33.1 0-49.8-.3-1 0-.9 1.4 0 1.5 17 1.9 34.6 1.5 51.7.4 16.3-1 32.5-3.4 48.4-7.4 14.2-3.6 28-8.6 41.1-15.1 12.7-6.3 26.1-14.1 36.2-24.2.4-.4-.3-1.3-.8-.9z" id="Path" fill="url(#linearGradient-1)"/><path d="M1427.8 378.5c-25.4 18.6-52.4 34.1-82.6 43.4-33.5 10.3-68.5 11.5-102.7 4.1-1.1-.2-1.5 1.4-.5 1.7 64.6 16.5 135.8-7.1 186.3-48.3.5-.5-.1-1.2-.5-.9z" id="Path" fill="url(#linearGradient-1)"/><path d="M1426.7 390.2c-13.4 10.9-26.9 20.9-42.3 29.1-15.2 8-31.3 14-47.9 18.4-18.6 4.9-37.8 7.2-56.9 7.6-9.5.2-19-.2-28.4-1-10.1-.9-20-3-30-4.1-.9-.1-1 1.3-.2 1.5 9.1 2.5 19 3.4 28.3 4.3 10.1 1 20.2 1.3 30.3 1.2 19.3-.3 38.7-2.9 57.4-7.7 32.7-8.3 66.3-24.4 90.5-48.3.6-.7-.2-1.5-.8-1z" id="Path" fill="url(#linearGradient-1)"/><path d="M1425.7 403.7c-12.7 15.3-29.3 25-47 33.6-18.3 8.8-37.6 15.4-57.5 19.4-19.3 4-39.1 5.1-58.7 3.6-10.1-.8-20-2.5-29.9-4.8-10-2.4-19.2-6.3-29-9.4-.8-.3-1.4 1-.6 1.4 8.4 4.5 18.1 7.1 27.3 9.5 9.9 2.6 20.1 4.1 30.3 5.1 20.4 1.9 41 .4 61-3.6s39.4-10.9 57.8-19.7c17.7-8.5 34.8-18.5 47-34.3.4-.6-.3-1.2-.7-.8z" id="Path" fill="url(#linearGradient-1)"/><path d="M1425.6 418.4c-16.1 16.1-33.7 28.4-54.9 36.9-11.3 4.5-23.1 7.8-35.1 10.3-12.1 2.5-24.5 3.3-36.6 5.3-.8.1-.6 1.4.2 1.4 12.2-.1 24.9-2.6 36.9-5 12.5-2.5 24.7-6.2 36.6-10.9 19.8-8 40.1-20.2 53.8-37 .4-.8-.3-1.6-.9-1zm.4 14.5c-8.1 9.3-16.8 17.7-27 24.8-4.8 3.4-9.9 6.4-15.1 9.1-5.2 2.7-10.9 4.4-16.1 7.3-.5.3-.1.9.4.9 5.7-1 11.4-4.1 16.5-6.7 5.7-2.9 11.2-6.4 16.4-10.1 9.6-6.9 18.4-15.3 25.4-24.8.4-.4-.2-.8-.5-.5zm-1.1 20c-3.7 3.2-7.2 6.5-11.2 9.2-3.7 2.5-7.7 4.3-11.5 6.5-.6.3-.2 1.2.4 1 8.6-2.4 17.8-9.1 23.2-16.1.4-.5-.5-1-.9-.6zM879.3 121.3c-24.2-1.7-50.5-.8-74.2 5.2-.5.1-.3.8.2.7 12.6-1.7 25-4 37.7-4.9 12.1-.9 24.2-.9 36.3-.6.3 0 .3-.4 0-.4zm18.7 62.2c30.1 2.7 57.7 11.8 84.8 24.8 25.1 12 49.9 24 76 33.7 26.3 9.7 53.3 17.5 80.8 23.5 27.3 6 55.5 10.7 83.4 12.1.8 0 .8-1.1 0-1.2-28.5-3-56.8-6.4-84.8-12.5-27.4-6-54.4-14-80.7-23.7-27.2-10-52.9-22.9-79.2-35.2-25.4-11.9-52.1-20.1-80.3-22-.4-.1-.4.5 0 .5zm293.8 111.2c-29.5-2.1-59.1-4.4-88.1-10.6-27-5.8-52.5-16.1-77.3-27.9-23-11-45.5-23-68.9-33.1-22.4-9.6-46.5-18.3-71-20-.8-.1-1 1.3-.2 1.4 25.6 3.9 49.6 11 73.4 21.3 23.9 10.3 46.9 22.6 70.5 33.7 24.1 11.3 48.9 20.7 75 26.2 28.5 6.1 57.6 8.2 86.6 9.3.2.1.2-.3 0-.3zm-61.6 13.8c-23.5.6-47-1.5-70-6.9-23.8-5.5-46.2-15-67.7-26.5-40.2-21.5-80.7-50.7-128-51.6-1 0-1 1.5 0 1.5 49.4 3 89.7 31.9 132.1 54.2 41.1 21.5 87.1 32.9 133.6 29.7.2-.1.2-.4 0-.4z" id="Path" fill="url(#linearGradient-1)"/><path id="Rectangle" fill="#FFF" opacity=".365" d="M6 0h1423v567H6z"/></g></g></g></svg>