  <svg width="704px" height="308px" viewBox="0 0 704 308" version="1.1" xmlns="http://www.w3.org/2000/svg" xmlns:xlink="http://www.w3.org/1999/xlink">
    <g id="Brand-Guideline" stroke="none" stroke-width="1" fill="none" fill-rule="evenodd">
        <g id="INTRODUCTION" transform="translate(-498.000000, -147.000000)">
            <g id="Group" transform="translate(498.000000, 147.000000)">
                <g id="ff-icon-worldmap-pacific-black" fill="#17292E" fill-rule="nonzero">
                    <polygon id="Shape" style="mix-blend-mode: multiply;" points="277.323692 259.101623 265 242.356391 270.373813 224.142613 288.356149 215.407629 292.989402 209.571591 301.686244 203.163393 316.193641 203.754626 311.560389 215.407629 324.320821 220.652434 326.637448 202 332.448002 206.653572 339.986531 224.733846 351 238.713635 344.183043 264.632508 329.542725 269 315.035328 259.387703 301.116582 253.704241 277.323692 259.101623"></polygon>
                    <polygon id="Shape" style="mix-blend-mode: multiply;" points="582 182.606936 592.347418 187 594 177.26975 585.849765 177"></polygon>
                    <polygon id="Shape" style="mix-blend-mode: multiply;" points="379.197007 258.899721 388.413965 262 392.802993 257.729805 394 248.389972 383.206983 241 378 244.899721 379.197007 258.899721"></polygon>
                    <polygon id="Shape" style="mix-blend-mode: multiply;" points="356 291 367.10841 288.938206 385 266.855814 373.64389 262"></polygon>
                    <polygon id="Shape" style="mix-blend-mode: multiply;" points="405 191.822727 391.284024 186 386 198.886364 394.357002 207 405 191.822727"></polygon>
                    <polygon id="Shape" style="mix-blend-mode: multiply;" points="410 52 400 53.9373368 400.89317 58.9086162 408.406305 59 410 52"></polygon>
                    <polygon id="Shape" style="mix-blend-mode: multiply;" points="457.754035 120.180478 435.63606 118 424 127.992275 458 145 457.754035 120.180478"></polygon>
                    <polygon id="Shape" style="mix-blend-mode: multiply;" points="313.713043 191.520168 318.611594 198.072269 324.734783 198.40084 332.346377 196.564706 342.162319 199 350 195.115126 335.586957 190.167227 332.666667 182.957983 314.014493 178.995798 300.242029 176 298 188.621008 313.713043 191.520168"></polygon>
                    <polygon id="Shape" style="mix-blend-mode: multiply;" points="284.244318 160.472789 290.889773 164 294 163.556689 293.111364 148.985261 286.465909 140.600907 286.910227 130 277 141.063492 278.931818 152.878685 284.244318 160.472789"></polygon>
                    <polygon id="Shape" style="mix-blend-mode: multiply;" points="265.332341 166.537118 258 166.537118 258.376984 173.027656 262.693452 182.564774 270.082341 183 277 166.972344 268.367063 157 265.332341 166.537118"></polygon>
                    <polygon id="Shape" style="mix-blend-mode: multiply;" points="249.337052 200 255 189.245595 238.414343 165 232 172.709251"></polygon>
                    <polygon id="Shape" style="mix-blend-mode: multiply;" points="290 198.444444 290 193.103943 255.83294 189 250 199 290 198.444444"></polygon>
                    <polygon id="Shape" style="mix-blend-mode: multiply;" points="296 177.663934 266 169 270.014221 183 292.800259 182.081967"></polygon>
                    <polygon id="Shape" style="mix-blend-mode: multiply;" points="256.262612 157.781182 256.262612 135.610044 259.311089 129.516778 277.354263 128.074135 285.947158 108.199836 283.3369 96.4688738 290.74851 88.1926612 295.111643 98.6328376 302.466094 100.986623 303.418743 85.5921082 309.953916 78.6256633 333.10329 64.2751663 335.713548 56.8911143 323.500587 48.6149017 338.34286 42.1040281 365.398095 36.8839399 354.918954 46.0143487 350.99404 59.4916673 352.746914 65.5849339 367.589188 51.6710261 371.514102 40.3576713 378.944765 40.3576713 393.34882 29.4809058 397.273734 27.3169419 406 28.6077274 406 24.6974068 380.240368 16.8767656 366.274532 18.167551 342.267774 11.2200882 326.987282 15.566998 320.871275 10.783499 305.152565 11.6566774 300.351213 6 266.741752 7.30976758 167.647191 16.0035872 147.2605 14.6938196 125.292412 26.8803527 104.77235 36.0107615 108.259045 43.8314027 117.880802 46.8875271 129.655545 38.6113146 146.250692 30.3540841 137.086208 46.8875271 120.929279 52.1076153 110.450138 51.6710261 106.963443 47.3241163 101.285654 50.3612585 85.128725 58.1818997 71.1628889 55.5813467 61.9984044 60.8014349 65.4851002 66.4581122 63.0272655 72.2097003 46.7179126 66.837755 36.6769909 81.188252 41.0401239 85.1175547 50.3189263 87.3954114 70.2864517 78.1890741 78.8983997 76.0061281 76.8406776 90.8121964 84.6905064 92.121964 92.1211695 74.2787535 97.3607396 80.37202 95.6078652 89.939018 100.409217 95.5956954 106.963443 92.121964 119.176404 91.2487856 117.880802 102.543158 109.135483 106.035872 103.895913 104.289515 89.4918579 100.379194 82.937632 106.035872 75.0878033 103.416337 69.8482331 100.379194 48.8899526 101.252373 38.4108123 98.1962484 6.99244451 120.386369 0 141.266721 4.36313295 151.706898 14.4040546 167.803752 43.2121639 166.493984 52.3957013 168.221359 50.2046084 177.788357 61.5601858 198.668709 59.8073115 219.549062 88.6154207 260 104.334131 257.399447 112.203013 233.46297 110.01192 226.078918 119.176404 209.545475 114.813271 185.191391 137.086208 161.710485 139.258248 154.74404 122.243934 155.617218 113.060397 134.300277 105.210568 111.692549 109.135483 106.035872 122.682153 122.986922 130.531982 139.956954 144.059599 143.430685 160.216528 128.643599 148.441785 118.640012 141.449341 108.199836 149.299169 97.3420522 163.265005 114.729691 180.298372 129.516778 189.462856 160.400717 199.065559 159.09095 204.743348 144.740453 216.537144 127.789403 224.825191 126.479635 235.304332 139.956954 245.783472 165.620806 256.262612 157.781182"></polygon>
                    <polygon id="Shape" style="mix-blend-mode: multiply;" points="66.6530055 50 73.2322404 48.5 77 38 70.420765 39.2073171 64.4535519 44 56.6311475 44 56 49.6890244 66.6530055 50"></polygon>
                    <polygon id="Shape" style="mix-blend-mode: multiply;" points="137.958678 242 144 219.353003 140.507674 206 128.164109 215.559536 127 240.748156"></polygon>
                    <polygon id="Shape" style="mix-blend-mode: multiply;" points="344.053571 87 348 78.5304878 336.392857 75 335 83.7073171 344.053571 87"></polygon>
                    <polygon id="Shape" style="mix-blend-mode: multiply;" points="331.874866 87 326.137968 95.6844584 308.657754 102.579278 305 106.66719 308.137968 111 315.973262 107.684458 335.012834 102.070644 341 90.3155416"></polygon>
                    <polygon id="Shape" style="mix-blend-mode: multiply;" points="432.289679 44.341663 417.75076 50.1394851 417.75076 56.5265941 438.093828 47.8203563 458.513017 33.3923334 481.710585 52.458614 493.337915 59.4350098 510.769393 91.3705545 526.469142 104.734059 536.345712 124.484673 541.008061 126.214515 542.168891 114.599862 552.045461 127.963366 569.495969 139.57802 586.356548 142.486435 606.699617 159.328633 614.844456 166.875307 609.021277 190.104614 618.916876 216.812614 624.721026 224.948574 605.538787 265.609366 593.321528 278.953862 581.694198 295.79606 586.356548 308 597.393947 305.680871 597.983877 296.955624 613.093696 281.862277 630.544205 269.658337 663.085503 244.699188 667.157923 235.99295 684.018501 231.92497 704 200.673758 700.61266 185.732486 675.302762 179.079247 670.659442 167.464594 650.887274 151.78196 634.616625 151.78196 631.705035 145.394851 613.093696 154.101089 591.589798 131.44206 579.372539 132.031346 570.066869 125.644237 570.656799 109.961604 592.750628 107.642475 598.554777 120.416693 606.699617 116.938 599.715607 102.41493 606.109687 93.6896834 607.289547 78.026059 614.254526 76.2772078 618.916876 69.300812 611.342936 61.7541386 620.648606 55.9563165 606.109687 46.6607918 579.962469 40.8439605 565.99445 38.5248316 567.745209 53.0479008 557.27871 46.071505 541.597991 39.9885441 536.497952 26.7771134 539.847231 21.6826336 570.162019 23.2604016 557.46901 10.5812299 529.380732 6 485.783005 9.55473028 459.788027 15.0103859 425.895599 11.8168314 416 26.3399005 425.895599 37.954554 432.289679 44.341663"></polygon>
                    <polygon id="Shape" style="mix-blend-mode: multiply;" points="568 6.17539485 572.959839 13.5743973 592.188755 14.0141313 608.804217 23.2103076 625.419679 33.2859518 650.333333 46 656.437751 44.241064 650.333333 38.1039069 663 28.4679967 663 23.6500416 635.89257 9.19617623 633.717871 5.25768911 601.803213 0 573.837349 7.49459684"></polygon>
                    <polygon id="Shape" style="mix-blend-mode: multiply;" points="613.711167 135 623 126.54698 605.735516 124 600 127.82047"></polygon>
                    <polygon id="Shape" style="mix-blend-mode: multiply;" points="627.935606 128 620 139 639.69697 136.315254 645 130.889831 627.935606 128"></polygon>
                </g>
                <circle id="Oval" stroke="#7FFFD4" stroke-width="5" cx="601" cy="109" r="19"></circle>
                <circle id="Oval" stroke="#B91DFF" stroke-width="5" cx="601.5" cy="108.5" r="32.5"></circle>
                <circle id="Oval" stroke="#C33C54" stroke-width="5" cx="601.5" cy="108.5" r="45.5"></circle>
            </g>
        </g>
    </g>
</svg>
