<svg viewBox="0 0 469 84" preserveAspectRatio="xMidYMin slice">
    <g id="Symbols" stroke="none" stroke-width="1" fill="none" fill-rule="evenodd">
        <g id="Miami-Rising-Minimal-Dark">
            <g id="Group-2">
                <path d="M20.8882231,84 L12.8363382,31.2 L12.3695623,27.6571429 L11.6693984,27.6571429 L11.6693984,84 L0,84 L0,0 L15.4036059,0 L22.8720209,38.4 L23.4554908,42.8571429 L23.6888787,42.8571429 L24.2723487,38.4 L31.7407636,0 L47.1443695,0 L47.1443695,84 L35.4749711,84 L35.4749711,27.6571429 L34.7748072,27.6571429 L34.3080313,31.2 L26.2561464,84 L20.8882231,84 Z M61.5304606,0 L75.0371471,0 L75.0371471,84 L61.5304606,84 L61.5304606,0 Z M80.3451648,84 L93.2981971,0 L108.701803,0 L121.654835,84 L109.401967,84 L107.068087,66.8571429 L94.9319128,66.8571429 L92.5980332,84 L80.3451648,84 Z M101.700164,27.3142857 L101.350082,25.1428571 L100.649918,25.1428571 L100.299836,27.3142857 L96.6823226,53.8285714 L105.317677,53.8285714 L101.700164,27.3142857 Z M151.091571,84 L143.039686,31.2 L142.57291,27.6571429 L141.872746,27.6571429 L141.872746,84 L130.203348,84 L130.203348,0 L145.606954,0 L153.075369,38.4 L153.658839,42.8571429 L153.892227,42.8571429 L154.475697,38.4 L161.944112,0 L177.347717,0 L177.347717,84 L165.678319,84 L165.678319,27.6571429 L164.978155,27.6571429 L164.511379,31.2 L156.459494,84 L151.091571,84 Z M189.39705,0 L202,0 L202,84 L189.39705,84 L189.39705,0 Z" id="MIAMI" fill="#FFFFFF" opacity="0.973660714" style="mix-blend-mode: hard-light;"></path>
                <path d="M268.007213,83.0614525 L254.57795,83.0614525 C253.858526,80.9497207 253.378909,79.6592179 253.378909,72.972067 L253.378909,60.0670391 C253.378909,52.4413408 250.741018,49.6256983 244.745812,49.6256983 L240.189455,49.6256983 L240.189455,83.0614525 L227,83.0614525 L227,0.938547486 L246.904086,0.938547486 C260.573157,0.938547486 266.448459,7.15642458 266.448459,19.8268156 L266.448459,26.2793296 C266.448459,34.726257 263.690664,40.122905 257.815362,42.8212291 L257.815362,43.0558659 C264.410089,45.7541899 266.568364,51.8547486 266.568364,60.4189944 L266.568364,73.0893855 C266.568364,77.0782123 266.688268,80.0111732 268.007213,83.0614525 Z M246.544374,12.6703911 L240.189455,12.6703911 L240.189455,37.8938547 L245.345332,37.8938547 C250.261402,37.8938547 253.259005,35.7821229 253.259005,29.2122905 L253.259005,21.1173184 C253.259005,15.2513966 251.220635,12.6703911 246.544374,12.6703911 Z M277.989929,83.0614525 L277.989929,0.938547486 L291.179384,0.938547486 L291.179384,83.0614525 L277.989929,83.0614525 Z M301.881525,20.6480447 C301.881525,7.50837989 308.476252,0 321.305994,0 C334.135736,0 340.730463,7.50837989 340.730463,20.6480447 L340.730463,23.2290503 L328.260434,23.2290503 L328.260434,19.8268156 C328.260434,13.9608939 325.862351,11.7318436 321.665706,11.7318436 C317.469062,11.7318436 315.070979,13.9608939 315.070979,19.8268156 C315.070979,25.8100559 317.70887,30.2681564 326.341968,37.6592179 C337.373148,47.1620112 340.850368,53.9664804 340.850368,63.3519553 C340.850368,76.4916201 334.135736,84 321.18609,84 C308.236444,84 301.521812,76.4916201 301.521812,63.3519553 L301.521812,58.3072626 L313.991842,58.3072626 L313.991842,64.1731844 C313.991842,70.0391061 316.629733,72.150838 320.826378,72.150838 C325.023022,72.150838 327.660913,70.0391061 327.660913,64.1731844 C327.660913,58.1899441 325.023022,53.7318436 316.389925,46.3407821 C305.358744,36.8379888 301.881525,30.0335196 301.881525,20.6480447 Z M351.192796,83.0614525 L351.192796,0.938547486 L364.382251,0.938547486 L364.382251,83.0614525 L351.192796,83.0614525 Z M404.94052,83.0614525 L388.753463,23.5810056 L388.513654,23.5810056 L388.513654,83.0614525 L376.643145,83.0614525 L376.643145,0.938547486 L393.189915,0.938547486 L406.499274,50.0949721 L406.739082,50.0949721 L406.739082,0.938547486 L418.489687,0.938547486 L418.489687,83.0614525 L404.94052,83.0614525 Z M450.534764,49.0391061 L450.534764,37.3072626 L469,37.3072626 L469,63.3519553 C469,76.4916201 462.285369,84 449.335722,84 C436.386076,84 429.671445,76.4916201 429.671445,63.3519553 L429.671445,20.6480447 C429.671445,7.50837989 436.386076,0 449.335722,0 C462.285369,0 469,7.50837989 469,20.6480447 L469,28.6256983 L456.52997,28.6256983 L456.52997,19.8268156 C456.52997,13.9608939 453.892079,11.7318436 449.695435,11.7318436 C445.49879,11.7318436 442.860899,13.9608939 442.860899,19.8268156 L442.860899,64.1731844 C442.860899,70.0391061 445.49879,72.150838 449.695435,72.150838 C453.892079,72.150838 456.52997,70.0391061 456.52997,64.1731844 L456.52997,49.0391061 L450.534764,49.0391061 Z" id="RISING" fill="#ffffff" style="mix-blend-mode: luminosity;"></path>
            </g>
        </g>
    </g>
</svg>
